<?xml version="1.0" encoding="UTF-8" standalone="no"?>
<!DOCTYPE svg PUBLIC "-//W3C//DTD SVG 1.1//EN"
 "http://www.w3.org/Graphics/SVG/1.1/DTD/svg11.dtd">
<!-- Generated by graphviz version 2.43.0 (0)
 -->
<!-- Title: buzzer.h Pages: 1 -->
<svg width="349pt" height="140pt"
 viewBox="0.00 0.00 349.00 140.00" xmlns="http://www.w3.org/2000/svg" xmlns:xlink="http://www.w3.org/1999/xlink">
<g id="graph0" class="graph" transform="scale(1 1) rotate(0) translate(4 136)">
<title>buzzer.h</title>
<!-- Node1 -->
<g id="node1" class="node">
<title>Node1</title>
<g id="a_node1"><a xlink:title=" ">
<polygon fill="#bfbfbf" stroke="black" points="67.5,-112.5 67.5,-131.5 124.5,-131.5 124.5,-112.5 67.5,-112.5"/>
<text text-anchor="middle" x="96" y="-119.5" font-family="Helvetica,sans-Serif" font-size="10.00">buzzer.h</text>
</a>
</g>
</g>
<!-- Node2 -->
<g id="node2" class="node">
<title>Node2</title>
<g id="a_node2"><a xlink:href="buzzer_8cpp.html" target="_top" xlink:title=" ">
<polygon fill="none" stroke="black" points="0,-56.5 0,-75.5 68,-75.5 68,-56.5 0,-56.5"/>
<text text-anchor="middle" x="34" y="-63.5" font-family="Helvetica,sans-Serif" font-size="10.00">buzzer.cpp</text>
</a>
</g>
</g>
<!-- Node1&#45;&gt;Node2 -->
<g id="edge1" class="edge">
<title>Node1&#45;&gt;Node2</title>
<path fill="none" stroke="midnightblue" d="M78.25,-105.54C67.19,-95.91 53.37,-83.87 44.14,-75.83"/>
<polygon fill="midnightblue" stroke="midnightblue" points="76.2,-108.4 86.04,-112.32 80.8,-103.12 76.2,-108.4"/>
</g>
<!-- Node3 -->
<g id="node3" class="node">
<title>Node3</title>
<g id="a_node3"><a xlink:href="preferences_8cpp.html" target="_top" xlink:title=" ">
<polygon fill="none" stroke="black" points="37.5,-0.5 37.5,-19.5 132.5,-19.5 132.5,-0.5 37.5,-0.5"/>
<text text-anchor="middle" x="85" y="-7.5" font-family="Helvetica,sans-Serif" font-size="10.00">preferences.cpp</text>
</a>
</g>
</g>
<!-- Node1&#45;&gt;Node3 -->
<g id="edge2" class="edge">
<title>Node1&#45;&gt;Node3</title>
<path fill="none" stroke="midnightblue" d="M94.13,-102.35C91.73,-78.25 87.63,-37.31 85.86,-19.59"/>
<polygon fill="midnightblue" stroke="midnightblue" points="90.66,-102.77 95.14,-112.37 97.62,-102.07 90.66,-102.77"/>
</g>
<!-- Node4 -->
<g id="node4" class="node">
<title>Node4</title>
<g id="a_node4"><a xlink:href="fotobox_8h.html" target="_top" xlink:title=" ">
<polygon fill="none" stroke="black" points="145.5,-56.5 145.5,-75.5 208.5,-75.5 208.5,-56.5 145.5,-56.5"/>
<text text-anchor="middle" x="177" y="-63.5" font-family="Helvetica,sans-Serif" font-size="10.00">fotobox.h</text>
</a>
</g>
</g>
<!-- Node1&#45;&gt;Node4 -->
<g id="edge3" class="edge">
<title>Node1&#45;&gt;Node4</title>
<path fill="none" stroke="midnightblue" d="M117.57,-106.62C132.36,-96.76 151.51,-83.99 164.02,-75.65"/>
<polygon fill="midnightblue" stroke="midnightblue" points="115.39,-103.86 109.01,-112.32 119.28,-109.69 115.39,-103.86"/>
</g>
<!-- Node4&#45;&gt;Node3 -->
<g id="edge6" class="edge">
<title>Node4&#45;&gt;Node3</title>
<path fill="none" stroke="midnightblue" d="M153.45,-51.18C136.52,-41.24 114.22,-28.15 99.74,-19.65"/>
<polygon fill="midnightblue" stroke="midnightblue" points="151.82,-54.28 162.22,-56.32 155.37,-48.24 151.82,-54.28"/>
</g>
<!-- Node5 -->
<g id="node5" class="node">
<title>Node5</title>
<g id="a_node5"><a xlink:href="fotobox_8cpp.html" target="_top" xlink:title=" ">
<polygon fill="none" stroke="black" points="151,-0.5 151,-19.5 225,-19.5 225,-0.5 151,-0.5"/>
<text text-anchor="middle" x="188" y="-7.5" font-family="Helvetica,sans-Serif" font-size="10.00">fotobox.cpp</text>
</a>
</g>
</g>
<!-- Node4&#45;&gt;Node5 -->
<g id="edge4" class="edge">
<title>Node4&#45;&gt;Node5</title>
<path fill="none" stroke="midnightblue" d="M180.85,-46.1C182.68,-37.14 184.77,-26.86 186.22,-19.75"/>
<polygon fill="midnightblue" stroke="midnightblue" points="177.38,-45.59 178.82,-56.08 184.24,-46.98 177.38,-45.59"/>
</g>
<!-- Node6 -->
<g id="node6" class="node">
<title>Node6</title>
<g id="a_node6"><a xlink:href="fotoboxmac_8mm.html" target="_top" xlink:title=" ">
<polygon fill="none" stroke="black" points="243,-0.5 243,-19.5 341,-19.5 341,-0.5 243,-0.5"/>
<text text-anchor="middle" x="292" y="-7.5" font-family="Helvetica,sans-Serif" font-size="10.00">fotoboxmac.mm</text>
</a>
</g>
</g>
<!-- Node4&#45;&gt;Node6 -->
<g id="edge5" class="edge">
<title>Node4&#45;&gt;Node6</title>
<path fill="none" stroke="midnightblue" d="M204.48,-52.1C225.97,-42.01 255.22,-28.27 273.86,-19.52"/>
<polygon fill="midnightblue" stroke="midnightblue" points="202.79,-49.02 195.22,-56.44 205.76,-55.36 202.79,-49.02"/>
</g>
</g>
</svg>
