<?xml version="1.0" encoding="UTF-8" standalone="no"?>
<!DOCTYPE svg PUBLIC "-//W3C//DTD SVG 1.1//EN"
 "http://www.w3.org/Graphics/SVG/1.1/DTD/svg11.dtd">
<!-- Generated by graphviz version 2.46.1 (20210213.1702)
 -->
<!-- Title: Preferences::applicationAvailable Pages: 1 -->
<svg width="632pt" height="39pt"
 viewBox="0.00 0.00 632.00 39.00" xmlns="http://www.w3.org/2000/svg" xmlns:xlink="http://www.w3.org/1999/xlink">
<g id="graph0" class="graph" transform="scale(1 1) rotate(0) translate(4 35)">
<title>Preferences::applicationAvailable</title>
<!-- Node1 -->
<g id="node1" class="node">
<title>Node1</title>
<g id="a_node1"><a xlink:title="Check if application is installed and available.">
<polygon fill="#bfbfbf" stroke="black" points="502,-0.5 502,-30.5 624,-30.5 624,-0.5 502,-0.5"/>
<text text-anchor="start" x="510" y="-18.5" font-family="Helvetica,sans-Serif" font-size="10.00">Preferences::application</text>
<text text-anchor="middle" x="563" y="-7.5" font-family="Helvetica,sans-Serif" font-size="10.00">Available</text>
</a>
</g>
</g>
<!-- Node2 -->
<g id="node2" class="node">
<title>Node2</title>
<g id="a_node2"><a xlink:href="class_preferences.html#a7b8d051df918f07c7f835088f68bd7b3" target="_top" xlink:title="Check camera application availability and provide help if needed.">
<polygon fill="none" stroke="black" points="319,-6 319,-25 466,-25 466,-6 319,-6"/>
<text text-anchor="middle" x="392.5" y="-13" font-family="Helvetica,sans-Serif" font-size="10.00">Preferences::verifyApplication</text>
</a>
</g>
</g>
<!-- Node1&#45;&gt;Node2 -->
<g id="edge1" class="edge">
<title>Node1&#45;&gt;Node2</title>
<path fill="none" stroke="midnightblue" d="M491.51,-15.5C483.11,-15.5 474.52,-15.5 466.1,-15.5"/>
<polygon fill="midnightblue" stroke="midnightblue" points="491.64,-19 501.64,-15.5 491.64,-12 491.64,-19"/>
</g>
<!-- Node3 -->
<g id="node3" class="node">
<title>Node3</title>
<g id="a_node3"><a xlink:href="class_preferences.html#a36e52663dbf3006c5dcf04d89cfd672d" target="_top" xlink:title="Signal &amp; Slot connect.">
<polygon fill="none" stroke="black" points="164,-6 164,-25 283,-25 283,-6 164,-6"/>
<text text-anchor="middle" x="223.5" y="-13" font-family="Helvetica,sans-Serif" font-size="10.00">Preferences::connectUi</text>
</a>
</g>
</g>
<!-- Node2&#45;&gt;Node3 -->
<g id="edge2" class="edge">
<title>Node2&#45;&gt;Node3</title>
<path fill="none" stroke="midnightblue" d="M308.68,-15.5C300.09,-15.5 291.48,-15.5 283.24,-15.5"/>
<polygon fill="midnightblue" stroke="midnightblue" points="308.74,-19 318.74,-15.5 308.74,-12 308.74,-19"/>
</g>
<!-- Node4 -->
<g id="node4" class="node">
<title>Node4</title>
<g id="a_node4"><a xlink:href="class_preferences.html#a137b56e8d51ff2712666f94263b2e34e" target="_top" xlink:title="Preferences constructor.">
<polygon fill="none" stroke="black" points="0,-6 0,-25 128,-25 128,-6 0,-6"/>
<text text-anchor="middle" x="64" y="-13" font-family="Helvetica,sans-Serif" font-size="10.00">Preferences::Preferences</text>
</a>
</g>
</g>
<!-- Node3&#45;&gt;Node4 -->
<g id="edge3" class="edge">
<title>Node3&#45;&gt;Node4</title>
<path fill="none" stroke="midnightblue" d="M153.64,-15.5C145.17,-15.5 136.56,-15.5 128.19,-15.5"/>
<polygon fill="midnightblue" stroke="midnightblue" points="153.85,-19 163.85,-15.5 153.85,-12 153.85,-19"/>
</g>
</g>
</svg>
