<?xml version="1.0" encoding="UTF-8" standalone="no"?>
<!DOCTYPE svg PUBLIC "-//W3C//DTD SVG 1.1//EN"
 "http://www.w3.org/Graphics/SVG/1.1/DTD/svg11.dtd">
<!-- Generated by graphviz version 2.46.1 (20210213.1702)
 -->
<!-- Title: Preferences::verifyPath Pages: 1 -->
<svg width="628pt" height="47pt"
 viewBox="0.00 0.00 628.00 47.00" xmlns="http://www.w3.org/2000/svg" xmlns:xlink="http://www.w3.org/1999/xlink">
<g id="graph0" class="graph" transform="scale(1 1) rotate(0) translate(4 43)">
<title>Preferences::verifyPath</title>
<!-- Node1 -->
<g id="node1" class="node">
<title>Node1</title>
<g id="a_node1"><a xlink:title="Check if the path is useable.">
<polygon fill="#bfbfbf" stroke="black" points="501,-0.5 501,-19.5 620,-19.5 620,-0.5 501,-0.5"/>
<text text-anchor="middle" x="560.5" y="-7.5" font-family="Helvetica,sans-Serif" font-size="10.00">Preferences::verifyPath</text>
</a>
</g>
</g>
<!-- Node2 -->
<g id="node2" class="node">
<title>Node2</title>
<g id="a_node2"><a xlink:href="class_preferences.html#a9502fa3d4df242273f10f836ec3fc86c" target="_top" xlink:title="Open a QFileDialog to choose the photo directory.">
<polygon fill="none" stroke="black" points="319,-19.5 319,-38.5 465,-38.5 465,-19.5 319,-19.5"/>
<text text-anchor="middle" x="392" y="-26.5" font-family="Helvetica,sans-Serif" font-size="10.00">Preferences::chooseDirectory</text>
</a>
</g>
</g>
<!-- Node1&#45;&gt;Node2 -->
<g id="edge1" class="edge">
<title>Node1&#45;&gt;Node2</title>
<path fill="none" stroke="midnightblue" d="M490.66,-17.86C482.25,-18.82 473.64,-19.8 465.18,-20.76"/>
<polygon fill="midnightblue" stroke="midnightblue" points="491.26,-21.31 500.8,-16.7 490.47,-14.36 491.26,-21.31"/>
</g>
<!-- Node3 -->
<g id="node3" class="node">
<title>Node3</title>
<g id="a_node3"><a xlink:href="class_preferences.html#a36e52663dbf3006c5dcf04d89cfd672d" target="_top" xlink:title="Signal &amp; Slot connect.">
<polygon fill="none" stroke="black" points="164,-0.5 164,-19.5 283,-19.5 283,-0.5 164,-0.5"/>
<text text-anchor="middle" x="223.5" y="-7.5" font-family="Helvetica,sans-Serif" font-size="10.00">Preferences::connectUi</text>
</a>
</g>
</g>
<!-- Node1&#45;&gt;Node3 -->
<g id="edge4" class="edge">
<title>Node1&#45;&gt;Node3</title>
<path fill="none" stroke="midnightblue" d="M490.43,-10C429.27,-10 340.97,-10 283.17,-10"/>
<polygon fill="midnightblue" stroke="midnightblue" points="490.76,-13.5 500.76,-10 490.76,-6.5 490.76,-13.5"/>
</g>
<!-- Node2&#45;&gt;Node3 -->
<g id="edge2" class="edge">
<title>Node2&#45;&gt;Node3</title>
<path fill="none" stroke="midnightblue" d="M308.8,-19.62C300.14,-18.63 291.47,-17.64 283.15,-16.69"/>
<polygon fill="midnightblue" stroke="midnightblue" points="308.61,-23.12 318.94,-20.78 309.4,-16.17 308.61,-23.12"/>
</g>
<!-- Node4 -->
<g id="node4" class="node">
<title>Node4</title>
<g id="a_node4"><a xlink:href="class_preferences.html#a137b56e8d51ff2712666f94263b2e34e" target="_top" xlink:title="Preferences constructor.">
<polygon fill="none" stroke="black" points="0,-0.5 0,-19.5 128,-19.5 128,-0.5 0,-0.5"/>
<text text-anchor="middle" x="64" y="-7.5" font-family="Helvetica,sans-Serif" font-size="10.00">Preferences::Preferences</text>
</a>
</g>
</g>
<!-- Node3&#45;&gt;Node4 -->
<g id="edge3" class="edge">
<title>Node3&#45;&gt;Node4</title>
<path fill="none" stroke="midnightblue" d="M153.64,-10C145.17,-10 136.56,-10 128.19,-10"/>
<polygon fill="midnightblue" stroke="midnightblue" points="153.85,-13.5 163.85,-10 153.85,-6.5 153.85,-13.5"/>
</g>
</g>
</svg>
