<?xml version="1.0" encoding="UTF-8" standalone="no"?>
<!DOCTYPE svg PUBLIC "-//W3C//DTD SVG 1.1//EN"
 "http://www.w3.org/Graphics/SVG/1.1/DTD/svg11.dtd">
<!-- Generated by graphviz version 2.46.1 (20210213.1702)
 -->
<!-- Title: Preferences::stopCountdownMode Pages: 1 -->
<svg width="318pt" height="66pt"
 viewBox="0.00 0.00 318.00 66.00" xmlns="http://www.w3.org/2000/svg" xmlns:xlink="http://www.w3.org/1999/xlink">
<g id="graph0" class="graph" transform="scale(1 1) rotate(0) translate(4 62)">
<title>Preferences::stopCountdownMode</title>
<!-- Node1 -->
<g id="node1" class="node">
<title>Node1</title>
<g id="a_node1"><a xlink:title="Stop countdown, stop mouse tracking and set normal window title name.">
<polygon fill="#bfbfbf" stroke="black" points="0,-19.5 0,-38.5 167,-38.5 167,-19.5 0,-19.5"/>
<text text-anchor="middle" x="83.5" y="-26.5" font-family="Helvetica,sans-Serif" font-size="10.00">Preferences::stopCountdownMode</text>
</a>
</g>
</g>
<!-- Node2 -->
<g id="node2" class="node">
<title>Node2</title>
<g id="a_node2"><a xlink:href="class_countdown.html#af682a75d0c6f682fd699d0cf42ba9088" target="_top" xlink:title="Show countdown status.">
<polygon fill="none" stroke="black" points="203,-38.5 203,-57.5 310,-57.5 310,-38.5 203,-38.5"/>
<text text-anchor="middle" x="256.5" y="-45.5" font-family="Helvetica,sans-Serif" font-size="10.00">Countdown::isActive</text>
</a>
</g>
</g>
<!-- Node1&#45;&gt;Node2 -->
<g id="edge1" class="edge">
<title>Node1&#45;&gt;Node2</title>
<path fill="none" stroke="midnightblue" d="M167.25,-38.19C175.85,-39.15 184.49,-40.11 192.83,-41.04"/>
<polygon fill="midnightblue" stroke="midnightblue" points="192.49,-44.52 202.81,-42.15 193.26,-37.56 192.49,-44.52"/>
</g>
<!-- Node3 -->
<g id="node3" class="node">
<title>Node3</title>
<g id="a_node3"><a xlink:href="class_countdown.html#ad7212649cb592a77bbf5ccdf82a5582c" target="_top" xlink:title="Stop countdown and check.">
<polygon fill="none" stroke="black" points="211,-0.5 211,-19.5 302,-19.5 302,-0.5 211,-0.5"/>
<text text-anchor="middle" x="256.5" y="-7.5" font-family="Helvetica,sans-Serif" font-size="10.00">Countdown::stop</text>
</a>
</g>
</g>
<!-- Node1&#45;&gt;Node3 -->
<g id="edge2" class="edge">
<title>Node1&#45;&gt;Node3</title>
<path fill="none" stroke="midnightblue" d="M167.25,-19.81C178.62,-18.54 190.05,-17.27 200.75,-16.08"/>
<polygon fill="midnightblue" stroke="midnightblue" points="201.19,-19.56 210.75,-14.97 200.42,-12.6 201.19,-19.56"/>
</g>
</g>
</svg>
