<?xml version="1.0" encoding="UTF-8" standalone="no"?>
<!DOCTYPE svg PUBLIC "-//W3C//DTD SVG 1.1//EN"
 "http://www.w3.org/Graphics/SVG/1.1/DTD/svg11.dtd">
<!-- Generated by graphviz version 2.43.0 (0)
 -->
<!-- Title: FotoBox::Countdown::elapsed Pages: 1 -->
<svg width="475pt" height="127pt"
 viewBox="0.00 0.00 475.00 126.50" xmlns="http://www.w3.org/2000/svg" xmlns:xlink="http://www.w3.org/1999/xlink">
<g id="graph0" class="graph" transform="scale(1 1) rotate(0) translate(4 122.5)">
<title>FotoBox::Countdown::elapsed</title>
<!-- Node1 -->
<g id="node1" class="node">
<title>Node1</title>
<g id="a_node1"><a xlink:title="Countdown elapsed.">
<polygon fill="#bfbfbf" stroke="black" points="350,-49.5 350,-79.5 467,-79.5 467,-49.5 350,-49.5"/>
<text text-anchor="start" x="358" y="-67.5" font-family="Helvetica,sans-Serif" font-size="10.00">FotoBox::Countdown</text>
<text text-anchor="middle" x="408.5" y="-56.5" font-family="Helvetica,sans-Serif" font-size="10.00">::elapsed</text>
</a>
</g>
</g>
<!-- Node2 -->
<g id="node2" class="node">
<title>Node2</title>
<g id="a_node2"><a xlink:href="class_foto_box_1_1_foto_box.html#a0427a523b906219d676b6036c6475d7c" target="_top" xlink:title="With or without countdown.">
<polygon fill="none" stroke="black" points="153,-99 153,-118 314,-118 314,-99 153,-99"/>
<text text-anchor="middle" x="233.5" y="-106" font-family="Helvetica,sans-Serif" font-size="10.00">FotoBox::FotoBox::countdown</text>
</a>
</g>
</g>
<!-- Node1&#45;&gt;Node2 -->
<g id="edge1" class="edge">
<title>Node1&#45;&gt;Node2</title>
<path fill="none" stroke="midnightblue" d="M342.37,-82.15C332.87,-84.66 323.19,-87.17 314,-89.5 301.48,-92.67 287.82,-95.99 275.4,-98.94"/>
<polygon fill="midnightblue" stroke="midnightblue" points="343.42,-85.5 352.19,-79.55 341.63,-78.73 343.42,-85.5"/>
</g>
<!-- Node3 -->
<g id="node3" class="node">
<title>Node3</title>
<g id="a_node3"><a xlink:href="class_foto_box_1_1_preferences.html#a0b70f6f0ecaaa0df571fbbccbcc41975" target="_top" xlink:title="Preferences constructor.">
<polygon fill="none" stroke="black" points="173.5,-49.5 173.5,-79.5 293.5,-79.5 293.5,-49.5 173.5,-49.5"/>
<text text-anchor="start" x="181.5" y="-67.5" font-family="Helvetica,sans-Serif" font-size="10.00">FotoBox::Preferences</text>
<text text-anchor="middle" x="233.5" y="-56.5" font-family="Helvetica,sans-Serif" font-size="10.00">::Preferences</text>
</a>
</g>
</g>
<!-- Node1&#45;&gt;Node3 -->
<g id="edge2" class="edge">
<title>Node1&#45;&gt;Node3</title>
<path fill="none" stroke="midnightblue" d="M339.54,-64.5C324.37,-64.5 308.41,-64.5 293.63,-64.5"/>
<polygon fill="midnightblue" stroke="midnightblue" points="339.89,-68 349.89,-64.5 339.89,-61 339.89,-68"/>
</g>
<!-- Node4 -->
<g id="node4" class="node">
<title>Node4</title>
<g id="a_node4"><a xlink:href="class_foto_box_1_1_countdown.html#aae3d5c774851e944c19d5513572217b3" target="_top" xlink:title="Start the timer until there is no time left, means.">
<polygon fill="none" stroke="black" points="175,-0.5 175,-30.5 292,-30.5 292,-0.5 175,-0.5"/>
<text text-anchor="start" x="183" y="-18.5" font-family="Helvetica,sans-Serif" font-size="10.00">FotoBox::Countdown</text>
<text text-anchor="middle" x="233.5" y="-7.5" font-family="Helvetica,sans-Serif" font-size="10.00">::updateTimeLeft</text>
</a>
</g>
</g>
<!-- Node1&#45;&gt;Node4 -->
<g id="edge3" class="edge">
<title>Node1&#45;&gt;Node4</title>
<path fill="none" stroke="midnightblue" d="M344.32,-46.61C325.72,-41.34 305.55,-35.62 287.64,-30.55"/>
<polygon fill="midnightblue" stroke="midnightblue" points="343.61,-50.04 354.18,-49.4 345.51,-43.31 343.61,-50.04"/>
</g>
<!-- Node5 -->
<g id="node5" class="node">
<title>Node5</title>
<g id="a_node5"><a xlink:href="class_foto_box_1_1_countdown.html#ab00547f2c5d3b029a01d6710eedc9235" target="_top" xlink:title="Countdown constructor.">
<polygon fill="none" stroke="black" points="0,-0.5 0,-30.5 117,-30.5 117,-0.5 0,-0.5"/>
<text text-anchor="start" x="8" y="-18.5" font-family="Helvetica,sans-Serif" font-size="10.00">FotoBox::Countdown</text>
<text text-anchor="middle" x="58.5" y="-7.5" font-family="Helvetica,sans-Serif" font-size="10.00">::Countdown</text>
</a>
</g>
</g>
<!-- Node4&#45;&gt;Node5 -->
<g id="edge4" class="edge">
<title>Node4&#45;&gt;Node5</title>
<path fill="none" stroke="midnightblue" d="M164.71,-15.5C148.98,-15.5 132.39,-15.5 117.15,-15.5"/>
<polygon fill="midnightblue" stroke="midnightblue" points="164.89,-19 174.89,-15.5 164.89,-12 164.89,-19"/>
</g>
</g>
</svg>
