<?xml version="1.0" encoding="UTF-8" standalone="no"?>
<!DOCTYPE svg PUBLIC "-//W3C//DTD SVG 1.1//EN"
 "http://www.w3.org/Graphics/SVG/1.1/DTD/svg11.dtd">
<!-- Generated by graphviz version 2.46.1 (20210213.1702)
 -->
<!-- Title: FotoBox::preferenceDialog Pages: 1 -->
<svg width="435pt" height="66pt"
 viewBox="0.00 0.00 435.00 66.00" xmlns="http://www.w3.org/2000/svg" xmlns:xlink="http://www.w3.org/1999/xlink">
<g id="graph0" class="graph" transform="scale(1 1) rotate(0) translate(4 62)">
<title>FotoBox::preferenceDialog</title>
<!-- Node1 -->
<g id="node1" class="node">
<title>Node1</title>
<g id="a_node1"><a xlink:title="show preference dialog and close dialog">
<polygon fill="#bfbfbf" stroke="black" points="294,-19.5 294,-38.5 427,-38.5 427,-19.5 294,-19.5"/>
<text text-anchor="middle" x="360.5" y="-26.5" font-family="Helvetica,sans-Serif" font-size="10.00">FotoBox::preferenceDialog</text>
</a>
</g>
</g>
<!-- Node2 -->
<g id="node2" class="node">
<title>Node2</title>
<g id="a_node2"><a xlink:href="class_foto_box.html#a6ea2f49a55e9e59ec855578e7c9c8896" target="_top" xlink:title="With or without buttons.">
<polygon fill="none" stroke="black" points="149,-38.5 149,-57.5 241,-57.5 241,-38.5 149,-38.5"/>
<text text-anchor="middle" x="195" y="-45.5" font-family="Helvetica,sans-Serif" font-size="10.00">FotoBox::buttons</text>
</a>
</g>
</g>
<!-- Node1&#45;&gt;Node2 -->
<g id="edge1" class="edge">
<title>Node1&#45;&gt;Node2</title>
<path fill="none" stroke="midnightblue" d="M283.96,-37.78C269.45,-39.46 254.67,-41.18 241.48,-42.71"/>
<polygon fill="midnightblue" stroke="midnightblue" points="284.41,-41.25 293.94,-36.62 283.6,-34.3 284.41,-41.25"/>
</g>
<!-- Node4 -->
<g id="node4" class="node">
<title>Node4</title>
<g id="a_node4"><a xlink:href="class_foto_box.html#a3edde5650f847eb3efc84ef8e727298f" target="_top" xlink:title="filter key press events">
<polygon fill="none" stroke="black" points="132,-0.5 132,-19.5 258,-19.5 258,-0.5 132,-0.5"/>
<text text-anchor="middle" x="195" y="-7.5" font-family="Helvetica,sans-Serif" font-size="10.00">FotoBox::keyPressEvent</text>
</a>
</g>
</g>
<!-- Node1&#45;&gt;Node4 -->
<g id="edge3" class="edge">
<title>Node1&#45;&gt;Node4</title>
<path fill="none" stroke="midnightblue" d="M283.88,-20.21C275.26,-19.21 266.54,-18.2 258.12,-17.22"/>
<polygon fill="midnightblue" stroke="midnightblue" points="283.6,-23.7 293.94,-21.38 284.41,-16.75 283.6,-23.7"/>
</g>
<!-- Node3 -->
<g id="node3" class="node">
<title>Node3</title>
<g id="a_node3"><a xlink:href="class_foto_box.html#a7e0a5334bb6ff5f26443c422dae22d54" target="_top" xlink:title="FotoBox constructor.">
<polygon fill="none" stroke="black" points="0,-38.5 0,-57.5 96,-57.5 96,-38.5 0,-38.5"/>
<text text-anchor="middle" x="48" y="-45.5" font-family="Helvetica,sans-Serif" font-size="10.00">FotoBox::FotoBox</text>
</a>
</g>
</g>
<!-- Node2&#45;&gt;Node3 -->
<g id="edge2" class="edge">
<title>Node2&#45;&gt;Node3</title>
<path fill="none" stroke="midnightblue" d="M138.85,-48C124.74,-48 109.71,-48 96.06,-48"/>
<polygon fill="midnightblue" stroke="midnightblue" points="138.92,-51.5 148.92,-48 138.92,-44.5 138.92,-51.5"/>
</g>
</g>
</svg>
