<?xml version="1.0" encoding="UTF-8" standalone="no"?>
<!DOCTYPE svg PUBLIC "-//W3C//DTD SVG 1.1//EN"
 "http://www.w3.org/Graphics/SVG/1.1/DTD/svg11.dtd">
<!-- Generated by graphviz version 2.46.1 (20210213.1702)
 -->
<!-- Title: FotoBox::FotoBox Pages: 1 -->
<!--zoomable 342 -->
<svg id="main" version="1.1" xmlns="http://www.w3.org/2000/svg" xmlns:xlink="http://www.w3.org/1999/xlink" xml:space="preserve" onload="init(evt)">
<style type="text/css"><![CDATA[
.edge:hover path { stroke: red; }
.edge:hover polygon { stroke: red; fill: red; }
]]></style>
<script type="text/javascript"><![CDATA[
var edges = document.getElementsByTagName('g');
if (edges && edges.length) {
  for (var i=0;i<edges.length;i++) {
    if (edges[i].id.substr(0,4)=='edge') {
      edges[i].setAttribute('class','edge');
    }
  }
}
]]></script>
        <defs>
                <circle id="rim" cx="0" cy="0" r="7"/>
                <circle id="rim2" cx="0" cy="0" r="3.5"/>
                <g id="zoomPlus">
                        <use xlink:href="#rim" fill="#404040">
                                <set attributeName="fill" to="#808080" begin="zoomplus.mouseover" end="zoomplus.mouseout"/>
                        </use>
                        <path d="M-4,0h8M0,-4v8" fill="none" stroke="white" stroke-width="1.5" pointer-events="none"/>
                </g>
                <g id="zoomMin">
                        <use xlink:href="#rim" fill="#404040">
                                <set attributeName="fill" to="#808080" begin="zoomminus.mouseover" end="zoomminus.mouseout"/>
                        </use>
                        <path d="M-4,0h8" fill="none" stroke="white" stroke-width="1.5" pointer-events="none"/>
                </g>
                <g id="dirArrow">
                        <path fill="none" stroke="white" stroke-width="1.5" d="M0,-3.0v7 M-2.5,-0.5L0,-3.0L2.5,-0.5"/>
                </g>
               <g id="resetDef">
                       <use xlink:href="#rim2" fill="#404040">
                               <set attributeName="fill" to="#808080" begin="reset.mouseover" end="reset.mouseout"/>
                       </use>
               </g>
        </defs>

<script type="text/javascript">
var viewWidth = 716;
var viewHeight = 342;
var sectionId = 'dynsection-2';
</script>
<script xlink:href="svgpan.js"/>
<svg id="graph" class="graph">
<g id="viewport">
<title>FotoBox::FotoBox</title>
<!-- Node1 -->
<g id="node1" class="node">
<title>Node1</title>
<g id="a_node1"><a xlink:title="FotoBox constructor.">
<polygon fill="#bfbfbf" stroke="black" points="0,-209.5 0,-228.5 96,-228.5 96,-209.5 0,-209.5"/>
<text text-anchor="middle" x="48" y="-216.5" font-family="Helvetica,sans-Serif" font-size="10.00">FotoBox::FotoBox</text>
</a>
</g>
</g>
<!-- Node2 -->
<g id="node2" class="node">
<title>Node2</title>
<g id="a_node2"><a xlink:href="class_foto_box.html#a6ea2f49a55e9e59ec855578e7c9c8896" target="_top" xlink:title="With or without buttons.">
<polygon fill="none" stroke="black" points="139.5,-272.5 139.5,-291.5 231.5,-291.5 231.5,-272.5 139.5,-272.5"/>
<text text-anchor="middle" x="185.5" y="-279.5" font-family="Helvetica,sans-Serif" font-size="10.00">FotoBox::buttons</text>
</a>
</g>
</g>
<!-- Node1&#45;&gt;Node2 -->
<g id="edge1" class="edge">
<title>Node1&#45;&gt;Node2</title>
<path fill="none" stroke="midnightblue" d="M69.58,-228.57C92.16,-239.07 128.63,-256.02 154.42,-268.01"/>
<polygon fill="midnightblue" stroke="midnightblue" points="153.18,-271.3 163.73,-272.34 156.13,-264.95 153.18,-271.3"/>
</g>
<!-- Node3 -->
<g id="node3" class="node">
<title>Node3</title>
<g id="a_node3"><a xlink:href="class_preference_provider.html#a786d1bce48ec60ae6d1809ad01bc5cdb" target="_top" xlink:title="get instance (Meyers Singleton)">
<polygon fill="none" stroke="black" points="608,-185 608,-215 708,-215 708,-185 608,-185"/>
<text text-anchor="start" x="616" y="-203" font-family="Helvetica,sans-Serif" font-size="10.00">PreferenceProvider</text>
<text text-anchor="middle" x="658" y="-192" font-family="Helvetica,sans-Serif" font-size="10.00">::instance</text>
</a>
</g>
</g>
<!-- Node1&#45;&gt;Node3 -->
<g id="edge20" class="edge">
<title>Node1&#45;&gt;Node3</title>
<path fill="none" stroke="midnightblue" d="M96.07,-220.14C164.69,-221.55 296.21,-223.26 408,-219 473.05,-216.52 547.46,-210.41 597.86,-205.79"/>
<polygon fill="midnightblue" stroke="midnightblue" points="598.29,-209.26 607.93,-204.85 597.65,-202.29 598.29,-209.26"/>
</g>
<!-- Node6 -->
<g id="node6" class="node">
<title>Node6</title>
<g id="a_node6"><a xlink:href="class_foto_box.html#a243e47139b6e47ac86068bbbb9785ff3" target="_top" xlink:title="creates a new Buzzer object">
<polygon fill="none" stroke="black" points="141,-190.5 141,-209.5 230,-209.5 230,-190.5 141,-190.5"/>
<text text-anchor="middle" x="185.5" y="-197.5" font-family="Helvetica,sans-Serif" font-size="10.00">FotoBox::buzzer</text>
</a>
</g>
</g>
<!-- Node1&#45;&gt;Node6 -->
<g id="edge5" class="edge">
<title>Node1&#45;&gt;Node6</title>
<path fill="none" stroke="midnightblue" d="M96.01,-212.41C107.24,-210.83 119.32,-209.14 130.83,-207.53"/>
<polygon fill="midnightblue" stroke="midnightblue" points="131.34,-210.99 140.76,-206.13 130.37,-204.06 131.34,-210.99"/>
</g>
<!-- Node8 -->
<g id="node8" class="node">
<title>Node8</title>
<g id="a_node8"><a xlink:href="class_foto_box.html#ab6131adb44137e55734eb8bb0672fd38" target="_top" xlink:title="With or without countdown.">
<polygon fill="none" stroke="black" points="132,-95.5 132,-114.5 239,-114.5 239,-95.5 132,-95.5"/>
<text text-anchor="middle" x="185.5" y="-102.5" font-family="Helvetica,sans-Serif" font-size="10.00">FotoBox::countdown</text>
</a>
</g>
</g>
<!-- Node1&#45;&gt;Node8 -->
<g id="edge7" class="edge">
<title>Node1&#45;&gt;Node8</title>
<path fill="none" stroke="midnightblue" d="M60.55,-209.28C83.85,-189.68 136.69,-145.23 165.27,-121.18"/>
<polygon fill="midnightblue" stroke="midnightblue" points="167.58,-123.81 172.98,-114.69 163.07,-118.45 167.58,-123.81"/>
</g>
<!-- Node2&#45;&gt;Node3 -->
<g id="edge2" class="edge">
<title>Node2&#45;&gt;Node3</title>
<path fill="none" stroke="midnightblue" d="M211.55,-291.56C275.42,-314.31 448.07,-365.48 572,-306 607.07,-289.17 632.24,-250.03 645.7,-224.31"/>
<polygon fill="midnightblue" stroke="midnightblue" points="648.92,-225.69 650.28,-215.18 642.67,-222.55 648.92,-225.69"/>
</g>
<!-- Node4 -->
<g id="node4" class="node">
<title>Node4</title>
<g id="a_node4"><a xlink:href="class_foto_box.html#a425dffd36aa5b68a110a42c4c3a20942" target="_top" xlink:title="show preference dialog and close dialog">
<polygon fill="none" stroke="black" points="275,-272.5 275,-291.5 408,-291.5 408,-272.5 275,-272.5"/>
<text text-anchor="middle" x="341.5" y="-279.5" font-family="Helvetica,sans-Serif" font-size="10.00">FotoBox::preferenceDialog</text>
</a>
</g>
</g>
<!-- Node2&#45;&gt;Node4 -->
<g id="edge3" class="edge">
<title>Node2&#45;&gt;Node4</title>
<path fill="none" stroke="midnightblue" d="M231.87,-282C242.2,-282 253.44,-282 264.65,-282"/>
<polygon fill="midnightblue" stroke="midnightblue" points="264.91,-285.5 274.91,-282 264.91,-278.5 264.91,-285.5"/>
</g>
<!-- Node5 -->
<g id="node5" class="node">
<title>Node5</title>
<g id="a_node5"><a xlink:href="class_foto_box.html#a222aa7e9a43bd9cb8dca55b806649b82" target="_top" xlink:title="Is used as a workaround for macOS to close a fullscreen window.">
<polygon fill="none" stroke="black" points="444,-267 444,-297 572,-297 572,-267 444,-267"/>
<text text-anchor="start" x="452" y="-285" font-family="Helvetica,sans-Serif" font-size="10.00">FotoBox::closeFullscreen</text>
<text text-anchor="middle" x="508" y="-274" font-family="Helvetica,sans-Serif" font-size="10.00">WindowOnMac</text>
</a>
</g>
</g>
<!-- Node4&#45;&gt;Node5 -->
<g id="edge4" class="edge">
<title>Node4&#45;&gt;Node5</title>
<path fill="none" stroke="midnightblue" d="M408.46,-282C416.79,-282 425.34,-282 433.77,-282"/>
<polygon fill="midnightblue" stroke="midnightblue" points="433.96,-285.5 443.96,-282 433.96,-278.5 433.96,-285.5"/>
</g>
<!-- Node7 -->
<g id="node7" class="node">
<title>Node7</title>
<g id="a_node7"><a xlink:href="class_buzzer.html#a36384028775a41314221ecc23de3cf67" target="_top" xlink:title="Query the Raspberry Pi pin.">
<polygon fill="none" stroke="black" points="295.5,-190.5 295.5,-209.5 387.5,-209.5 387.5,-190.5 295.5,-190.5"/>
<text text-anchor="middle" x="341.5" y="-197.5" font-family="Helvetica,sans-Serif" font-size="10.00">Buzzer::queryPin</text>
</a>
</g>
</g>
<!-- Node6&#45;&gt;Node7 -->
<g id="edge6" class="edge">
<title>Node6&#45;&gt;Node7</title>
<path fill="none" stroke="midnightblue" d="M230.22,-200C247.32,-200 267.14,-200 285.21,-200"/>
<polygon fill="midnightblue" stroke="midnightblue" points="285.33,-203.5 295.33,-200 285.33,-196.5 285.33,-203.5"/>
</g>
<!-- Node8&#45;&gt;Node3 -->
<g id="edge8" class="edge">
<title>Node8&#45;&gt;Node3</title>
<path fill="none" stroke="midnightblue" d="M215.9,-114.53C263.38,-129.57 360.08,-158.76 444,-175 495.44,-184.95 554.69,-191.52 597.62,-195.41"/>
<polygon fill="midnightblue" stroke="midnightblue" points="597.34,-198.9 607.61,-196.3 597.96,-191.93 597.34,-198.9"/>
</g>
<!-- Node9 -->
<g id="node9" class="node">
<title>Node9</title>
<g id="a_node9"><a xlink:href="class_foto_box.html#a78353b51782aab91a0b4eafac67be1c4" target="_top" xlink:title="trigger camera to shot a photo and try to show it">
<polygon fill="none" stroke="black" points="300,-95.5 300,-114.5 383,-114.5 383,-95.5 300,-95.5"/>
<text text-anchor="middle" x="341.5" y="-102.5" font-family="Helvetica,sans-Serif" font-size="10.00">FotoBox::photo</text>
</a>
</g>
</g>
<!-- Node8&#45;&gt;Node9 -->
<g id="edge9" class="edge">
<title>Node8&#45;&gt;Node9</title>
<path fill="none" stroke="midnightblue" d="M239.07,-98.56C255.36,-98.13 273.29,-98.15 289.48,-98.6"/>
<polygon fill="midnightblue" stroke="midnightblue" points="289.72,-102.11 299.83,-98.97 289.96,-95.12 289.72,-102.11"/>
</g>
<!-- Node14 -->
<g id="node14" class="node">
<title>Node14</title>
<g id="a_node14"><a xlink:href="class_countdown.html#a2c047ed2997b0d933b18ead33b3a6a5e" target="_top" xlink:title="Set the countdown start time.">
<polygon fill="none" stroke="black" points="277.5,-57.5 277.5,-76.5 405.5,-76.5 405.5,-57.5 277.5,-57.5"/>
<text text-anchor="middle" x="341.5" y="-64.5" font-family="Helvetica,sans-Serif" font-size="10.00">Countdown::setStartTime</text>
</a>
</g>
</g>
<!-- Node8&#45;&gt;Node14 -->
<g id="edge17" class="edge">
<title>Node8&#45;&gt;Node14</title>
<path fill="none" stroke="midnightblue" d="M225.36,-95.41C245.59,-90.42 270.52,-84.27 292,-78.97"/>
<polygon fill="midnightblue" stroke="midnightblue" points="293.05,-82.31 301.92,-76.52 291.37,-75.52 293.05,-82.31"/>
</g>
<!-- Node15 -->
<g id="node15" class="node">
<title>Node15</title>
<g id="a_node15"><a xlink:href="class_countdown.html#a42d413ab133c683032bbd188e16f6a51" target="_top" xlink:title="Start countdown.">
<polygon fill="none" stroke="black" points="295.5,-19.5 295.5,-38.5 387.5,-38.5 387.5,-19.5 295.5,-19.5"/>
<text text-anchor="middle" x="341.5" y="-26.5" font-family="Helvetica,sans-Serif" font-size="10.00">Countdown::start</text>
</a>
</g>
</g>
<!-- Node8&#45;&gt;Node15 -->
<g id="edge19" class="edge">
<title>Node8&#45;&gt;Node15</title>
<path fill="none" stroke="midnightblue" d="M198.73,-95.47C215.22,-83.02 245.89,-61.25 275,-48 280.05,-45.7 285.45,-43.61 290.9,-41.72"/>
<polygon fill="midnightblue" stroke="midnightblue" points="292.26,-44.96 300.69,-38.54 290.1,-38.3 292.26,-44.96"/>
</g>
<!-- Node9&#45;&gt;Node3 -->
<g id="edge12" class="edge">
<title>Node9&#45;&gt;Node3</title>
<path fill="none" stroke="midnightblue" d="M366.06,-114.56C386.49,-122.67 416.94,-134.34 444,-143 495.58,-159.51 555.2,-175.18 598.23,-185.9"/>
<polygon fill="midnightblue" stroke="midnightblue" points="597.42,-189.31 607.97,-188.31 599.1,-182.51 597.42,-189.31"/>
</g>
<!-- Node9&#45;&gt;Node8 -->
<g id="edge10" class="edge">
<title>Node9&#45;&gt;Node8</title>
<path fill="none" stroke="midnightblue" d="M299.83,-111.03C284.42,-111.69 266.49,-111.9 249.49,-111.65"/>
<polygon fill="midnightblue" stroke="midnightblue" points="249.14,-108.14 239.07,-111.44 248.99,-115.14 249.14,-108.14"/>
</g>
<!-- Node10 -->
<g id="node10" class="node">
<title>Node10</title>
<g id="a_node10"><a xlink:href="class_camera.html#a88aed424830b94ab70f84130e4be5f6c" target="_top" xlink:title="return member">
<polygon fill="none" stroke="black" points="451.5,-114.5 451.5,-133.5 564.5,-133.5 564.5,-114.5 451.5,-114.5"/>
<text text-anchor="middle" x="508" y="-121.5" font-family="Helvetica,sans-Serif" font-size="10.00">Camera::currentPhoto</text>
</a>
</g>
</g>
<!-- Node9&#45;&gt;Node10 -->
<g id="edge11" class="edge">
<title>Node9&#45;&gt;Node10</title>
<path fill="none" stroke="midnightblue" d="M383.16,-109.7C400.66,-111.72 421.57,-114.13 441.18,-116.4"/>
<polygon fill="midnightblue" stroke="midnightblue" points="440.96,-119.9 451.29,-117.57 441.76,-112.94 440.96,-119.9"/>
</g>
<!-- Node11 -->
<g id="node11" class="node">
<title>Node11</title>
<g id="a_node11"><a xlink:href="class_foto_box.html#a78d1e793417f4ce20a26465271b383b1" target="_top" xlink:title="try to load the photo to QPixmap">
<polygon fill="none" stroke="black" points="456.5,-76.5 456.5,-95.5 559.5,-95.5 559.5,-76.5 456.5,-76.5"/>
<text text-anchor="middle" x="508" y="-83.5" font-family="Helvetica,sans-Serif" font-size="10.00">FotoBox::loadPhoto</text>
</a>
</g>
</g>
<!-- Node9&#45;&gt;Node11 -->
<g id="edge13" class="edge">
<title>Node9&#45;&gt;Node11</title>
<path fill="none" stroke="midnightblue" d="M383.16,-100.3C402.13,-98.11 425.11,-95.46 446.09,-93.04"/>
<polygon fill="midnightblue" stroke="midnightblue" points="446.67,-96.49 456.2,-91.87 445.87,-89.54 446.67,-96.49"/>
</g>
<!-- Node12 -->
<g id="node12" class="node">
<title>Node12</title>
<g id="a_node12"><a xlink:href="class_countdown.html#ac9b658e9c4cf7896ce55b806e66f5e38" target="_top" xlink:title="Reset countdown (reset.">
<polygon fill="none" stroke="black" points="461,-0.5 461,-19.5 555,-19.5 555,-0.5 461,-0.5"/>
<text text-anchor="middle" x="508" y="-7.5" font-family="Helvetica,sans-Serif" font-size="10.00">Countdown::reset</text>
</a>
</g>
</g>
<!-- Node9&#45;&gt;Node12 -->
<g id="edge15" class="edge">
<title>Node9&#45;&gt;Node12</title>
<path fill="none" stroke="midnightblue" d="M383.1,-98.16C391.89,-95.38 400.71,-91.48 408,-86 431.95,-67.99 420.15,-47.14 444,-29 446.47,-27.12 449.12,-25.43 451.89,-23.91"/>
<polygon fill="midnightblue" stroke="midnightblue" points="453.5,-27.01 461.05,-19.58 450.51,-20.69 453.5,-27.01"/>
</g>
<!-- Node13 -->
<g id="node13" class="node">
<title>Node13</title>
<g id="a_node13"><a xlink:href="class_camera.html#a497d9061dd108efc452f75b6b542d824" target="_top" xlink:title="shoot a photo with gphoto2">
<polygon fill="none" stroke="black" points="454.5,-38.5 454.5,-57.5 561.5,-57.5 561.5,-38.5 454.5,-38.5"/>
<text text-anchor="middle" x="508" y="-45.5" font-family="Helvetica,sans-Serif" font-size="10.00">Camera::shootPhoto</text>
</a>
</g>
</g>
<!-- Node9&#45;&gt;Node13 -->
<g id="edge16" class="edge">
<title>Node9&#45;&gt;Node13</title>
<path fill="none" stroke="midnightblue" d="M380.36,-95.44C389.53,-92.73 399.22,-89.55 408,-86 424.77,-79.22 427.26,-73.87 444,-67 449.48,-64.75 455.33,-62.63 461.18,-60.68"/>
<polygon fill="midnightblue" stroke="midnightblue" points="462.47,-63.95 470.93,-57.57 460.34,-57.28 462.47,-63.95"/>
</g>
<!-- Node11&#45;&gt;Node3 -->
<g id="edge14" class="edge">
<title>Node11&#45;&gt;Node3</title>
<path fill="none" stroke="midnightblue" d="M552.08,-95.52C559.03,-98.02 565.93,-101.13 572,-105 601.21,-123.59 626.46,-154.94 641.68,-176.51"/>
<polygon fill="midnightblue" stroke="midnightblue" points="638.84,-178.55 647.39,-184.81 644.61,-174.58 638.84,-178.55"/>
</g>
<!-- Node14&#45;&gt;Node12 -->
<g id="edge18" class="edge">
<title>Node14&#45;&gt;Node12</title>
<path fill="none" stroke="midnightblue" d="M380.36,-57.44C389.53,-54.73 399.22,-51.55 408,-48 424.77,-41.22 427.26,-35.87 444,-29 449.48,-26.75 455.33,-24.63 461.18,-22.68"/>
<polygon fill="midnightblue" stroke="midnightblue" points="462.47,-25.95 470.93,-19.57 460.34,-19.28 462.47,-25.95"/>
</g>
</g>
</svg>
        <g id="navigator" transform="translate(0 0)" fill="#404254">
                <rect fill="#f2f5e9" fill-opacity="0.5" stroke="#606060" stroke-width=".5" x="0" y="0" width="60" height="60"/>
                <use id="zoomplus" xlink:href="#zoomPlus" x="17" y="9" onmousedown="handleZoom(evt,'in')"/>
                <use id="zoomminus" xlink:href="#zoomMin" x="42" y="9" onmousedown="handleZoom(evt,'out')"/>
                <use id="reset" xlink:href="#resetDef" x="30" y="36" onmousedown="handleReset()"/>
                <g id="arrowUp" xlink:href="#dirArrow" transform="translate(30 24)" onmousedown="handlePan(0,-1)">
                  <use xlink:href="#rim" fill="#404040">
                        <set attributeName="fill" to="#808080" begin="arrowUp.mouseover" end="arrowUp.mouseout"/>
                  </use>
                  <path fill="none" stroke="white" stroke-width="1.5" d="M0,-3.0v7 M-2.5,-0.5L0,-3.0L2.5,-0.5"/>
                </g>
                <g id="arrowRight" xlink:href="#dirArrow" transform="rotate(90) translate(36 -43)" onmousedown="handlePan(1,0)">
                  <use xlink:href="#rim" fill="#404040">
                        <set attributeName="fill" to="#808080" begin="arrowRight.mouseover" end="arrowRight.mouseout"/>
                  </use>
                  <path fill="none" stroke="white" stroke-width="1.5" d="M0,-3.0v7 M-2.5,-0.5L0,-3.0L2.5,-0.5"/>
                </g>
                <g id="arrowDown" xlink:href="#dirArrow" transform="rotate(180) translate(-30 -48)" onmousedown="handlePan(0,1)">
                  <use xlink:href="#rim" fill="#404040">
                        <set attributeName="fill" to="#808080" begin="arrowDown.mouseover" end="arrowDown.mouseout"/>
                  </use>
                  <path fill="none" stroke="white" stroke-width="1.5" d="M0,-3.0v7 M-2.5,-0.5L0,-3.0L2.5,-0.5"/>
                </g>
                <g id="arrowLeft" xlink:href="#dirArrow" transform="rotate(270) translate(-36 17)" onmousedown="handlePan(-1,0)">
                  <use xlink:href="#rim" fill="#404040">
                        <set attributeName="fill" to="#808080" begin="arrowLeft.mouseover" end="arrowLeft.mouseout"/>
                  </use>
                  <path fill="none" stroke="white" stroke-width="1.5" d="M0,-3.0v7 M-2.5,-0.5L0,-3.0L2.5,-0.5"/>
                </g>
        </g>
        <svg viewBox="0 0 15 15" width="100%" height="30px" preserveAspectRatio="xMaxYMin meet">
         <g id="arrow_out" transform="scale(0.3 0.3)">
          <a xlink:href="class_foto_box_a7e0a5334bb6ff5f26443c422dae22d54_cgraph_org.svg" target="_base">
           <rect id="button" ry="5" rx="5" y="6" x="6" height="38" width="38"
                fill="#f2f5e9" fill-opacity="0.5" stroke="#606060" stroke-width="1.0"/>
           <path id="arrow"
             d="M 11.500037,31.436501 C 11.940474,20.09759 22.043105,11.32322 32.158766,21.979434 L 37.068811,17.246167 C 37.068811,17.246167 37.088388,32 37.088388,32 L 22.160133,31.978069 C 22.160133,31.978069 26.997745,27.140456 26.997745,27.140456 C 18.528582,18.264221 13.291696,25.230495 11.500037,31.436501 z"
             style="fill:#404040;"/>
          </a>
         </g>
        </svg>
</svg>
