<?xml version="1.0" encoding="UTF-8" standalone="no"?>
<!DOCTYPE svg PUBLIC "-//W3C//DTD SVG 1.1//EN"
 "http://www.w3.org/Graphics/SVG/1.1/DTD/svg11.dtd">
<!-- Generated by graphviz version 2.46.1 (20210213.1702)
 -->
<!-- Title: FotoBox::drawText Pages: 1 -->
<svg width="280pt" height="78pt"
 viewBox="0.00 0.00 280.00 77.50" xmlns="http://www.w3.org/2000/svg" xmlns:xlink="http://www.w3.org/1999/xlink">
<g id="graph0" class="graph" transform="scale(1 1) rotate(0) translate(4 73.5)">
<title>FotoBox::drawText</title>
<!-- Node1 -->
<g id="node1" class="node">
<title>Node1</title>
<g id="a_node1"><a xlink:title="Draw text on the QPixmap.">
<polygon fill="#bfbfbf" stroke="black" points="0,-28 0,-47 99,-47 99,-28 0,-28"/>
<text text-anchor="middle" x="49.5" y="-35" font-family="Helvetica,sans-Serif" font-size="10.00">FotoBox::drawText</text>
</a>
</g>
</g>
<!-- Node2 -->
<g id="node2" class="node">
<title>Node2</title>
<g id="a_node2"><a xlink:href="class_foto_box.html#a43e549fd9ded42ddf091920a7cab5d49" target="_top" xlink:title="calculate &quot;maximum&quot; fitting font size">
<polygon fill="none" stroke="black" points="135,-50 135,-69 272,-69 272,-50 135,-50"/>
<text text-anchor="middle" x="203.5" y="-57" font-family="Helvetica,sans-Serif" font-size="10.00">FotoBox::calculateFontSize</text>
</a>
</g>
</g>
<!-- Node1&#45;&gt;Node2 -->
<g id="edge1" class="edge">
<title>Node1&#45;&gt;Node2</title>
<path fill="none" stroke="midnightblue" d="M99.01,-44.52C107.82,-45.8 117.19,-47.15 126.56,-48.51"/>
<polygon fill="midnightblue" stroke="midnightblue" points="126.31,-52.01 136.71,-49.98 127.31,-45.08 126.31,-52.01"/>
</g>
<!-- Node3 -->
<g id="node3" class="node">
<title>Node3</title>
<g id="a_node3"><a xlink:href="class_preference_provider.html#a786d1bce48ec60ae6d1809ad01bc5cdb" target="_top" xlink:title="get instance (Meyers Singleton)">
<polygon fill="none" stroke="black" points="153.5,-0.5 153.5,-30.5 253.5,-30.5 253.5,-0.5 153.5,-0.5"/>
<text text-anchor="start" x="161.5" y="-18.5" font-family="Helvetica,sans-Serif" font-size="10.00">PreferenceProvider</text>
<text text-anchor="middle" x="203.5" y="-7.5" font-family="Helvetica,sans-Serif" font-size="10.00">::instance</text>
</a>
</g>
</g>
<!-- Node1&#45;&gt;Node3 -->
<g id="edge2" class="edge">
<title>Node1&#45;&gt;Node3</title>
<path fill="none" stroke="midnightblue" d="M99.01,-30.48C113.13,-28.44 128.71,-26.18 143.4,-24.05"/>
<polygon fill="midnightblue" stroke="midnightblue" points="144.01,-27.5 153.41,-22.61 143.01,-20.57 144.01,-27.5"/>
</g>
</g>
</svg>
