<?xml version="1.0" encoding="UTF-8" standalone="no"?>
<!DOCTYPE svg PUBLIC "-//W3C//DTD SVG 1.1//EN"
 "http://www.w3.org/Graphics/SVG/1.1/DTD/svg11.dtd">
<!-- Generated by graphviz version 2.46.1 (20210213.1702)
 -->
<!-- Title: Preferences::startFotoBox Pages: 1 -->
<svg width="458pt" height="47pt"
 viewBox="0.00 0.00 458.00 47.00" xmlns="http://www.w3.org/2000/svg" xmlns:xlink="http://www.w3.org/1999/xlink">
<g id="graph0" class="graph" transform="scale(1 1) rotate(0) translate(4 43)">
<title>Preferences::startFotoBox</title>
<!-- Node1 -->
<g id="node1" class="node">
<title>Node1</title>
<g id="a_node1"><a xlink:title="Start the FotoBox.">
<polygon fill="#bfbfbf" stroke="black" points="319,-0.5 319,-19.5 450,-19.5 450,-0.5 319,-0.5"/>
<text text-anchor="middle" x="384.5" y="-7.5" font-family="Helvetica,sans-Serif" font-size="10.00">Preferences::startFotoBox</text>
</a>
</g>
</g>
<!-- Node2 -->
<g id="node2" class="node">
<title>Node2</title>
<g id="a_node2"><a xlink:href="class_preferences.html#a36e52663dbf3006c5dcf04d89cfd672d" target="_top" xlink:title="Signal &amp; Slot connect.">
<polygon fill="none" stroke="black" points="164,-19.5 164,-38.5 283,-38.5 283,-19.5 164,-19.5"/>
<text text-anchor="middle" x="223.5" y="-26.5" font-family="Helvetica,sans-Serif" font-size="10.00">Preferences::connectUi</text>
</a>
</g>
</g>
<!-- Node1&#45;&gt;Node2 -->
<g id="edge1" class="edge">
<title>Node1&#45;&gt;Node2</title>
<path fill="none" stroke="midnightblue" d="M308.81,-18.93C300.22,-19.95 291.56,-20.99 283.23,-21.98"/>
<polygon fill="midnightblue" stroke="midnightblue" points="309.31,-22.39 318.83,-17.73 308.48,-15.44 309.31,-22.39"/>
</g>
<!-- Node3 -->
<g id="node3" class="node">
<title>Node3</title>
<g id="a_node3"><a xlink:href="class_preferences.html#a137b56e8d51ff2712666f94263b2e34e" target="_top" xlink:title="Preferences constructor.">
<polygon fill="none" stroke="black" points="0,-0.5 0,-19.5 128,-19.5 128,-0.5 0,-0.5"/>
<text text-anchor="middle" x="64" y="-7.5" font-family="Helvetica,sans-Serif" font-size="10.00">Preferences::Preferences</text>
</a>
</g>
</g>
<!-- Node1&#45;&gt;Node3 -->
<g id="edge3" class="edge">
<title>Node1&#45;&gt;Node3</title>
<path fill="none" stroke="midnightblue" d="M308.64,-10C253.75,-10 180.04,-10 128.12,-10"/>
<polygon fill="midnightblue" stroke="midnightblue" points="308.66,-13.5 318.66,-10 308.66,-6.5 308.66,-13.5"/>
</g>
<!-- Node2&#45;&gt;Node3 -->
<g id="edge2" class="edge">
<title>Node2&#45;&gt;Node3</title>
<path fill="none" stroke="midnightblue" d="M153.91,-20.73C145.36,-19.69 136.65,-18.64 128.19,-17.62"/>
<polygon fill="midnightblue" stroke="midnightblue" points="153.51,-24.2 163.85,-21.93 154.34,-17.25 153.51,-24.2"/>
</g>
</g>
</svg>
