<?xml version="1.0" encoding="UTF-8" standalone="no"?>
<!DOCTYPE svg PUBLIC "-//W3C//DTD SVG 1.1//EN"
 "http://www.w3.org/Graphics/SVG/1.1/DTD/svg11.dtd">
<!-- Generated by graphviz version 2.46.1 (20210213.1702)
 -->
<!-- Title: FotoBox::start Pages: 1 -->
<svg width="405pt" height="180pt"
 viewBox="0.00 0.00 405.00 180.00" xmlns="http://www.w3.org/2000/svg" xmlns:xlink="http://www.w3.org/1999/xlink">
<g id="graph0" class="graph" transform="scale(1 1) rotate(0) translate(4 176)">
<title>FotoBox::start</title>
<!-- Node1 -->
<g id="node1" class="node">
<title>Node1</title>
<g id="a_node1"><a xlink:title="signal: start FotoBox">
<polygon fill="#bfbfbf" stroke="black" points="318,-76.5 318,-95.5 397,-95.5 397,-76.5 318,-76.5"/>
<text text-anchor="middle" x="357.5" y="-83.5" font-family="Helvetica,sans-Serif" font-size="10.00">FotoBox::start</text>
</a>
</g>
</g>
<!-- Node2 -->
<g id="node2" class="node">
<title>Node2</title>
<g id="a_node2"><a xlink:href="class_foto_box.html#a6ea2f49a55e9e59ec855578e7c9c8896" target="_top" xlink:title="With or without buttons.">
<polygon fill="none" stroke="black" points="161,-152.5 161,-171.5 253,-171.5 253,-152.5 161,-152.5"/>
<text text-anchor="middle" x="207" y="-159.5" font-family="Helvetica,sans-Serif" font-size="10.00">FotoBox::buttons</text>
</a>
</g>
</g>
<!-- Node1&#45;&gt;Node2 -->
<g id="edge1" class="edge">
<title>Node1&#45;&gt;Node2</title>
<path fill="none" stroke="midnightblue" d="M339.23,-102.48C324.94,-115.27 303.55,-132.53 282,-143 273.05,-147.35 263,-150.78 253.25,-153.46"/>
<polygon fill="midnightblue" stroke="midnightblue" points="341.78,-104.89 346.77,-95.55 337.04,-99.74 341.78,-104.89"/>
</g>
<!-- Node4 -->
<g id="node4" class="node">
<title>Node4</title>
<g id="a_node4"><a xlink:href="class_foto_box.html#a243e47139b6e47ac86068bbbb9785ff3" target="_top" xlink:title="creates a new Buzzer object">
<polygon fill="none" stroke="black" points="162.5,-114.5 162.5,-133.5 251.5,-133.5 251.5,-114.5 162.5,-114.5"/>
<text text-anchor="middle" x="207" y="-121.5" font-family="Helvetica,sans-Serif" font-size="10.00">FotoBox::buzzer</text>
</a>
</g>
</g>
<!-- Node1&#45;&gt;Node4 -->
<g id="edge3" class="edge">
<title>Node1&#45;&gt;Node4</title>
<path fill="none" stroke="midnightblue" d="M309.17,-98.11C288.49,-103.4 264.58,-109.52 245.2,-114.48"/>
<polygon fill="midnightblue" stroke="midnightblue" points="310.21,-101.46 319.03,-95.59 308.47,-94.68 310.21,-101.46"/>
</g>
<!-- Node5 -->
<g id="node5" class="node">
<title>Node5</title>
<g id="a_node5"><a xlink:href="class_foto_box.html#ab6131adb44137e55734eb8bb0672fd38" target="_top" xlink:title="With or without countdown.">
<polygon fill="none" stroke="black" points="153.5,-76.5 153.5,-95.5 260.5,-95.5 260.5,-76.5 153.5,-76.5"/>
<text text-anchor="middle" x="207" y="-83.5" font-family="Helvetica,sans-Serif" font-size="10.00">FotoBox::countdown</text>
</a>
</g>
</g>
<!-- Node1&#45;&gt;Node5 -->
<g id="edge5" class="edge">
<title>Node1&#45;&gt;Node5</title>
<path fill="none" stroke="midnightblue" d="M307.73,-86C292.67,-86 276.01,-86 260.69,-86"/>
<polygon fill="midnightblue" stroke="midnightblue" points="307.87,-89.5 317.87,-86 307.87,-82.5 307.87,-89.5"/>
</g>
<!-- Node7 -->
<g id="node7" class="node">
<title>Node7</title>
<g id="a_node7"><a xlink:href="class_foto_box.html#a3edde5650f847eb3efc84ef8e727298f" target="_top" xlink:title="filter key press events">
<polygon fill="none" stroke="black" points="144,-38.5 144,-57.5 270,-57.5 270,-38.5 144,-38.5"/>
<text text-anchor="middle" x="207" y="-45.5" font-family="Helvetica,sans-Serif" font-size="10.00">FotoBox::keyPressEvent</text>
</a>
</g>
</g>
<!-- Node1&#45;&gt;Node7 -->
<g id="edge9" class="edge">
<title>Node1&#45;&gt;Node7</title>
<path fill="none" stroke="midnightblue" d="M309.17,-73.89C288.49,-68.6 264.58,-62.48 245.2,-57.52"/>
<polygon fill="midnightblue" stroke="midnightblue" points="308.47,-77.32 319.03,-76.41 310.21,-70.54 308.47,-77.32"/>
</g>
<!-- Node8 -->
<g id="node8" class="node">
<title>Node8</title>
<g id="a_node8"><a xlink:href="class_foto_box.html#a029f5b3b1a9c3594626dc68e8fb6b282" target="_top" xlink:title="This event handler, for event event, can be reimplemented in a subclass to receive mouse release even...">
<polygon fill="none" stroke="black" points="132,-0.5 132,-19.5 282,-19.5 282,-0.5 132,-0.5"/>
<text text-anchor="middle" x="207" y="-7.5" font-family="Helvetica,sans-Serif" font-size="10.00">FotoBox::mouseReleaseEvent</text>
</a>
</g>
</g>
<!-- Node1&#45;&gt;Node8 -->
<g id="edge10" class="edge">
<title>Node1&#45;&gt;Node8</title>
<path fill="none" stroke="midnightblue" d="M339.23,-69.52C324.94,-56.73 303.55,-39.47 282,-29 274.13,-25.17 265.39,-22.06 256.77,-19.54"/>
<polygon fill="midnightblue" stroke="midnightblue" points="337.04,-72.26 346.77,-76.45 341.78,-67.11 337.04,-72.26"/>
</g>
<!-- Node3 -->
<g id="node3" class="node">
<title>Node3</title>
<g id="a_node3"><a xlink:href="class_foto_box.html#a7e0a5334bb6ff5f26443c422dae22d54" target="_top" xlink:title="FotoBox constructor.">
<polygon fill="none" stroke="black" points="0,-114.5 0,-133.5 96,-133.5 96,-114.5 0,-114.5"/>
<text text-anchor="middle" x="48" y="-121.5" font-family="Helvetica,sans-Serif" font-size="10.00">FotoBox::FotoBox</text>
</a>
</g>
</g>
<!-- Node2&#45;&gt;Node3 -->
<g id="edge2" class="edge">
<title>Node2&#45;&gt;Node3</title>
<path fill="none" stroke="midnightblue" d="M156.55,-150.03C134.55,-144.71 109.01,-138.52 88.33,-133.52"/>
<polygon fill="midnightblue" stroke="midnightblue" points="155.84,-153.46 166.38,-152.41 157.49,-146.66 155.84,-153.46"/>
</g>
<!-- Node4&#45;&gt;Node3 -->
<g id="edge4" class="edge">
<title>Node4&#45;&gt;Node3</title>
<path fill="none" stroke="midnightblue" d="M152.09,-124C133.88,-124 113.71,-124 96.07,-124"/>
<polygon fill="midnightblue" stroke="midnightblue" points="152.27,-127.5 162.27,-124 152.27,-120.5 152.27,-127.5"/>
</g>
<!-- Node5&#45;&gt;Node3 -->
<g id="edge6" class="edge">
<title>Node5&#45;&gt;Node3</title>
<path fill="none" stroke="midnightblue" d="M156.55,-97.97C134.55,-103.29 109.01,-109.48 88.33,-114.48"/>
<polygon fill="midnightblue" stroke="midnightblue" points="157.49,-101.34 166.38,-95.59 155.84,-94.54 157.49,-101.34"/>
</g>
<!-- Node6 -->
<g id="node6" class="node">
<title>Node6</title>
<g id="a_node6"><a xlink:href="class_foto_box.html#a78353b51782aab91a0b4eafac67be1c4" target="_top" xlink:title="trigger camera to shot a photo and try to show it">
<polygon fill="none" stroke="black" points="6.5,-76.5 6.5,-95.5 89.5,-95.5 89.5,-76.5 6.5,-76.5"/>
<text text-anchor="middle" x="48" y="-83.5" font-family="Helvetica,sans-Serif" font-size="10.00">FotoBox::photo</text>
</a>
</g>
</g>
<!-- Node5&#45;&gt;Node6 -->
<g id="edge7" class="edge">
<title>Node5&#45;&gt;Node6</title>
<path fill="none" stroke="midnightblue" d="M143.18,-79.37C125.24,-79.09 106.17,-79.3 89.91,-79.99"/>
<polygon fill="midnightblue" stroke="midnightblue" points="143.21,-82.87 153.28,-79.58 143.36,-75.87 143.21,-82.87"/>
</g>
<!-- Node6&#45;&gt;Node5 -->
<g id="edge8" class="edge">
<title>Node6&#45;&gt;Node5</title>
<path fill="none" stroke="midnightblue" d="M100.21,-92.37C117.22,-92.86 136.17,-92.88 153.28,-92.42"/>
<polygon fill="midnightblue" stroke="midnightblue" points="100.03,-88.87 89.91,-92.01 99.78,-95.86 100.03,-88.87"/>
</g>
</g>
</svg>
