<?xml version="1.0" encoding="UTF-8" standalone="no"?>
<!DOCTYPE svg PUBLIC "-//W3C//DTD SVG 1.1//EN"
 "http://www.w3.org/Graphics/SVG/1.1/DTD/svg11.dtd">
<!-- Generated by graphviz version 2.43.0 (0)
 -->
<!-- Title: FotoBox::Preferences::Preferences Pages: 1 -->
<svg width="522pt" height="1479pt"
 viewBox="0.00 0.00 522.00 1479.00" xmlns="http://www.w3.org/2000/svg" xmlns:xlink="http://www.w3.org/1999/xlink">
<g id="graph0" class="graph" transform="scale(1 1) rotate(0) translate(4 1475)">
<title>FotoBox::Preferences::Preferences</title>
<!-- Node1 -->
<g id="node1" class="node">
<title>Node1</title>
<g id="a_node1"><a xlink:title="Preferences constructor.">
<polygon fill="#bfbfbf" stroke="black" points="0,-171.5 0,-201.5 120,-201.5 120,-171.5 0,-171.5"/>
<text text-anchor="start" x="8" y="-189.5" font-family="Helvetica,sans-Serif" font-size="10.00">FotoBox::Preferences</text>
<text text-anchor="middle" x="60" y="-178.5" font-family="Helvetica,sans-Serif" font-size="10.00">::Preferences</text>
</a>
</g>
</g>
<!-- Node2 -->
<g id="node2" class="node">
<title>Node2</title>
<g id="a_node2"><a xlink:href="class_foto_box_1_1_preferences.html#aa32a746004108cc42784e9f5f31ac555" target="_top" xlink:title="Signal &amp; Slot connect.">
<polygon fill="none" stroke="black" points="171.5,-827.5 171.5,-857.5 291.5,-857.5 291.5,-827.5 171.5,-827.5"/>
<text text-anchor="start" x="179.5" y="-845.5" font-family="Helvetica,sans-Serif" font-size="10.00">FotoBox::Preferences</text>
<text text-anchor="middle" x="231.5" y="-834.5" font-family="Helvetica,sans-Serif" font-size="10.00">::connectUi</text>
</a>
</g>
</g>
<!-- Node1&#45;&gt;Node2 -->
<g id="edge1" class="edge">
<title>Node1&#45;&gt;Node2</title>
<path fill="none" stroke="midnightblue" d="M64.94,-201.75C87.09,-287.49 196.13,-709.49 224,-817.36"/>
<polygon fill="midnightblue" stroke="midnightblue" points="220.69,-818.53 226.58,-827.33 227.47,-816.78 220.69,-818.53"/>
</g>
<!-- Node24 -->
<g id="node24" class="node">
<title>Node24</title>
<g id="a_node24"><a xlink:href="class_foto_box_1_1_preferences.html#af7e8af681b151f7de6962cd44af3426b" target="_top" xlink:title="Start the FotoBox.">
<polygon fill="none" stroke="black" points="368.5,-264.5 368.5,-294.5 488.5,-294.5 488.5,-264.5 368.5,-264.5"/>
<text text-anchor="start" x="376.5" y="-282.5" font-family="Helvetica,sans-Serif" font-size="10.00">FotoBox::Preferences</text>
<text text-anchor="middle" x="428.5" y="-271.5" font-family="Helvetica,sans-Serif" font-size="10.00">::startFotoBox</text>
</a>
</g>
</g>
<!-- Node1&#45;&gt;Node24 -->
<g id="edge33" class="edge">
<title>Node1&#45;&gt;Node24</title>
<path fill="none" stroke="midnightblue" d="M69.75,-201.51C84.24,-224.69 115.68,-268.31 156,-285.5 220.54,-313.02 301.79,-306.51 358.51,-296.25"/>
<polygon fill="midnightblue" stroke="midnightblue" points="359.28,-299.66 368.46,-294.36 357.98,-292.78 359.28,-299.66"/>
</g>
<!-- Node28 -->
<g id="node28" class="node">
<title>Node28</title>
<g id="a_node28"><a xlink:href="class_foto_box_1_1_preferences.html#a8b2ff3fee196d31fcdaa66b41b79a247" target="_top" xlink:title="Load application settings from INI file.">
<polygon fill="none" stroke="black" points="171.5,-245.5 171.5,-275.5 291.5,-275.5 291.5,-245.5 171.5,-245.5"/>
<text text-anchor="start" x="179.5" y="-263.5" font-family="Helvetica,sans-Serif" font-size="10.00">FotoBox::Preferences</text>
<text text-anchor="middle" x="231.5" y="-252.5" font-family="Helvetica,sans-Serif" font-size="10.00">::loadPreferences</text>
</a>
</g>
</g>
<!-- Node1&#45;&gt;Node28 -->
<g id="edge27" class="edge">
<title>Node1&#45;&gt;Node28</title>
<path fill="none" stroke="midnightblue" d="M87.5,-201.56C106.28,-211.87 132.24,-225.46 156,-235.5 161.31,-237.75 166.9,-239.93 172.53,-242.02"/>
<polygon fill="midnightblue" stroke="midnightblue" points="171.41,-245.33 182.01,-245.42 173.78,-238.75 171.41,-245.33"/>
</g>
<!-- Node29 -->
<g id="node29" class="node">
<title>Node29</title>
<g id="a_node29"><a xlink:href="class_foto_box_1_1_preferences.html#a0cad692769d7238a457b92d55a758e42" target="_top" xlink:title="Check if pigpio deamon is reachable.">
<polygon fill="none" stroke="black" points="171.5,-196.5 171.5,-226.5 291.5,-226.5 291.5,-196.5 171.5,-196.5"/>
<text text-anchor="start" x="179.5" y="-214.5" font-family="Helvetica,sans-Serif" font-size="10.00">FotoBox::Preferences</text>
<text text-anchor="middle" x="231.5" y="-203.5" font-family="Helvetica,sans-Serif" font-size="10.00">::pigpioDeamon</text>
</a>
</g>
</g>
<!-- Node1&#45;&gt;Node29 -->
<g id="edge28" class="edge">
<title>Node1&#45;&gt;Node29</title>
<path fill="none" stroke="midnightblue" d="M120.28,-195.24C133.44,-197.18 147.51,-199.26 161.04,-201.25"/>
<polygon fill="midnightblue" stroke="midnightblue" points="160.85,-204.76 171.25,-202.76 161.87,-197.84 160.85,-204.76"/>
</g>
<!-- Node31 -->
<g id="node31" class="node">
<title>Node31</title>
<g id="a_node31"><a xlink:href="class_foto_box_1_1_preferences.html#a79ef75864ad02e54f634a11d6484caff" target="_top" xlink:title="Restore default preferences.">
<polygon fill="none" stroke="black" points="156,-147.5 156,-177.5 307,-177.5 307,-147.5 156,-147.5"/>
<text text-anchor="start" x="164" y="-165.5" font-family="Helvetica,sans-Serif" font-size="10.00">FotoBox::Preferences</text>
<text text-anchor="middle" x="231.5" y="-154.5" font-family="Helvetica,sans-Serif" font-size="10.00">::restoreDefaultPreferences</text>
</a>
</g>
</g>
<!-- Node1&#45;&gt;Node31 -->
<g id="edge30" class="edge">
<title>Node1&#45;&gt;Node31</title>
<path fill="none" stroke="midnightblue" d="M120.28,-178.11C128.52,-176.94 137.1,-175.72 145.69,-174.51"/>
<polygon fill="midnightblue" stroke="midnightblue" points="146.34,-177.95 155.75,-173.08 145.36,-171.02 146.34,-177.95"/>
</g>
<!-- Node32 -->
<g id="node32" class="node">
<title>Node32</title>
<g id="a_node32"><a xlink:href="class_foto_box_1_1_preferences.html#ac7d5d3d5cfff30c37a5fb66aae5b1435" target="_top" xlink:title="Set icons for all QToolButtons.">
<polygon fill="none" stroke="black" points="171.5,-98.5 171.5,-128.5 291.5,-128.5 291.5,-98.5 171.5,-98.5"/>
<text text-anchor="start" x="179.5" y="-116.5" font-family="Helvetica,sans-Serif" font-size="10.00">FotoBox::Preferences</text>
<text text-anchor="middle" x="231.5" y="-105.5" font-family="Helvetica,sans-Serif" font-size="10.00">::setButtonIcons</text>
</a>
</g>
</g>
<!-- Node1&#45;&gt;Node32 -->
<g id="edge31" class="edge">
<title>Node1&#45;&gt;Node32</title>
<path fill="none" stroke="midnightblue" d="M87.47,-171.35C106.22,-161 132.18,-147.4 156,-137.5 160.66,-135.56 165.54,-133.68 170.48,-131.88"/>
<polygon fill="midnightblue" stroke="midnightblue" points="171.73,-135.15 180,-128.52 169.4,-128.55 171.73,-135.15"/>
</g>
<!-- Node33 -->
<g id="node33" class="node">
<title>Node33</title>
<g id="a_node33"><a xlink:href="class_foto_box_1_1_countdown.html#a2576a8a558916a81ca58c27a959e5ed4" target="_top" xlink:title="Start countdown.">
<polygon fill="none" stroke="black" points="173,-49.5 173,-79.5 290,-79.5 290,-49.5 173,-49.5"/>
<text text-anchor="start" x="181" y="-67.5" font-family="Helvetica,sans-Serif" font-size="10.00">FotoBox::Countdown</text>
<text text-anchor="middle" x="231.5" y="-56.5" font-family="Helvetica,sans-Serif" font-size="10.00">::start</text>
</a>
</g>
</g>
<!-- Node1&#45;&gt;Node33 -->
<g id="edge32" class="edge">
<title>Node1&#45;&gt;Node33</title>
<path fill="none" stroke="midnightblue" d="M71.84,-171.31C87.89,-149.89 119.98,-110.9 156,-88.5 158.63,-86.87 161.38,-85.33 164.2,-83.9"/>
<polygon fill="midnightblue" stroke="midnightblue" points="165.84,-87 173.46,-79.63 162.91,-80.64 165.84,-87"/>
</g>
<!-- Node34 -->
<g id="node34" class="node">
<title>Node34</title>
<g id="a_node34"><a xlink:href="class_foto_box_1_1_preferences.html#aadf79a64aadbd24825c08342f28eb290" target="_top" xlink:title="Set the window position.">
<polygon fill="none" stroke="black" points="171.5,-0.5 171.5,-30.5 291.5,-30.5 291.5,-0.5 171.5,-0.5"/>
<text text-anchor="start" x="179.5" y="-18.5" font-family="Helvetica,sans-Serif" font-size="10.00">FotoBox::Preferences</text>
<text text-anchor="middle" x="231.5" y="-7.5" font-family="Helvetica,sans-Serif" font-size="10.00">::windowPosition</text>
</a>
</g>
</g>
<!-- Node1&#45;&gt;Node34 -->
<g id="edge34" class="edge">
<title>Node1&#45;&gt;Node34</title>
<path fill="none" stroke="midnightblue" d="M66.79,-171.12C78.79,-141.3 109.23,-75.38 156,-39.5 158.03,-37.94 160.16,-36.49 162.37,-35.12"/>
<polygon fill="midnightblue" stroke="midnightblue" points="164.11,-38.16 171.23,-30.31 160.77,-32.01 164.11,-38.16"/>
</g>
<!-- Node3 -->
<g id="node3" class="node">
<title>Node3</title>
<g id="a_node3"><a xlink:href="class_foto_box_1_1_preferences.html#a74254b0bb527044c4ba3f2bc63f06539" target="_top" xlink:title="Open a QFileDialog to choose the photo directory.">
<polygon fill="none" stroke="black" points="368.5,-1440.5 368.5,-1470.5 488.5,-1470.5 488.5,-1440.5 368.5,-1440.5"/>
<text text-anchor="start" x="376.5" y="-1458.5" font-family="Helvetica,sans-Serif" font-size="10.00">FotoBox::Preferences</text>
<text text-anchor="middle" x="428.5" y="-1447.5" font-family="Helvetica,sans-Serif" font-size="10.00">::chooseDirectory</text>
</a>
</g>
</g>
<!-- Node2&#45;&gt;Node3 -->
<g id="edge2" class="edge">
<title>Node2&#45;&gt;Node3</title>
<path fill="none" stroke="midnightblue" d="M233.23,-857.56C237.59,-940.75 262.61,-1343.41 343,-1431.5 347.45,-1436.38 352.82,-1440.29 358.66,-1443.43"/>
<polygon fill="midnightblue" stroke="midnightblue" points="357.61,-1446.8 368.17,-1447.75 360.51,-1440.43 357.61,-1446.8"/>
</g>
<!-- Node4 -->
<g id="node4" class="node">
<title>Node4</title>
<g id="a_node4"><a xlink:href="class_foto_box_1_1_preferences.html#a1658acc8fb500345c50ee89cba16e7ab" target="_top" xlink:title="Clear directory content of the photo directory.">
<polygon fill="none" stroke="black" points="363.5,-1391.5 363.5,-1421.5 493.5,-1421.5 493.5,-1391.5 363.5,-1391.5"/>
<text text-anchor="start" x="371.5" y="-1409.5" font-family="Helvetica,sans-Serif" font-size="10.00">FotoBox::Preferences</text>
<text text-anchor="middle" x="428.5" y="-1398.5" font-family="Helvetica,sans-Serif" font-size="10.00">::clearDirectoryContent</text>
</a>
</g>
</g>
<!-- Node2&#45;&gt;Node4 -->
<g id="edge3" class="edge">
<title>Node2&#45;&gt;Node4</title>
<path fill="none" stroke="midnightblue" d="M233.51,-857.6C239.12,-936.67 268.8,-1302.53 343,-1382.5 346.33,-1386.08 350.14,-1389.15 354.28,-1391.76"/>
<polygon fill="midnightblue" stroke="midnightblue" points="352.69,-1394.88 363.16,-1396.53 356,-1388.72 352.69,-1394.88"/>
</g>
<!-- Node5 -->
<g id="node5" class="node">
<title>Node5</title>
<g id="a_node5"><a xlink:href="class_foto_box_1_1_preferences.html#ae2e2d50e4ab85e2b7c7075b7975a77a4" target="_top" xlink:title="Open a color picker to choose background color for FotoBox.">
<polygon fill="none" stroke="black" points="368.5,-1342.5 368.5,-1372.5 488.5,-1372.5 488.5,-1342.5 368.5,-1342.5"/>
<text text-anchor="start" x="376.5" y="-1360.5" font-family="Helvetica,sans-Serif" font-size="10.00">FotoBox::Preferences</text>
<text text-anchor="middle" x="428.5" y="-1349.5" font-family="Helvetica,sans-Serif" font-size="10.00">::colorDialog</text>
</a>
</g>
</g>
<!-- Node2&#45;&gt;Node5 -->
<g id="edge4" class="edge">
<title>Node2&#45;&gt;Node5</title>
<path fill="none" stroke="midnightblue" d="M233.85,-857.69C240.83,-932.57 274.99,-1261.62 343,-1333.5 347.54,-1338.3 352.96,-1342.16 358.84,-1345.26"/>
<polygon fill="midnightblue" stroke="midnightblue" points="357.83,-1348.65 368.38,-1349.55 360.69,-1342.26 357.83,-1348.65"/>
</g>
<!-- Node6 -->
<g id="node6" class="node">
<title>Node6</title>
<g id="a_node6"><a xlink:href="class_foto_box_1_1_preferences.html#a3bafff16d43425200bbb43c6837de817" target="_top" xlink:title="Show help dialog for gphoto2/raspistill command line options.">
<polygon fill="none" stroke="black" points="348,-1293.5 348,-1323.5 509,-1323.5 509,-1293.5 348,-1293.5"/>
<text text-anchor="start" x="356" y="-1311.5" font-family="Helvetica,sans-Serif" font-size="10.00">FotoBox::Preferences</text>
<text text-anchor="middle" x="428.5" y="-1300.5" font-family="Helvetica,sans-Serif" font-size="10.00">::commandLineOptionsDialog</text>
</a>
</g>
</g>
<!-- Node2&#45;&gt;Node6 -->
<g id="edge5" class="edge">
<title>Node2&#45;&gt;Node6</title>
<path fill="none" stroke="midnightblue" d="M234.24,-857.56C242.65,-927.59 281.09,-1220.59 343,-1284.5 343.93,-1285.46 344.89,-1286.37 345.88,-1287.25"/>
<polygon fill="midnightblue" stroke="midnightblue" points="343.93,-1290.17 354.04,-1293.34 348.11,-1284.56 343.93,-1290.17"/>
</g>
<!-- Node7 -->
<g id="node7" class="node">
<title>Node7</title>
<g id="a_node7"><a xlink:href="class_foto_box_1_1_preference_provider.html#a822861e0e7e93a0875f962e5cd3c2212" target="_top" xlink:title="get instance (Meyers Singleton)">
<polygon fill="none" stroke="black" points="351,-1244.5 351,-1274.5 506,-1274.5 506,-1244.5 351,-1244.5"/>
<text text-anchor="start" x="359" y="-1262.5" font-family="Helvetica,sans-Serif" font-size="10.00">FotoBox::PreferenceProvider</text>
<text text-anchor="middle" x="428.5" y="-1251.5" font-family="Helvetica,sans-Serif" font-size="10.00">::instance</text>
</a>
</g>
</g>
<!-- Node2&#45;&gt;Node7 -->
<g id="edge6" class="edge">
<title>Node2&#45;&gt;Node7</title>
<path fill="none" stroke="midnightblue" d="M231.89,-857.87C230.45,-916.12 233.39,-1125.6 343,-1235.5 344.08,-1236.58 345.2,-1237.61 346.36,-1238.6"/>
<polygon fill="midnightblue" stroke="midnightblue" points="344.38,-1241.49 354.55,-1244.47 348.46,-1235.8 344.38,-1241.49"/>
</g>
<!-- Node8 -->
<g id="node8" class="node">
<title>Node8</title>
<g id="a_node8"><a xlink:href="class_foto_box_1_1_preference_provider.html#a4824526882d0c6bd25367e968e04c0a1" target="_top" xlink:title="set camera framework arguments">
<polygon fill="none" stroke="black" points="351,-1195.5 351,-1225.5 506,-1225.5 506,-1195.5 351,-1195.5"/>
<text text-anchor="start" x="359" y="-1213.5" font-family="Helvetica,sans-Serif" font-size="10.00">FotoBox::PreferenceProvider</text>
<text text-anchor="middle" x="428.5" y="-1202.5" font-family="Helvetica,sans-Serif" font-size="10.00">::setArgumentLine</text>
</a>
</g>
</g>
<!-- Node2&#45;&gt;Node8 -->
<g id="edge7" class="edge">
<title>Node2&#45;&gt;Node8</title>
<path fill="none" stroke="midnightblue" d="M232.61,-857.8C233.83,-911.34 245.35,-1092.12 343,-1186.5 344.1,-1187.56 345.24,-1188.57 346.41,-1189.54"/>
<polygon fill="midnightblue" stroke="midnightblue" points="344.49,-1192.47 354.69,-1195.32 348.49,-1186.73 344.49,-1192.47"/>
</g>
<!-- Node9 -->
<g id="node9" class="node">
<title>Node9</title>
<g id="a_node9"><a xlink:href="class_foto_box_1_1_preference_provider.html#ad27251441df7ca149d055f4eac157a27" target="_top" xlink:title="set background color of the FotoBox UI">
<polygon fill="none" stroke="black" points="351,-1146.5 351,-1176.5 506,-1176.5 506,-1146.5 351,-1146.5"/>
<text text-anchor="start" x="359" y="-1164.5" font-family="Helvetica,sans-Serif" font-size="10.00">FotoBox::PreferenceProvider</text>
<text text-anchor="middle" x="428.5" y="-1153.5" font-family="Helvetica,sans-Serif" font-size="10.00">::setBackgroundColor</text>
</a>
</g>
</g>
<!-- Node2&#45;&gt;Node9 -->
<g id="edge8" class="edge">
<title>Node2&#45;&gt;Node9</title>
<path fill="none" stroke="midnightblue" d="M233.53,-857.65C237.63,-906.05 257.13,-1058.37 343,-1137.5 344.16,-1138.57 345.36,-1139.58 346.6,-1140.56"/>
<polygon fill="midnightblue" stroke="midnightblue" points="345.02,-1143.71 355.28,-1146.36 348.9,-1137.89 345.02,-1143.71"/>
</g>
<!-- Node10 -->
<g id="node10" class="node">
<title>Node10</title>
<g id="a_node10"><a xlink:href="class_foto_box_1_1_preference_provider.html#a3ffea3a4f73f803702113c316a33b926" target="_top" xlink:title="set the camera framework to be used">
<polygon fill="none" stroke="black" points="351,-1097.5 351,-1127.5 506,-1127.5 506,-1097.5 351,-1097.5"/>
<text text-anchor="start" x="359" y="-1115.5" font-family="Helvetica,sans-Serif" font-size="10.00">FotoBox::PreferenceProvider</text>
<text text-anchor="middle" x="428.5" y="-1104.5" font-family="Helvetica,sans-Serif" font-size="10.00">::setCameraMode</text>
</a>
</g>
</g>
<!-- Node2&#45;&gt;Node10 -->
<g id="edge9" class="edge">
<title>Node2&#45;&gt;Node10</title>
<path fill="none" stroke="midnightblue" d="M234.77,-857.55C242.04,-900.45 268.79,-1024.37 343,-1088.5 344.35,-1089.67 345.75,-1090.77 347.2,-1091.83"/>
<polygon fill="midnightblue" stroke="midnightblue" points="345.6,-1094.96 355.93,-1097.31 349.32,-1089.03 345.6,-1094.96"/>
</g>
<!-- Node11 -->
<g id="node11" class="node">
<title>Node11</title>
<g id="a_node11"><a xlink:href="class_foto_box_1_1_preference_provider.html#a3a26dbccf70126015aaf32031c160097" target="_top" xlink:title="set countdown until photo is taken">
<polygon fill="none" stroke="black" points="351,-1048.5 351,-1078.5 506,-1078.5 506,-1048.5 351,-1048.5"/>
<text text-anchor="start" x="359" y="-1066.5" font-family="Helvetica,sans-Serif" font-size="10.00">FotoBox::PreferenceProvider</text>
<text text-anchor="middle" x="428.5" y="-1055.5" font-family="Helvetica,sans-Serif" font-size="10.00">::setCountdown</text>
</a>
</g>
</g>
<!-- Node2&#45;&gt;Node11 -->
<g id="edge10" class="edge">
<title>Node2&#45;&gt;Node11</title>
<path fill="none" stroke="midnightblue" d="M236.63,-857.72C247.48,-894.74 280.36,-990.06 343,-1039.5 344.62,-1040.78 346.3,-1041.98 348.03,-1043.13"/>
<polygon fill="midnightblue" stroke="midnightblue" points="346.68,-1046.38 357.09,-1048.33 350.16,-1040.31 346.68,-1046.38"/>
</g>
<!-- Node12 -->
<g id="node12" class="node">
<title>Node12</title>
<g id="a_node12"><a xlink:href="class_foto_box_1_1_preference_provider.html#a7b708611c3769b53f4522f80000715cb" target="_top" xlink:title="set font color of the countdown">
<polygon fill="none" stroke="black" points="351,-999.5 351,-1029.5 506,-1029.5 506,-999.5 351,-999.5"/>
<text text-anchor="start" x="359" y="-1017.5" font-family="Helvetica,sans-Serif" font-size="10.00">FotoBox::PreferenceProvider</text>
<text text-anchor="middle" x="428.5" y="-1006.5" font-family="Helvetica,sans-Serif" font-size="10.00">::setCountdownColor</text>
</a>
</g>
</g>
<!-- Node2&#45;&gt;Node12 -->
<g id="edge11" class="edge">
<title>Node2&#45;&gt;Node12</title>
<path fill="none" stroke="midnightblue" d="M239.56,-857.66C254.34,-887.73 291.5,-955.03 343,-990.5 345.28,-992.07 347.65,-993.53 350.11,-994.9"/>
<polygon fill="midnightblue" stroke="midnightblue" points="348.76,-998.14 359.27,-999.46 351.88,-991.88 348.76,-998.14"/>
</g>
<!-- Node13 -->
<g id="node13" class="node">
<title>Node13</title>
<g id="a_node13"><a xlink:href="class_foto_box_1_1_preference_provider.html#a87794964fc7fda2924a29b1e99303e7b" target="_top" xlink:title="set grayscale bool (monochrome photography)">
<polygon fill="none" stroke="black" points="351,-950.5 351,-980.5 506,-980.5 506,-950.5 351,-950.5"/>
<text text-anchor="start" x="359" y="-968.5" font-family="Helvetica,sans-Serif" font-size="10.00">FotoBox::PreferenceProvider</text>
<text text-anchor="middle" x="428.5" y="-957.5" font-family="Helvetica,sans-Serif" font-size="10.00">::setGrayscale</text>
</a>
</g>
</g>
<!-- Node2&#45;&gt;Node13 -->
<g id="edge12" class="edge">
<title>Node2&#45;&gt;Node13</title>
<path fill="none" stroke="midnightblue" d="M245.2,-857.58C264.26,-879.27 302.39,-919.12 343,-941.5 346.26,-943.3 349.67,-944.97 353.17,-946.53"/>
<polygon fill="midnightblue" stroke="midnightblue" points="352.03,-949.84 362.61,-950.38 354.67,-943.36 352.03,-949.84"/>
</g>
<!-- Node14 -->
<g id="node14" class="node">
<title>Node14</title>
<g id="a_node14"><a xlink:href="class_foto_box_1_1_preference_provider.html#a0d519f737a0c8088d5ace8ac89427938" target="_top" xlink:title="set pigpio GPIO input pin">
<polygon fill="none" stroke="black" points="351,-901.5 351,-931.5 506,-931.5 506,-901.5 351,-901.5"/>
<text text-anchor="start" x="359" y="-919.5" font-family="Helvetica,sans-Serif" font-size="10.00">FotoBox::PreferenceProvider</text>
<text text-anchor="middle" x="428.5" y="-908.5" font-family="Helvetica,sans-Serif" font-size="10.00">::setInputPin</text>
</a>
</g>
</g>
<!-- Node2&#45;&gt;Node14 -->
<g id="edge13" class="edge">
<title>Node2&#45;&gt;Node14</title>
<path fill="none" stroke="midnightblue" d="M262.48,-857.53C284.43,-868.16 315.12,-882.3 343,-892.5 348.5,-894.51 354.26,-896.47 360.07,-898.33"/>
<polygon fill="midnightblue" stroke="midnightblue" points="359.27,-901.74 369.86,-901.37 361.35,-895.06 359.27,-901.74"/>
</g>
<!-- Node15 -->
<g id="node15" class="node">
<title>Node15</title>
<g id="a_node15"><a xlink:href="class_foto_box_1_1_preference_provider.html#a0695c2fba0ca904d9050141f28f3a060" target="_top" xlink:title="set pigpio GPIO output pin">
<polygon fill="none" stroke="black" points="351,-852.5 351,-882.5 506,-882.5 506,-852.5 351,-852.5"/>
<text text-anchor="start" x="359" y="-870.5" font-family="Helvetica,sans-Serif" font-size="10.00">FotoBox::PreferenceProvider</text>
<text text-anchor="middle" x="428.5" y="-859.5" font-family="Helvetica,sans-Serif" font-size="10.00">::setOutputPin</text>
</a>
</g>
</g>
<!-- Node2&#45;&gt;Node15 -->
<g id="edge14" class="edge">
<title>Node2&#45;&gt;Node15</title>
<path fill="none" stroke="midnightblue" d="M291.54,-850.07C307.04,-852.06 324.09,-854.24 340.71,-856.37"/>
<polygon fill="midnightblue" stroke="midnightblue" points="340.63,-859.89 350.99,-857.69 341.52,-852.95 340.63,-859.89"/>
</g>
<!-- Node16 -->
<g id="node16" class="node">
<title>Node16</title>
<g id="a_node16"><a xlink:href="class_foto_box_1_1_preference_provider.html#a6117601b372c41301c884fc428a90adb" target="_top" xlink:title="set photo output directory">
<polygon fill="none" stroke="black" points="351,-803.5 351,-833.5 506,-833.5 506,-803.5 351,-803.5"/>
<text text-anchor="start" x="359" y="-821.5" font-family="Helvetica,sans-Serif" font-size="10.00">FotoBox::PreferenceProvider</text>
<text text-anchor="middle" x="428.5" y="-810.5" font-family="Helvetica,sans-Serif" font-size="10.00">::setPhotoFolder</text>
</a>
</g>
</g>
<!-- Node2&#45;&gt;Node16 -->
<g id="edge15" class="edge">
<title>Node2&#45;&gt;Node16</title>
<path fill="none" stroke="midnightblue" d="M291.54,-835.23C307.04,-833.33 324.09,-831.23 340.71,-829.18"/>
<polygon fill="midnightblue" stroke="midnightblue" points="341.5,-832.61 350.99,-827.92 340.64,-825.66 341.5,-832.61"/>
</g>
<!-- Node17 -->
<g id="node17" class="node">
<title>Node17</title>
<g id="a_node17"><a xlink:href="class_foto_box_1_1_preference_provider.html#a670b835f495cf676cc2bb820c39ce2fb" target="_top" xlink:title="set photo name template">
<polygon fill="none" stroke="black" points="351,-754.5 351,-784.5 506,-784.5 506,-754.5 351,-754.5"/>
<text text-anchor="start" x="359" y="-772.5" font-family="Helvetica,sans-Serif" font-size="10.00">FotoBox::PreferenceProvider</text>
<text text-anchor="middle" x="428.5" y="-761.5" font-family="Helvetica,sans-Serif" font-size="10.00">::setPhotoName</text>
</a>
</g>
</g>
<!-- Node2&#45;&gt;Node17 -->
<g id="edge16" class="edge">
<title>Node2&#45;&gt;Node17</title>
<path fill="none" stroke="midnightblue" d="M264.48,-827.37C286.32,-817.35 316.07,-804.29 343,-794.5 349.47,-792.15 356.28,-789.85 363.11,-787.66"/>
<polygon fill="midnightblue" stroke="midnightblue" points="364.59,-790.86 373.09,-784.53 362.5,-784.18 364.59,-790.86"/>
</g>
<!-- Node18 -->
<g id="node18" class="node">
<title>Node18</title>
<g id="a_node18"><a xlink:href="class_foto_box_1_1_preference_provider.html#ab5f23825886485a3214d033fb3cb3d94" target="_top" xlink:title="set print on or off">
<polygon fill="none" stroke="black" points="351,-705.5 351,-735.5 506,-735.5 506,-705.5 351,-705.5"/>
<text text-anchor="start" x="359" y="-723.5" font-family="Helvetica,sans-Serif" font-size="10.00">FotoBox::PreferenceProvider</text>
<text text-anchor="middle" x="428.5" y="-712.5" font-family="Helvetica,sans-Serif" font-size="10.00">::setPrint</text>
</a>
</g>
</g>
<!-- Node2&#45;&gt;Node18 -->
<g id="edge17" class="edge">
<title>Node2&#45;&gt;Node18</title>
<path fill="none" stroke="midnightblue" d="M245.62,-827.44C264.91,-806.2 302.99,-767.57 343,-745.5 347.14,-743.22 351.5,-741.12 355.99,-739.2"/>
<polygon fill="midnightblue" stroke="midnightblue" points="357.31,-742.45 365.31,-735.51 354.73,-735.94 357.31,-742.45"/>
</g>
<!-- Node19 -->
<g id="node19" class="node">
<title>Node19</title>
<g id="a_node19"><a xlink:href="class_foto_box_1_1_preference_provider.html#a69566b1879bf2f4ac38628ed1b6e4254" target="_top" xlink:title="set printer name">
<polygon fill="none" stroke="black" points="351,-656.5 351,-686.5 506,-686.5 506,-656.5 351,-656.5"/>
<text text-anchor="start" x="359" y="-674.5" font-family="Helvetica,sans-Serif" font-size="10.00">FotoBox::PreferenceProvider</text>
<text text-anchor="middle" x="428.5" y="-663.5" font-family="Helvetica,sans-Serif" font-size="10.00">::setPrinterName</text>
</a>
</g>
</g>
<!-- Node2&#45;&gt;Node19 -->
<g id="edge18" class="edge">
<title>Node2&#45;&gt;Node19</title>
<path fill="none" stroke="midnightblue" d="M239.88,-827.13C254.98,-797.34 292.29,-731.59 343,-696.5 345.85,-694.53 348.87,-692.7 351.99,-691.02"/>
<polygon fill="midnightblue" stroke="midnightblue" points="353.54,-694.16 361.02,-686.66 350.49,-687.86 353.54,-694.16"/>
</g>
<!-- Node20 -->
<g id="node20" class="node">
<title>Node20</title>
<g id="a_node20"><a xlink:href="class_foto_box_1_1_preference_provider.html#a32aa584eae175d3ca631d55c36569f82" target="_top" xlink:title="set how often the pin should be queried">
<polygon fill="none" stroke="black" points="351,-607.5 351,-637.5 506,-637.5 506,-607.5 351,-607.5"/>
<text text-anchor="start" x="359" y="-625.5" font-family="Helvetica,sans-Serif" font-size="10.00">FotoBox::PreferenceProvider</text>
<text text-anchor="middle" x="428.5" y="-614.5" font-family="Helvetica,sans-Serif" font-size="10.00">::setQueryInterval</text>
</a>
</g>
</g>
<!-- Node2&#45;&gt;Node20 -->
<g id="edge19" class="edge">
<title>Node2&#45;&gt;Node20</title>
<path fill="none" stroke="midnightblue" d="M236.71,-827.48C247.75,-790.93 281,-696.76 343,-647.5 345.3,-645.67 347.73,-643.98 350.27,-642.4"/>
<polygon fill="midnightblue" stroke="midnightblue" points="352.1,-645.39 359.2,-637.52 348.75,-639.25 352.1,-645.39"/>
</g>
<!-- Node21 -->
<g id="node21" class="node">
<title>Node21</title>
<g id="a_node21"><a xlink:href="class_foto_box_1_1_preference_provider.html#a7840df5033dc0e5a6b49c7518dbd0558" target="_top" xlink:title="set whether buttons are displayed on the UI">
<polygon fill="none" stroke="black" points="351,-558.5 351,-588.5 506,-588.5 506,-558.5 351,-558.5"/>
<text text-anchor="start" x="359" y="-576.5" font-family="Helvetica,sans-Serif" font-size="10.00">FotoBox::PreferenceProvider</text>
<text text-anchor="middle" x="428.5" y="-565.5" font-family="Helvetica,sans-Serif" font-size="10.00">::setShowButtons</text>
</a>
</g>
</g>
<!-- Node2&#45;&gt;Node21 -->
<g id="edge20" class="edge">
<title>Node2&#45;&gt;Node21</title>
<path fill="none" stroke="midnightblue" d="M234.9,-827.3C242.44,-784.57 269.71,-662.34 343,-598.5 344.78,-596.95 346.65,-595.49 348.6,-594.13"/>
<polygon fill="midnightblue" stroke="midnightblue" points="350.82,-596.87 357.57,-588.7 347.2,-590.89 350.82,-596.87"/>
</g>
<!-- Node22 -->
<g id="node22" class="node">
<title>Node22</title>
<g id="a_node22"><a xlink:href="class_foto_box_1_1_preference_provider.html#a398eb2e80356a55fd80d91aa8dba991f" target="_top" xlink:title="set timeout value for the camera framework">
<polygon fill="none" stroke="black" points="351,-509.5 351,-539.5 506,-539.5 506,-509.5 351,-509.5"/>
<text text-anchor="start" x="359" y="-527.5" font-family="Helvetica,sans-Serif" font-size="10.00">FotoBox::PreferenceProvider</text>
<text text-anchor="middle" x="428.5" y="-516.5" font-family="Helvetica,sans-Serif" font-size="10.00">::setTimeoutValue</text>
</a>
</g>
</g>
<!-- Node2&#45;&gt;Node22 -->
<g id="edge21" class="edge">
<title>Node2&#45;&gt;Node22</title>
<path fill="none" stroke="midnightblue" d="M233.6,-827.49C237.92,-779.53 257.99,-628.52 343,-549.5 344.68,-547.93 346.46,-546.47 348.32,-545.09"/>
<polygon fill="midnightblue" stroke="midnightblue" points="350.34,-547.95 356.89,-539.62 346.57,-542.05 350.34,-547.95"/>
</g>
<!-- Node23 -->
<g id="node23" class="node">
<title>Node23</title>
<g id="a_node23"><a xlink:href="class_foto_box_1_1_preferences.html#aa25f9c227ed5bc30251eb1723bb41913" target="_top" xlink:title="Show the given color in QLineEdit.">
<polygon fill="none" stroke="black" points="368.5,-460.5 368.5,-490.5 488.5,-490.5 488.5,-460.5 368.5,-460.5"/>
<text text-anchor="start" x="376.5" y="-478.5" font-family="Helvetica,sans-Serif" font-size="10.00">FotoBox::Preferences</text>
<text text-anchor="middle" x="428.5" y="-467.5" font-family="Helvetica,sans-Serif" font-size="10.00">::showColor</text>
</a>
</g>
</g>
<!-- Node2&#45;&gt;Node23 -->
<g id="edge22" class="edge">
<title>Node2&#45;&gt;Node23</title>
<path fill="none" stroke="midnightblue" d="M232.67,-827.32C234.13,-774.21 246.3,-594.83 343,-500.5 347.67,-495.94 353.13,-492.21 358.99,-489.15"/>
<polygon fill="midnightblue" stroke="midnightblue" points="360.78,-492.19 368.46,-484.89 357.91,-485.8 360.78,-492.19"/>
</g>
<!-- Node2&#45;&gt;Node24 -->
<g id="edge23" class="edge">
<title>Node2&#45;&gt;Node24</title>
<path fill="none" stroke="midnightblue" d="M233.54,-827.47C239.27,-748.76 269.47,-384.56 343,-304.5 347.59,-299.5 353.12,-295.49 359.14,-292.26"/>
<polygon fill="midnightblue" stroke="midnightblue" points="360.61,-295.44 368.24,-288.08 357.69,-289.08 360.61,-295.44"/>
</g>
<!-- Node25 -->
<g id="node25" class="node">
<title>Node25</title>
<g id="a_node25"><a xlink:href="class_foto_box_1_1_preferences.html#a93d473fdedfa04aa9cb2d8352a555811" target="_top" xlink:title="Stop countdown, stop mouse tracking and set normal window title name.">
<polygon fill="none" stroke="black" points="366,-411.5 366,-441.5 491,-441.5 491,-411.5 366,-411.5"/>
<text text-anchor="start" x="374" y="-429.5" font-family="Helvetica,sans-Serif" font-size="10.00">FotoBox::Preferences</text>
<text text-anchor="middle" x="428.5" y="-418.5" font-family="Helvetica,sans-Serif" font-size="10.00">::stopCountdownMode</text>
</a>
</g>
</g>
<!-- Node2&#45;&gt;Node25 -->
<g id="edge24" class="edge">
<title>Node2&#45;&gt;Node25</title>
<path fill="none" stroke="midnightblue" d="M231.95,-827.25C230.75,-769.41 234.43,-561.4 343,-451.5 346.96,-447.49 351.54,-444.11 356.47,-441.27"/>
<polygon fill="midnightblue" stroke="midnightblue" points="358.26,-444.29 365.67,-436.72 355.15,-438.02 358.26,-444.29"/>
</g>
<!-- Node26 -->
<g id="node26" class="node">
<title>Node26</title>
<g id="a_node26"><a xlink:href="class_foto_box_1_1_preferences.html#ac38b051f496717a3a950d939cc4792f0" target="_top" xlink:title="Check camera application availability and provide help if needed.">
<polygon fill="none" stroke="black" points="368.5,-362.5 368.5,-392.5 488.5,-392.5 488.5,-362.5 368.5,-362.5"/>
<text text-anchor="start" x="376.5" y="-380.5" font-family="Helvetica,sans-Serif" font-size="10.00">FotoBox::Preferences</text>
<text text-anchor="middle" x="428.5" y="-369.5" font-family="Helvetica,sans-Serif" font-size="10.00">::verifyApplication</text>
</a>
</g>
</g>
<!-- Node2&#45;&gt;Node26 -->
<g id="edge25" class="edge">
<title>Node2&#45;&gt;Node26</title>
<path fill="none" stroke="midnightblue" d="M234.33,-827.05C242.96,-756.58 281.8,-466.3 343,-402.5 347.52,-397.79 352.88,-393.96 358.67,-390.84"/>
<polygon fill="midnightblue" stroke="midnightblue" points="360.46,-393.87 368.07,-386.5 357.53,-387.51 360.46,-393.87"/>
</g>
<!-- Node27 -->
<g id="node27" class="node">
<title>Node27</title>
<g id="a_node27"><a xlink:href="class_foto_box_1_1_preferences.html#af2e2427b8c2ff8d2b61faf91ba642607" target="_top" xlink:title="Check if the path is useable.">
<polygon fill="none" stroke="black" points="368.5,-313.5 368.5,-343.5 488.5,-343.5 488.5,-313.5 368.5,-313.5"/>
<text text-anchor="start" x="376.5" y="-331.5" font-family="Helvetica,sans-Serif" font-size="10.00">FotoBox::Preferences</text>
<text text-anchor="middle" x="428.5" y="-320.5" font-family="Helvetica,sans-Serif" font-size="10.00">::verifyPath</text>
</a>
</g>
</g>
<!-- Node2&#45;&gt;Node27 -->
<g id="edge26" class="edge">
<title>Node2&#45;&gt;Node27</title>
<path fill="none" stroke="midnightblue" d="M233.88,-827.38C240.97,-752.87 275.62,-425.44 343,-353.5 347.64,-348.55 353.2,-344.56 359.24,-341.36"/>
<polygon fill="midnightblue" stroke="midnightblue" points="360.72,-344.53 368.36,-337.19 357.81,-338.16 360.72,-344.53"/>
</g>
<!-- Node30 -->
<g id="node30" class="node">
<title>Node30</title>
<g id="a_node30"><a xlink:href="class_foto_box_1_1_buzzer.html#a2b6773447018222d5040f883640fe803" target="_top" xlink:title="Check if pigpio daemon is reachable.">
<polygon fill="none" stroke="black" points="343,-202 343,-221 514,-221 514,-202 343,-202"/>
<text text-anchor="middle" x="428.5" y="-209" font-family="Helvetica,sans-Serif" font-size="10.00">FotoBox::Buzzer::checkDeamon</text>
</a>
</g>
</g>
<!-- Node29&#45;&gt;Node30 -->
<g id="edge29" class="edge">
<title>Node29&#45;&gt;Node30</title>
<path fill="none" stroke="midnightblue" d="M291.54,-211.5C304.52,-211.5 318.6,-211.5 332.6,-211.5"/>
<polygon fill="midnightblue" stroke="midnightblue" points="332.77,-215 342.77,-211.5 332.77,-208 332.77,-215"/>
</g>
</g>
</svg>
