<?xml version="1.0" encoding="UTF-8" standalone="no"?>
<!DOCTYPE svg PUBLIC "-//W3C//DTD SVG 1.1//EN"
 "http://www.w3.org/Graphics/SVG/1.1/DTD/svg11.dtd">
<!-- Generated by graphviz version 2.46.1 (20210213.1702)
 -->
<!-- Title: Preferences::mouseMoveEvent Pages: 1 -->
<svg width="508pt" height="66pt"
 viewBox="0.00 0.00 508.00 66.00" xmlns="http://www.w3.org/2000/svg" xmlns:xlink="http://www.w3.org/1999/xlink">
<g id="graph0" class="graph" transform="scale(1 1) rotate(0) translate(4 62)">
<title>Preferences::mouseMoveEvent</title>
<!-- Node1 -->
<g id="node1" class="node">
<title>Node1</title>
<g id="a_node1"><a xlink:title="This event handler, for event event, can be reimplemented in a subclass to receive mouse move events ...">
<polygon fill="#bfbfbf" stroke="black" points="0,-19.5 0,-38.5 154,-38.5 154,-19.5 0,-19.5"/>
<text text-anchor="middle" x="77" y="-26.5" font-family="Helvetica,sans-Serif" font-size="10.00">Preferences::mouseMoveEvent</text>
</a>
</g>
</g>
<!-- Node2 -->
<g id="node2" class="node">
<title>Node2</title>
<g id="a_node2"><a xlink:href="class_preferences.html#a1dcf663eabce314027a86d17d1d4867b" target="_top" xlink:title="Stop countdown, stop mouse tracking and set normal window title name.">
<polygon fill="none" stroke="black" points="190,-19.5 190,-38.5 357,-38.5 357,-19.5 190,-19.5"/>
<text text-anchor="middle" x="273.5" y="-26.5" font-family="Helvetica,sans-Serif" font-size="10.00">Preferences::stopCountdownMode</text>
</a>
</g>
</g>
<!-- Node1&#45;&gt;Node2 -->
<g id="edge1" class="edge">
<title>Node1&#45;&gt;Node2</title>
<path fill="none" stroke="midnightblue" d="M154.03,-29C162.46,-29 171.11,-29 179.71,-29"/>
<polygon fill="midnightblue" stroke="midnightblue" points="179.76,-32.5 189.76,-29 179.76,-25.5 179.76,-32.5"/>
</g>
<!-- Node3 -->
<g id="node3" class="node">
<title>Node3</title>
<g id="a_node3"><a xlink:href="class_countdown.html#af682a75d0c6f682fd699d0cf42ba9088" target="_top" xlink:title="Show countdown status.">
<polygon fill="none" stroke="black" points="393,-38.5 393,-57.5 500,-57.5 500,-38.5 393,-38.5"/>
<text text-anchor="middle" x="446.5" y="-45.5" font-family="Helvetica,sans-Serif" font-size="10.00">Countdown::isActive</text>
</a>
</g>
</g>
<!-- Node2&#45;&gt;Node3 -->
<g id="edge2" class="edge">
<title>Node2&#45;&gt;Node3</title>
<path fill="none" stroke="midnightblue" d="M357.25,-38.19C365.85,-39.15 374.49,-40.11 382.83,-41.04"/>
<polygon fill="midnightblue" stroke="midnightblue" points="382.49,-44.52 392.81,-42.15 383.26,-37.56 382.49,-44.52"/>
</g>
<!-- Node4 -->
<g id="node4" class="node">
<title>Node4</title>
<g id="a_node4"><a xlink:href="class_countdown.html#ad7212649cb592a77bbf5ccdf82a5582c" target="_top" xlink:title="Stop countdown and check.">
<polygon fill="none" stroke="black" points="401,-0.5 401,-19.5 492,-19.5 492,-0.5 401,-0.5"/>
<text text-anchor="middle" x="446.5" y="-7.5" font-family="Helvetica,sans-Serif" font-size="10.00">Countdown::stop</text>
</a>
</g>
</g>
<!-- Node2&#45;&gt;Node4 -->
<g id="edge3" class="edge">
<title>Node2&#45;&gt;Node4</title>
<path fill="none" stroke="midnightblue" d="M357.25,-19.81C368.62,-18.54 380.05,-17.27 390.75,-16.08"/>
<polygon fill="midnightblue" stroke="midnightblue" points="391.19,-19.56 400.75,-14.97 390.42,-12.6 391.19,-19.56"/>
</g>
</g>
</svg>
