<?xml version="1.0" encoding="UTF-8" standalone="no"?>
<!DOCTYPE svg PUBLIC "-//W3C//DTD SVG 1.1//EN"
 "http://www.w3.org/Graphics/SVG/1.1/DTD/svg11.dtd">
<!-- Generated by graphviz version 2.46.1 (20210213.1702)
 -->
<!-- Title: Preferences::connectUi Pages: 1 -->
<!--zoomable 1167 -->
<svg id="main" version="1.1" xmlns="http://www.w3.org/2000/svg" xmlns:xlink="http://www.w3.org/1999/xlink" xml:space="preserve" onload="init(evt)">
<style type="text/css"><![CDATA[
.edge:hover path { stroke: red; }
.edge:hover polygon { stroke: red; fill: red; }
]]></style>
<script type="text/javascript"><![CDATA[
var edges = document.getElementsByTagName('g');
if (edges && edges.length) {
  for (var i=0;i<edges.length;i++) {
    if (edges[i].id.substr(0,4)=='edge') {
      edges[i].setAttribute('class','edge');
    }
  }
}
]]></script>
        <defs>
                <circle id="rim" cx="0" cy="0" r="7"/>
                <circle id="rim2" cx="0" cy="0" r="3.5"/>
                <g id="zoomPlus">
                        <use xlink:href="#rim" fill="#404040">
                                <set attributeName="fill" to="#808080" begin="zoomplus.mouseover" end="zoomplus.mouseout"/>
                        </use>
                        <path d="M-4,0h8M0,-4v8" fill="none" stroke="white" stroke-width="1.5" pointer-events="none"/>
                </g>
                <g id="zoomMin">
                        <use xlink:href="#rim" fill="#404040">
                                <set attributeName="fill" to="#808080" begin="zoomminus.mouseover" end="zoomminus.mouseout"/>
                        </use>
                        <path d="M-4,0h8" fill="none" stroke="white" stroke-width="1.5" pointer-events="none"/>
                </g>
                <g id="dirArrow">
                        <path fill="none" stroke="white" stroke-width="1.5" d="M0,-3.0v7 M-2.5,-0.5L0,-3.0L2.5,-0.5"/>
                </g>
               <g id="resetDef">
                       <use xlink:href="#rim2" fill="#404040">
                               <set attributeName="fill" to="#808080" begin="reset.mouseover" end="reset.mouseout"/>
                       </use>
               </g>
        </defs>

<script type="text/javascript">
var viewWidth = 651;
var viewHeight = 1167;
var sectionId = 'dynsection-10';
</script>
<script xlink:href="svgpan.js"/>
<svg id="graph" class="graph">
<g id="viewport">
<title>Preferences::connectUi</title>
<!-- Node1 -->
<g id="node1" class="node">
<title>Node1</title>
<g id="a_node1"><a xlink:title="Signal &amp; Slot connect.">
<polygon fill="#bfbfbf" stroke="black" points="0,-600.5 0,-619.5 119,-619.5 119,-600.5 0,-600.5"/>
<text text-anchor="middle" x="59.5" y="-607.5" font-family="Helvetica,sans-Serif" font-size="10.00">Preferences::connectUi</text>
</a>
</g>
</g>
<!-- Node2 -->
<g id="node2" class="node">
<title>Node2</title>
<g id="a_node2"><a xlink:href="class_preferences.html#a9502fa3d4df242273f10f836ec3fc86c" target="_top" xlink:title="Open a QFileDialog to choose the photo directory.">
<polygon fill="none" stroke="black" points="165.5,-1139.5 165.5,-1158.5 311.5,-1158.5 311.5,-1139.5 165.5,-1139.5"/>
<text text-anchor="middle" x="238.5" y="-1146.5" font-family="Helvetica,sans-Serif" font-size="10.00">Preferences::chooseDirectory</text>
</a>
</g>
</g>
<!-- Node1&#45;&gt;Node2 -->
<g id="edge1" class="edge">
<title>Node1&#45;&gt;Node2</title>
<path fill="none" stroke="midnightblue" d="M60.93,-619.82C63.96,-684.26 84.02,-1046.41 155,-1125 158.47,-1128.85 162.52,-1132.09 166.93,-1134.82"/>
<polygon fill="midnightblue" stroke="midnightblue" points="165.3,-1137.92 175.78,-1139.48 168.56,-1131.73 165.3,-1137.92"/>
</g>
<!-- Node3 -->
<g id="node3" class="node">
<title>Node3</title>
<g id="a_node3"><a xlink:href="class_preferences.html#a7afa980f5dd5b686e1c46fa971c2543f" target="_top" xlink:title="Check if the path is useable.">
<polygon fill="none" stroke="black" points="373,-1126.5 373,-1145.5 492,-1145.5 492,-1126.5 373,-1126.5"/>
<text text-anchor="middle" x="432.5" y="-1133.5" font-family="Helvetica,sans-Serif" font-size="10.00">Preferences::verifyPath</text>
</a>
</g>
</g>
<!-- Node1&#45;&gt;Node3 -->
<g id="edge34" class="edge">
<title>Node1&#45;&gt;Node3</title>
<path fill="none" stroke="midnightblue" d="M60.98,-619.56C64.23,-680.77 85.16,-1017.34 155,-1086 183.72,-1114.24 290.43,-1126.85 362.57,-1132.25"/>
<polygon fill="midnightblue" stroke="midnightblue" points="362.73,-1135.77 372.95,-1132.99 363.23,-1128.78 362.73,-1135.77"/>
</g>
<!-- Node4 -->
<g id="node4" class="node">
<title>Node4</title>
<g id="a_node4"><a xlink:href="class_preferences.html#a183e931ddd91f03ac2b9cf40f8d9f434" target="_top" xlink:title="Clear directory content of the photo directory.">
<polygon fill="none" stroke="black" points="364.5,-1064 364.5,-1094 500.5,-1094 500.5,-1064 364.5,-1064"/>
<text text-anchor="start" x="372.5" y="-1082" font-family="Helvetica,sans-Serif" font-size="10.00">Preferences::clearDirectory</text>
<text text-anchor="middle" x="432.5" y="-1071" font-family="Helvetica,sans-Serif" font-size="10.00">Content</text>
</a>
</g>
</g>
<!-- Node1&#45;&gt;Node4 -->
<g id="edge3" class="edge">
<title>Node1&#45;&gt;Node4</title>
<path fill="none" stroke="midnightblue" d="M61.09,-619.63C64.89,-678.44 87.96,-988.59 155,-1049 208.26,-1096.99 292.76,-1099.41 354.34,-1092.97"/>
<polygon fill="midnightblue" stroke="midnightblue" points="354.86,-1096.43 364.4,-1091.82 354.07,-1089.47 354.86,-1096.43"/>
</g>
<!-- Node5 -->
<g id="node5" class="node">
<title>Node5</title>
<g id="a_node5"><a xlink:href="class_preference_provider.html#a786d1bce48ec60ae6d1809ad01bc5cdb" target="_top" xlink:title="get instance (Meyers Singleton)">
<polygon fill="none" stroke="black" points="543,-1020 543,-1050 643,-1050 643,-1020 543,-1020"/>
<text text-anchor="start" x="551" y="-1038" font-family="Helvetica,sans-Serif" font-size="10.00">PreferenceProvider</text>
<text text-anchor="middle" x="593" y="-1027" font-family="Helvetica,sans-Serif" font-size="10.00">::instance</text>
</a>
</g>
</g>
<!-- Node1&#45;&gt;Node5 -->
<g id="edge7" class="edge">
<title>Node1&#45;&gt;Node5</title>
<path fill="none" stroke="midnightblue" d="M61.22,-619.7C65.6,-676.24 90.82,-962.73 155,-1016 183.33,-1039.52 419.55,-1038.31 532.41,-1036.34"/>
<polygon fill="midnightblue" stroke="midnightblue" points="532.67,-1039.83 542.61,-1036.15 532.55,-1032.83 532.67,-1039.83"/>
</g>
<!-- Node6 -->
<g id="node6" class="node">
<title>Node6</title>
<g id="a_node6"><a xlink:href="class_preferences.html#a75a9b09142771785f070cfdec79b7240" target="_top" xlink:title="Open a color picker to choose background color for FotoBox.">
<polygon fill="none" stroke="black" points="176.5,-987.5 176.5,-1006.5 300.5,-1006.5 300.5,-987.5 176.5,-987.5"/>
<text text-anchor="middle" x="238.5" y="-994.5" font-family="Helvetica,sans-Serif" font-size="10.00">Preferences::colorDialog</text>
</a>
</g>
</g>
<!-- Node1&#45;&gt;Node6 -->
<g id="edge5" class="edge">
<title>Node1&#45;&gt;Node6</title>
<path fill="none" stroke="midnightblue" d="M61.63,-619.66C67.98,-672.41 100.93,-925.27 155,-978 158.56,-981.47 162.62,-984.36 166.99,-986.75"/>
<polygon fill="midnightblue" stroke="midnightblue" points="165.77,-990.05 176.32,-991.01 168.67,-983.68 165.77,-990.05"/>
</g>
<!-- Node7 -->
<g id="node7" class="node">
<title>Node7</title>
<g id="a_node7"><a xlink:href="class_preferences.html#a5bd81120037390a1e90e79f88741f871" target="_top" xlink:title="Show help dialog for gphoto2/raspistill command line options.">
<polygon fill="none" stroke="black" points="170.5,-938 170.5,-968 306.5,-968 306.5,-938 170.5,-938"/>
<text text-anchor="start" x="178.5" y="-956" font-family="Helvetica,sans-Serif" font-size="10.00">Preferences::commandLine</text>
<text text-anchor="middle" x="238.5" y="-945" font-family="Helvetica,sans-Serif" font-size="10.00">OptionsDialog</text>
</a>
</g>
</g>
<!-- Node1&#45;&gt;Node7 -->
<g id="edge6" class="edge">
<title>Node1&#45;&gt;Node7</title>
<path fill="none" stroke="midnightblue" d="M60.26,-619.72C59.74,-662.73 63.49,-837.94 155,-929 157.08,-931.07 159.33,-932.97 161.71,-934.7"/>
<polygon fill="midnightblue" stroke="midnightblue" points="159.9,-937.69 170.24,-939.99 163.59,-931.75 159.9,-937.69"/>
</g>
<!-- Node8 -->
<g id="node8" class="node">
<title>Node8</title>
<g id="a_node8"><a xlink:href="class_preference_provider.html#aceb3571b645bc00b9b5d1487430fe353" target="_top" xlink:title="set camera framework arguments">
<polygon fill="none" stroke="black" points="188.5,-889 188.5,-919 288.5,-919 288.5,-889 188.5,-889"/>
<text text-anchor="start" x="196.5" y="-907" font-family="Helvetica,sans-Serif" font-size="10.00">PreferenceProvider</text>
<text text-anchor="middle" x="238.5" y="-896" font-family="Helvetica,sans-Serif" font-size="10.00">::setArgumentLine</text>
</a>
</g>
</g>
<!-- Node1&#45;&gt;Node8 -->
<g id="edge8" class="edge">
<title>Node1&#45;&gt;Node8</title>
<path fill="none" stroke="midnightblue" d="M60.85,-619.53C62.79,-658.14 75.34,-804.5 155,-880 161.68,-886.33 169.93,-891 178.61,-894.45"/>
<polygon fill="midnightblue" stroke="midnightblue" points="177.54,-897.78 188.13,-897.73 179.82,-891.17 177.54,-897.78"/>
</g>
<!-- Node9 -->
<g id="node9" class="node">
<title>Node9</title>
<g id="a_node9"><a xlink:href="class_preference_provider.html#af4933c411a01c5e867d9e84be03ced76" target="_top" xlink:title="set background color of the FotoBox UI">
<polygon fill="none" stroke="black" points="183,-840 183,-870 294,-870 294,-840 183,-840"/>
<text text-anchor="start" x="191" y="-858" font-family="Helvetica,sans-Serif" font-size="10.00">PreferenceProvider</text>
<text text-anchor="middle" x="238.5" y="-847" font-family="Helvetica,sans-Serif" font-size="10.00">::setBackgroundColor</text>
</a>
</g>
</g>
<!-- Node1&#45;&gt;Node9 -->
<g id="edge9" class="edge">
<title>Node1&#45;&gt;Node9</title>
<path fill="none" stroke="midnightblue" d="M61.69,-619.64C66.45,-653.91 87.22,-770.96 155,-831 160.45,-835.83 166.82,-839.69 173.56,-842.77"/>
<polygon fill="midnightblue" stroke="midnightblue" points="172.35,-846.06 182.94,-846.52 174.95,-839.56 172.35,-846.06"/>
</g>
<!-- Node10 -->
<g id="node10" class="node">
<title>Node10</title>
<g id="a_node10"><a xlink:href="class_preference_provider.html#a5e11ae30693fee31194bfb4f41db49a1" target="_top" xlink:title="set the camera framework to be used">
<polygon fill="none" stroke="black" points="188.5,-791 188.5,-821 288.5,-821 288.5,-791 188.5,-791"/>
<text text-anchor="start" x="196.5" y="-809" font-family="Helvetica,sans-Serif" font-size="10.00">PreferenceProvider</text>
<text text-anchor="middle" x="238.5" y="-798" font-family="Helvetica,sans-Serif" font-size="10.00">::setCameraMode</text>
</a>
</g>
</g>
<!-- Node1&#45;&gt;Node10 -->
<g id="edge10" class="edge">
<title>Node1&#45;&gt;Node10</title>
<path fill="none" stroke="midnightblue" d="M63.03,-619.91C71.08,-649.35 98.91,-737.03 155,-782 161.93,-787.56 170.11,-791.83 178.57,-795.11"/>
<polygon fill="midnightblue" stroke="midnightblue" points="177.6,-798.48 188.2,-798.41 179.87,-791.86 177.6,-798.48"/>
</g>
<!-- Node11 -->
<g id="node11" class="node">
<title>Node11</title>
<g id="a_node11"><a xlink:href="class_preference_provider.html#a068cad0d41fad0bf6157bda81f6aa4ad" target="_top" xlink:title="set countdown until photo is taken">
<polygon fill="none" stroke="black" points="188.5,-742 188.5,-772 288.5,-772 288.5,-742 188.5,-742"/>
<text text-anchor="start" x="196.5" y="-760" font-family="Helvetica,sans-Serif" font-size="10.00">PreferenceProvider</text>
<text text-anchor="middle" x="238.5" y="-749" font-family="Helvetica,sans-Serif" font-size="10.00">::setCountdown</text>
</a>
</g>
</g>
<!-- Node1&#45;&gt;Node11 -->
<g id="edge11" class="edge">
<title>Node1&#45;&gt;Node11</title>
<path fill="none" stroke="midnightblue" d="M65.17,-619.67C76.89,-642.89 109.86,-702.16 155,-733 162.08,-737.84 170.14,-741.71 178.39,-744.82"/>
<polygon fill="midnightblue" stroke="midnightblue" points="177.51,-748.21 188.11,-748.11 179.76,-741.58 177.51,-748.21"/>
</g>
<!-- Node12 -->
<g id="node12" class="node">
<title>Node12</title>
<g id="a_node12"><a xlink:href="class_preference_provider.html#ac9335b967576696b421ed3132f4ddea0" target="_top" xlink:title="set font color of the countdown">
<polygon fill="none" stroke="black" points="184,-693 184,-723 293,-723 293,-693 184,-693"/>
<text text-anchor="start" x="192" y="-711" font-family="Helvetica,sans-Serif" font-size="10.00">PreferenceProvider</text>
<text text-anchor="middle" x="238.5" y="-700" font-family="Helvetica,sans-Serif" font-size="10.00">::setCountdownColor</text>
</a>
</g>
</g>
<!-- Node1&#45;&gt;Node12 -->
<g id="edge12" class="edge">
<title>Node1&#45;&gt;Node12</title>
<path fill="none" stroke="midnightblue" d="M70.1,-619.61C86.25,-635.27 120.51,-666.32 155,-684 161.06,-687.11 167.59,-689.87 174.22,-692.32"/>
<polygon fill="midnightblue" stroke="midnightblue" points="173.38,-695.73 183.97,-695.67 175.66,-689.11 173.38,-695.73"/>
</g>
<!-- Node13 -->
<g id="node13" class="node">
<title>Node13</title>
<g id="a_node13"><a xlink:href="class_preference_provider.html#a9b2472b6dce4698760805ba8ccc19bc2" target="_top" xlink:title="set grayscale bool (monochrome photography)">
<polygon fill="none" stroke="black" points="188.5,-644 188.5,-674 288.5,-674 288.5,-644 188.5,-644"/>
<text text-anchor="start" x="196.5" y="-662" font-family="Helvetica,sans-Serif" font-size="10.00">PreferenceProvider</text>
<text text-anchor="middle" x="238.5" y="-651" font-family="Helvetica,sans-Serif" font-size="10.00">::setGrayscale</text>
</a>
</g>
</g>
<!-- Node1&#45;&gt;Node13 -->
<g id="edge13" class="edge">
<title>Node1&#45;&gt;Node13</title>
<path fill="none" stroke="midnightblue" d="M95.05,-619.56C118.7,-626.11 150.67,-634.96 178.33,-642.62"/>
<polygon fill="midnightblue" stroke="midnightblue" points="177.73,-646.09 188.31,-645.38 179.6,-639.34 177.73,-646.09"/>
</g>
<!-- Node14 -->
<g id="node14" class="node">
<title>Node14</title>
<g id="a_node14"><a xlink:href="class_preference_provider.html#a9b13df9d2fa39a4d98b369b7a51757b1" target="_top" xlink:title="set wiringPi GPIO input pin">
<polygon fill="none" stroke="black" points="188.5,-595 188.5,-625 288.5,-625 288.5,-595 188.5,-595"/>
<text text-anchor="start" x="196.5" y="-613" font-family="Helvetica,sans-Serif" font-size="10.00">PreferenceProvider</text>
<text text-anchor="middle" x="238.5" y="-602" font-family="Helvetica,sans-Serif" font-size="10.00">::setInputPin</text>
</a>
</g>
</g>
<!-- Node1&#45;&gt;Node14 -->
<g id="edge14" class="edge">
<title>Node1&#45;&gt;Node14</title>
<path fill="none" stroke="midnightblue" d="M119.44,-610C138.28,-610 159.13,-610 178.01,-610"/>
<polygon fill="midnightblue" stroke="midnightblue" points="178.27,-613.5 188.27,-610 178.27,-606.5 178.27,-613.5"/>
</g>
<!-- Node15 -->
<g id="node15" class="node">
<title>Node15</title>
<g id="a_node15"><a xlink:href="class_preference_provider.html#afec2a12f509e9a0d260ae7a82eababaa" target="_top" xlink:title="set wiringPi GPIO output pin">
<polygon fill="none" stroke="black" points="188.5,-546 188.5,-576 288.5,-576 288.5,-546 188.5,-546"/>
<text text-anchor="start" x="196.5" y="-564" font-family="Helvetica,sans-Serif" font-size="10.00">PreferenceProvider</text>
<text text-anchor="middle" x="238.5" y="-553" font-family="Helvetica,sans-Serif" font-size="10.00">::setOutputPin</text>
</a>
</g>
</g>
<!-- Node1&#45;&gt;Node15 -->
<g id="edge15" class="edge">
<title>Node1&#45;&gt;Node15</title>
<path fill="none" stroke="midnightblue" d="M95.05,-600.44C118.7,-593.89 150.67,-585.04 178.33,-577.38"/>
<polygon fill="midnightblue" stroke="midnightblue" points="179.6,-580.66 188.31,-574.62 177.73,-573.91 179.6,-580.66"/>
</g>
<!-- Node16 -->
<g id="node16" class="node">
<title>Node16</title>
<g id="a_node16"><a xlink:href="class_preference_provider.html#a95b912f4fa5abb8eae8fc8a539a71150" target="_top" xlink:title="set photo output directory">
<polygon fill="none" stroke="black" points="188.5,-497 188.5,-527 288.5,-527 288.5,-497 188.5,-497"/>
<text text-anchor="start" x="196.5" y="-515" font-family="Helvetica,sans-Serif" font-size="10.00">PreferenceProvider</text>
<text text-anchor="middle" x="238.5" y="-504" font-family="Helvetica,sans-Serif" font-size="10.00">::setPhotoFolder</text>
</a>
</g>
</g>
<!-- Node1&#45;&gt;Node16 -->
<g id="edge16" class="edge">
<title>Node1&#45;&gt;Node16</title>
<path fill="none" stroke="midnightblue" d="M70.41,-600.32C86.74,-584.87 120.91,-554.57 155,-537 162.46,-533.16 170.61,-529.8 178.78,-526.89"/>
<polygon fill="midnightblue" stroke="midnightblue" points="179.98,-530.18 188.36,-523.69 177.76,-523.54 179.98,-530.18"/>
</g>
<!-- Node17 -->
<g id="node17" class="node">
<title>Node17</title>
<g id="a_node17"><a xlink:href="class_preference_provider.html#ae7acd2e7ff7fb5dba432423e8e9ff7db" target="_top" xlink:title="set photo name template">
<polygon fill="none" stroke="black" points="188.5,-448 188.5,-478 288.5,-478 288.5,-448 188.5,-448"/>
<text text-anchor="start" x="196.5" y="-466" font-family="Helvetica,sans-Serif" font-size="10.00">PreferenceProvider</text>
<text text-anchor="middle" x="238.5" y="-455" font-family="Helvetica,sans-Serif" font-size="10.00">::setPhotoName</text>
</a>
</g>
</g>
<!-- Node1&#45;&gt;Node17 -->
<g id="edge17" class="edge">
<title>Node1&#45;&gt;Node17</title>
<path fill="none" stroke="midnightblue" d="M65.21,-600.44C77.03,-577.48 110.2,-518.84 155,-488 162.16,-483.07 170.33,-479.08 178.67,-475.88"/>
<polygon fill="midnightblue" stroke="midnightblue" points="179.83,-479.18 188.12,-472.57 177.52,-472.57 179.83,-479.18"/>
</g>
<!-- Node18 -->
<g id="node18" class="node">
<title>Node18</title>
<g id="a_node18"><a xlink:href="class_preference_provider.html#ab5372fedb84b7567cf7a1ffa1e3b4126" target="_top" xlink:title="set print on or off">
<polygon fill="none" stroke="black" points="188.5,-399 188.5,-429 288.5,-429 288.5,-399 188.5,-399"/>
<text text-anchor="start" x="196.5" y="-417" font-family="Helvetica,sans-Serif" font-size="10.00">PreferenceProvider</text>
<text text-anchor="middle" x="238.5" y="-406" font-family="Helvetica,sans-Serif" font-size="10.00">::setPrint</text>
</a>
</g>
</g>
<!-- Node1&#45;&gt;Node18 -->
<g id="edge18" class="edge">
<title>Node1&#45;&gt;Node18</title>
<path fill="none" stroke="midnightblue" d="M63.08,-600.18C71.24,-570.99 99.35,-484.01 155,-439 161.93,-433.39 170.11,-429.04 178.57,-425.67"/>
<polygon fill="midnightblue" stroke="midnightblue" points="179.94,-428.89 188.2,-422.25 177.6,-422.3 179.94,-428.89"/>
</g>
<!-- Node19 -->
<g id="node19" class="node">
<title>Node19</title>
<g id="a_node19"><a xlink:href="class_preference_provider.html#a97dd2b33b6baeaa00eb87dd30ecd05e5" target="_top" xlink:title="set printer name">
<polygon fill="none" stroke="black" points="188.5,-350 188.5,-380 288.5,-380 288.5,-350 188.5,-350"/>
<text text-anchor="start" x="196.5" y="-368" font-family="Helvetica,sans-Serif" font-size="10.00">PreferenceProvider</text>
<text text-anchor="middle" x="238.5" y="-357" font-family="Helvetica,sans-Serif" font-size="10.00">::setPrinterName</text>
</a>
</g>
</g>
<!-- Node1&#45;&gt;Node19 -->
<g id="edge19" class="edge">
<title>Node1&#45;&gt;Node19</title>
<path fill="none" stroke="midnightblue" d="M61.73,-600.42C66.61,-566.4 87.76,-450.13 155,-390 161.8,-383.92 170.04,-379.32 178.65,-375.83"/>
<polygon fill="midnightblue" stroke="midnightblue" points="179.83,-379.13 188.08,-372.48 177.48,-372.53 179.83,-379.13"/>
</g>
<!-- Node20 -->
<g id="node20" class="node">
<title>Node20</title>
<g id="a_node20"><a xlink:href="class_preference_provider.html#aae1e1472caa7b4d6f3d8e17fe37dc20b" target="_top" xlink:title="set how often the pin should be queried">
<polygon fill="none" stroke="black" points="188.5,-301 188.5,-331 288.5,-331 288.5,-301 188.5,-301"/>
<text text-anchor="start" x="196.5" y="-319" font-family="Helvetica,sans-Serif" font-size="10.00">PreferenceProvider</text>
<text text-anchor="middle" x="238.5" y="-308" font-family="Helvetica,sans-Serif" font-size="10.00">::setQueryInterval</text>
</a>
</g>
</g>
<!-- Node1&#45;&gt;Node20 -->
<g id="edge20" class="edge">
<title>Node1&#45;&gt;Node20</title>
<path fill="none" stroke="midnightblue" d="M60.9,-600.27C63.03,-561.5 76.16,-416.48 155,-341 161.67,-334.62 169.91,-329.86 178.59,-326.31"/>
<polygon fill="midnightblue" stroke="midnightblue" points="179.87,-329.57 188.12,-322.92 177.52,-322.97 179.87,-329.57"/>
</g>
<!-- Node21 -->
<g id="node21" class="node">
<title>Node21</title>
<g id="a_node21"><a xlink:href="class_preference_provider.html#a3c4bfdd62ac6562182886dda967530c2" target="_top" xlink:title="set whether buttons are displayed on the UI">
<polygon fill="none" stroke="black" points="188.5,-252 188.5,-282 288.5,-282 288.5,-252 188.5,-252"/>
<text text-anchor="start" x="196.5" y="-270" font-family="Helvetica,sans-Serif" font-size="10.00">PreferenceProvider</text>
<text text-anchor="middle" x="238.5" y="-259" font-family="Helvetica,sans-Serif" font-size="10.00">::setShowButtons</text>
</a>
</g>
</g>
<!-- Node1&#45;&gt;Node21 -->
<g id="edge21" class="edge">
<title>Node1&#45;&gt;Node21</title>
<path fill="none" stroke="midnightblue" d="M60.29,-600.34C59.92,-557.56 64.22,-383.27 155,-292 161.59,-285.38 169.87,-280.5 178.62,-276.9"/>
<polygon fill="midnightblue" stroke="midnightblue" points="180,-280.13 188.25,-273.49 177.66,-273.53 180,-280.13"/>
</g>
<!-- Node22 -->
<g id="node22" class="node">
<title>Node22</title>
<g id="a_node22"><a xlink:href="class_preference_provider.html#a8593050ca82c56a9081c445dfc0f2366" target="_top" xlink:title="set timeout value for the camera framework">
<polygon fill="none" stroke="black" points="188.5,-203 188.5,-233 288.5,-233 288.5,-203 188.5,-203"/>
<text text-anchor="start" x="196.5" y="-221" font-family="Helvetica,sans-Serif" font-size="10.00">PreferenceProvider</text>
<text text-anchor="middle" x="238.5" y="-210" font-family="Helvetica,sans-Serif" font-size="10.00">::setTimeoutValue</text>
</a>
</g>
</g>
<!-- Node1&#45;&gt;Node22 -->
<g id="edge22" class="edge">
<title>Node1&#45;&gt;Node22</title>
<path fill="none" stroke="midnightblue" d="M61.69,-600.43C68.39,-548.14 102.87,-297.38 155,-243 161.61,-236.1 170.05,-231.09 179,-227.46"/>
<polygon fill="midnightblue" stroke="midnightblue" points="180.18,-230.75 188.46,-224.14 177.86,-224.15 180.18,-230.75"/>
</g>
<!-- Node23 -->
<g id="node23" class="node">
<title>Node23</title>
<g id="a_node23"><a xlink:href="class_preferences.html#a1d8255b77095a5ae6de5e2aa89168252" target="_top" xlink:title="Show the given color in QLineEdit.">
<polygon fill="none" stroke="black" points="177.5,-164.5 177.5,-183.5 299.5,-183.5 299.5,-164.5 177.5,-164.5"/>
<text text-anchor="middle" x="238.5" y="-171.5" font-family="Helvetica,sans-Serif" font-size="10.00">Preferences::showColor</text>
</a>
</g>
</g>
<!-- Node1&#45;&gt;Node23 -->
<g id="edge23" class="edge">
<title>Node1&#45;&gt;Node23</title>
<path fill="none" stroke="midnightblue" d="M61.34,-600.25C66.45,-543.36 95.08,-254.79 155,-194 158.78,-190.16 163.17,-187.01 167.91,-184.43"/>
<polygon fill="midnightblue" stroke="midnightblue" points="169.72,-187.45 177.39,-180.14 166.83,-181.08 169.72,-187.45"/>
</g>
<!-- Node24 -->
<g id="node24" class="node">
<title>Node24</title>
<g id="a_node24"><a xlink:href="class_preferences.html#a4f0c2844c169369eacff4a6c004b2d7d" target="_top" xlink:title="Start the FotoBox.">
<polygon fill="none" stroke="black" points="173,-126.5 173,-145.5 304,-145.5 304,-126.5 173,-126.5"/>
<text text-anchor="middle" x="238.5" y="-133.5" font-family="Helvetica,sans-Serif" font-size="10.00">Preferences::startFotoBox</text>
</a>
</g>
</g>
<!-- Node1&#45;&gt;Node24 -->
<g id="edge24" class="edge">
<title>Node1&#45;&gt;Node24</title>
<path fill="none" stroke="midnightblue" d="M61.14,-600.13C65.22,-539.85 89.68,-221.74 155,-155 157.68,-152.27 160.66,-149.89 163.86,-147.83"/>
<polygon fill="midnightblue" stroke="midnightblue" points="165.61,-150.87 172.79,-143.08 162.32,-144.69 165.61,-150.87"/>
</g>
<!-- Node27 -->
<g id="node27" class="node">
<title>Node27</title>
<g id="a_node27"><a xlink:href="class_preferences.html#a1dcf663eabce314027a86d17d1d4867b" target="_top" xlink:title="Stop countdown, stop mouse tracking and set normal window title name.">
<polygon fill="none" stroke="black" points="155,-88.5 155,-107.5 322,-107.5 322,-88.5 155,-88.5"/>
<text text-anchor="middle" x="238.5" y="-95.5" font-family="Helvetica,sans-Serif" font-size="10.00">Preferences::stopCountdownMode</text>
</a>
</g>
</g>
<!-- Node1&#45;&gt;Node27 -->
<g id="edge28" class="edge">
<title>Node1&#45;&gt;Node27</title>
<path fill="none" stroke="midnightblue" d="M60.97,-600.14C64.15,-537.04 84.7,-189.95 155,-117 156.26,-115.69 157.6,-114.46 158.99,-113.31"/>
<polygon fill="midnightblue" stroke="midnightblue" points="161.23,-116.02 167.57,-107.54 157.32,-110.22 161.23,-116.02"/>
</g>
<!-- Node29 -->
<g id="node29" class="node">
<title>Node29</title>
<g id="a_node29"><a xlink:href="class_preferences.html#a7b8d051df918f07c7f835088f68bd7b3" target="_top" xlink:title="Check camera application availability and provide help if needed.">
<polygon fill="none" stroke="black" points="165,-44.5 165,-63.5 312,-63.5 312,-44.5 165,-44.5"/>
<text text-anchor="middle" x="238.5" y="-51.5" font-family="Helvetica,sans-Serif" font-size="10.00">Preferences::verifyApplication</text>
</a>
</g>
</g>
<!-- Node1&#45;&gt;Node29 -->
<g id="edge31" class="edge">
<title>Node1&#45;&gt;Node29</title>
<path fill="none" stroke="midnightblue" d="M60.88,-600.31C63.62,-535.13 82.4,-160.73 155,-79 158.79,-74.73 163.28,-71.18 168.18,-68.23"/>
<polygon fill="midnightblue" stroke="midnightblue" points="170.06,-71.2 177.37,-63.54 166.88,-64.97 170.06,-71.2"/>
</g>
<!-- Node2&#45;&gt;Node3 -->
<g id="edge2" class="edge">
<title>Node2&#45;&gt;Node3</title>
<path fill="none" stroke="midnightblue" d="M311.54,-1144.12C328.28,-1142.99 346.06,-1141.78 362.66,-1140.66"/>
<polygon fill="midnightblue" stroke="midnightblue" points="363.09,-1144.14 372.83,-1139.97 362.61,-1137.16 363.09,-1144.14"/>
</g>
<!-- Node4&#45;&gt;Node5 -->
<g id="edge4" class="edge">
<title>Node4&#45;&gt;Node5</title>
<path fill="none" stroke="midnightblue" d="M487.6,-1063.98C502.32,-1059.9 518.32,-1055.45 533.28,-1051.3"/>
<polygon fill="midnightblue" stroke="midnightblue" points="534.23,-1054.67 542.93,-1048.62 532.36,-1047.92 534.23,-1054.67"/>
</g>
<!-- Node25 -->
<g id="node25" class="node">
<title>Node25</title>
<g id="a_node25"><a xlink:href="class_preferences.html#a70c6489f66db193c8645fed5d4b36ac6" target="_top" xlink:title="Save the preferences to QSettings.">
<polygon fill="none" stroke="black" points="358,-576.5 358,-595.5 507,-595.5 507,-576.5 358,-576.5"/>
<text text-anchor="middle" x="432.5" y="-583.5" font-family="Helvetica,sans-Serif" font-size="10.00">Preferences::savePreferences</text>
</a>
</g>
</g>
<!-- Node24&#45;&gt;Node25 -->
<g id="edge25" class="edge">
<title>Node24&#45;&gt;Node25</title>
<path fill="none" stroke="midnightblue" d="M304.4,-143.48C310.9,-146.32 316.96,-150.07 322,-155 382.64,-214.3 419.85,-489.3 429.18,-566.06"/>
<polygon fill="midnightblue" stroke="midnightblue" points="425.74,-566.74 430.4,-576.26 432.69,-565.91 425.74,-566.74"/>
</g>
<!-- Node26 -->
<g id="node26" class="node">
<title>Node26</title>
<g id="a_node26"><a xlink:href="class_countdown.html#ad7212649cb592a77bbf5ccdf82a5582c" target="_top" xlink:title="Stop countdown and check.">
<polygon fill="none" stroke="black" points="387,-126.5 387,-145.5 478,-145.5 478,-126.5 387,-126.5"/>
<text text-anchor="middle" x="432.5" y="-133.5" font-family="Helvetica,sans-Serif" font-size="10.00">Countdown::stop</text>
</a>
</g>
</g>
<!-- Node24&#45;&gt;Node26 -->
<g id="edge27" class="edge">
<title>Node24&#45;&gt;Node26</title>
<path fill="none" stroke="midnightblue" d="M304.23,-136C327.74,-136 354.06,-136 376.63,-136"/>
<polygon fill="midnightblue" stroke="midnightblue" points="376.72,-139.5 386.72,-136 376.72,-132.5 376.72,-139.5"/>
</g>
<!-- Node25&#45;&gt;Node5 -->
<g id="edge26" class="edge">
<title>Node25&#45;&gt;Node5</title>
<path fill="none" stroke="midnightblue" d="M436.96,-595.8C456.51,-651.2 553.44,-925.76 583.26,-1010.23"/>
<polygon fill="midnightblue" stroke="midnightblue" points="580,-1011.51 586.63,-1019.78 586.6,-1009.18 580,-1011.51"/>
</g>
<!-- Node27&#45;&gt;Node26 -->
<g id="edge30" class="edge">
<title>Node27&#45;&gt;Node26</title>
<path fill="none" stroke="midnightblue" d="M287.95,-107.59C314.96,-112.93 348.69,-119.61 376.67,-125.15"/>
<polygon fill="midnightblue" stroke="midnightblue" points="376.2,-128.62 386.69,-127.13 377.56,-121.76 376.2,-128.62"/>
</g>
<!-- Node28 -->
<g id="node28" class="node">
<title>Node28</title>
<g id="a_node28"><a xlink:href="class_countdown.html#af682a75d0c6f682fd699d0cf42ba9088" target="_top" xlink:title="Show countdown status.">
<polygon fill="none" stroke="black" points="379,-88.5 379,-107.5 486,-107.5 486,-88.5 379,-88.5"/>
<text text-anchor="middle" x="432.5" y="-95.5" font-family="Helvetica,sans-Serif" font-size="10.00">Countdown::isActive</text>
</a>
</g>
</g>
<!-- Node27&#45;&gt;Node28 -->
<g id="edge29" class="edge">
<title>Node27&#45;&gt;Node28</title>
<path fill="none" stroke="midnightblue" d="M322.04,-98C337.73,-98 353.91,-98 368.86,-98"/>
<polygon fill="midnightblue" stroke="midnightblue" points="368.99,-101.5 378.99,-98 368.99,-94.5 368.99,-101.5"/>
</g>
<!-- Node30 -->
<g id="node30" class="node">
<title>Node30</title>
<g id="a_node30"><a xlink:href="class_preferences.html#a11decdf7dac85dbe0ca3b428a671bcd2" target="_top" xlink:title="Check if application is installed and available.">
<polygon fill="none" stroke="black" points="371.5,-39 371.5,-69 493.5,-69 493.5,-39 371.5,-39"/>
<text text-anchor="start" x="379.5" y="-57" font-family="Helvetica,sans-Serif" font-size="10.00">Preferences::application</text>
<text text-anchor="middle" x="432.5" y="-46" font-family="Helvetica,sans-Serif" font-size="10.00">Available</text>
</a>
</g>
</g>
<!-- Node29&#45;&gt;Node30 -->
<g id="edge32" class="edge">
<title>Node29&#45;&gt;Node30</title>
<path fill="none" stroke="midnightblue" d="M312.09,-54C328.12,-54 345.07,-54 361.02,-54"/>
<polygon fill="midnightblue" stroke="midnightblue" points="361.33,-57.5 371.33,-54 361.33,-50.5 361.33,-57.5"/>
</g>
<!-- Node31 -->
<g id="node31" class="node">
<title>Node31</title>
<g id="a_node31"><a xlink:href="class_preferences.html#a4eff8e6a2f21857c6ed4c43ad076cc53" target="_top" xlink:title="Read gphoto2 / libgphoto2 version and camera model.">
<polygon fill="none" stroke="black" points="372,-0.5 372,-19.5 493,-19.5 493,-0.5 372,-0.5"/>
<text text-anchor="middle" x="432.5" y="-7.5" font-family="Helvetica,sans-Serif" font-size="10.00">Preferences::gphotoInfo</text>
</a>
</g>
</g>
<!-- Node29&#45;&gt;Node31 -->
<g id="edge33" class="edge">
<title>Node29&#45;&gt;Node31</title>
<path fill="none" stroke="midnightblue" d="M281.16,-44.45C310.22,-37.79 349.19,-28.86 380.17,-21.76"/>
<polygon fill="midnightblue" stroke="midnightblue" points="380.95,-25.17 389.92,-19.53 379.39,-18.35 380.95,-25.17"/>
</g>
</g>
</svg>
        <g id="navigator" transform="translate(0 0)" fill="#404254">
                <rect fill="#f2f5e9" fill-opacity="0.5" stroke="#606060" stroke-width=".5" x="0" y="0" width="60" height="60"/>
                <use id="zoomplus" xlink:href="#zoomPlus" x="17" y="9" onmousedown="handleZoom(evt,'in')"/>
                <use id="zoomminus" xlink:href="#zoomMin" x="42" y="9" onmousedown="handleZoom(evt,'out')"/>
                <use id="reset" xlink:href="#resetDef" x="30" y="36" onmousedown="handleReset()"/>
                <g id="arrowUp" xlink:href="#dirArrow" transform="translate(30 24)" onmousedown="handlePan(0,-1)">
                  <use xlink:href="#rim" fill="#404040">
                        <set attributeName="fill" to="#808080" begin="arrowUp.mouseover" end="arrowUp.mouseout"/>
                  </use>
                  <path fill="none" stroke="white" stroke-width="1.5" d="M0,-3.0v7 M-2.5,-0.5L0,-3.0L2.5,-0.5"/>
                </g>
                <g id="arrowRight" xlink:href="#dirArrow" transform="rotate(90) translate(36 -43)" onmousedown="handlePan(1,0)">
                  <use xlink:href="#rim" fill="#404040">
                        <set attributeName="fill" to="#808080" begin="arrowRight.mouseover" end="arrowRight.mouseout"/>
                  </use>
                  <path fill="none" stroke="white" stroke-width="1.5" d="M0,-3.0v7 M-2.5,-0.5L0,-3.0L2.5,-0.5"/>
                </g>
                <g id="arrowDown" xlink:href="#dirArrow" transform="rotate(180) translate(-30 -48)" onmousedown="handlePan(0,1)">
                  <use xlink:href="#rim" fill="#404040">
                        <set attributeName="fill" to="#808080" begin="arrowDown.mouseover" end="arrowDown.mouseout"/>
                  </use>
                  <path fill="none" stroke="white" stroke-width="1.5" d="M0,-3.0v7 M-2.5,-0.5L0,-3.0L2.5,-0.5"/>
                </g>
                <g id="arrowLeft" xlink:href="#dirArrow" transform="rotate(270) translate(-36 17)" onmousedown="handlePan(-1,0)">
                  <use xlink:href="#rim" fill="#404040">
                        <set attributeName="fill" to="#808080" begin="arrowLeft.mouseover" end="arrowLeft.mouseout"/>
                  </use>
                  <path fill="none" stroke="white" stroke-width="1.5" d="M0,-3.0v7 M-2.5,-0.5L0,-3.0L2.5,-0.5"/>
                </g>
        </g>
        <svg viewBox="0 0 15 15" width="100%" height="30px" preserveAspectRatio="xMaxYMin meet">
         <g id="arrow_out" transform="scale(0.3 0.3)">
          <a xlink:href="class_preferences_a36e52663dbf3006c5dcf04d89cfd672d_cgraph_org.svg" target="_base">
           <rect id="button" ry="5" rx="5" y="6" x="6" height="38" width="38"
                fill="#f2f5e9" fill-opacity="0.5" stroke="#606060" stroke-width="1.0"/>
           <path id="arrow"
             d="M 11.500037,31.436501 C 11.940474,20.09759 22.043105,11.32322 32.158766,21.979434 L 37.068811,17.246167 C 37.068811,17.246167 37.088388,32 37.088388,32 L 22.160133,31.978069 C 22.160133,31.978069 26.997745,27.140456 26.997745,27.140456 C 18.528582,18.264221 13.291696,25.230495 11.500037,31.436501 z"
             style="fill:#404040;"/>
          </a>
         </g>
        </svg>
</svg>
