<?xml version="1.0" encoding="UTF-8" standalone="no"?>
<!DOCTYPE svg PUBLIC "-//W3C//DTD SVG 1.1//EN"
 "http://www.w3.org/Graphics/SVG/1.1/DTD/svg11.dtd">
<!-- Generated by graphviz version 2.46.1 (20210213.1702)
 -->
<!-- Title: PreferenceProvider::instance Pages: 1 -->
<svg width="785pt" height="440pt"
 viewBox="0.00 0.00 785.00 440.25" xmlns="http://www.w3.org/2000/svg" xmlns:xlink="http://www.w3.org/1999/xlink">
<g id="graph0" class="graph" transform="scale(1 1) rotate(0) translate(4 436.25)">
<title>PreferenceProvider::instance</title>
<!-- Node1 -->
<g id="node1" class="node">
<title>Node1</title>
<g id="a_node1"><a xlink:title="get instance (Meyers Singleton)">
<polygon fill="#bfbfbf" stroke="black" points="677,-204 677,-234 777,-234 777,-204 677,-204"/>
<text text-anchor="start" x="685" y="-222" font-family="Helvetica,sans-Serif" font-size="10.00">PreferenceProvider</text>
<text text-anchor="middle" x="727" y="-211" font-family="Helvetica,sans-Serif" font-size="10.00">::instance</text>
</a>
</g>
</g>
<!-- Node2 -->
<g id="node2" class="node">
<title>Node2</title>
<g id="a_node2"><a xlink:href="class_foto_box.html#a6ea2f49a55e9e59ec855578e7c9c8896" target="_top" xlink:title="With or without buttons.">
<polygon fill="none" stroke="black" points="520,-380.5 520,-399.5 612,-399.5 612,-380.5 520,-380.5"/>
<text text-anchor="middle" x="566" y="-387.5" font-family="Helvetica,sans-Serif" font-size="10.00">FotoBox::buttons</text>
</a>
</g>
</g>
<!-- Node1&#45;&gt;Node2 -->
<g id="edge1" class="edge">
<title>Node1&#45;&gt;Node2</title>
<path fill="none" stroke="midnightblue" d="M718.94,-243.8C707.98,-277.76 683.55,-338.24 641,-371 632.7,-377.39 622.47,-381.65 612.3,-384.48"/>
<polygon fill="midnightblue" stroke="midnightblue" points="722.31,-244.77 721.92,-234.18 715.62,-242.7 722.31,-244.77"/>
</g>
<!-- Node3 -->
<g id="node3" class="node">
<title>Node3</title>
<g id="a_node3"><a xlink:href="class_foto_box.html#a7e0a5334bb6ff5f26443c422dae22d54" target="_top" xlink:title="FotoBox constructor.">
<polygon fill="none" stroke="black" points="339,-380.5 339,-399.5 435,-399.5 435,-380.5 339,-380.5"/>
<text text-anchor="middle" x="387" y="-387.5" font-family="Helvetica,sans-Serif" font-size="10.00">FotoBox::FotoBox</text>
</a>
</g>
</g>
<!-- Node1&#45;&gt;Node3 -->
<g id="edge13" class="edge">
<title>Node1&#45;&gt;Node3</title>
<path fill="none" stroke="midnightblue" d="M723.27,-244.19C717.15,-286.79 698.05,-372.03 641,-409 567.63,-456.55 455.93,-418.94 409.45,-399.64"/>
<polygon fill="midnightblue" stroke="midnightblue" points="726.77,-244.46 724.59,-234.09 719.83,-243.56 726.77,-244.46"/>
</g>
<!-- Node4 -->
<g id="node4" class="node">
<title>Node4</title>
<g id="a_node4"><a xlink:href="class_camera.html#ae3aa4afd7a3d9ddc2bf710bc74dc293e" target="_top" xlink:title="Camera constructor.">
<polygon fill="none" stroke="black" points="520,-228.5 520,-247.5 612,-247.5 612,-228.5 520,-228.5"/>
<text text-anchor="middle" x="566" y="-235.5" font-family="Helvetica,sans-Serif" font-size="10.00">Camera::Camera</text>
</a>
</g>
</g>
<!-- Node1&#45;&gt;Node4 -->
<g id="edge3" class="edge">
<title>Node1&#45;&gt;Node4</title>
<path fill="none" stroke="midnightblue" d="M666.82,-226.07C648.7,-228.24 629.07,-230.58 612.05,-232.62"/>
<polygon fill="midnightblue" stroke="midnightblue" points="667.48,-229.52 677,-224.86 666.65,-222.57 667.48,-229.52"/>
</g>
<!-- Node5 -->
<g id="node5" class="node">
<title>Node5</title>
<g id="a_node5"><a xlink:href="class_preferences.html#a183e931ddd91f03ac2b9cf40f8d9f434" target="_top" xlink:title="Clear directory content of the photo directory.">
<polygon fill="none" stroke="black" points="319,-141 319,-171 455,-171 455,-141 319,-141"/>
<text text-anchor="start" x="327" y="-159" font-family="Helvetica,sans-Serif" font-size="10.00">Preferences::clearDirectory</text>
<text text-anchor="middle" x="387" y="-148" font-family="Helvetica,sans-Serif" font-size="10.00">Content</text>
</a>
</g>
</g>
<!-- Node1&#45;&gt;Node5 -->
<g id="edge4" class="edge">
<title>Node1&#45;&gt;Node5</title>
<path fill="none" stroke="midnightblue" d="M683.33,-200.01C670,-194.74 655.09,-189.51 641,-186 579.09,-170.58 506.62,-163.01 455.15,-159.34"/>
<polygon fill="midnightblue" stroke="midnightblue" points="682.14,-203.31 692.72,-203.83 684.77,-196.82 682.14,-203.31"/>
</g>
<!-- Node6 -->
<g id="node6" class="node">
<title>Node6</title>
<g id="a_node6"><a xlink:href="class_preferences.html#a36e52663dbf3006c5dcf04d89cfd672d" target="_top" xlink:title="Signal &amp; Slot connect.">
<polygon fill="none" stroke="black" points="164,-144.5 164,-163.5 283,-163.5 283,-144.5 164,-144.5"/>
<text text-anchor="middle" x="223.5" y="-151.5" font-family="Helvetica,sans-Serif" font-size="10.00">Preferences::connectUi</text>
</a>
</g>
</g>
<!-- Node1&#45;&gt;Node6 -->
<g id="edge7" class="edge">
<title>Node1&#45;&gt;Node6</title>
<path fill="none" stroke="midnightblue" d="M666.39,-216.89C586.66,-213.28 441.15,-203.95 319,-181 296.36,-176.75 271.32,-169.47 252.71,-163.54"/>
<polygon fill="midnightblue" stroke="midnightblue" points="666.58,-220.4 676.73,-217.34 666.89,-213.41 666.58,-220.4"/>
</g>
<!-- Node8 -->
<g id="node8" class="node">
<title>Node8</title>
<g id="a_node8"><a xlink:href="class_foto_box.html#ab6131adb44137e55734eb8bb0672fd38" target="_top" xlink:title="With or without countdown.">
<polygon fill="none" stroke="black" points="512.5,-342.5 512.5,-361.5 619.5,-361.5 619.5,-342.5 512.5,-342.5"/>
<text text-anchor="middle" x="566" y="-349.5" font-family="Helvetica,sans-Serif" font-size="10.00">FotoBox::countdown</text>
</a>
</g>
</g>
<!-- Node1&#45;&gt;Node8 -->
<g id="edge8" class="edge">
<title>Node1&#45;&gt;Node8</title>
<path fill="none" stroke="midnightblue" d="M713.22,-242.75C698.79,-267.43 673.07,-305.54 641,-328 632.04,-334.28 621.34,-338.98 610.9,-342.49"/>
<polygon fill="midnightblue" stroke="midnightblue" points="716.29,-244.43 718.19,-234 710.21,-240.97 716.29,-244.43"/>
</g>
<!-- Node9 -->
<g id="node9" class="node">
<title>Node9</title>
<g id="a_node9"><a xlink:href="class_foto_box.html#a78353b51782aab91a0b4eafac67be1c4" target="_top" xlink:title="trigger camera to shot a photo and try to show it">
<polygon fill="none" stroke="black" points="345.5,-323.5 345.5,-342.5 428.5,-342.5 428.5,-323.5 345.5,-323.5"/>
<text text-anchor="middle" x="387" y="-330.5" font-family="Helvetica,sans-Serif" font-size="10.00">FotoBox::photo</text>
</a>
</g>
</g>
<!-- Node1&#45;&gt;Node9 -->
<g id="edge17" class="edge">
<title>Node1&#45;&gt;Node9</title>
<path fill="none" stroke="midnightblue" d="M707.35,-241.72C691.59,-259.27 667.41,-282.59 641,-295 571.46,-327.68 480.37,-333.55 428.61,-333.91"/>
<polygon fill="midnightblue" stroke="midnightblue" points="710.04,-243.96 713.98,-234.12 704.77,-239.36 710.04,-243.96"/>
</g>
<!-- Node10 -->
<g id="node10" class="node">
<title>Node10</title>
<g id="a_node10"><a xlink:href="class_foto_box.html#aa5ad9f8647ac290a5145ccaa2ad8cd62" target="_top" xlink:title="Draw text on the QPixmap.">
<polygon fill="none" stroke="black" points="516.5,-76.5 516.5,-95.5 615.5,-95.5 615.5,-76.5 516.5,-76.5"/>
<text text-anchor="middle" x="566" y="-83.5" font-family="Helvetica,sans-Serif" font-size="10.00">FotoBox::drawText</text>
</a>
</g>
</g>
<!-- Node1&#45;&gt;Node10 -->
<g id="edge12" class="edge">
<title>Node1&#45;&gt;Node10</title>
<path fill="none" stroke="midnightblue" d="M714.22,-194.59C700.34,-168.45 674.82,-127.68 641,-105 633.4,-99.9 624.52,-96.17 615.6,-93.44"/>
<polygon fill="midnightblue" stroke="midnightblue" points="711.28,-196.53 718.96,-203.83 717.51,-193.33 711.28,-196.53"/>
</g>
<!-- Node11 -->
<g id="node11" class="node">
<title>Node11</title>
<g id="a_node11"><a xlink:href="class_foto_box.html#a78d1e793417f4ce20a26465271b383b1" target="_top" xlink:title="try to load the photo to QPixmap">
<polygon fill="none" stroke="black" points="514.5,-266.5 514.5,-285.5 617.5,-285.5 617.5,-266.5 514.5,-266.5"/>
<text text-anchor="middle" x="566" y="-273.5" font-family="Helvetica,sans-Serif" font-size="10.00">FotoBox::loadPhoto</text>
</a>
</g>
</g>
<!-- Node1&#45;&gt;Node11 -->
<g id="edge14" class="edge">
<title>Node1&#45;&gt;Node11</title>
<path fill="none" stroke="midnightblue" d="M686.06,-238.53C672.02,-244.94 656,-251.76 641,-257 630.86,-260.54 619.72,-263.74 609.24,-266.47"/>
<polygon fill="midnightblue" stroke="midnightblue" points="687.83,-241.57 695.42,-234.18 684.88,-235.22 687.83,-241.57"/>
</g>
<!-- Node12 -->
<g id="node12" class="node">
<title>Node12</title>
<g id="a_node12"><a xlink:href="class_foto_box.html#a029f5b3b1a9c3594626dc68e8fb6b282" target="_top" xlink:title="This event handler, for event event, can be reimplemented in a subclass to receive mouse release even...">
<polygon fill="none" stroke="black" points="491,-38.5 491,-57.5 641,-57.5 641,-38.5 491,-38.5"/>
<text text-anchor="middle" x="566" y="-45.5" font-family="Helvetica,sans-Serif" font-size="10.00">FotoBox::mouseReleaseEvent</text>
</a>
</g>
</g>
<!-- Node1&#45;&gt;Node12 -->
<g id="edge16" class="edge">
<title>Node1&#45;&gt;Node12</title>
<path fill="none" stroke="midnightblue" d="M718.94,-194.2C707.98,-160.24 683.55,-99.76 641,-67 635.96,-63.12 630.2,-60.02 624.18,-57.55"/>
<polygon fill="midnightblue" stroke="midnightblue" points="715.62,-195.3 721.92,-203.82 722.31,-193.23 715.62,-195.3"/>
</g>
<!-- Node13 -->
<g id="node13" class="node">
<title>Node13</title>
<g id="a_node13"><a xlink:href="class_preferences.html#a70c6489f66db193c8645fed5d4b36ac6" target="_top" xlink:title="Save the preferences to QSettings.">
<polygon fill="none" stroke="black" points="491.5,-114.5 491.5,-133.5 640.5,-133.5 640.5,-114.5 491.5,-114.5"/>
<text text-anchor="middle" x="566" y="-121.5" font-family="Helvetica,sans-Serif" font-size="10.00">Preferences::savePreferences</text>
</a>
</g>
</g>
<!-- Node1&#45;&gt;Node13 -->
<g id="edge18" class="edge">
<title>Node1&#45;&gt;Node13</title>
<path fill="none" stroke="midnightblue" d="M704.3,-196.81C688.08,-181.3 664.72,-161.11 641,-148 630.12,-141.99 617.51,-137.2 605.81,-133.53"/>
<polygon fill="midnightblue" stroke="midnightblue" points="702.05,-199.51 711.65,-203.99 706.94,-194.5 702.05,-199.51"/>
</g>
<!-- Node15 -->
<g id="node15" class="node">
<title>Node15</title>
<g id="a_node15"><a xlink:href="class_foto_box.html#adc055fdfdbbebbb60e0c71e4c6551301" target="_top" xlink:title="FotoBox destructor.">
<polygon fill="none" stroke="black" points="515,-0.5 515,-19.5 617,-19.5 617,-0.5 515,-0.5"/>
<text text-anchor="middle" x="566" y="-7.5" font-family="Helvetica,sans-Serif" font-size="10.00">FotoBox::~FotoBox</text>
</a>
</g>
</g>
<!-- Node1&#45;&gt;Node15 -->
<g id="edge22" class="edge">
<title>Node1&#45;&gt;Node15</title>
<path fill="none" stroke="midnightblue" d="M721.92,-193.8C713.94,-152.9 692.35,-72.31 641,-29 634.21,-23.27 625.9,-19.24 617.34,-16.41"/>
<polygon fill="midnightblue" stroke="midnightblue" points="718.5,-194.55 723.74,-203.76 725.38,-193.29 718.5,-194.55"/>
</g>
<!-- Node2&#45;&gt;Node3 -->
<g id="edge2" class="edge">
<title>Node2&#45;&gt;Node3</title>
<path fill="none" stroke="midnightblue" d="M509.88,-390C485.94,-390 458.18,-390 435.2,-390"/>
<polygon fill="midnightblue" stroke="midnightblue" points="509.88,-393.5 519.88,-390 509.88,-386.5 509.88,-393.5"/>
</g>
<!-- Node5&#45;&gt;Node6 -->
<g id="edge5" class="edge">
<title>Node5&#45;&gt;Node6</title>
<path fill="none" stroke="midnightblue" d="M308.82,-155.04C300.19,-154.94 291.49,-154.83 283.14,-154.73"/>
<polygon fill="midnightblue" stroke="midnightblue" points="308.87,-158.54 318.91,-155.17 308.96,-151.55 308.87,-158.54"/>
</g>
<!-- Node7 -->
<g id="node7" class="node">
<title>Node7</title>
<g id="a_node7"><a xlink:href="class_preferences.html#a137b56e8d51ff2712666f94263b2e34e" target="_top" xlink:title="Preferences constructor.">
<polygon fill="none" stroke="black" points="0,-124.5 0,-143.5 128,-143.5 128,-124.5 0,-124.5"/>
<text text-anchor="middle" x="64" y="-131.5" font-family="Helvetica,sans-Serif" font-size="10.00">Preferences::Preferences</text>
</a>
</g>
</g>
<!-- Node6&#45;&gt;Node7 -->
<g id="edge6" class="edge">
<title>Node6&#45;&gt;Node7</title>
<path fill="none" stroke="midnightblue" d="M153.91,-145.29C145.36,-144.2 136.65,-143.1 128.19,-142.02"/>
<polygon fill="midnightblue" stroke="midnightblue" points="153.49,-148.77 163.85,-146.55 154.37,-141.82 153.49,-148.77"/>
</g>
<!-- Node8&#45;&gt;Node3 -->
<g id="edge9" class="edge">
<title>Node8&#45;&gt;Node3</title>
<path fill="none" stroke="midnightblue" d="M510.26,-363.75C485.23,-369.13 455.97,-375.41 432.34,-380.48"/>
<polygon fill="midnightblue" stroke="midnightblue" points="511.29,-367.11 520.34,-361.59 509.82,-360.27 511.29,-367.11"/>
</g>
<!-- Node8&#45;&gt;Node9 -->
<g id="edge10" class="edge">
<title>Node8&#45;&gt;Node9</title>
<path fill="none" stroke="midnightblue" d="M518.41,-340.97C490.51,-336.94 455.4,-333.25 428.64,-331.58"/>
<polygon fill="midnightblue" stroke="midnightblue" points="517.91,-344.44 528.33,-342.47 518.96,-337.52 517.91,-344.44"/>
</g>
<!-- Node9&#45;&gt;Node8 -->
<g id="edge11" class="edge">
<title>Node9&#45;&gt;Node8</title>
<path fill="none" stroke="midnightblue" d="M434.92,-344.08C458.75,-347.51 487.78,-350.69 512.37,-352.58"/>
<polygon fill="midnightblue" stroke="midnightblue" points="435.12,-340.57 424.71,-342.54 434.08,-347.49 435.12,-340.57"/>
</g>
<!-- Node11&#45;&gt;Node9 -->
<g id="edge15" class="edge">
<title>Node11&#45;&gt;Node9</title>
<path fill="none" stroke="midnightblue" d="M525.7,-288.66C493.07,-299.16 447.37,-313.88 417.72,-323.43"/>
<polygon fill="midnightblue" stroke="midnightblue" points="526.93,-291.94 535.37,-285.54 524.78,-285.27 526.93,-291.94"/>
</g>
<!-- Node14 -->
<g id="node14" class="node">
<title>Node14</title>
<g id="a_node14"><a xlink:href="class_preferences.html#a4f0c2844c169369eacff4a6c004b2d7d" target="_top" xlink:title="Start the FotoBox.">
<polygon fill="none" stroke="black" points="321.5,-102.5 321.5,-121.5 452.5,-121.5 452.5,-102.5 321.5,-102.5"/>
<text text-anchor="middle" x="387" y="-109.5" font-family="Helvetica,sans-Serif" font-size="10.00">Preferences::startFotoBox</text>
</a>
</g>
</g>
<!-- Node13&#45;&gt;Node14 -->
<g id="edge19" class="edge">
<title>Node13&#45;&gt;Node14</title>
<path fill="none" stroke="midnightblue" d="M481.42,-118.33C471.72,-117.68 461.94,-117.01 452.55,-116.38"/>
<polygon fill="midnightblue" stroke="midnightblue" points="481.26,-121.83 491.47,-119.02 481.73,-114.85 481.26,-121.83"/>
</g>
<!-- Node14&#45;&gt;Node6 -->
<g id="edge20" class="edge">
<title>Node14&#45;&gt;Node6</title>
<path fill="none" stroke="midnightblue" d="M339.42,-124.11C314.58,-130.57 284.46,-138.41 261.28,-144.43"/>
<polygon fill="midnightblue" stroke="midnightblue" points="340.56,-127.43 349.35,-121.53 338.79,-120.66 340.56,-127.43"/>
</g>
<!-- Node14&#45;&gt;Node7 -->
<g id="edge21" class="edge">
<title>Node14&#45;&gt;Node7</title>
<path fill="none" stroke="midnightblue" d="M311.28,-117.12C255.7,-120.93 180.69,-126.07 128.1,-129.68"/>
<polygon fill="midnightblue" stroke="midnightblue" points="311.69,-120.6 321.43,-116.43 311.21,-113.62 311.69,-120.6"/>
</g>
</g>
</svg>
