<?xml version="1.0" encoding="UTF-8" standalone="no"?>
<!DOCTYPE svg PUBLIC "-//W3C//DTD SVG 1.1//EN"
 "http://www.w3.org/Graphics/SVG/1.1/DTD/svg11.dtd">
<!-- Generated by graphviz version 2.43.0 (0)
 -->
<!-- Title: FotoBox::Preferences::connectUi Pages: 1 -->
<svg width="325pt" height="1215pt"
 viewBox="0.00 0.00 325.00 1215.00" xmlns="http://www.w3.org/2000/svg" xmlns:xlink="http://www.w3.org/1999/xlink">
<g id="graph0" class="graph" transform="scale(1 1) rotate(0) translate(4 1211)">
<title>FotoBox::Preferences::connectUi</title>
<!-- Node1 -->
<g id="node1" class="node">
<title>Node1</title>
<g id="a_node1"><a xlink:title="Signal &amp; Slot connect.">
<polygon fill="#bfbfbf" stroke="black" points="0,-588.5 0,-618.5 120,-618.5 120,-588.5 0,-588.5"/>
<text text-anchor="start" x="8" y="-606.5" font-family="Helvetica,sans-Serif" font-size="10.00">FotoBox::Preferences</text>
<text text-anchor="middle" x="60" y="-595.5" font-family="Helvetica,sans-Serif" font-size="10.00">::connectUi</text>
</a>
</g>
</g>
<!-- Node2 -->
<g id="node2" class="node">
<title>Node2</title>
<g id="a_node2"><a xlink:href="class_foto_box_1_1_preferences.html#a74254b0bb527044c4ba3f2bc63f06539" target="_top" xlink:title="Open a QFileDialog to choose the photo directory.">
<polygon fill="none" stroke="black" points="176.5,-1176.5 176.5,-1206.5 296.5,-1206.5 296.5,-1176.5 176.5,-1176.5"/>
<text text-anchor="start" x="184.5" y="-1194.5" font-family="Helvetica,sans-Serif" font-size="10.00">FotoBox::Preferences</text>
<text text-anchor="middle" x="236.5" y="-1183.5" font-family="Helvetica,sans-Serif" font-size="10.00">::chooseDirectory</text>
</a>
</g>
</g>
<!-- Node1&#45;&gt;Node2 -->
<g id="edge1" class="edge">
<title>Node1&#45;&gt;Node2</title>
<path fill="none" stroke="midnightblue" d="M61.46,-618.68C64.2,-699.88 81,-1082.38 156,-1167.5 159.28,-1171.23 163.12,-1174.38 167.3,-1177.06"/>
<polygon fill="midnightblue" stroke="midnightblue" points="165.85,-1180.25 176.31,-1181.9 169.16,-1174.08 165.85,-1180.25"/>
</g>
<!-- Node3 -->
<g id="node3" class="node">
<title>Node3</title>
<g id="a_node3"><a xlink:href="class_foto_box_1_1_preferences.html#a1658acc8fb500345c50ee89cba16e7ab" target="_top" xlink:title="Clear directory content of the photo directory.">
<polygon fill="none" stroke="black" points="171.5,-1127.5 171.5,-1157.5 301.5,-1157.5 301.5,-1127.5 171.5,-1127.5"/>
<text text-anchor="start" x="179.5" y="-1145.5" font-family="Helvetica,sans-Serif" font-size="10.00">FotoBox::Preferences</text>
<text text-anchor="middle" x="236.5" y="-1134.5" font-family="Helvetica,sans-Serif" font-size="10.00">::clearDirectoryContent</text>
</a>
</g>
</g>
<!-- Node1&#45;&gt;Node3 -->
<g id="edge2" class="edge">
<title>Node1&#45;&gt;Node3</title>
<path fill="none" stroke="midnightblue" d="M61.72,-618.61C65.67,-695.39 87.11,-1041.52 156,-1118.5 158.03,-1120.77 160.26,-1122.82 162.65,-1124.69"/>
<polygon fill="midnightblue" stroke="midnightblue" points="161.03,-1127.81 171.32,-1130.32 164.84,-1121.93 161.03,-1127.81"/>
</g>
<!-- Node4 -->
<g id="node4" class="node">
<title>Node4</title>
<g id="a_node4"><a xlink:href="class_foto_box_1_1_preferences.html#ae2e2d50e4ab85e2b7c7075b7975a77a4" target="_top" xlink:title="Open a color picker to choose background color for FotoBox.">
<polygon fill="none" stroke="black" points="176.5,-1078.5 176.5,-1108.5 296.5,-1108.5 296.5,-1078.5 176.5,-1078.5"/>
<text text-anchor="start" x="184.5" y="-1096.5" font-family="Helvetica,sans-Serif" font-size="10.00">FotoBox::Preferences</text>
<text text-anchor="middle" x="236.5" y="-1085.5" font-family="Helvetica,sans-Serif" font-size="10.00">::colorDialog</text>
</a>
</g>
</g>
<!-- Node1&#45;&gt;Node4 -->
<g id="edge3" class="edge">
<title>Node1&#45;&gt;Node4</title>
<path fill="none" stroke="midnightblue" d="M62.05,-618.84C67.34,-691.53 93.27,-1000.71 156,-1069.5 159.29,-1073.11 163.1,-1076.18 167.23,-1078.79"/>
<polygon fill="midnightblue" stroke="midnightblue" points="165.64,-1081.91 176.11,-1083.55 168.94,-1075.74 165.64,-1081.91"/>
</g>
<!-- Node5 -->
<g id="node5" class="node">
<title>Node5</title>
<g id="a_node5"><a xlink:href="class_foto_box_1_1_preferences.html#a3bafff16d43425200bbb43c6837de817" target="_top" xlink:title="Show help dialog for gphoto2/raspistill command line options.">
<polygon fill="none" stroke="black" points="156,-1029.5 156,-1059.5 317,-1059.5 317,-1029.5 156,-1029.5"/>
<text text-anchor="start" x="164" y="-1047.5" font-family="Helvetica,sans-Serif" font-size="10.00">FotoBox::Preferences</text>
<text text-anchor="middle" x="236.5" y="-1036.5" font-family="Helvetica,sans-Serif" font-size="10.00">::commandLineOptionsDialog</text>
</a>
</g>
</g>
<!-- Node1&#45;&gt;Node5 -->
<g id="edge4" class="edge">
<title>Node1&#45;&gt;Node5</title>
<path fill="none" stroke="midnightblue" d="M62.42,-618.57C69.08,-686.03 99.27,-959.7 156,-1020.5 156.79,-1021.34 157.6,-1022.16 158.44,-1022.94"/>
<polygon fill="midnightblue" stroke="midnightblue" points="156.59,-1025.94 166.65,-1029.28 160.87,-1020.4 156.59,-1025.94"/>
</g>
<!-- Node6 -->
<g id="node6" class="node">
<title>Node6</title>
<g id="a_node6"><a xlink:href="class_foto_box_1_1_preference_provider.html#a822861e0e7e93a0875f962e5cd3c2212" target="_top" xlink:title="get instance (Meyers Singleton)">
<polygon fill="none" stroke="black" points="159,-980.5 159,-1010.5 314,-1010.5 314,-980.5 159,-980.5"/>
<text text-anchor="start" x="167" y="-998.5" font-family="Helvetica,sans-Serif" font-size="10.00">FotoBox::PreferenceProvider</text>
<text text-anchor="middle" x="236.5" y="-987.5" font-family="Helvetica,sans-Serif" font-size="10.00">::instance</text>
</a>
</g>
</g>
<!-- Node1&#45;&gt;Node6 -->
<g id="edge5" class="edge">
<title>Node1&#45;&gt;Node6</title>
<path fill="none" stroke="midnightblue" d="M62.95,-618.88C71.24,-681.8 105.39,-918.79 156,-971.5 156.93,-972.47 157.89,-973.39 158.89,-974.28"/>
<polygon fill="midnightblue" stroke="midnightblue" points="157.01,-977.25 167.12,-980.41 161.19,-971.63 157.01,-977.25"/>
</g>
<!-- Node7 -->
<g id="node7" class="node">
<title>Node7</title>
<g id="a_node7"><a xlink:href="class_foto_box_1_1_preference_provider.html#a4824526882d0c6bd25367e968e04c0a1" target="_top" xlink:title="set camera framework arguments">
<polygon fill="none" stroke="black" points="159,-931.5 159,-961.5 314,-961.5 314,-931.5 159,-931.5"/>
<text text-anchor="start" x="167" y="-949.5" font-family="Helvetica,sans-Serif" font-size="10.00">FotoBox::PreferenceProvider</text>
<text text-anchor="middle" x="236.5" y="-938.5" font-family="Helvetica,sans-Serif" font-size="10.00">::setArgumentLine</text>
</a>
</g>
</g>
<!-- Node1&#45;&gt;Node7 -->
<g id="edge6" class="edge">
<title>Node1&#45;&gt;Node7</title>
<path fill="none" stroke="midnightblue" d="M60.78,-618.65C60.91,-669.31 68.31,-834.49 156,-922.5 157.08,-923.59 158.21,-924.62 159.38,-925.61"/>
<polygon fill="midnightblue" stroke="midnightblue" points="157.46,-928.54 167.64,-931.49 161.52,-922.84 157.46,-928.54"/>
</g>
<!-- Node8 -->
<g id="node8" class="node">
<title>Node8</title>
<g id="a_node8"><a xlink:href="class_foto_box_1_1_preference_provider.html#ad27251441df7ca149d055f4eac157a27" target="_top" xlink:title="set background color of the FotoBox UI">
<polygon fill="none" stroke="black" points="159,-882.5 159,-912.5 314,-912.5 314,-882.5 159,-882.5"/>
<text text-anchor="start" x="167" y="-900.5" font-family="Helvetica,sans-Serif" font-size="10.00">FotoBox::PreferenceProvider</text>
<text text-anchor="middle" x="236.5" y="-889.5" font-family="Helvetica,sans-Serif" font-size="10.00">::setBackgroundColor</text>
</a>
</g>
</g>
<!-- Node1&#45;&gt;Node8 -->
<g id="edge7" class="edge">
<title>Node1&#45;&gt;Node8</title>
<path fill="none" stroke="midnightblue" d="M61.73,-618.56C64.74,-663.96 80.03,-800.88 156,-873.5 157.11,-874.56 158.26,-875.57 159.45,-876.54"/>
<polygon fill="midnightblue" stroke="midnightblue" points="157.61,-879.52 167.83,-882.3 161.57,-873.75 157.61,-879.52"/>
</g>
<!-- Node9 -->
<g id="node9" class="node">
<title>Node9</title>
<g id="a_node9"><a xlink:href="class_foto_box_1_1_preference_provider.html#a3ffea3a4f73f803702113c316a33b926" target="_top" xlink:title="set the camera framework to be used">
<polygon fill="none" stroke="black" points="159,-833.5 159,-863.5 314,-863.5 314,-833.5 159,-833.5"/>
<text text-anchor="start" x="167" y="-851.5" font-family="Helvetica,sans-Serif" font-size="10.00">FotoBox::PreferenceProvider</text>
<text text-anchor="middle" x="236.5" y="-840.5" font-family="Helvetica,sans-Serif" font-size="10.00">::setCameraMode</text>
</a>
</g>
</g>
<!-- Node1&#45;&gt;Node9 -->
<g id="edge8" class="edge">
<title>Node1&#45;&gt;Node9</title>
<path fill="none" stroke="midnightblue" d="M63.07,-618.65C69.31,-658.49 91.68,-767.05 156,-824.5 157.33,-825.69 158.72,-826.82 160.15,-827.89"/>
<polygon fill="midnightblue" stroke="midnightblue" points="158.54,-831.01 168.85,-833.45 162.31,-825.12 158.54,-831.01"/>
</g>
<!-- Node10 -->
<g id="node10" class="node">
<title>Node10</title>
<g id="a_node10"><a xlink:href="class_foto_box_1_1_preference_provider.html#a3a26dbccf70126015aaf32031c160097" target="_top" xlink:title="set countdown until photo is taken">
<polygon fill="none" stroke="black" points="159,-784.5 159,-814.5 314,-814.5 314,-784.5 159,-784.5"/>
<text text-anchor="start" x="167" y="-802.5" font-family="Helvetica,sans-Serif" font-size="10.00">FotoBox::PreferenceProvider</text>
<text text-anchor="middle" x="236.5" y="-791.5" font-family="Helvetica,sans-Serif" font-size="10.00">::setCountdown</text>
</a>
</g>
</g>
<!-- Node1&#45;&gt;Node10 -->
<g id="edge9" class="edge">
<title>Node1&#45;&gt;Node10</title>
<path fill="none" stroke="midnightblue" d="M65.1,-618.69C74.94,-652.16 103.07,-732.72 156,-775.5 157.6,-776.79 159.26,-778.01 160.99,-779.17"/>
<polygon fill="midnightblue" stroke="midnightblue" points="159.6,-782.41 170,-784.42 163.12,-776.36 159.6,-782.41"/>
</g>
<!-- Node11 -->
<g id="node11" class="node">
<title>Node11</title>
<g id="a_node11"><a xlink:href="class_foto_box_1_1_preference_provider.html#a7b708611c3769b53f4522f80000715cb" target="_top" xlink:title="set font color of the countdown">
<polygon fill="none" stroke="black" points="159,-735.5 159,-765.5 314,-765.5 314,-735.5 159,-735.5"/>
<text text-anchor="start" x="167" y="-753.5" font-family="Helvetica,sans-Serif" font-size="10.00">FotoBox::PreferenceProvider</text>
<text text-anchor="middle" x="236.5" y="-742.5" font-family="Helvetica,sans-Serif" font-size="10.00">::setCountdownColor</text>
</a>
</g>
</g>
<!-- Node1&#45;&gt;Node11 -->
<g id="edge10" class="edge">
<title>Node1&#45;&gt;Node11</title>
<path fill="none" stroke="midnightblue" d="M68.71,-618.83C82.57,-644.88 114.22,-697.73 156,-726.5 158.26,-728.06 160.62,-729.51 163.06,-730.88"/>
<polygon fill="midnightblue" stroke="midnightblue" points="161.66,-734.09 172.17,-735.43 164.79,-727.83 161.66,-734.09"/>
</g>
<!-- Node12 -->
<g id="node12" class="node">
<title>Node12</title>
<g id="a_node12"><a xlink:href="class_foto_box_1_1_preference_provider.html#a87794964fc7fda2924a29b1e99303e7b" target="_top" xlink:title="set grayscale bool (monochrome photography)">
<polygon fill="none" stroke="black" points="159,-686.5 159,-716.5 314,-716.5 314,-686.5 159,-686.5"/>
<text text-anchor="start" x="167" y="-704.5" font-family="Helvetica,sans-Serif" font-size="10.00">FotoBox::PreferenceProvider</text>
<text text-anchor="middle" x="236.5" y="-693.5" font-family="Helvetica,sans-Serif" font-size="10.00">::setGrayscale</text>
</a>
</g>
</g>
<!-- Node1&#45;&gt;Node12 -->
<g id="edge11" class="edge">
<title>Node1&#45;&gt;Node12</title>
<path fill="none" stroke="midnightblue" d="M76.54,-618.59C94.38,-635.17 125.18,-661.55 156,-677.5 159.57,-679.35 163.31,-681.08 167.13,-682.69"/>
<polygon fill="midnightblue" stroke="midnightblue" points="166.18,-686.08 176.77,-686.48 168.74,-679.57 166.18,-686.08"/>
</g>
<!-- Node13 -->
<g id="node13" class="node">
<title>Node13</title>
<g id="a_node13"><a xlink:href="class_foto_box_1_1_preference_provider.html#a0d519f737a0c8088d5ace8ac89427938" target="_top" xlink:title="set pigpio GPIO input pin">
<polygon fill="none" stroke="black" points="159,-637.5 159,-667.5 314,-667.5 314,-637.5 159,-637.5"/>
<text text-anchor="start" x="167" y="-655.5" font-family="Helvetica,sans-Serif" font-size="10.00">FotoBox::PreferenceProvider</text>
<text text-anchor="middle" x="236.5" y="-644.5" font-family="Helvetica,sans-Serif" font-size="10.00">::setInputPin</text>
</a>
</g>
</g>
<!-- Node1&#45;&gt;Node13 -->
<g id="edge12" class="edge">
<title>Node1&#45;&gt;Node13</title>
<path fill="none" stroke="midnightblue" d="M114.78,-618.6C132.94,-623.7 153.39,-629.44 172.22,-634.73"/>
<polygon fill="midnightblue" stroke="midnightblue" points="171.32,-638.11 181.9,-637.45 173.22,-631.38 171.32,-638.11"/>
</g>
<!-- Node14 -->
<g id="node14" class="node">
<title>Node14</title>
<g id="a_node14"><a xlink:href="class_foto_box_1_1_preference_provider.html#a0695c2fba0ca904d9050141f28f3a060" target="_top" xlink:title="set pigpio GPIO output pin">
<polygon fill="none" stroke="black" points="159,-588.5 159,-618.5 314,-618.5 314,-588.5 159,-588.5"/>
<text text-anchor="start" x="167" y="-606.5" font-family="Helvetica,sans-Serif" font-size="10.00">FotoBox::PreferenceProvider</text>
<text text-anchor="middle" x="236.5" y="-595.5" font-family="Helvetica,sans-Serif" font-size="10.00">::setOutputPin</text>
</a>
</g>
</g>
<!-- Node1&#45;&gt;Node14 -->
<g id="edge13" class="edge">
<title>Node1&#45;&gt;Node14</title>
<path fill="none" stroke="midnightblue" d="M120.08,-603.5C129.32,-603.5 139.04,-603.5 148.75,-603.5"/>
<polygon fill="midnightblue" stroke="midnightblue" points="148.85,-607 158.85,-603.5 148.85,-600 148.85,-607"/>
</g>
<!-- Node15 -->
<g id="node15" class="node">
<title>Node15</title>
<g id="a_node15"><a xlink:href="class_foto_box_1_1_preference_provider.html#a6117601b372c41301c884fc428a90adb" target="_top" xlink:title="set photo output directory">
<polygon fill="none" stroke="black" points="159,-539.5 159,-569.5 314,-569.5 314,-539.5 159,-539.5"/>
<text text-anchor="start" x="167" y="-557.5" font-family="Helvetica,sans-Serif" font-size="10.00">FotoBox::PreferenceProvider</text>
<text text-anchor="middle" x="236.5" y="-546.5" font-family="Helvetica,sans-Serif" font-size="10.00">::setPhotoFolder</text>
</a>
</g>
</g>
<!-- Node1&#45;&gt;Node15 -->
<g id="edge14" class="edge">
<title>Node1&#45;&gt;Node15</title>
<path fill="none" stroke="midnightblue" d="M114.78,-588.4C132.94,-583.3 153.39,-577.56 172.22,-572.27"/>
<polygon fill="midnightblue" stroke="midnightblue" points="173.22,-575.62 181.9,-569.55 171.32,-568.89 173.22,-575.62"/>
</g>
<!-- Node16 -->
<g id="node16" class="node">
<title>Node16</title>
<g id="a_node16"><a xlink:href="class_foto_box_1_1_preference_provider.html#a670b835f495cf676cc2bb820c39ce2fb" target="_top" xlink:title="set photo name template">
<polygon fill="none" stroke="black" points="159,-490.5 159,-520.5 314,-520.5 314,-490.5 159,-490.5"/>
<text text-anchor="start" x="167" y="-508.5" font-family="Helvetica,sans-Serif" font-size="10.00">FotoBox::PreferenceProvider</text>
<text text-anchor="middle" x="236.5" y="-497.5" font-family="Helvetica,sans-Serif" font-size="10.00">::setPhotoName</text>
</a>
</g>
</g>
<!-- Node1&#45;&gt;Node16 -->
<g id="edge15" class="edge">
<title>Node1&#45;&gt;Node16</title>
<path fill="none" stroke="midnightblue" d="M76.94,-588.39C94.89,-572.09 125.56,-546.35 156,-530.5 160.27,-528.28 164.77,-526.21 169.37,-524.3"/>
<polygon fill="midnightblue" stroke="midnightblue" points="170.86,-527.47 178.91,-520.58 168.32,-520.95 170.86,-527.47"/>
</g>
<!-- Node17 -->
<g id="node17" class="node">
<title>Node17</title>
<g id="a_node17"><a xlink:href="class_foto_box_1_1_preference_provider.html#ab5f23825886485a3214d033fb3cb3d94" target="_top" xlink:title="set print on or off">
<polygon fill="none" stroke="black" points="159,-441.5 159,-471.5 314,-471.5 314,-441.5 159,-441.5"/>
<text text-anchor="start" x="167" y="-459.5" font-family="Helvetica,sans-Serif" font-size="10.00">FotoBox::PreferenceProvider</text>
<text text-anchor="middle" x="236.5" y="-448.5" font-family="Helvetica,sans-Serif" font-size="10.00">::setPrint</text>
</a>
</g>
</g>
<!-- Node1&#45;&gt;Node17 -->
<g id="edge16" class="edge">
<title>Node1&#45;&gt;Node17</title>
<path fill="none" stroke="midnightblue" d="M68.77,-588.34C82.74,-562.59 114.55,-510.28 156,-481.5 158.88,-479.5 161.93,-477.65 165.08,-475.95"/>
<polygon fill="midnightblue" stroke="midnightblue" points="166.75,-479.04 174.22,-471.53 163.7,-472.74 166.75,-479.04"/>
</g>
<!-- Node18 -->
<g id="node18" class="node">
<title>Node18</title>
<g id="a_node18"><a xlink:href="class_foto_box_1_1_preference_provider.html#a69566b1879bf2f4ac38628ed1b6e4254" target="_top" xlink:title="set printer name">
<polygon fill="none" stroke="black" points="159,-392.5 159,-422.5 314,-422.5 314,-392.5 159,-392.5"/>
<text text-anchor="start" x="167" y="-410.5" font-family="Helvetica,sans-Serif" font-size="10.00">FotoBox::PreferenceProvider</text>
<text text-anchor="middle" x="236.5" y="-399.5" font-family="Helvetica,sans-Serif" font-size="10.00">::setPrinterName</text>
</a>
</g>
</g>
<!-- Node1&#45;&gt;Node18 -->
<g id="edge17" class="edge">
<title>Node1&#45;&gt;Node18</title>
<path fill="none" stroke="midnightblue" d="M65.17,-588.45C75.13,-555.25 103.5,-475.32 156,-432.5 158.06,-430.82 160.23,-429.25 162.5,-427.79"/>
<polygon fill="midnightblue" stroke="midnightblue" points="164.6,-430.62 171.59,-422.65 161.16,-424.52 164.6,-430.62"/>
</g>
<!-- Node19 -->
<g id="node19" class="node">
<title>Node19</title>
<g id="a_node19"><a xlink:href="class_foto_box_1_1_preference_provider.html#a32aa584eae175d3ca631d55c36569f82" target="_top" xlink:title="set how often the pin should be queried">
<polygon fill="none" stroke="black" points="159,-343.5 159,-373.5 314,-373.5 314,-343.5 159,-343.5"/>
<text text-anchor="start" x="167" y="-361.5" font-family="Helvetica,sans-Serif" font-size="10.00">FotoBox::PreferenceProvider</text>
<text text-anchor="middle" x="236.5" y="-350.5" font-family="Helvetica,sans-Serif" font-size="10.00">::setQueryInterval</text>
</a>
</g>
</g>
<!-- Node1&#45;&gt;Node19 -->
<g id="edge18" class="edge">
<title>Node1&#45;&gt;Node19</title>
<path fill="none" stroke="midnightblue" d="M63.13,-588.46C69.52,-548.9 92.21,-441.04 156,-383.5 157.75,-381.93 159.59,-380.45 161.51,-379.07"/>
<polygon fill="midnightblue" stroke="midnightblue" points="163.73,-381.81 170.39,-373.58 160.05,-375.86 163.73,-381.81"/>
</g>
<!-- Node20 -->
<g id="node20" class="node">
<title>Node20</title>
<g id="a_node20"><a xlink:href="class_foto_box_1_1_preference_provider.html#a7840df5033dc0e5a6b49c7518dbd0558" target="_top" xlink:title="set whether buttons are displayed on the UI">
<polygon fill="none" stroke="black" points="159,-294.5 159,-324.5 314,-324.5 314,-294.5 159,-294.5"/>
<text text-anchor="start" x="167" y="-312.5" font-family="Helvetica,sans-Serif" font-size="10.00">FotoBox::PreferenceProvider</text>
<text text-anchor="middle" x="236.5" y="-301.5" font-family="Helvetica,sans-Serif" font-size="10.00">::setShowButtons</text>
</a>
</g>
</g>
<!-- Node1&#45;&gt;Node20 -->
<g id="edge19" class="edge">
<title>Node1&#45;&gt;Node20</title>
<path fill="none" stroke="midnightblue" d="M61.81,-588.22C65.04,-542.76 80.83,-407.1 156,-334.5 157.48,-333.07 159.05,-331.72 160.68,-330.44"/>
<polygon fill="midnightblue" stroke="midnightblue" points="162.94,-333.15 169.34,-324.7 159.07,-327.31 162.94,-333.15"/>
</g>
<!-- Node21 -->
<g id="node21" class="node">
<title>Node21</title>
<g id="a_node21"><a xlink:href="class_foto_box_1_1_preference_provider.html#a398eb2e80356a55fd80d91aa8dba991f" target="_top" xlink:title="set timeout value for the camera framework">
<polygon fill="none" stroke="black" points="159,-245.5 159,-275.5 314,-275.5 314,-245.5 159,-245.5"/>
<text text-anchor="start" x="167" y="-263.5" font-family="Helvetica,sans-Serif" font-size="10.00">FotoBox::PreferenceProvider</text>
<text text-anchor="middle" x="236.5" y="-252.5" font-family="Helvetica,sans-Serif" font-size="10.00">::setTimeoutValue</text>
</a>
</g>
</g>
<!-- Node1&#45;&gt;Node21 -->
<g id="edge20" class="edge">
<title>Node1&#45;&gt;Node21</title>
<path fill="none" stroke="midnightblue" d="M60.84,-588.43C61.14,-538.06 69.03,-373.72 156,-285.5 157.41,-284.07 158.9,-282.72 160.46,-281.45"/>
<polygon fill="midnightblue" stroke="midnightblue" points="162.52,-284.28 168.75,-275.71 158.54,-278.52 162.52,-284.28"/>
</g>
<!-- Node22 -->
<g id="node22" class="node">
<title>Node22</title>
<g id="a_node22"><a xlink:href="class_foto_box_1_1_preferences.html#aa25f9c227ed5bc30251eb1723bb41913" target="_top" xlink:title="Show the given color in QLineEdit.">
<polygon fill="none" stroke="black" points="176.5,-196.5 176.5,-226.5 296.5,-226.5 296.5,-196.5 176.5,-196.5"/>
<text text-anchor="start" x="184.5" y="-214.5" font-family="Helvetica,sans-Serif" font-size="10.00">FotoBox::Preferences</text>
<text text-anchor="middle" x="236.5" y="-203.5" font-family="Helvetica,sans-Serif" font-size="10.00">::showColor</text>
</a>
</g>
</g>
<!-- Node1&#45;&gt;Node22 -->
<g id="edge21" class="edge">
<title>Node1&#45;&gt;Node22</title>
<path fill="none" stroke="midnightblue" d="M62.98,-588.18C71.35,-525.49 105.8,-289.35 156,-236.5 159.37,-232.95 163.24,-229.9 167.42,-227.28"/>
<polygon fill="midnightblue" stroke="midnightblue" points="169.2,-230.3 176.37,-222.49 165.9,-224.13 169.2,-230.3"/>
</g>
<!-- Node23 -->
<g id="node23" class="node">
<title>Node23</title>
<g id="a_node23"><a xlink:href="class_foto_box_1_1_preferences.html#af7e8af681b151f7de6962cd44af3426b" target="_top" xlink:title="Start the FotoBox.">
<polygon fill="none" stroke="black" points="176.5,-147.5 176.5,-177.5 296.5,-177.5 296.5,-147.5 176.5,-147.5"/>
<text text-anchor="start" x="184.5" y="-165.5" font-family="Helvetica,sans-Serif" font-size="10.00">FotoBox::Preferences</text>
<text text-anchor="middle" x="236.5" y="-154.5" font-family="Helvetica,sans-Serif" font-size="10.00">::startFotoBox</text>
</a>
</g>
</g>
<!-- Node1&#45;&gt;Node23 -->
<g id="edge22" class="edge">
<title>Node1&#45;&gt;Node23</title>
<path fill="none" stroke="midnightblue" d="M62.44,-588.48C69.2,-521.24 99.73,-248.47 156,-187.5 159.32,-183.9 163.15,-180.82 167.3,-178.18"/>
<polygon fill="midnightblue" stroke="midnightblue" points="169.09,-181.19 176.21,-173.35 165.75,-175.04 169.09,-181.19"/>
</g>
<!-- Node24 -->
<g id="node24" class="node">
<title>Node24</title>
<g id="a_node24"><a xlink:href="class_foto_box_1_1_preferences.html#a93d473fdedfa04aa9cb2d8352a555811" target="_top" xlink:title="Stop countdown, stop mouse tracking and set normal window title name.">
<polygon fill="none" stroke="black" points="174,-98.5 174,-128.5 299,-128.5 299,-98.5 174,-98.5"/>
<text text-anchor="start" x="182" y="-116.5" font-family="Helvetica,sans-Serif" font-size="10.00">FotoBox::Preferences</text>
<text text-anchor="middle" x="236.5" y="-105.5" font-family="Helvetica,sans-Serif" font-size="10.00">::stopCountdownMode</text>
</a>
</g>
</g>
<!-- Node1&#45;&gt;Node24 -->
<g id="edge23" class="edge">
<title>Node1&#45;&gt;Node24</title>
<path fill="none" stroke="midnightblue" d="M62.07,-588.21C67.46,-515.74 93.78,-207.49 156,-138.5 158.7,-135.5 161.76,-132.86 165.06,-130.54"/>
<polygon fill="midnightblue" stroke="midnightblue" points="166.92,-133.5 173.72,-125.38 163.33,-127.49 166.92,-133.5"/>
</g>
<!-- Node25 -->
<g id="node25" class="node">
<title>Node25</title>
<g id="a_node25"><a xlink:href="class_foto_box_1_1_preferences.html#ac38b051f496717a3a950d939cc4792f0" target="_top" xlink:title="Check camera application availability and provide help if needed.">
<polygon fill="none" stroke="black" points="176.5,-49.5 176.5,-79.5 296.5,-79.5 296.5,-49.5 176.5,-49.5"/>
<text text-anchor="start" x="184.5" y="-67.5" font-family="Helvetica,sans-Serif" font-size="10.00">FotoBox::Preferences</text>
<text text-anchor="middle" x="236.5" y="-56.5" font-family="Helvetica,sans-Serif" font-size="10.00">::verifyApplication</text>
</a>
</g>
</g>
<!-- Node1&#45;&gt;Node25 -->
<g id="edge24" class="edge">
<title>Node1&#45;&gt;Node25</title>
<path fill="none" stroke="midnightblue" d="M61.74,-588.43C65.79,-511.88 87.67,-166.72 156,-89.5 159.3,-85.77 163.15,-82.59 167.35,-79.88"/>
<polygon fill="midnightblue" stroke="midnightblue" points="169.27,-82.82 176.37,-74.95 165.92,-76.67 169.27,-82.82"/>
</g>
<!-- Node26 -->
<g id="node26" class="node">
<title>Node26</title>
<g id="a_node26"><a xlink:href="class_foto_box_1_1_preferences.html#af2e2427b8c2ff8d2b61faf91ba642607" target="_top" xlink:title="Check if the path is useable.">
<polygon fill="none" stroke="black" points="176.5,-0.5 176.5,-30.5 296.5,-30.5 296.5,-0.5 176.5,-0.5"/>
<text text-anchor="start" x="184.5" y="-18.5" font-family="Helvetica,sans-Serif" font-size="10.00">FotoBox::Preferences</text>
<text text-anchor="middle" x="236.5" y="-7.5" font-family="Helvetica,sans-Serif" font-size="10.00">::verifyPath</text>
</a>
</g>
</g>
<!-- Node1&#45;&gt;Node26 -->
<g id="edge25" class="edge">
<title>Node1&#45;&gt;Node26</title>
<path fill="none" stroke="midnightblue" d="M61.48,-588.36C64.33,-507.39 81.61,-125.89 156,-40.5 159.27,-36.74 163.1,-33.54 167.28,-30.82"/>
<polygon fill="midnightblue" stroke="midnightblue" points="169.21,-33.76 176.29,-25.88 165.84,-27.62 169.21,-33.76"/>
</g>
</g>
</svg>
