<?xml version="1.0" encoding="UTF-8" standalone="no"?>
<!DOCTYPE svg PUBLIC "-//W3C//DTD SVG 1.1//EN"
 "http://www.w3.org/Graphics/SVG/1.1/DTD/svg11.dtd">
<!-- Generated by graphviz version 2.43.0 (0)
 -->
<!-- Title: FotoBox::Preferences::startFotoBox Pages: 1 -->
<svg width="440pt" height="61pt"
 viewBox="0.00 0.00 440.00 61.00" xmlns="http://www.w3.org/2000/svg" xmlns:xlink="http://www.w3.org/1999/xlink">
<g id="graph0" class="graph" transform="scale(1 1) rotate(0) translate(4 57)">
<title>FotoBox::Preferences::startFotoBox</title>
<!-- Node1 -->
<g id="node1" class="node">
<title>Node1</title>
<g id="a_node1"><a xlink:title="Start the FotoBox.">
<polygon fill="#bfbfbf" stroke="black" points="312,-0.5 312,-30.5 432,-30.5 432,-0.5 312,-0.5"/>
<text text-anchor="start" x="320" y="-18.5" font-family="Helvetica,sans-Serif" font-size="10.00">FotoBox::Preferences</text>
<text text-anchor="middle" x="372" y="-7.5" font-family="Helvetica,sans-Serif" font-size="10.00">::startFotoBox</text>
</a>
</g>
</g>
<!-- Node2 -->
<g id="node2" class="node">
<title>Node2</title>
<g id="a_node2"><a xlink:href="class_foto_box_1_1_preferences.html#aa32a746004108cc42784e9f5f31ac555" target="_top" xlink:title="Signal &amp; Slot connect.">
<polygon fill="none" stroke="black" points="156,-22.5 156,-52.5 276,-52.5 276,-22.5 156,-22.5"/>
<text text-anchor="start" x="164" y="-40.5" font-family="Helvetica,sans-Serif" font-size="10.00">FotoBox::Preferences</text>
<text text-anchor="middle" x="216" y="-29.5" font-family="Helvetica,sans-Serif" font-size="10.00">::connectUi</text>
</a>
</g>
</g>
<!-- Node1&#45;&gt;Node2 -->
<g id="edge1" class="edge">
<title>Node1&#45;&gt;Node2</title>
<path fill="none" stroke="midnightblue" d="M301.91,-25.37C293.33,-26.6 284.61,-27.84 276.2,-29.04"/>
<polygon fill="midnightblue" stroke="midnightblue" points="302.5,-28.82 311.9,-23.94 301.51,-21.89 302.5,-28.82"/>
</g>
<!-- Node3 -->
<g id="node3" class="node">
<title>Node3</title>
<g id="a_node3"><a xlink:href="class_foto_box_1_1_preferences.html#a0b70f6f0ecaaa0df571fbbccbcc41975" target="_top" xlink:title="Preferences constructor.">
<polygon fill="none" stroke="black" points="0,-0.5 0,-30.5 120,-30.5 120,-0.5 0,-0.5"/>
<text text-anchor="start" x="8" y="-18.5" font-family="Helvetica,sans-Serif" font-size="10.00">FotoBox::Preferences</text>
<text text-anchor="middle" x="60" y="-7.5" font-family="Helvetica,sans-Serif" font-size="10.00">::Preferences</text>
</a>
</g>
</g>
<!-- Node1&#45;&gt;Node3 -->
<g id="edge3" class="edge">
<title>Node1&#45;&gt;Node3</title>
<path fill="none" stroke="midnightblue" d="M301.82,-13.87C293.13,-13.72 284.36,-13.59 276,-13.5 222.67,-12.94 209.33,-12.94 156,-13.5 144.37,-13.62 131.94,-13.83 120.04,-14.06"/>
<polygon fill="midnightblue" stroke="midnightblue" points="301.9,-17.38 311.96,-14.06 302.03,-10.38 301.9,-17.38"/>
</g>
<!-- Node2&#45;&gt;Node3 -->
<g id="edge2" class="edge">
<title>Node2&#45;&gt;Node3</title>
<path fill="none" stroke="midnightblue" d="M145.91,-27.63C137.33,-26.4 128.61,-25.16 120.2,-23.96"/>
<polygon fill="midnightblue" stroke="midnightblue" points="145.51,-31.11 155.9,-29.06 146.5,-24.18 145.51,-31.11"/>
</g>
</g>
</svg>
