<?xml version="1.0" encoding="UTF-8" standalone="no"?>
<!DOCTYPE svg PUBLIC "-//W3C//DTD SVG 1.1//EN"
 "http://www.w3.org/Graphics/SVG/1.1/DTD/svg11.dtd">
<!-- Generated by graphviz version 2.46.1 (20210213.1702)
 -->
<!-- Title: FotoBox::photo Pages: 1 -->
<!--zoomable 200 -->
<svg id="main" version="1.1" xmlns="http://www.w3.org/2000/svg" xmlns:xlink="http://www.w3.org/1999/xlink" xml:space="preserve" onload="init(evt)">
<style type="text/css"><![CDATA[
.edge:hover path { stroke: red; }
.edge:hover polygon { stroke: red; fill: red; }
]]></style>
<script type="text/javascript"><![CDATA[
var edges = document.getElementsByTagName('g');
if (edges && edges.length) {
  for (var i=0;i<edges.length;i++) {
    if (edges[i].id.substr(0,4)=='edge') {
      edges[i].setAttribute('class','edge');
    }
  }
}
]]></script>
        <defs>
                <circle id="rim" cx="0" cy="0" r="7"/>
                <circle id="rim2" cx="0" cy="0" r="3.5"/>
                <g id="zoomPlus">
                        <use xlink:href="#rim" fill="#404040">
                                <set attributeName="fill" to="#808080" begin="zoomplus.mouseover" end="zoomplus.mouseout"/>
                        </use>
                        <path d="M-4,0h8M0,-4v8" fill="none" stroke="white" stroke-width="1.5" pointer-events="none"/>
                </g>
                <g id="zoomMin">
                        <use xlink:href="#rim" fill="#404040">
                                <set attributeName="fill" to="#808080" begin="zoomminus.mouseover" end="zoomminus.mouseout"/>
                        </use>
                        <path d="M-4,0h8" fill="none" stroke="white" stroke-width="1.5" pointer-events="none"/>
                </g>
                <g id="dirArrow">
                        <path fill="none" stroke="white" stroke-width="1.5" d="M0,-3.0v7 M-2.5,-0.5L0,-3.0L2.5,-0.5"/>
                </g>
               <g id="resetDef">
                       <use xlink:href="#rim2" fill="#404040">
                               <set attributeName="fill" to="#808080" begin="reset.mouseover" end="reset.mouseout"/>
                       </use>
               </g>
        </defs>

<script type="text/javascript">
var viewWidth = 534;
var viewHeight = 200;
var sectionId = 'dynsection-17';
</script>
<script xlink:href="svgpan.js"/>
<svg id="graph" class="graph">
<g id="viewport">
<title>FotoBox::photo</title>
<!-- Node1 -->
<g id="node1" class="node">
<title>Node1</title>
<g id="a_node1"><a xlink:title="trigger camera to shot a photo and try to show it">
<polygon fill="#bfbfbf" stroke="black" points="0,-114.5 0,-133.5 83,-133.5 83,-114.5 0,-114.5"/>
<text text-anchor="middle" x="41.5" y="-121.5" font-family="Helvetica,sans-Serif" font-size="10.00">FotoBox::photo</text>
</a>
</g>
</g>
<!-- Node2 -->
<g id="node2" class="node">
<title>Node2</title>
<g id="a_node2"><a xlink:href="class_foto_box.html#ab6131adb44137e55734eb8bb0672fd38" target="_top" xlink:title="With or without countdown.">
<polygon fill="none" stroke="black" points="122,-114.5 122,-133.5 229,-133.5 229,-114.5 122,-114.5"/>
<text text-anchor="middle" x="175.5" y="-121.5" font-family="Helvetica,sans-Serif" font-size="10.00">FotoBox::countdown</text>
</a>
</g>
</g>
<!-- Node1&#45;&gt;Node2 -->
<g id="edge1" class="edge">
<title>Node1&#45;&gt;Node2</title>
<path fill="none" stroke="midnightblue" d="M83.18,-117.71C92.08,-117.37 101.71,-117.22 111.26,-117.26"/>
<polygon fill="midnightblue" stroke="midnightblue" points="111.51,-120.76 121.55,-117.37 111.59,-113.76 111.51,-120.76"/>
</g>
<!-- Node3 -->
<g id="node3" class="node">
<title>Node3</title>
<g id="a_node3"><a xlink:href="class_preference_provider.html#a786d1bce48ec60ae6d1809ad01bc5cdb" target="_top" xlink:title="get instance (Meyers Singleton)">
<polygon fill="none" stroke="black" points="282,-153 282,-183 382,-183 382,-153 282,-153"/>
<text text-anchor="start" x="290" y="-171" font-family="Helvetica,sans-Serif" font-size="10.00">PreferenceProvider</text>
<text text-anchor="middle" x="332" y="-160" font-family="Helvetica,sans-Serif" font-size="10.00">::instance</text>
</a>
</g>
</g>
<!-- Node1&#45;&gt;Node3 -->
<g id="edge8" class="edge">
<title>Node1&#45;&gt;Node3</title>
<path fill="none" stroke="midnightblue" d="M51.24,-133.61C64.38,-147.25 90.7,-171.62 119,-181 168.68,-197.47 228.45,-191.68 271.84,-183.25"/>
<polygon fill="midnightblue" stroke="midnightblue" points="272.57,-186.67 281.67,-181.24 271.17,-179.82 272.57,-186.67"/>
</g>
<!-- Node5 -->
<g id="node5" class="node">
<title>Node5</title>
<g id="a_node5"><a xlink:href="class_countdown.html#ac9b658e9c4cf7896ce55b806e66f5e38" target="_top" xlink:title="Reset countdown (reset.">
<polygon fill="none" stroke="black" points="432,-57.5 432,-76.5 526,-76.5 526,-57.5 432,-57.5"/>
<text text-anchor="middle" x="479" y="-64.5" font-family="Helvetica,sans-Serif" font-size="10.00">Countdown::reset</text>
</a>
</g>
</g>
<!-- Node1&#45;&gt;Node5 -->
<g id="edge11" class="edge">
<title>Node1&#45;&gt;Node5</title>
<path fill="none" stroke="midnightblue" d="M51.24,-114.39C64.38,-100.75 90.7,-76.38 119,-67 221.34,-33.07 349.3,-44.99 421.52,-56.3"/>
<polygon fill="midnightblue" stroke="midnightblue" points="421.33,-59.81 431.77,-57.95 422.45,-52.9 421.33,-59.81"/>
</g>
<!-- Node7 -->
<g id="node7" class="node">
<title>Node7</title>
<g id="a_node7"><a xlink:href="class_camera.html#a88aed424830b94ab70f84130e4be5f6c" target="_top" xlink:title="return member">
<polygon fill="none" stroke="black" points="119,-76.5 119,-95.5 232,-95.5 232,-76.5 119,-76.5"/>
<text text-anchor="middle" x="175.5" y="-83.5" font-family="Helvetica,sans-Serif" font-size="10.00">Camera::currentPhoto</text>
</a>
</g>
</g>
<!-- Node1&#45;&gt;Node7 -->
<g id="edge7" class="edge">
<title>Node1&#45;&gt;Node7</title>
<path fill="none" stroke="midnightblue" d="M75.81,-114.41C92.69,-109.55 113.39,-103.59 131.47,-98.39"/>
<polygon fill="midnightblue" stroke="midnightblue" points="132.56,-101.72 141.2,-95.59 130.62,-94.99 132.56,-101.72"/>
</g>
<!-- Node8 -->
<g id="node8" class="node">
<title>Node8</title>
<g id="a_node8"><a xlink:href="class_foto_box.html#a78d1e793417f4ce20a26465271b383b1" target="_top" xlink:title="try to load the photo to QPixmap">
<polygon fill="none" stroke="black" points="124,-152.5 124,-171.5 227,-171.5 227,-152.5 124,-152.5"/>
<text text-anchor="middle" x="175.5" y="-159.5" font-family="Helvetica,sans-Serif" font-size="10.00">FotoBox::loadPhoto</text>
</a>
</g>
</g>
<!-- Node1&#45;&gt;Node8 -->
<g id="edge9" class="edge">
<title>Node1&#45;&gt;Node8</title>
<path fill="none" stroke="midnightblue" d="M75.81,-133.59C92.69,-138.45 113.39,-144.41 131.47,-149.61"/>
<polygon fill="midnightblue" stroke="midnightblue" points="130.62,-153.01 141.2,-152.41 132.56,-146.28 130.62,-153.01"/>
</g>
<!-- Node9 -->
<g id="node9" class="node">
<title>Node9</title>
<g id="a_node9"><a xlink:href="class_camera.html#a497d9061dd108efc452f75b6b542d824" target="_top" xlink:title="shoot a photo with gphoto2">
<polygon fill="none" stroke="black" points="122,-0.5 122,-19.5 229,-19.5 229,-0.5 122,-0.5"/>
<text text-anchor="middle" x="175.5" y="-7.5" font-family="Helvetica,sans-Serif" font-size="10.00">Camera::shootPhoto</text>
</a>
</g>
</g>
<!-- Node1&#45;&gt;Node9 -->
<g id="edge12" class="edge">
<title>Node1&#45;&gt;Node9</title>
<path fill="none" stroke="midnightblue" d="M48.52,-114.33C60.15,-96.34 87.35,-57.43 119,-34 124.2,-30.15 130.12,-26.76 136.11,-23.83"/>
<polygon fill="midnightblue" stroke="midnightblue" points="137.8,-26.91 145.48,-19.62 134.93,-20.53 137.8,-26.91"/>
</g>
<!-- Node2&#45;&gt;Node1 -->
<g id="edge3" class="edge">
<title>Node2&#45;&gt;Node1</title>
<path fill="none" stroke="midnightblue" d="M121.55,-130.63C112.26,-130.8 102.61,-130.79 93.38,-130.59"/>
<polygon fill="midnightblue" stroke="midnightblue" points="93.28,-127.09 83.18,-130.29 93.07,-134.08 93.28,-127.09"/>
</g>
<!-- Node2&#45;&gt;Node3 -->
<g id="edge2" class="edge">
<title>Node2&#45;&gt;Node3</title>
<path fill="none" stroke="midnightblue" d="M210.02,-133.55C228.18,-138.72 251.15,-145.26 272.18,-151.25"/>
<polygon fill="midnightblue" stroke="midnightblue" points="271.42,-154.67 281.99,-154.04 273.34,-147.94 271.42,-154.67"/>
</g>
<!-- Node4 -->
<g id="node4" class="node">
<title>Node4</title>
<g id="a_node4"><a xlink:href="class_countdown.html#a2c047ed2997b0d933b18ead33b3a6a5e" target="_top" xlink:title="Set the countdown start time.">
<polygon fill="none" stroke="black" points="268,-76.5 268,-95.5 396,-95.5 396,-76.5 268,-76.5"/>
<text text-anchor="middle" x="332" y="-83.5" font-family="Helvetica,sans-Serif" font-size="10.00">Countdown::setStartTime</text>
</a>
</g>
</g>
<!-- Node2&#45;&gt;Node4 -->
<g id="edge4" class="edge">
<title>Node2&#45;&gt;Node4</title>
<path fill="none" stroke="midnightblue" d="M215.49,-114.41C235.78,-109.42 260.79,-103.27 282.35,-97.97"/>
<polygon fill="midnightblue" stroke="midnightblue" points="283.42,-101.31 292.29,-95.52 281.75,-94.51 283.42,-101.31"/>
</g>
<!-- Node6 -->
<g id="node6" class="node">
<title>Node6</title>
<g id="a_node6"><a xlink:href="class_countdown.html#a42d413ab133c683032bbd188e16f6a51" target="_top" xlink:title="Start countdown.">
<polygon fill="none" stroke="black" points="286,-114.5 286,-133.5 378,-133.5 378,-114.5 286,-114.5"/>
<text text-anchor="middle" x="332" y="-121.5" font-family="Helvetica,sans-Serif" font-size="10.00">Countdown::start</text>
</a>
</g>
</g>
<!-- Node2&#45;&gt;Node6 -->
<g id="edge6" class="edge">
<title>Node2&#45;&gt;Node6</title>
<path fill="none" stroke="midnightblue" d="M229.24,-124C244.22,-124 260.58,-124 275.72,-124"/>
<polygon fill="midnightblue" stroke="midnightblue" points="275.97,-127.5 285.97,-124 275.97,-120.5 275.97,-127.5"/>
</g>
<!-- Node4&#45;&gt;Node5 -->
<g id="edge5" class="edge">
<title>Node4&#45;&gt;Node5</title>
<path fill="none" stroke="midnightblue" d="M396.18,-77.72C404.64,-76.61 413.28,-75.48 421.61,-74.39"/>
<polygon fill="midnightblue" stroke="midnightblue" points="422.14,-77.85 431.6,-73.08 421.23,-70.91 422.14,-77.85"/>
</g>
<!-- Node8&#45;&gt;Node3 -->
<g id="edge10" class="edge">
<title>Node8&#45;&gt;Node3</title>
<path fill="none" stroke="midnightblue" d="M227.09,-163.96C241.39,-164.52 257.08,-165.13 271.84,-165.7"/>
<polygon fill="midnightblue" stroke="midnightblue" points="271.75,-169.2 281.88,-166.09 272.02,-162.21 271.75,-169.2"/>
</g>
</g>
</svg>
        <g id="navigator" transform="translate(0 0)" fill="#404254">
                <rect fill="#f2f5e9" fill-opacity="0.5" stroke="#606060" stroke-width=".5" x="0" y="0" width="60" height="60"/>
                <use id="zoomplus" xlink:href="#zoomPlus" x="17" y="9" onmousedown="handleZoom(evt,'in')"/>
                <use id="zoomminus" xlink:href="#zoomMin" x="42" y="9" onmousedown="handleZoom(evt,'out')"/>
                <use id="reset" xlink:href="#resetDef" x="30" y="36" onmousedown="handleReset()"/>
                <g id="arrowUp" xlink:href="#dirArrow" transform="translate(30 24)" onmousedown="handlePan(0,-1)">
                  <use xlink:href="#rim" fill="#404040">
                        <set attributeName="fill" to="#808080" begin="arrowUp.mouseover" end="arrowUp.mouseout"/>
                  </use>
                  <path fill="none" stroke="white" stroke-width="1.5" d="M0,-3.0v7 M-2.5,-0.5L0,-3.0L2.5,-0.5"/>
                </g>
                <g id="arrowRight" xlink:href="#dirArrow" transform="rotate(90) translate(36 -43)" onmousedown="handlePan(1,0)">
                  <use xlink:href="#rim" fill="#404040">
                        <set attributeName="fill" to="#808080" begin="arrowRight.mouseover" end="arrowRight.mouseout"/>
                  </use>
                  <path fill="none" stroke="white" stroke-width="1.5" d="M0,-3.0v7 M-2.5,-0.5L0,-3.0L2.5,-0.5"/>
                </g>
                <g id="arrowDown" xlink:href="#dirArrow" transform="rotate(180) translate(-30 -48)" onmousedown="handlePan(0,1)">
                  <use xlink:href="#rim" fill="#404040">
                        <set attributeName="fill" to="#808080" begin="arrowDown.mouseover" end="arrowDown.mouseout"/>
                  </use>
                  <path fill="none" stroke="white" stroke-width="1.5" d="M0,-3.0v7 M-2.5,-0.5L0,-3.0L2.5,-0.5"/>
                </g>
                <g id="arrowLeft" xlink:href="#dirArrow" transform="rotate(270) translate(-36 17)" onmousedown="handlePan(-1,0)">
                  <use xlink:href="#rim" fill="#404040">
                        <set attributeName="fill" to="#808080" begin="arrowLeft.mouseover" end="arrowLeft.mouseout"/>
                  </use>
                  <path fill="none" stroke="white" stroke-width="1.5" d="M0,-3.0v7 M-2.5,-0.5L0,-3.0L2.5,-0.5"/>
                </g>
        </g>
        <svg viewBox="0 0 15 15" width="100%" height="30px" preserveAspectRatio="xMaxYMin meet">
         <g id="arrow_out" transform="scale(0.3 0.3)">
          <a xlink:href="class_foto_box_a78353b51782aab91a0b4eafac67be1c4_cgraph_org.svg" target="_base">
           <rect id="button" ry="5" rx="5" y="6" x="6" height="38" width="38"
                fill="#f2f5e9" fill-opacity="0.5" stroke="#606060" stroke-width="1.0"/>
           <path id="arrow"
             d="M 11.500037,31.436501 C 11.940474,20.09759 22.043105,11.32322 32.158766,21.979434 L 37.068811,17.246167 C 37.068811,17.246167 37.088388,32 37.088388,32 L 22.160133,31.978069 C 22.160133,31.978069 26.997745,27.140456 26.997745,27.140456 C 18.528582,18.264221 13.291696,25.230495 11.500037,31.436501 z"
             style="fill:#404040;"/>
          </a>
         </g>
        </svg>
</svg>
