<?xml version="1.0" encoding="UTF-8" standalone="no"?>
<!DOCTYPE svg PUBLIC "-//W3C//DTD SVG 1.1//EN"
 "http://www.w3.org/Graphics/SVG/1.1/DTD/svg11.dtd">
<!-- Generated by graphviz version 2.46.1 (20210213.1702)
 -->
<!-- Title: Preferences::Preferences Pages: 1 -->
<svg width="842pt" height="1160pt"
 viewBox="0.00 0.00 842.00 1159.50" xmlns="http://www.w3.org/2000/svg" xmlns:xlink="http://www.w3.org/1999/xlink">
<g id="graph0" class="graph" transform="scale(1 1) rotate(0) translate(4 1155.5)">
<title>Preferences::Preferences</title>
<!-- Node1 -->
<g id="node1" class="node">
<title>Node1</title>
<g id="a_node1"><a xlink:title="Preferences constructor.">
<polygon fill="#bfbfbf" stroke="black" points="0,-155.5 0,-174.5 128,-174.5 128,-155.5 0,-155.5"/>
<text text-anchor="middle" x="64" y="-162.5" font-family="Helvetica,sans-Serif" font-size="10.00">Preferences::Preferences</text>
</a>
</g>
</g>
<!-- Node2 -->
<g id="node2" class="node">
<title>Node2</title>
<g id="a_node2"><a xlink:href="class_preferences.html#a36e52663dbf3006c5dcf04d89cfd672d" target="_top" xlink:title="Signal &amp; Slot connect.">
<polygon fill="none" stroke="black" points="177.5,-536.5 177.5,-555.5 296.5,-555.5 296.5,-536.5 177.5,-536.5"/>
<text text-anchor="middle" x="237" y="-543.5" font-family="Helvetica,sans-Serif" font-size="10.00">Preferences::connectUi</text>
</a>
</g>
</g>
<!-- Node1&#45;&gt;Node2 -->
<g id="edge1" class="edge">
<title>Node1&#45;&gt;Node2</title>
<path fill="none" stroke="midnightblue" d="M69.4,-174.8C92.17,-225.54 196.8,-458.67 227.51,-527.08"/>
<polygon fill="midnightblue" stroke="midnightblue" points="224.34,-528.57 231.63,-536.26 230.73,-525.71 224.34,-528.57"/>
</g>
<!-- Node25 -->
<g id="node25" class="node">
<title>Node25</title>
<g id="a_node25"><a xlink:href="class_preferences.html#a4f0c2844c169369eacff4a6c004b2d7d" target="_top" xlink:title="Start the FotoBox.">
<polygon fill="none" stroke="black" points="364,-0.5 364,-19.5 495,-19.5 495,-0.5 364,-0.5"/>
<text text-anchor="middle" x="429.5" y="-7.5" font-family="Helvetica,sans-Serif" font-size="10.00">Preferences::startFotoBox</text>
</a>
</g>
</g>
<!-- Node1&#45;&gt;Node25 -->
<g id="edge40" class="edge">
<title>Node1&#45;&gt;Node25</title>
<path fill="none" stroke="midnightblue" d="M75.55,-174.66C92.61,-189.56 128.01,-217.52 164,-228 226.3,-246.14 260.2,-269.6 310,-228 378.98,-170.38 283.97,-94.04 346,-29 348.64,-26.23 351.6,-23.83 354.78,-21.75"/>
<polygon fill="midnightblue" stroke="midnightblue" points="356.52,-24.78 363.66,-16.96 353.2,-18.62 356.52,-24.78"/>
</g>
<!-- Node33 -->
<g id="node33" class="node">
<title>Node33</title>
<g id="a_node33"><a xlink:href="class_preferences.html#a817e6485c92d847086ea30c66086b544" target="_top" xlink:title="Load application settings from INI file.">
<polygon fill="none" stroke="black" points="164,-199.5 164,-218.5 310,-218.5 310,-199.5 164,-199.5"/>
<text text-anchor="middle" x="237" y="-206.5" font-family="Helvetica,sans-Serif" font-size="10.00">Preferences::loadPreferences</text>
</a>
</g>
</g>
<!-- Node1&#45;&gt;Node33 -->
<g id="edge36" class="edge">
<title>Node1&#45;&gt;Node33</title>
<path fill="none" stroke="midnightblue" d="M102.1,-174.55C127.65,-181.12 161.79,-189.9 189.2,-196.96"/>
<polygon fill="midnightblue" stroke="midnightblue" points="188.41,-200.37 198.97,-199.47 190.16,-193.59 188.41,-200.37"/>
</g>
<!-- Node34 -->
<g id="node34" class="node">
<title>Node34</title>
<g id="a_node34"><a xlink:href="class_preferences.html#ab99004b73d8cc7f72ab98c91e7e256b5" target="_top" xlink:title="Restore default preferences.">
<polygon fill="none" stroke="black" points="168.5,-150 168.5,-180 305.5,-180 305.5,-150 168.5,-150"/>
<text text-anchor="start" x="176.5" y="-168" font-family="Helvetica,sans-Serif" font-size="10.00">Preferences::restoreDefault</text>
<text text-anchor="middle" x="237" y="-157" font-family="Helvetica,sans-Serif" font-size="10.00">Preferences</text>
</a>
</g>
</g>
<!-- Node1&#45;&gt;Node34 -->
<g id="edge37" class="edge">
<title>Node1&#45;&gt;Node34</title>
<path fill="none" stroke="midnightblue" d="M128.19,-165C138.04,-165 148.31,-165 158.43,-165"/>
<polygon fill="midnightblue" stroke="midnightblue" points="158.48,-168.5 168.48,-165 158.48,-161.5 158.48,-168.5"/>
</g>
<!-- Node35 -->
<g id="node35" class="node">
<title>Node35</title>
<g id="a_node35"><a xlink:href="class_preferences.html#ae5867411f2511a44e35949e15051c7be" target="_top" xlink:title="Set icons for all QToolButtons.">
<polygon fill="none" stroke="black" points="166.5,-111.5 166.5,-130.5 307.5,-130.5 307.5,-111.5 166.5,-111.5"/>
<text text-anchor="middle" x="237" y="-118.5" font-family="Helvetica,sans-Serif" font-size="10.00">Preferences::setButtonIcons</text>
</a>
</g>
</g>
<!-- Node1&#45;&gt;Node35 -->
<g id="edge38" class="edge">
<title>Node1&#45;&gt;Node35</title>
<path fill="none" stroke="midnightblue" d="M102.1,-155.45C127.65,-148.88 161.79,-140.1 189.2,-133.04"/>
<polygon fill="midnightblue" stroke="midnightblue" points="190.16,-136.41 198.97,-130.53 188.41,-129.63 190.16,-136.41"/>
</g>
<!-- Node36 -->
<g id="node36" class="node">
<title>Node36</title>
<g id="a_node36"><a xlink:href="class_countdown.html#a42d413ab133c683032bbd188e16f6a51" target="_top" xlink:title="Start countdown.">
<polygon fill="none" stroke="black" points="191,-73.5 191,-92.5 283,-92.5 283,-73.5 191,-73.5"/>
<text text-anchor="middle" x="237" y="-80.5" font-family="Helvetica,sans-Serif" font-size="10.00">Countdown::start</text>
</a>
</g>
</g>
<!-- Node1&#45;&gt;Node36 -->
<g id="edge39" class="edge">
<title>Node1&#45;&gt;Node36</title>
<path fill="none" stroke="midnightblue" d="M77.41,-155.3C95.5,-141.59 130.59,-116.62 164,-102 169.46,-99.61 175.29,-97.46 181.19,-95.55"/>
<polygon fill="midnightblue" stroke="midnightblue" points="182.54,-98.8 191.1,-92.56 180.51,-92.1 182.54,-98.8"/>
</g>
<!-- Node37 -->
<g id="node37" class="node">
<title>Node37</title>
<g id="a_node37"><a xlink:href="class_preferences.html#aa214d798efb1bea9b98f8b4ccbde16f9" target="_top" xlink:title="Set the window position.">
<polygon fill="none" stroke="black" points="165.5,-35.5 165.5,-54.5 308.5,-54.5 308.5,-35.5 165.5,-35.5"/>
<text text-anchor="middle" x="237" y="-42.5" font-family="Helvetica,sans-Serif" font-size="10.00">Preferences::windowPosition</text>
</a>
</g>
</g>
<!-- Node1&#45;&gt;Node37 -->
<g id="edge41" class="edge">
<title>Node1&#45;&gt;Node37</title>
<path fill="none" stroke="midnightblue" d="M71.69,-155.25C86.1,-135.02 122.19,-88.32 164,-64 167.88,-61.75 172.02,-59.75 176.3,-57.99"/>
<polygon fill="midnightblue" stroke="midnightblue" points="177.62,-61.24 185.8,-54.5 175.21,-54.67 177.62,-61.24"/>
</g>
<!-- Node3 -->
<g id="node3" class="node">
<title>Node3</title>
<g id="a_node3"><a xlink:href="class_preferences.html#a9502fa3d4df242273f10f836ec3fc86c" target="_top" xlink:title="Open a QFileDialog to choose the photo directory.">
<polygon fill="none" stroke="black" points="356.5,-1051.5 356.5,-1070.5 502.5,-1070.5 502.5,-1051.5 356.5,-1051.5"/>
<text text-anchor="middle" x="429.5" y="-1058.5" font-family="Helvetica,sans-Serif" font-size="10.00">Preferences::chooseDirectory</text>
</a>
</g>
</g>
<!-- Node2&#45;&gt;Node3 -->
<g id="edge2" class="edge">
<title>Node2&#45;&gt;Node3</title>
<path fill="none" stroke="midnightblue" d="M238.81,-555.78C244.19,-618.4 276.68,-962.91 346,-1037 349.6,-1040.85 353.78,-1044.09 358.31,-1046.83"/>
<polygon fill="midnightblue" stroke="midnightblue" points="356.9,-1050.03 367.39,-1051.48 360.09,-1043.8 356.9,-1050.03"/>
</g>
<!-- Node4 -->
<g id="node4" class="node">
<title>Node4</title>
<g id="a_node4"><a xlink:href="class_preferences.html#a7afa980f5dd5b686e1c46fa971c2543f" target="_top" xlink:title="Check if the path is useable.">
<polygon fill="none" stroke="black" points="564,-1038.5 564,-1057.5 683,-1057.5 683,-1038.5 564,-1038.5"/>
<text text-anchor="middle" x="623.5" y="-1045.5" font-family="Helvetica,sans-Serif" font-size="10.00">Preferences::verifyPath</text>
</a>
</g>
</g>
<!-- Node2&#45;&gt;Node4 -->
<g id="edge35" class="edge">
<title>Node2&#45;&gt;Node4</title>
<path fill="none" stroke="midnightblue" d="M238.91,-555.86C244.7,-616.09 278.15,-933.83 346,-998 375.22,-1025.64 481.51,-1038.42 553.47,-1044.01"/>
<polygon fill="midnightblue" stroke="midnightblue" points="553.59,-1047.53 563.82,-1044.78 554.11,-1040.55 553.59,-1047.53"/>
</g>
<!-- Node5 -->
<g id="node5" class="node">
<title>Node5</title>
<g id="a_node5"><a xlink:href="class_preferences.html#a183e931ddd91f03ac2b9cf40f8d9f434" target="_top" xlink:title="Clear directory content of the photo directory.">
<polygon fill="none" stroke="black" points="555.5,-976 555.5,-1006 691.5,-1006 691.5,-976 555.5,-976"/>
<text text-anchor="start" x="563.5" y="-994" font-family="Helvetica,sans-Serif" font-size="10.00">Preferences::clearDirectory</text>
<text text-anchor="middle" x="623.5" y="-983" font-family="Helvetica,sans-Serif" font-size="10.00">Content</text>
</a>
</g>
</g>
<!-- Node2&#45;&gt;Node5 -->
<g id="edge4" class="edge">
<title>Node2&#45;&gt;Node5</title>
<path fill="none" stroke="midnightblue" d="M239.07,-555.86C245.5,-613.39 281.05,-904.93 346,-961 400.1,-1007.7 484.07,-1010.43 545.28,-1004.42"/>
<polygon fill="midnightblue" stroke="midnightblue" points="545.72,-1007.89 555.29,-1003.34 544.97,-1000.93 545.72,-1007.89"/>
</g>
<!-- Node6 -->
<g id="node6" class="node">
<title>Node6</title>
<g id="a_node6"><a xlink:href="class_preference_provider.html#a786d1bce48ec60ae6d1809ad01bc5cdb" target="_top" xlink:title="get instance (Meyers Singleton)">
<polygon fill="none" stroke="black" points="734,-932 734,-962 834,-962 834,-932 734,-932"/>
<text text-anchor="start" x="742" y="-950" font-family="Helvetica,sans-Serif" font-size="10.00">PreferenceProvider</text>
<text text-anchor="middle" x="784" y="-939" font-family="Helvetica,sans-Serif" font-size="10.00">::instance</text>
</a>
</g>
</g>
<!-- Node2&#45;&gt;Node6 -->
<g id="edge8" class="edge">
<title>Node2&#45;&gt;Node6</title>
<path fill="none" stroke="midnightblue" d="M239.24,-555.86C246.36,-610.83 283.98,-878.93 346,-928 402.84,-972.97 617.9,-961.44 723.61,-952.67"/>
<polygon fill="midnightblue" stroke="midnightblue" points="724.13,-956.13 733.8,-951.8 723.54,-949.16 724.13,-956.13"/>
</g>
<!-- Node7 -->
<g id="node7" class="node">
<title>Node7</title>
<g id="a_node7"><a xlink:href="class_preferences.html#a75a9b09142771785f070cfdec79b7240" target="_top" xlink:title="Open a color picker to choose background color for FotoBox.">
<polygon fill="none" stroke="black" points="367.5,-899.5 367.5,-918.5 491.5,-918.5 491.5,-899.5 367.5,-899.5"/>
<text text-anchor="middle" x="429.5" y="-906.5" font-family="Helvetica,sans-Serif" font-size="10.00">Preferences::colorDialog</text>
</a>
</g>
</g>
<!-- Node2&#45;&gt;Node7 -->
<g id="edge6" class="edge">
<title>Node2&#45;&gt;Node7</title>
<path fill="none" stroke="midnightblue" d="M237.85,-555.65C237.72,-600.81 243.39,-793.07 346,-889 349.58,-892.35 353.62,-895.16 357.94,-897.53"/>
<polygon fill="midnightblue" stroke="midnightblue" points="356.61,-900.76 367.15,-901.77 359.54,-894.41 356.61,-900.76"/>
</g>
<!-- Node8 -->
<g id="node8" class="node">
<title>Node8</title>
<g id="a_node8"><a xlink:href="class_preferences.html#a5bd81120037390a1e90e79f88741f871" target="_top" xlink:title="Show help dialog for gphoto2/raspistill command line options.">
<polygon fill="none" stroke="black" points="361.5,-850 361.5,-880 497.5,-880 497.5,-850 361.5,-850"/>
<text text-anchor="start" x="369.5" y="-868" font-family="Helvetica,sans-Serif" font-size="10.00">Preferences::commandLine</text>
<text text-anchor="middle" x="429.5" y="-857" font-family="Helvetica,sans-Serif" font-size="10.00">OptionsDialog</text>
</a>
</g>
</g>
<!-- Node2&#45;&gt;Node8 -->
<g id="edge7" class="edge">
<title>Node2&#45;&gt;Node8</title>
<path fill="none" stroke="midnightblue" d="M238.54,-555.52C241.39,-596.18 258.01,-756.96 346,-840 347.95,-841.84 350.04,-843.55 352.22,-845.13"/>
<polygon fill="midnightblue" stroke="midnightblue" points="350.77,-848.35 361.11,-850.63 354.45,-842.39 350.77,-848.35"/>
</g>
<!-- Node9 -->
<g id="node9" class="node">
<title>Node9</title>
<g id="a_node9"><a xlink:href="class_preference_provider.html#aceb3571b645bc00b9b5d1487430fe353" target="_top" xlink:title="set camera framework arguments">
<polygon fill="none" stroke="black" points="379.5,-801 379.5,-831 479.5,-831 479.5,-801 379.5,-801"/>
<text text-anchor="start" x="387.5" y="-819" font-family="Helvetica,sans-Serif" font-size="10.00">PreferenceProvider</text>
<text text-anchor="middle" x="429.5" y="-808" font-family="Helvetica,sans-Serif" font-size="10.00">::setArgumentLine</text>
</a>
</g>
</g>
<!-- Node2&#45;&gt;Node9 -->
<g id="edge9" class="edge">
<title>Node2&#45;&gt;Node9</title>
<path fill="none" stroke="midnightblue" d="M239.34,-555.64C244.94,-592.19 269.8,-723.5 346,-791 352.83,-797.05 361.08,-801.63 369.7,-805.11"/>
<polygon fill="midnightblue" stroke="midnightblue" points="368.54,-808.41 379.13,-808.46 370.88,-801.82 368.54,-808.41"/>
</g>
<!-- Node10 -->
<g id="node10" class="node">
<title>Node10</title>
<g id="a_node10"><a xlink:href="class_preference_provider.html#af4933c411a01c5e867d9e84be03ced76" target="_top" xlink:title="set background color of the FotoBox UI">
<polygon fill="none" stroke="black" points="374,-752 374,-782 485,-782 485,-752 374,-752"/>
<text text-anchor="start" x="382" y="-770" font-family="Helvetica,sans-Serif" font-size="10.00">PreferenceProvider</text>
<text text-anchor="middle" x="429.5" y="-759" font-family="Helvetica,sans-Serif" font-size="10.00">::setBackgroundColor</text>
</a>
</g>
</g>
<!-- Node2&#45;&gt;Node10 -->
<g id="edge10" class="edge">
<title>Node2&#45;&gt;Node10</title>
<path fill="none" stroke="midnightblue" d="M240.55,-555.87C249.33,-587.87 281.39,-689.68 346,-742 351.39,-746.37 357.54,-749.97 363.98,-752.95"/>
<polygon fill="midnightblue" stroke="midnightblue" points="363.01,-756.33 373.6,-756.87 365.66,-749.85 363.01,-756.33"/>
</g>
<!-- Node11 -->
<g id="node11" class="node">
<title>Node11</title>
<g id="a_node11"><a xlink:href="class_preference_provider.html#a5e11ae30693fee31194bfb4f41db49a1" target="_top" xlink:title="set the camera framework to be used">
<polygon fill="none" stroke="black" points="379.5,-703 379.5,-733 479.5,-733 479.5,-703 379.5,-703"/>
<text text-anchor="start" x="387.5" y="-721" font-family="Helvetica,sans-Serif" font-size="10.00">PreferenceProvider</text>
<text text-anchor="middle" x="429.5" y="-710" font-family="Helvetica,sans-Serif" font-size="10.00">::setCameraMode</text>
</a>
</g>
</g>
<!-- Node2&#45;&gt;Node11 -->
<g id="edge11" class="edge">
<title>Node2&#45;&gt;Node11</title>
<path fill="none" stroke="midnightblue" d="M242.3,-555.55C254.54,-581.69 292.23,-654.96 346,-693 353.19,-698.09 361.43,-702.16 369.87,-705.41"/>
<polygon fill="midnightblue" stroke="midnightblue" points="368.83,-708.75 379.43,-708.74 371.14,-702.14 368.83,-708.75"/>
</g>
<!-- Node12 -->
<g id="node12" class="node">
<title>Node12</title>
<g id="a_node12"><a xlink:href="class_preference_provider.html#a068cad0d41fad0bf6157bda81f6aa4ad" target="_top" xlink:title="set countdown until photo is taken">
<polygon fill="none" stroke="black" points="379.5,-654 379.5,-684 479.5,-684 479.5,-654 379.5,-654"/>
<text text-anchor="start" x="387.5" y="-672" font-family="Helvetica,sans-Serif" font-size="10.00">PreferenceProvider</text>
<text text-anchor="middle" x="429.5" y="-661" font-family="Helvetica,sans-Serif" font-size="10.00">::setCountdown</text>
</a>
</g>
</g>
<!-- Node2&#45;&gt;Node12 -->
<g id="edge12" class="edge">
<title>Node2&#45;&gt;Node12</title>
<path fill="none" stroke="midnightblue" d="M245.9,-555.59C262.45,-575.09 302.83,-619.53 346,-644 353.39,-648.19 361.57,-651.75 369.81,-654.76"/>
<polygon fill="midnightblue" stroke="midnightblue" points="368.88,-658.14 379.47,-658.03 371.13,-651.51 368.88,-658.14"/>
</g>
<!-- Node13 -->
<g id="node13" class="node">
<title>Node13</title>
<g id="a_node13"><a xlink:href="class_preference_provider.html#ac9335b967576696b421ed3132f4ddea0" target="_top" xlink:title="set font color of the countdown">
<polygon fill="none" stroke="black" points="375,-605 375,-635 484,-635 484,-605 375,-605"/>
<text text-anchor="start" x="383" y="-623" font-family="Helvetica,sans-Serif" font-size="10.00">PreferenceProvider</text>
<text text-anchor="middle" x="429.5" y="-612" font-family="Helvetica,sans-Serif" font-size="10.00">::setCountdownColor</text>
</a>
</g>
</g>
<!-- Node2&#45;&gt;Node13 -->
<g id="edge13" class="edge">
<title>Node2&#45;&gt;Node13</title>
<path fill="none" stroke="midnightblue" d="M257.19,-555.64C278.53,-566.13 314.21,-583.03 346,-595 352.21,-597.34 358.75,-599.62 365.31,-601.79"/>
<polygon fill="midnightblue" stroke="midnightblue" points="364.31,-605.14 374.9,-604.88 366.46,-598.48 364.31,-605.14"/>
</g>
<!-- Node14 -->
<g id="node14" class="node">
<title>Node14</title>
<g id="a_node14"><a xlink:href="class_preference_provider.html#a9b2472b6dce4698760805ba8ccc19bc2" target="_top" xlink:title="set grayscale bool (monochrome photography)">
<polygon fill="none" stroke="black" points="379.5,-556 379.5,-586 479.5,-586 479.5,-556 379.5,-556"/>
<text text-anchor="start" x="387.5" y="-574" font-family="Helvetica,sans-Serif" font-size="10.00">PreferenceProvider</text>
<text text-anchor="middle" x="429.5" y="-563" font-family="Helvetica,sans-Serif" font-size="10.00">::setGrayscale</text>
</a>
</g>
</g>
<!-- Node2&#45;&gt;Node14 -->
<g id="edge14" class="edge">
<title>Node2&#45;&gt;Node14</title>
<path fill="none" stroke="midnightblue" d="M296.71,-553.7C319.76,-556.73 346.17,-560.2 369.26,-563.23"/>
<polygon fill="midnightblue" stroke="midnightblue" points="368.91,-566.71 379.28,-564.54 369.82,-559.77 368.91,-566.71"/>
</g>
<!-- Node15 -->
<g id="node15" class="node">
<title>Node15</title>
<g id="a_node15"><a xlink:href="class_preference_provider.html#a9b13df9d2fa39a4d98b369b7a51757b1" target="_top" xlink:title="set wiringPi GPIO input pin">
<polygon fill="none" stroke="black" points="379.5,-507 379.5,-537 479.5,-537 479.5,-507 379.5,-507"/>
<text text-anchor="start" x="387.5" y="-525" font-family="Helvetica,sans-Serif" font-size="10.00">PreferenceProvider</text>
<text text-anchor="middle" x="429.5" y="-514" font-family="Helvetica,sans-Serif" font-size="10.00">::setInputPin</text>
</a>
</g>
</g>
<!-- Node2&#45;&gt;Node15 -->
<g id="edge15" class="edge">
<title>Node2&#45;&gt;Node15</title>
<path fill="none" stroke="midnightblue" d="M296.71,-538.6C319.76,-535.7 346.17,-532.37 369.26,-529.46"/>
<polygon fill="midnightblue" stroke="midnightblue" points="369.79,-532.92 379.28,-528.2 368.92,-525.98 369.79,-532.92"/>
</g>
<!-- Node16 -->
<g id="node16" class="node">
<title>Node16</title>
<g id="a_node16"><a xlink:href="class_preference_provider.html#afec2a12f509e9a0d260ae7a82eababaa" target="_top" xlink:title="set wiringPi GPIO output pin">
<polygon fill="none" stroke="black" points="379.5,-458 379.5,-488 479.5,-488 479.5,-458 379.5,-458"/>
<text text-anchor="start" x="387.5" y="-476" font-family="Helvetica,sans-Serif" font-size="10.00">PreferenceProvider</text>
<text text-anchor="middle" x="429.5" y="-465" font-family="Helvetica,sans-Serif" font-size="10.00">::setOutputPin</text>
</a>
</g>
</g>
<!-- Node2&#45;&gt;Node16 -->
<g id="edge16" class="edge">
<title>Node2&#45;&gt;Node16</title>
<path fill="none" stroke="midnightblue" d="M256.77,-536.49C278.05,-525.95 313.95,-508.86 346,-497 353.56,-494.2 361.6,-491.52 369.59,-489.02"/>
<polygon fill="midnightblue" stroke="midnightblue" points="370.72,-492.33 379.26,-486.07 368.68,-485.64 370.72,-492.33"/>
</g>
<!-- Node17 -->
<g id="node17" class="node">
<title>Node17</title>
<g id="a_node17"><a xlink:href="class_preference_provider.html#a95b912f4fa5abb8eae8fc8a539a71150" target="_top" xlink:title="set photo output directory">
<polygon fill="none" stroke="black" points="379.5,-409 379.5,-439 479.5,-439 479.5,-409 379.5,-409"/>
<text text-anchor="start" x="387.5" y="-427" font-family="Helvetica,sans-Serif" font-size="10.00">PreferenceProvider</text>
<text text-anchor="middle" x="429.5" y="-416" font-family="Helvetica,sans-Serif" font-size="10.00">::setPhotoFolder</text>
</a>
</g>
</g>
<!-- Node2&#45;&gt;Node17 -->
<g id="edge17" class="edge">
<title>Node2&#45;&gt;Node17</title>
<path fill="none" stroke="midnightblue" d="M245.88,-536.37C262.39,-516.8 302.69,-472.23 346,-448 353.39,-443.87 361.56,-440.38 369.81,-437.47"/>
<polygon fill="midnightblue" stroke="midnightblue" points="371.06,-440.74 379.47,-434.3 368.88,-434.09 371.06,-440.74"/>
</g>
<!-- Node18 -->
<g id="node18" class="node">
<title>Node18</title>
<g id="a_node18"><a xlink:href="class_preference_provider.html#ae7acd2e7ff7fb5dba432423e8e9ff7db" target="_top" xlink:title="set photo name template">
<polygon fill="none" stroke="black" points="379.5,-360 379.5,-390 479.5,-390 479.5,-360 379.5,-360"/>
<text text-anchor="start" x="387.5" y="-378" font-family="Helvetica,sans-Serif" font-size="10.00">PreferenceProvider</text>
<text text-anchor="middle" x="429.5" y="-367" font-family="Helvetica,sans-Serif" font-size="10.00">::setPhotoName</text>
</a>
</g>
</g>
<!-- Node2&#45;&gt;Node18 -->
<g id="edge18" class="edge">
<title>Node2&#45;&gt;Node18</title>
<path fill="none" stroke="midnightblue" d="M242.27,-536.41C254.46,-510.2 292.01,-436.74 346,-399 353.19,-393.97 361.44,-389.98 369.88,-386.83"/>
<polygon fill="midnightblue" stroke="midnightblue" points="371.08,-390.12 379.43,-383.61 368.84,-383.48 371.08,-390.12"/>
</g>
<!-- Node19 -->
<g id="node19" class="node">
<title>Node19</title>
<g id="a_node19"><a xlink:href="class_preference_provider.html#ab5372fedb84b7567cf7a1ffa1e3b4126" target="_top" xlink:title="set print on or off">
<polygon fill="none" stroke="black" points="379.5,-311 379.5,-341 479.5,-341 479.5,-311 379.5,-311"/>
<text text-anchor="start" x="387.5" y="-329" font-family="Helvetica,sans-Serif" font-size="10.00">PreferenceProvider</text>
<text text-anchor="middle" x="429.5" y="-318" font-family="Helvetica,sans-Serif" font-size="10.00">::setPrint</text>
</a>
</g>
</g>
<!-- Node2&#45;&gt;Node19 -->
<g id="edge19" class="edge">
<title>Node2&#45;&gt;Node19</title>
<path fill="none" stroke="midnightblue" d="M240.53,-536.1C249.23,-504.01 281.1,-401.96 346,-350 352.94,-344.45 361.11,-340.18 369.58,-336.9"/>
<polygon fill="midnightblue" stroke="midnightblue" points="370.88,-340.15 379.2,-333.6 368.61,-333.53 370.88,-340.15"/>
</g>
<!-- Node20 -->
<g id="node20" class="node">
<title>Node20</title>
<g id="a_node20"><a xlink:href="class_preference_provider.html#a97dd2b33b6baeaa00eb87dd30ecd05e5" target="_top" xlink:title="set printer name">
<polygon fill="none" stroke="black" points="379.5,-262 379.5,-292 479.5,-292 479.5,-262 379.5,-262"/>
<text text-anchor="start" x="387.5" y="-280" font-family="Helvetica,sans-Serif" font-size="10.00">PreferenceProvider</text>
<text text-anchor="middle" x="429.5" y="-269" font-family="Helvetica,sans-Serif" font-size="10.00">::setPrinterName</text>
</a>
</g>
</g>
<!-- Node2&#45;&gt;Node20 -->
<g id="edge20" class="edge">
<title>Node2&#45;&gt;Node20</title>
<path fill="none" stroke="midnightblue" d="M239.32,-536.33C244.83,-499.69 269.42,-368.08 346,-301 352.77,-295.07 360.92,-290.61 369.44,-287.24"/>
<polygon fill="midnightblue" stroke="midnightblue" points="370.84,-290.46 379.15,-283.89 368.56,-283.84 370.84,-290.46"/>
</g>
<!-- Node21 -->
<g id="node21" class="node">
<title>Node21</title>
<g id="a_node21"><a xlink:href="class_preference_provider.html#aae1e1472caa7b4d6f3d8e17fe37dc20b" target="_top" xlink:title="set how often the pin should be queried">
<polygon fill="none" stroke="black" points="379.5,-213 379.5,-243 479.5,-243 479.5,-213 379.5,-213"/>
<text text-anchor="start" x="387.5" y="-231" font-family="Helvetica,sans-Serif" font-size="10.00">PreferenceProvider</text>
<text text-anchor="middle" x="429.5" y="-220" font-family="Helvetica,sans-Serif" font-size="10.00">::setQueryInterval</text>
</a>
</g>
</g>
<!-- Node2&#45;&gt;Node21 -->
<g id="edge21" class="edge">
<title>Node2&#45;&gt;Node21</title>
<path fill="none" stroke="midnightblue" d="M238.52,-536.45C241.27,-495.69 257.55,-334.55 346,-252 352.73,-245.72 361,-241.08 369.69,-237.64"/>
<polygon fill="midnightblue" stroke="midnightblue" points="370.9,-240.92 379.22,-234.37 368.63,-234.3 370.9,-240.92"/>
</g>
<!-- Node22 -->
<g id="node22" class="node">
<title>Node22</title>
<g id="a_node22"><a xlink:href="class_preference_provider.html#a3c4bfdd62ac6562182886dda967530c2" target="_top" xlink:title="set whether buttons are displayed on the UI">
<polygon fill="none" stroke="black" points="379.5,-164 379.5,-194 479.5,-194 479.5,-164 379.5,-164"/>
<text text-anchor="start" x="387.5" y="-182" font-family="Helvetica,sans-Serif" font-size="10.00">PreferenceProvider</text>
<text text-anchor="middle" x="429.5" y="-171" font-family="Helvetica,sans-Serif" font-size="10.00">::setShowButtons</text>
</a>
</g>
</g>
<!-- Node2&#45;&gt;Node22 -->
<g id="edge22" class="edge">
<title>Node2&#45;&gt;Node22</title>
<path fill="none" stroke="midnightblue" d="M239.77,-536.37C249.2,-485.96 295.13,-252.77 346,-203 352.66,-196.49 360.97,-191.73 369.74,-188.25"/>
<polygon fill="midnightblue" stroke="midnightblue" points="371.05,-191.5 379.38,-184.95 368.78,-184.87 371.05,-191.5"/>
</g>
<!-- Node23 -->
<g id="node23" class="node">
<title>Node23</title>
<g id="a_node23"><a xlink:href="class_preference_provider.html#a8593050ca82c56a9081c445dfc0f2366" target="_top" xlink:title="set timeout value for the camera framework">
<polygon fill="none" stroke="black" points="379.5,-115 379.5,-145 479.5,-145 479.5,-115 379.5,-115"/>
<text text-anchor="start" x="387.5" y="-133" font-family="Helvetica,sans-Serif" font-size="10.00">PreferenceProvider</text>
<text text-anchor="middle" x="429.5" y="-122" font-family="Helvetica,sans-Serif" font-size="10.00">::setTimeoutValue</text>
</a>
</g>
</g>
<!-- Node2&#45;&gt;Node23 -->
<g id="edge23" class="edge">
<title>Node2&#45;&gt;Node23</title>
<path fill="none" stroke="midnightblue" d="M240.38,-536.32C254.94,-477.34 331.66,-168.55 346,-154 352.54,-147.37 360.79,-142.55 369.54,-139.04"/>
<polygon fill="midnightblue" stroke="midnightblue" points="370.84,-142.29 379.16,-135.73 368.57,-135.67 370.84,-142.29"/>
</g>
<!-- Node24 -->
<g id="node24" class="node">
<title>Node24</title>
<g id="a_node24"><a xlink:href="class_preferences.html#a1d8255b77095a5ae6de5e2aa89168252" target="_top" xlink:title="Show the given color in QLineEdit.">
<polygon fill="none" stroke="black" points="368.5,-76.5 368.5,-95.5 490.5,-95.5 490.5,-76.5 368.5,-76.5"/>
<text text-anchor="middle" x="429.5" y="-83.5" font-family="Helvetica,sans-Serif" font-size="10.00">Preferences::showColor</text>
</a>
</g>
</g>
<!-- Node2&#45;&gt;Node24 -->
<g id="edge24" class="edge">
<title>Node2&#45;&gt;Node24</title>
<path fill="none" stroke="midnightblue" d="M240.56,-536.17C250.03,-499.77 283.87,-369.14 310,-261 326.72,-191.84 295.67,-155.3 346,-105 349.8,-101.2 354.2,-98.1 358.95,-95.57"/>
<polygon fill="midnightblue" stroke="midnightblue" points="360.7,-98.63 368.44,-91.39 357.88,-92.22 360.7,-98.63"/>
</g>
<!-- Node2&#45;&gt;Node25 -->
<g id="edge25" class="edge">
<title>Node2&#45;&gt;Node25</title>
<path fill="none" stroke="midnightblue" d="M240.82,-536.23C251.2,-500.04 287.82,-370.02 310,-261 320.4,-209.87 310.47,-67.2 346,-29 348.66,-26.14 351.65,-23.67 354.89,-21.54"/>
<polygon fill="midnightblue" stroke="midnightblue" points="356.8,-24.49 363.93,-16.66 353.47,-18.33 356.8,-24.49"/>
</g>
<!-- Node28 -->
<g id="node28" class="node">
<title>Node28</title>
<g id="a_node28"><a xlink:href="class_preferences.html#a1dcf663eabce314027a86d17d1d4867b" target="_top" xlink:title="Stop countdown, stop mouse tracking and set normal window title name.">
<polygon fill="none" stroke="black" points="346,-38.5 346,-57.5 513,-57.5 513,-38.5 346,-38.5"/>
<text text-anchor="middle" x="429.5" y="-45.5" font-family="Helvetica,sans-Serif" font-size="10.00">Preferences::stopCountdownMode</text>
</a>
</g>
</g>
<!-- Node2&#45;&gt;Node28 -->
<g id="edge29" class="edge">
<title>Node2&#45;&gt;Node28</title>
<path fill="none" stroke="midnightblue" d="M240.72,-536.21C250.73,-499.93 286.21,-369.68 310,-261 328.75,-175.33 285.33,-130.32 346,-67 347.26,-65.69 348.59,-64.46 349.98,-63.3"/>
<polygon fill="midnightblue" stroke="midnightblue" points="352.22,-66.01 358.55,-57.51 348.3,-60.21 352.22,-66.01"/>
</g>
<!-- Node30 -->
<g id="node30" class="node">
<title>Node30</title>
<g id="a_node30"><a xlink:href="class_preferences.html#a7b8d051df918f07c7f835088f68bd7b3" target="_top" xlink:title="Check camera application availability and provide help if needed.">
<polygon fill="none" stroke="black" points="356,-1089.5 356,-1108.5 503,-1108.5 503,-1089.5 356,-1089.5"/>
<text text-anchor="middle" x="429.5" y="-1096.5" font-family="Helvetica,sans-Serif" font-size="10.00">Preferences::verifyApplication</text>
</a>
</g>
</g>
<!-- Node2&#45;&gt;Node30 -->
<g id="edge32" class="edge">
<title>Node2&#45;&gt;Node30</title>
<path fill="none" stroke="midnightblue" d="M238.57,-555.82C242.61,-621.83 268.97,-1000.88 346,-1080 347.27,-1081.3 348.61,-1082.52 350.01,-1083.67"/>
<polygon fill="midnightblue" stroke="midnightblue" points="348.35,-1086.77 358.61,-1089.42 352.24,-1080.95 348.35,-1086.77"/>
</g>
<!-- Node3&#45;&gt;Node4 -->
<g id="edge3" class="edge">
<title>Node3&#45;&gt;Node4</title>
<path fill="none" stroke="midnightblue" d="M502.54,-1056.12C519.28,-1054.99 537.06,-1053.78 553.66,-1052.66"/>
<polygon fill="midnightblue" stroke="midnightblue" points="554.09,-1056.14 563.83,-1051.97 553.61,-1049.16 554.09,-1056.14"/>
</g>
<!-- Node5&#45;&gt;Node6 -->
<g id="edge5" class="edge">
<title>Node5&#45;&gt;Node6</title>
<path fill="none" stroke="midnightblue" d="M678.6,-975.98C693.32,-971.9 709.32,-967.45 724.28,-963.3"/>
<polygon fill="midnightblue" stroke="midnightblue" points="725.23,-966.67 733.93,-960.62 723.36,-959.92 725.23,-966.67"/>
</g>
<!-- Node26 -->
<g id="node26" class="node">
<title>Node26</title>
<g id="a_node26"><a xlink:href="class_preferences.html#a70c6489f66db193c8645fed5d4b36ac6" target="_top" xlink:title="Save the preferences to QSettings.">
<polygon fill="none" stroke="black" points="549,-0.5 549,-19.5 698,-19.5 698,-0.5 549,-0.5"/>
<text text-anchor="middle" x="623.5" y="-7.5" font-family="Helvetica,sans-Serif" font-size="10.00">Preferences::savePreferences</text>
</a>
</g>
</g>
<!-- Node25&#45;&gt;Node26 -->
<g id="edge26" class="edge">
<title>Node25&#45;&gt;Node26</title>
<path fill="none" stroke="midnightblue" d="M495.23,-10C509.21,-10 524.18,-10 538.76,-10"/>
<polygon fill="midnightblue" stroke="midnightblue" points="538.78,-13.5 548.78,-10 538.78,-6.5 538.78,-13.5"/>
</g>
<!-- Node27 -->
<g id="node27" class="node">
<title>Node27</title>
<g id="a_node27"><a xlink:href="class_countdown.html#ad7212649cb592a77bbf5ccdf82a5582c" target="_top" xlink:title="Stop countdown and check.">
<polygon fill="none" stroke="black" points="578,-38.5 578,-57.5 669,-57.5 669,-38.5 578,-38.5"/>
<text text-anchor="middle" x="623.5" y="-45.5" font-family="Helvetica,sans-Serif" font-size="10.00">Countdown::stop</text>
</a>
</g>
</g>
<!-- Node25&#45;&gt;Node27 -->
<g id="edge28" class="edge">
<title>Node25&#45;&gt;Node27</title>
<path fill="none" stroke="midnightblue" d="M478.95,-19.59C505.96,-24.93 539.69,-31.61 567.67,-37.15"/>
<polygon fill="midnightblue" stroke="midnightblue" points="567.2,-40.62 577.69,-39.13 568.56,-33.76 567.2,-40.62"/>
</g>
<!-- Node26&#45;&gt;Node6 -->
<g id="edge27" class="edge">
<title>Node26&#45;&gt;Node6</title>
<path fill="none" stroke="midnightblue" d="M686.56,-19.57C690.85,-22.09 694.75,-25.19 698,-29 757.46,-98.87 778.6,-780.02 782.36,-921.39"/>
<polygon fill="midnightblue" stroke="midnightblue" points="778.87,-921.76 782.63,-931.66 785.87,-921.58 778.87,-921.76"/>
</g>
<!-- Node28&#45;&gt;Node27 -->
<g id="edge31" class="edge">
<title>Node28&#45;&gt;Node27</title>
<path fill="none" stroke="midnightblue" d="M513.04,-48C531.47,-48 550.58,-48 567.57,-48"/>
<polygon fill="midnightblue" stroke="midnightblue" points="567.86,-51.5 577.86,-48 567.86,-44.5 567.86,-51.5"/>
</g>
<!-- Node29 -->
<g id="node29" class="node">
<title>Node29</title>
<g id="a_node29"><a xlink:href="class_countdown.html#af682a75d0c6f682fd699d0cf42ba9088" target="_top" xlink:title="Show countdown status.">
<polygon fill="none" stroke="black" points="570,-76.5 570,-95.5 677,-95.5 677,-76.5 570,-76.5"/>
<text text-anchor="middle" x="623.5" y="-83.5" font-family="Helvetica,sans-Serif" font-size="10.00">Countdown::isActive</text>
</a>
</g>
</g>
<!-- Node28&#45;&gt;Node29 -->
<g id="edge30" class="edge">
<title>Node28&#45;&gt;Node29</title>
<path fill="none" stroke="midnightblue" d="M478.95,-57.59C504.97,-62.74 537.23,-69.12 564.57,-74.53"/>
<polygon fill="midnightblue" stroke="midnightblue" points="563.91,-77.97 574.4,-76.48 565.27,-71.1 563.91,-77.97"/>
</g>
<!-- Node31 -->
<g id="node31" class="node">
<title>Node31</title>
<g id="a_node31"><a xlink:href="class_preferences.html#a11decdf7dac85dbe0ca3b428a671bcd2" target="_top" xlink:title="Check if application is installed and available.">
<polygon fill="none" stroke="black" points="562.5,-1121 562.5,-1151 684.5,-1151 684.5,-1121 562.5,-1121"/>
<text text-anchor="start" x="570.5" y="-1139" font-family="Helvetica,sans-Serif" font-size="10.00">Preferences::application</text>
<text text-anchor="middle" x="623.5" y="-1128" font-family="Helvetica,sans-Serif" font-size="10.00">Available</text>
</a>
</g>
</g>
<!-- Node30&#45;&gt;Node31 -->
<g id="edge33" class="edge">
<title>Node30&#45;&gt;Node31</title>
<path fill="none" stroke="midnightblue" d="M479.94,-1108.53C501.92,-1112.76 528.18,-1117.82 552.15,-1122.44"/>
<polygon fill="midnightblue" stroke="midnightblue" points="551.77,-1125.93 562.26,-1124.39 553.1,-1119.06 551.77,-1125.93"/>
</g>
<!-- Node32 -->
<g id="node32" class="node">
<title>Node32</title>
<g id="a_node32"><a xlink:href="class_preferences.html#a4eff8e6a2f21857c6ed4c43ad076cc53" target="_top" xlink:title="Read gphoto2 / libgphoto2 version and camera model.">
<polygon fill="none" stroke="black" points="563,-1082.5 563,-1101.5 684,-1101.5 684,-1082.5 563,-1082.5"/>
<text text-anchor="middle" x="623.5" y="-1089.5" font-family="Helvetica,sans-Serif" font-size="10.00">Preferences::gphotoInfo</text>
</a>
</g>
</g>
<!-- Node30&#45;&gt;Node32 -->
<g id="edge34" class="edge">
<title>Node30&#45;&gt;Node32</title>
<path fill="none" stroke="midnightblue" d="M503.09,-1096.35C519.29,-1095.76 536.44,-1095.14 552.53,-1094.55"/>
<polygon fill="midnightblue" stroke="midnightblue" points="553.07,-1098.03 562.94,-1094.17 552.82,-1091.04 553.07,-1098.03"/>
</g>
</g>
</svg>
