<?xml version="1.0" encoding="UTF-8" standalone="no"?>
<!DOCTYPE svg PUBLIC "-//W3C//DTD SVG 1.1//EN"
 "http://www.w3.org/Graphics/SVG/1.1/DTD/svg11.dtd">
<!-- Generated by graphviz version 2.46.1 (20210213.1702)
 -->
<!-- Title: FotoBox::~FotoBox Pages: 1 -->
<svg width="246pt" height="78pt"
 viewBox="0.00 0.00 246.00 77.50" xmlns="http://www.w3.org/2000/svg" xmlns:xlink="http://www.w3.org/1999/xlink">
<g id="graph0" class="graph" transform="scale(1 1) rotate(0) translate(4 73.5)">
<title>FotoBox::~FotoBox</title>
<!-- Node1 -->
<g id="node1" class="node">
<title>Node1</title>
<g id="a_node1"><a xlink:title="FotoBox destructor.">
<polygon fill="#bfbfbf" stroke="black" points="0,-22.5 0,-41.5 102,-41.5 102,-22.5 0,-22.5"/>
<text text-anchor="middle" x="51" y="-29.5" font-family="Helvetica,sans-Serif" font-size="10.00">FotoBox::~FotoBox</text>
</a>
</g>
</g>
<!-- Node2 -->
<g id="node2" class="node">
<title>Node2</title>
<g id="a_node2"><a xlink:href="class_preference_provider.html#a786d1bce48ec60ae6d1809ad01bc5cdb" target="_top" xlink:title="get instance (Meyers Singleton)">
<polygon fill="none" stroke="black" points="138,-39 138,-69 238,-69 238,-39 138,-39"/>
<text text-anchor="start" x="146" y="-57" font-family="Helvetica,sans-Serif" font-size="10.00">PreferenceProvider</text>
<text text-anchor="middle" x="188" y="-46" font-family="Helvetica,sans-Serif" font-size="10.00">::instance</text>
</a>
</g>
</g>
<!-- Node1&#45;&gt;Node2 -->
<g id="edge1" class="edge">
<title>Node1&#45;&gt;Node2</title>
<path fill="none" stroke="midnightblue" d="M102.27,-40.19C110.48,-41.53 119.05,-42.93 127.45,-44.3"/>
<polygon fill="midnightblue" stroke="midnightblue" points="127.15,-47.79 137.59,-45.95 128.28,-40.88 127.15,-47.79"/>
</g>
<!-- Node3 -->
<g id="node3" class="node">
<title>Node3</title>
<g id="a_node3"><a xlink:href="class_buzzer.html#acbb32df95ae1af7d4ba9bb01dc9e3b20" target="_top" xlink:title="Stop executing.">
<polygon fill="none" stroke="black" points="152,-0.5 152,-19.5 224,-19.5 224,-0.5 152,-0.5"/>
<text text-anchor="middle" x="188" y="-7.5" font-family="Helvetica,sans-Serif" font-size="10.00">Buzzer::stop</text>
</a>
</g>
</g>
<!-- Node1&#45;&gt;Node3 -->
<g id="edge2" class="edge">
<title>Node1&#45;&gt;Node3</title>
<path fill="none" stroke="midnightblue" d="M102.27,-23.81C115.28,-21.69 129.21,-19.42 141.94,-17.34"/>
<polygon fill="midnightblue" stroke="midnightblue" points="142.54,-20.79 151.85,-15.73 141.42,-13.88 142.54,-20.79"/>
</g>
</g>
</svg>
