<?xml version="1.0" encoding="UTF-8" standalone="no"?>
<!DOCTYPE svg PUBLIC "-//W3C//DTD SVG 1.1//EN"
 "http://www.w3.org/Graphics/SVG/1.1/DTD/svg11.dtd">
<!-- Generated by graphviz version 2.46.1 (20210213.1702)
 -->
<!-- Title: FotoBox::keyPressEvent Pages: 1 -->
<svg width="467pt" height="39pt"
 viewBox="0.00 0.00 467.00 39.00" xmlns="http://www.w3.org/2000/svg" xmlns:xlink="http://www.w3.org/1999/xlink">
<g id="graph0" class="graph" transform="scale(1 1) rotate(0) translate(4 35)">
<title>FotoBox::keyPressEvent</title>
<!-- Node1 -->
<g id="node1" class="node">
<title>Node1</title>
<g id="a_node1"><a xlink:title="filter key press events">
<polygon fill="#bfbfbf" stroke="black" points="0,-6 0,-25 126,-25 126,-6 0,-6"/>
<text text-anchor="middle" x="63" y="-13" font-family="Helvetica,sans-Serif" font-size="10.00">FotoBox::keyPressEvent</text>
</a>
</g>
</g>
<!-- Node2 -->
<g id="node2" class="node">
<title>Node2</title>
<g id="a_node2"><a xlink:href="class_foto_box.html#a425dffd36aa5b68a110a42c4c3a20942" target="_top" xlink:title="show preference dialog and close dialog">
<polygon fill="none" stroke="black" points="162,-6 162,-25 295,-25 295,-6 162,-6"/>
<text text-anchor="middle" x="228.5" y="-13" font-family="Helvetica,sans-Serif" font-size="10.00">FotoBox::preferenceDialog</text>
</a>
</g>
</g>
<!-- Node1&#45;&gt;Node2 -->
<g id="edge1" class="edge">
<title>Node1&#45;&gt;Node2</title>
<path fill="none" stroke="midnightblue" d="M126.28,-15.5C134.56,-15.5 143.11,-15.5 151.59,-15.5"/>
<polygon fill="midnightblue" stroke="midnightblue" points="151.86,-19 161.86,-15.5 151.86,-12 151.86,-19"/>
</g>
<!-- Node3 -->
<g id="node3" class="node">
<title>Node3</title>
<g id="a_node3"><a xlink:href="class_foto_box.html#a222aa7e9a43bd9cb8dca55b806649b82" target="_top" xlink:title="Is used as a workaround for macOS to close a fullscreen window.">
<polygon fill="none" stroke="black" points="331,-0.5 331,-30.5 459,-30.5 459,-0.5 331,-0.5"/>
<text text-anchor="start" x="339" y="-18.5" font-family="Helvetica,sans-Serif" font-size="10.00">FotoBox::closeFullscreen</text>
<text text-anchor="middle" x="395" y="-7.5" font-family="Helvetica,sans-Serif" font-size="10.00">WindowOnMac</text>
</a>
</g>
</g>
<!-- Node2&#45;&gt;Node3 -->
<g id="edge2" class="edge">
<title>Node2&#45;&gt;Node3</title>
<path fill="none" stroke="midnightblue" d="M295.46,-15.5C303.79,-15.5 312.34,-15.5 320.77,-15.5"/>
<polygon fill="midnightblue" stroke="midnightblue" points="320.96,-19 330.96,-15.5 320.96,-12 320.96,-19"/>
</g>
</g>
</svg>
