<?xml version="1.0" encoding="UTF-8" standalone="no"?>
<!DOCTYPE svg PUBLIC "-//W3C//DTD SVG 1.1//EN"
 "http://www.w3.org/Graphics/SVG/1.1/DTD/svg11.dtd">
<!-- Generated by graphviz version 2.46.1 (20210213.1702)
 -->
<!-- Title: FotoBox::countdown Pages: 1 -->
<!--zoomable 186 -->
<svg id="main" version="1.1" xmlns="http://www.w3.org/2000/svg" xmlns:xlink="http://www.w3.org/1999/xlink" xml:space="preserve" onload="init(evt)">
<style type="text/css"><![CDATA[
.edge:hover path { stroke: red; }
.edge:hover polygon { stroke: red; fill: red; }
]]></style>
<script type="text/javascript"><![CDATA[
var edges = document.getElementsByTagName('g');
if (edges && edges.length) {
  for (var i=0;i<edges.length;i++) {
    if (edges[i].id.substr(0,4)=='edge') {
      edges[i].setAttribute('class','edge');
    }
  }
}
]]></script>
        <defs>
                <circle id="rim" cx="0" cy="0" r="7"/>
                <circle id="rim2" cx="0" cy="0" r="3.5"/>
                <g id="zoomPlus">
                        <use xlink:href="#rim" fill="#404040">
                                <set attributeName="fill" to="#808080" begin="zoomplus.mouseover" end="zoomplus.mouseout"/>
                        </use>
                        <path d="M-4,0h8M0,-4v8" fill="none" stroke="white" stroke-width="1.5" pointer-events="none"/>
                </g>
                <g id="zoomMin">
                        <use xlink:href="#rim" fill="#404040">
                                <set attributeName="fill" to="#808080" begin="zoomminus.mouseover" end="zoomminus.mouseout"/>
                        </use>
                        <path d="M-4,0h8" fill="none" stroke="white" stroke-width="1.5" pointer-events="none"/>
                </g>
                <g id="dirArrow">
                        <path fill="none" stroke="white" stroke-width="1.5" d="M0,-3.0v7 M-2.5,-0.5L0,-3.0L2.5,-0.5"/>
                </g>
               <g id="resetDef">
                       <use xlink:href="#rim2" fill="#404040">
                               <set attributeName="fill" to="#808080" begin="reset.mouseover" end="reset.mouseout"/>
                       </use>
               </g>
        </defs>

<script type="text/javascript">
var viewWidth = 564;
var viewHeight = 186;
var sectionId = 'dynsection-10';
</script>
<script xlink:href="svgpan.js"/>
<svg id="graph" class="graph">
<g id="viewport">
<title>FotoBox::countdown</title>
<!-- Node1 -->
<g id="node1" class="node">
<title>Node1</title>
<g id="a_node1"><a xlink:title="With or without countdown.">
<polygon fill="#bfbfbf" stroke="black" points="0,-76.5 0,-95.5 107,-95.5 107,-76.5 0,-76.5"/>
<text text-anchor="middle" x="53.5" y="-83.5" font-family="Helvetica,sans-Serif" font-size="10.00">FotoBox::countdown</text>
</a>
</g>
</g>
<!-- Node2 -->
<g id="node2" class="node">
<title>Node2</title>
<g id="a_node2"><a xlink:href="class_preference_provider.html#a786d1bce48ec60ae6d1809ad01bc5cdb" target="_top" xlink:title="get instance (Meyers Singleton)">
<polygon fill="none" stroke="black" points="456,-147 456,-177 556,-177 556,-147 456,-147"/>
<text text-anchor="start" x="464" y="-165" font-family="Helvetica,sans-Serif" font-size="10.00">PreferenceProvider</text>
<text text-anchor="middle" x="506" y="-154" font-family="Helvetica,sans-Serif" font-size="10.00">::instance</text>
</a>
</g>
</g>
<!-- Node1&#45;&gt;Node2 -->
<g id="edge1" class="edge">
<title>Node1&#45;&gt;Node2</title>
<path fill="none" stroke="midnightblue" d="M76.58,-95.55C119.8,-113.65 219.07,-152.4 307,-166 356.63,-173.67 369.79,-167.18 420,-166 428.19,-165.81 436.82,-165.51 445.32,-165.16"/>
<polygon fill="midnightblue" stroke="midnightblue" points="445.73,-168.65 455.57,-164.72 445.43,-161.66 445.73,-168.65"/>
</g>
<!-- Node3 -->
<g id="node3" class="node">
<title>Node3</title>
<g id="a_node3"><a xlink:href="class_foto_box.html#a78353b51782aab91a0b4eafac67be1c4" target="_top" xlink:title="trigger camera to shot a photo and try to show it">
<polygon fill="none" stroke="black" points="165.5,-76.5 165.5,-95.5 248.5,-95.5 248.5,-76.5 165.5,-76.5"/>
<text text-anchor="middle" x="207" y="-83.5" font-family="Helvetica,sans-Serif" font-size="10.00">FotoBox::photo</text>
</a>
</g>
</g>
<!-- Node1&#45;&gt;Node3 -->
<g id="edge2" class="edge">
<title>Node1&#45;&gt;Node3</title>
<path fill="none" stroke="midnightblue" d="M107.06,-79.54C122.62,-79.14 139.61,-79.15 155.06,-79.58"/>
<polygon fill="midnightblue" stroke="midnightblue" points="155.36,-83.1 165.48,-79.95 155.6,-76.1 155.36,-83.1"/>
</g>
<!-- Node8 -->
<g id="node8" class="node">
<title>Node8</title>
<g id="a_node8"><a xlink:href="class_countdown.html#a2c047ed2997b0d933b18ead33b3a6a5e" target="_top" xlink:title="Set the countdown start time.">
<polygon fill="none" stroke="black" points="143,-38.5 143,-57.5 271,-57.5 271,-38.5 143,-38.5"/>
<text text-anchor="middle" x="207" y="-45.5" font-family="Helvetica,sans-Serif" font-size="10.00">Countdown::setStartTime</text>
</a>
</g>
</g>
<!-- Node1&#45;&gt;Node8 -->
<g id="edge10" class="edge">
<title>Node1&#45;&gt;Node8</title>
<path fill="none" stroke="midnightblue" d="M92.73,-76.41C112.63,-71.42 137.16,-65.27 158.29,-59.97"/>
<polygon fill="midnightblue" stroke="midnightblue" points="159.2,-63.35 168.05,-57.52 157.49,-56.56 159.2,-63.35"/>
</g>
<!-- Node9 -->
<g id="node9" class="node">
<title>Node9</title>
<g id="a_node9"><a xlink:href="class_countdown.html#a42d413ab133c683032bbd188e16f6a51" target="_top" xlink:title="Start countdown.">
<polygon fill="none" stroke="black" points="161,-0.5 161,-19.5 253,-19.5 253,-0.5 161,-0.5"/>
<text text-anchor="middle" x="207" y="-7.5" font-family="Helvetica,sans-Serif" font-size="10.00">Countdown::start</text>
</a>
</g>
</g>
<!-- Node1&#45;&gt;Node9 -->
<g id="edge12" class="edge">
<title>Node1&#45;&gt;Node9</title>
<path fill="none" stroke="midnightblue" d="M67.04,-76.3C83.62,-63.87 114.13,-42.33 143,-29 147.93,-26.73 153.19,-24.64 158.51,-22.75"/>
<polygon fill="midnightblue" stroke="midnightblue" points="159.67,-26.05 168.05,-19.57 157.46,-19.41 159.67,-26.05"/>
</g>
<!-- Node3&#45;&gt;Node1 -->
<g id="edge3" class="edge">
<title>Node3&#45;&gt;Node1</title>
<path fill="none" stroke="midnightblue" d="M165.48,-92.05C150.62,-92.69 133.44,-92.89 117.1,-92.66"/>
<polygon fill="midnightblue" stroke="midnightblue" points="117.13,-89.16 107.06,-92.46 116.99,-96.16 117.13,-89.16"/>
</g>
<!-- Node3&#45;&gt;Node2 -->
<g id="edge5" class="edge">
<title>Node3&#45;&gt;Node2</title>
<path fill="none" stroke="midnightblue" d="M220.61,-95.66C238.64,-108.9 273.37,-132.26 307,-143 352.09,-157.4 405.66,-161.82 445.7,-162.83"/>
<polygon fill="midnightblue" stroke="midnightblue" points="445.77,-166.33 455.83,-163.02 445.9,-159.33 445.77,-166.33"/>
</g>
<!-- Node4 -->
<g id="node4" class="node">
<title>Node4</title>
<g id="a_node4"><a xlink:href="class_camera.html#a88aed424830b94ab70f84130e4be5f6c" target="_top" xlink:title="return member">
<polygon fill="none" stroke="black" points="307,-114.5 307,-133.5 420,-133.5 420,-114.5 307,-114.5"/>
<text text-anchor="middle" x="363.5" y="-121.5" font-family="Helvetica,sans-Serif" font-size="10.00">Camera::currentPhoto</text>
</a>
</g>
</g>
<!-- Node3&#45;&gt;Node4 -->
<g id="edge4" class="edge">
<title>Node3&#45;&gt;Node4</title>
<path fill="none" stroke="midnightblue" d="M246.99,-95.59C267.28,-100.58 292.29,-106.73 313.85,-112.03"/>
<polygon fill="midnightblue" stroke="midnightblue" points="313.25,-115.49 323.79,-114.48 314.92,-108.69 313.25,-115.49"/>
</g>
<!-- Node5 -->
<g id="node5" class="node">
<title>Node5</title>
<g id="a_node5"><a xlink:href="class_foto_box.html#a78d1e793417f4ce20a26465271b383b1" target="_top" xlink:title="try to load the photo to QPixmap">
<polygon fill="none" stroke="black" points="312,-76.5 312,-95.5 415,-95.5 415,-76.5 312,-76.5"/>
<text text-anchor="middle" x="363.5" y="-83.5" font-family="Helvetica,sans-Serif" font-size="10.00">FotoBox::loadPhoto</text>
</a>
</g>
</g>
<!-- Node3&#45;&gt;Node5 -->
<g id="edge6" class="edge">
<title>Node3&#45;&gt;Node5</title>
<path fill="none" stroke="midnightblue" d="M248.59,-86C264.81,-86 283.84,-86 301.64,-86"/>
<polygon fill="midnightblue" stroke="midnightblue" points="301.95,-89.5 311.95,-86 301.95,-82.5 301.95,-89.5"/>
</g>
<!-- Node6 -->
<g id="node6" class="node">
<title>Node6</title>
<g id="a_node6"><a xlink:href="class_countdown.html#ac9b658e9c4cf7896ce55b806e66f5e38" target="_top" xlink:title="Reset countdown (reset.">
<polygon fill="none" stroke="black" points="316.5,-0.5 316.5,-19.5 410.5,-19.5 410.5,-0.5 316.5,-0.5"/>
<text text-anchor="middle" x="363.5" y="-7.5" font-family="Helvetica,sans-Serif" font-size="10.00">Countdown::reset</text>
</a>
</g>
</g>
<!-- Node3&#45;&gt;Node6 -->
<g id="edge8" class="edge">
<title>Node3&#45;&gt;Node6</title>
<path fill="none" stroke="midnightblue" d="M248.67,-77.13C256.4,-74.52 264.19,-71.2 271,-67 290.8,-54.79 287.43,-41.58 307,-29 310.14,-26.98 313.52,-25.15 317,-23.5"/>
<polygon fill="midnightblue" stroke="midnightblue" points="318.54,-26.65 326.39,-19.52 315.81,-20.2 318.54,-26.65"/>
</g>
<!-- Node7 -->
<g id="node7" class="node">
<title>Node7</title>
<g id="a_node7"><a xlink:href="class_camera.html#a497d9061dd108efc452f75b6b542d824" target="_top" xlink:title="shoot a photo with gphoto2">
<polygon fill="none" stroke="black" points="310,-38.5 310,-57.5 417,-57.5 417,-38.5 310,-38.5"/>
<text text-anchor="middle" x="363.5" y="-45.5" font-family="Helvetica,sans-Serif" font-size="10.00">Camera::shootPhoto</text>
</a>
</g>
</g>
<!-- Node3&#45;&gt;Node7 -->
<g id="edge9" class="edge">
<title>Node3&#45;&gt;Node7</title>
<path fill="none" stroke="midnightblue" d="M246.99,-76.41C267.28,-71.42 292.29,-65.27 313.85,-59.97"/>
<polygon fill="midnightblue" stroke="midnightblue" points="314.92,-63.31 323.79,-57.52 313.25,-56.51 314.92,-63.31"/>
</g>
<!-- Node5&#45;&gt;Node2 -->
<g id="edge7" class="edge">
<title>Node5&#45;&gt;Node2</title>
<path fill="none" stroke="midnightblue" d="M397.07,-95.56C404.75,-98.25 412.79,-101.43 420,-105 440.15,-114.99 461.15,-129.03 477.24,-140.68"/>
<polygon fill="midnightblue" stroke="midnightblue" points="475.5,-143.75 485.63,-146.86 479.65,-138.12 475.5,-143.75"/>
</g>
<!-- Node8&#45;&gt;Node6 -->
<g id="edge11" class="edge">
<title>Node8&#45;&gt;Node6</title>
<path fill="none" stroke="midnightblue" d="M246.99,-38.41C267.28,-33.42 292.29,-27.27 313.85,-21.97"/>
<polygon fill="midnightblue" stroke="midnightblue" points="314.92,-25.31 323.79,-19.52 313.25,-18.51 314.92,-25.31"/>
</g>
</g>
</svg>
        <g id="navigator" transform="translate(0 0)" fill="#404254">
                <rect fill="#f2f5e9" fill-opacity="0.5" stroke="#606060" stroke-width=".5" x="0" y="0" width="60" height="60"/>
                <use id="zoomplus" xlink:href="#zoomPlus" x="17" y="9" onmousedown="handleZoom(evt,'in')"/>
                <use id="zoomminus" xlink:href="#zoomMin" x="42" y="9" onmousedown="handleZoom(evt,'out')"/>
                <use id="reset" xlink:href="#resetDef" x="30" y="36" onmousedown="handleReset()"/>
                <g id="arrowUp" xlink:href="#dirArrow" transform="translate(30 24)" onmousedown="handlePan(0,-1)">
                  <use xlink:href="#rim" fill="#404040">
                        <set attributeName="fill" to="#808080" begin="arrowUp.mouseover" end="arrowUp.mouseout"/>
                  </use>
                  <path fill="none" stroke="white" stroke-width="1.5" d="M0,-3.0v7 M-2.5,-0.5L0,-3.0L2.5,-0.5"/>
                </g>
                <g id="arrowRight" xlink:href="#dirArrow" transform="rotate(90) translate(36 -43)" onmousedown="handlePan(1,0)">
                  <use xlink:href="#rim" fill="#404040">
                        <set attributeName="fill" to="#808080" begin="arrowRight.mouseover" end="arrowRight.mouseout"/>
                  </use>
                  <path fill="none" stroke="white" stroke-width="1.5" d="M0,-3.0v7 M-2.5,-0.5L0,-3.0L2.5,-0.5"/>
                </g>
                <g id="arrowDown" xlink:href="#dirArrow" transform="rotate(180) translate(-30 -48)" onmousedown="handlePan(0,1)">
                  <use xlink:href="#rim" fill="#404040">
                        <set attributeName="fill" to="#808080" begin="arrowDown.mouseover" end="arrowDown.mouseout"/>
                  </use>
                  <path fill="none" stroke="white" stroke-width="1.5" d="M0,-3.0v7 M-2.5,-0.5L0,-3.0L2.5,-0.5"/>
                </g>
                <g id="arrowLeft" xlink:href="#dirArrow" transform="rotate(270) translate(-36 17)" onmousedown="handlePan(-1,0)">
                  <use xlink:href="#rim" fill="#404040">
                        <set attributeName="fill" to="#808080" begin="arrowLeft.mouseover" end="arrowLeft.mouseout"/>
                  </use>
                  <path fill="none" stroke="white" stroke-width="1.5" d="M0,-3.0v7 M-2.5,-0.5L0,-3.0L2.5,-0.5"/>
                </g>
        </g>
        <svg viewBox="0 0 15 15" width="100%" height="30px" preserveAspectRatio="xMaxYMin meet">
         <g id="arrow_out" transform="scale(0.3 0.3)">
          <a xlink:href="class_foto_box_ab6131adb44137e55734eb8bb0672fd38_cgraph_org.svg" target="_base">
           <rect id="button" ry="5" rx="5" y="6" x="6" height="38" width="38"
                fill="#f2f5e9" fill-opacity="0.5" stroke="#606060" stroke-width="1.0"/>
           <path id="arrow"
             d="M 11.500037,31.436501 C 11.940474,20.09759 22.043105,11.32322 32.158766,21.979434 L 37.068811,17.246167 C 37.068811,17.246167 37.088388,32 37.088388,32 L 22.160133,31.978069 C 22.160133,31.978069 26.997745,27.140456 26.997745,27.140456 C 18.528582,18.264221 13.291696,25.230495 11.500037,31.436501 z"
             style="fill:#404040;"/>
          </a>
         </g>
        </svg>
</svg>
