<?xml version="1.0" encoding="UTF-8" standalone="no"?>
<!DOCTYPE svg PUBLIC "-//W3C//DTD SVG 1.1//EN"
 "http://www.w3.org/Graphics/SVG/1.1/DTD/svg11.dtd">
<!-- Generated by graphviz version 2.46.1 (20210213.1702)
 -->
<!-- Title: Preferences::startFotoBox Pages: 1 -->
<svg width="460pt" height="72pt"
 viewBox="0.00 0.00 460.00 71.50" xmlns="http://www.w3.org/2000/svg" xmlns:xlink="http://www.w3.org/1999/xlink">
<g id="graph0" class="graph" transform="scale(1 1) rotate(0) translate(4 67.5)">
<title>Preferences::startFotoBox</title>
<!-- Node1 -->
<g id="node1" class="node">
<title>Node1</title>
<g id="a_node1"><a xlink:title="Start the FotoBox.">
<polygon fill="#bfbfbf" stroke="black" points="0,-19.5 0,-38.5 131,-38.5 131,-19.5 0,-19.5"/>
<text text-anchor="middle" x="65.5" y="-26.5" font-family="Helvetica,sans-Serif" font-size="10.00">Preferences::startFotoBox</text>
</a>
</g>
</g>
<!-- Node2 -->
<g id="node2" class="node">
<title>Node2</title>
<g id="a_node2"><a xlink:href="class_preferences.html#a70c6489f66db193c8645fed5d4b36ac6" target="_top" xlink:title="Save the preferences to QSettings.">
<polygon fill="none" stroke="black" points="167,-38.5 167,-57.5 316,-57.5 316,-38.5 167,-38.5"/>
<text text-anchor="middle" x="241.5" y="-45.5" font-family="Helvetica,sans-Serif" font-size="10.00">Preferences::savePreferences</text>
</a>
</g>
</g>
<!-- Node1&#45;&gt;Node2 -->
<g id="edge1" class="edge">
<title>Node1&#45;&gt;Node2</title>
<path fill="none" stroke="midnightblue" d="M131.29,-36.07C139.62,-36.98 148.25,-37.93 156.83,-38.86"/>
<polygon fill="midnightblue" stroke="midnightblue" points="156.55,-42.35 166.87,-39.96 157.31,-35.39 156.55,-42.35"/>
</g>
<!-- Node4 -->
<g id="node4" class="node">
<title>Node4</title>
<g id="a_node4"><a xlink:href="class_countdown.html#ad7212649cb592a77bbf5ccdf82a5582c" target="_top" xlink:title="Stop countdown and check.">
<polygon fill="none" stroke="black" points="196,-0.5 196,-19.5 287,-19.5 287,-0.5 196,-0.5"/>
<text text-anchor="middle" x="241.5" y="-7.5" font-family="Helvetica,sans-Serif" font-size="10.00">Countdown::stop</text>
</a>
</g>
</g>
<!-- Node1&#45;&gt;Node4 -->
<g id="edge3" class="edge">
<title>Node1&#45;&gt;Node4</title>
<path fill="none" stroke="midnightblue" d="M131.29,-21.93C149.3,-19.96 168.68,-17.84 186.03,-15.95"/>
<polygon fill="midnightblue" stroke="midnightblue" points="186.43,-19.43 195.99,-14.86 185.67,-12.47 186.43,-19.43"/>
</g>
<!-- Node3 -->
<g id="node3" class="node">
<title>Node3</title>
<g id="a_node3"><a xlink:href="class_preference_provider.html#a786d1bce48ec60ae6d1809ad01bc5cdb" target="_top" xlink:title="get instance (Meyers Singleton)">
<polygon fill="none" stroke="black" points="352,-33 352,-63 452,-63 452,-33 352,-33"/>
<text text-anchor="start" x="360" y="-51" font-family="Helvetica,sans-Serif" font-size="10.00">PreferenceProvider</text>
<text text-anchor="middle" x="402" y="-40" font-family="Helvetica,sans-Serif" font-size="10.00">::instance</text>
</a>
</g>
</g>
<!-- Node2&#45;&gt;Node3 -->
<g id="edge2" class="edge">
<title>Node2&#45;&gt;Node3</title>
<path fill="none" stroke="midnightblue" d="M316.18,-48C324.8,-48 333.51,-48 341.9,-48"/>
<polygon fill="midnightblue" stroke="midnightblue" points="341.94,-51.5 351.94,-48 341.94,-44.5 341.94,-51.5"/>
</g>
</g>
</svg>
