<?xml version="1.0" encoding="UTF-8" standalone="no"?>
<!DOCTYPE svg PUBLIC "-//W3C//DTD SVG 1.1//EN"
 "http://www.w3.org/Graphics/SVG/1.1/DTD/svg11.dtd">
<!-- Generated by graphviz version 2.43.0 (0)
 -->
<!-- Title: FotoBox::FotoBox::countdown Pages: 1 -->
<svg width="360pt" height="88pt"
 viewBox="0.00 0.00 360.00 88.00" xmlns="http://www.w3.org/2000/svg" xmlns:xlink="http://www.w3.org/1999/xlink">
<g id="graph0" class="graph" transform="scale(1 1) rotate(0) translate(4 84)">
<title>FotoBox::FotoBox::countdown</title>
<!-- Node1 -->
<g id="node1" class="node">
<title>Node1</title>
<g id="a_node1"><a xlink:title="With or without countdown.">
<polygon fill="#bfbfbf" stroke="black" points="0,-30 0,-49 161,-49 161,-30 0,-30"/>
<text text-anchor="middle" x="80.5" y="-37" font-family="Helvetica,sans-Serif" font-size="10.00">FotoBox::FotoBox::countdown</text>
</a>
</g>
</g>
<!-- Node2 -->
<g id="node2" class="node">
<title>Node2</title>
<g id="a_node2"><a xlink:href="class_foto_box_1_1_preference_provider.html#a822861e0e7e93a0875f962e5cd3c2212" target="_top" xlink:title="get instance (Meyers Singleton)">
<polygon fill="none" stroke="black" points="197,-49.5 197,-79.5 352,-79.5 352,-49.5 197,-49.5"/>
<text text-anchor="start" x="205" y="-67.5" font-family="Helvetica,sans-Serif" font-size="10.00">FotoBox::PreferenceProvider</text>
<text text-anchor="middle" x="274.5" y="-56.5" font-family="Helvetica,sans-Serif" font-size="10.00">::instance</text>
</a>
</g>
</g>
<!-- Node1&#45;&gt;Node2 -->
<g id="edge1" class="edge">
<title>Node1&#45;&gt;Node2</title>
<path fill="none" stroke="midnightblue" d="M154.63,-49.02C165.07,-50.38 175.9,-51.79 186.57,-53.18"/>
<polygon fill="midnightblue" stroke="midnightblue" points="186.37,-56.68 196.74,-54.51 187.27,-49.74 186.37,-56.68"/>
</g>
<!-- Node3 -->
<g id="node3" class="node">
<title>Node3</title>
<g id="a_node3"><a xlink:href="class_foto_box_1_1_countdown.html#a2576a8a558916a81ca58c27a959e5ed4" target="_top" xlink:title="Start countdown.">
<polygon fill="none" stroke="black" points="216,-0.5 216,-30.5 333,-30.5 333,-0.5 216,-0.5"/>
<text text-anchor="start" x="224" y="-18.5" font-family="Helvetica,sans-Serif" font-size="10.00">FotoBox::Countdown</text>
<text text-anchor="middle" x="274.5" y="-7.5" font-family="Helvetica,sans-Serif" font-size="10.00">::start</text>
</a>
</g>
</g>
<!-- Node1&#45;&gt;Node3 -->
<g id="edge2" class="edge">
<title>Node1&#45;&gt;Node3</title>
<path fill="none" stroke="midnightblue" d="M157.66,-29.98C173.55,-27.99 190.19,-25.91 205.75,-23.97"/>
<polygon fill="midnightblue" stroke="midnightblue" points="206.32,-27.43 215.8,-22.71 205.45,-20.48 206.32,-27.43"/>
</g>
</g>
</svg>
