<?xml version="1.0" encoding="UTF-8" standalone="no"?>
<!DOCTYPE svg PUBLIC "-//W3C//DTD SVG 1.1//EN"
 "http://www.w3.org/Graphics/SVG/1.1/DTD/svg11.dtd">
<!-- Generated by graphviz version 2.43.0 (0)
 -->
<!-- Title: FotoBox::Countdown::start Pages: 1 -->
<svg width="322pt" height="78pt"
 viewBox="0.00 0.00 322.00 77.50" xmlns="http://www.w3.org/2000/svg" xmlns:xlink="http://www.w3.org/1999/xlink">
<g id="graph0" class="graph" transform="scale(1 1) rotate(0) translate(4 73.5)">
<title>FotoBox::Countdown::start</title>
<!-- Node1 -->
<g id="node1" class="node">
<title>Node1</title>
<g id="a_node1"><a xlink:title="Start countdown.">
<polygon fill="#bfbfbf" stroke="black" points="197,-22.5 197,-52.5 314,-52.5 314,-22.5 197,-22.5"/>
<text text-anchor="start" x="205" y="-40.5" font-family="Helvetica,sans-Serif" font-size="10.00">FotoBox::Countdown</text>
<text text-anchor="middle" x="255.5" y="-29.5" font-family="Helvetica,sans-Serif" font-size="10.00">::start</text>
</a>
</g>
</g>
<!-- Node2 -->
<g id="node2" class="node">
<title>Node2</title>
<g id="a_node2"><a xlink:href="class_foto_box_1_1_foto_box.html#a0427a523b906219d676b6036c6475d7c" target="_top" xlink:title="With or without countdown.">
<polygon fill="none" stroke="black" points="0,-50 0,-69 161,-69 161,-50 0,-50"/>
<text text-anchor="middle" x="80.5" y="-57" font-family="Helvetica,sans-Serif" font-size="10.00">FotoBox::FotoBox::countdown</text>
</a>
</g>
</g>
<!-- Node1&#45;&gt;Node2 -->
<g id="edge1" class="edge">
<title>Node1&#45;&gt;Node2</title>
<path fill="none" stroke="midnightblue" d="M186.69,-46.12C176.75,-47.39 166.47,-48.69 156.4,-49.98"/>
<polygon fill="midnightblue" stroke="midnightblue" points="187.41,-49.56 196.89,-44.83 186.53,-42.62 187.41,-49.56"/>
</g>
<!-- Node3 -->
<g id="node3" class="node">
<title>Node3</title>
<g id="a_node3"><a xlink:href="class_foto_box_1_1_preferences.html#a0b70f6f0ecaaa0df571fbbccbcc41975" target="_top" xlink:title="Preferences constructor.">
<polygon fill="none" stroke="black" points="20.5,-0.5 20.5,-30.5 140.5,-30.5 140.5,-0.5 20.5,-0.5"/>
<text text-anchor="start" x="28.5" y="-18.5" font-family="Helvetica,sans-Serif" font-size="10.00">FotoBox::Preferences</text>
<text text-anchor="middle" x="80.5" y="-7.5" font-family="Helvetica,sans-Serif" font-size="10.00">::Preferences</text>
</a>
</g>
</g>
<!-- Node1&#45;&gt;Node3 -->
<g id="edge2" class="edge">
<title>Node1&#45;&gt;Node3</title>
<path fill="none" stroke="midnightblue" d="M186.54,-28.86C171.37,-26.93 155.41,-24.9 140.63,-23.02"/>
<polygon fill="midnightblue" stroke="midnightblue" points="186.53,-32.38 196.89,-30.17 187.41,-25.44 186.53,-32.38"/>
</g>
</g>
</svg>
