<?xml version="1.0" encoding="UTF-8" standalone="no"?>
<!DOCTYPE svg PUBLIC "-//W3C//DTD SVG 1.1//EN"
 "http://www.w3.org/Graphics/SVG/1.1/DTD/svg11.dtd">
<!-- Generated by graphviz version 2.46.1 (20210213.1702)
 -->
<!-- Title: Preferences::verifyApplication Pages: 1 -->
<svg width="313pt" height="78pt"
 viewBox="0.00 0.00 313.00 77.50" xmlns="http://www.w3.org/2000/svg" xmlns:xlink="http://www.w3.org/1999/xlink">
<g id="graph0" class="graph" transform="scale(1 1) rotate(0) translate(4 73.5)">
<title>Preferences::verifyApplication</title>
<!-- Node1 -->
<g id="node1" class="node">
<title>Node1</title>
<g id="a_node1"><a xlink:title="Check camera application availability and provide help if needed.">
<polygon fill="#bfbfbf" stroke="black" points="0,-22.5 0,-41.5 147,-41.5 147,-22.5 0,-22.5"/>
<text text-anchor="middle" x="73.5" y="-29.5" font-family="Helvetica,sans-Serif" font-size="10.00">Preferences::verifyApplication</text>
</a>
</g>
</g>
<!-- Node2 -->
<g id="node2" class="node">
<title>Node2</title>
<g id="a_node2"><a xlink:href="class_preferences.html#a11decdf7dac85dbe0ca3b428a671bcd2" target="_top" xlink:title="Check if application is installed and available.">
<polygon fill="none" stroke="black" points="183,-39 183,-69 305,-69 305,-39 183,-39"/>
<text text-anchor="start" x="191" y="-57" font-family="Helvetica,sans-Serif" font-size="10.00">Preferences::application</text>
<text text-anchor="middle" x="244" y="-46" font-family="Helvetica,sans-Serif" font-size="10.00">Available</text>
</a>
</g>
</g>
<!-- Node1&#45;&gt;Node2 -->
<g id="edge1" class="edge">
<title>Node1&#45;&gt;Node2</title>
<path fill="none" stroke="midnightblue" d="M147.43,-41.52C155.84,-42.62 164.4,-43.74 172.77,-44.83"/>
<polygon fill="midnightblue" stroke="midnightblue" points="172.5,-48.32 182.87,-46.15 173.41,-41.38 172.5,-48.32"/>
</g>
<!-- Node3 -->
<g id="node3" class="node">
<title>Node3</title>
<g id="a_node3"><a xlink:href="class_preferences.html#a4eff8e6a2f21857c6ed4c43ad076cc53" target="_top" xlink:title="Read gphoto2 / libgphoto2 version and camera model.">
<polygon fill="none" stroke="black" points="183.5,-0.5 183.5,-19.5 304.5,-19.5 304.5,-0.5 183.5,-0.5"/>
<text text-anchor="middle" x="244" y="-7.5" font-family="Helvetica,sans-Serif" font-size="10.00">Preferences::gphotoInfo</text>
</a>
</g>
</g>
<!-- Node1&#45;&gt;Node3 -->
<g id="edge2" class="edge">
<title>Node1&#45;&gt;Node3</title>
<path fill="none" stroke="midnightblue" d="M147.43,-22.48C156.06,-21.35 164.85,-20.2 173.43,-19.08"/>
<polygon fill="midnightblue" stroke="midnightblue" points="173.92,-22.55 183.39,-17.78 173.02,-15.61 173.92,-22.55"/>
</g>
</g>
</svg>
