<?xml version="1.0" encoding="UTF-8" standalone="no"?>
<!DOCTYPE svg PUBLIC "-//W3C//DTD SVG 1.1//EN"
 "http://www.w3.org/Graphics/SVG/1.1/DTD/svg11.dtd">
<!-- Generated by graphviz version 2.46.1 (20210213.1702)
 -->
<!-- Title: Preferences::stopCountdownMode Pages: 1 -->
<svg width="529pt" height="66pt"
 viewBox="0.00 0.00 529.00 66.00" xmlns="http://www.w3.org/2000/svg" xmlns:xlink="http://www.w3.org/1999/xlink">
<g id="graph0" class="graph" transform="scale(1 1) rotate(0) translate(4 62)">
<title>Preferences::stopCountdownMode</title>
<!-- Node1 -->
<g id="node1" class="node">
<title>Node1</title>
<g id="a_node1"><a xlink:title="Stop countdown, stop mouse tracking and set normal window title name.">
<polygon fill="#bfbfbf" stroke="black" points="354,-19.5 354,-38.5 521,-38.5 521,-19.5 354,-19.5"/>
<text text-anchor="middle" x="437.5" y="-26.5" font-family="Helvetica,sans-Serif" font-size="10.00">Preferences::stopCountdownMode</text>
</a>
</g>
</g>
<!-- Node2 -->
<g id="node2" class="node">
<title>Node2</title>
<g id="a_node2"><a xlink:href="class_preferences.html#a36e52663dbf3006c5dcf04d89cfd672d" target="_top" xlink:title="Signal &amp; Slot connect.">
<polygon fill="none" stroke="black" points="181.5,-38.5 181.5,-57.5 300.5,-57.5 300.5,-38.5 181.5,-38.5"/>
<text text-anchor="middle" x="241" y="-45.5" font-family="Helvetica,sans-Serif" font-size="10.00">Preferences::connectUi</text>
</a>
</g>
</g>
<!-- Node1&#45;&gt;Node2 -->
<g id="edge1" class="edge">
<title>Node1&#45;&gt;Node2</title>
<path fill="none" stroke="midnightblue" d="M343.62,-38.07C328.95,-39.51 314.15,-40.95 300.56,-42.28"/>
<polygon fill="midnightblue" stroke="midnightblue" points="344.12,-41.54 353.73,-37.09 343.44,-34.57 344.12,-41.54"/>
</g>
<!-- Node4 -->
<g id="node4" class="node">
<title>Node4</title>
<g id="a_node4"><a xlink:href="class_preferences.html#aa50a76adea9578e5c101776ef2aaf0fa" target="_top" xlink:title="This event handler, for event event, can be reimplemented in a subclass to receive mouse move events ...">
<polygon fill="none" stroke="black" points="164,-0.5 164,-19.5 318,-19.5 318,-0.5 164,-0.5"/>
<text text-anchor="middle" x="241" y="-7.5" font-family="Helvetica,sans-Serif" font-size="10.00">Preferences::mouseMoveEvent</text>
</a>
</g>
</g>
<!-- Node1&#45;&gt;Node4 -->
<g id="edge3" class="edge">
<title>Node1&#45;&gt;Node4</title>
<path fill="none" stroke="midnightblue" d="M343.73,-19.94C335.19,-19.1 326.59,-18.26 318.21,-17.45"/>
<polygon fill="midnightblue" stroke="midnightblue" points="343.44,-23.43 353.73,-20.91 344.12,-16.46 343.44,-23.43"/>
</g>
<!-- Node3 -->
<g id="node3" class="node">
<title>Node3</title>
<g id="a_node3"><a xlink:href="class_preferences.html#a137b56e8d51ff2712666f94263b2e34e" target="_top" xlink:title="Preferences constructor.">
<polygon fill="none" stroke="black" points="0,-38.5 0,-57.5 128,-57.5 128,-38.5 0,-38.5"/>
<text text-anchor="middle" x="64" y="-45.5" font-family="Helvetica,sans-Serif" font-size="10.00">Preferences::Preferences</text>
</a>
</g>
</g>
<!-- Node2&#45;&gt;Node3 -->
<g id="edge2" class="edge">
<title>Node2&#45;&gt;Node3</title>
<path fill="none" stroke="midnightblue" d="M171.07,-48C156.9,-48 142.05,-48 128.11,-48"/>
<polygon fill="midnightblue" stroke="midnightblue" points="171.24,-51.5 181.24,-48 171.24,-44.5 171.24,-51.5"/>
</g>
</g>
</svg>
