<?xml version="1.0" encoding="UTF-8" standalone="no"?>
<!DOCTYPE svg PUBLIC "-//W3C//DTD SVG 1.1//EN"
 "http://www.w3.org/Graphics/SVG/1.1/DTD/svg11.dtd">
<!-- Generated by graphviz version 2.43.0 (0)
 -->
<!-- Title: FotoBox::PreferenceProvider::setQueryInterval Pages: 1 -->
<svg width="475pt" height="39pt"
 viewBox="0.00 0.00 475.00 39.00" xmlns="http://www.w3.org/2000/svg" xmlns:xlink="http://www.w3.org/1999/xlink">
<g id="graph0" class="graph" transform="scale(1 1) rotate(0) translate(4 35)">
<title>FotoBox::PreferenceProvider::setQueryInterval</title>
<!-- Node1 -->
<g id="node1" class="node">
<title>Node1</title>
<g id="a_node1"><a xlink:title="set how often the pin should be queried">
<polygon fill="#bfbfbf" stroke="black" points="312,-0.5 312,-30.5 467,-30.5 467,-0.5 312,-0.5"/>
<text text-anchor="start" x="320" y="-18.5" font-family="Helvetica,sans-Serif" font-size="10.00">FotoBox::PreferenceProvider</text>
<text text-anchor="middle" x="389.5" y="-7.5" font-family="Helvetica,sans-Serif" font-size="10.00">::setQueryInterval</text>
</a>
</g>
</g>
<!-- Node2 -->
<g id="node2" class="node">
<title>Node2</title>
<g id="a_node2"><a xlink:href="class_foto_box_1_1_preferences.html#aa32a746004108cc42784e9f5f31ac555" target="_top" xlink:title="Signal &amp; Slot connect.">
<polygon fill="none" stroke="black" points="156,-0.5 156,-30.5 276,-30.5 276,-0.5 156,-0.5"/>
<text text-anchor="start" x="164" y="-18.5" font-family="Helvetica,sans-Serif" font-size="10.00">FotoBox::Preferences</text>
<text text-anchor="middle" x="216" y="-7.5" font-family="Helvetica,sans-Serif" font-size="10.00">::connectUi</text>
</a>
</g>
</g>
<!-- Node1&#45;&gt;Node2 -->
<g id="edge1" class="edge">
<title>Node1&#45;&gt;Node2</title>
<path fill="none" stroke="midnightblue" d="M301.66,-15.5C293.03,-15.5 284.41,-15.5 276.16,-15.5"/>
<polygon fill="midnightblue" stroke="midnightblue" points="301.78,-19 311.78,-15.5 301.78,-12 301.78,-19"/>
</g>
<!-- Node3 -->
<g id="node3" class="node">
<title>Node3</title>
<g id="a_node3"><a xlink:href="class_foto_box_1_1_preferences.html#a0b70f6f0ecaaa0df571fbbccbcc41975" target="_top" xlink:title="Preferences constructor.">
<polygon fill="none" stroke="black" points="0,-0.5 0,-30.5 120,-30.5 120,-0.5 0,-0.5"/>
<text text-anchor="start" x="8" y="-18.5" font-family="Helvetica,sans-Serif" font-size="10.00">FotoBox::Preferences</text>
<text text-anchor="middle" x="60" y="-7.5" font-family="Helvetica,sans-Serif" font-size="10.00">::Preferences</text>
</a>
</g>
</g>
<!-- Node2&#45;&gt;Node3 -->
<g id="edge2" class="edge">
<title>Node2&#45;&gt;Node3</title>
<path fill="none" stroke="midnightblue" d="M145.63,-15.5C137.14,-15.5 128.52,-15.5 120.2,-15.5"/>
<polygon fill="midnightblue" stroke="midnightblue" points="145.9,-19 155.9,-15.5 145.9,-12 145.9,-19"/>
</g>
</g>
</svg>
