<?xml version="1.0" encoding="UTF-8" standalone="no"?>
<!DOCTYPE svg PUBLIC "-//W3C//DTD SVG 1.1//EN"
 "http://www.w3.org/Graphics/SVG/1.1/DTD/svg11.dtd">
<!-- Generated by graphviz version 2.43.0 (0)
 -->
<!-- Title: FotoBox::PreferenceProvider::instance Pages: 1 -->
<svg width="535pt" height="406pt"
 viewBox="0.00 0.00 535.00 405.50" xmlns="http://www.w3.org/2000/svg" xmlns:xlink="http://www.w3.org/1999/xlink">
<g id="graph0" class="graph" transform="scale(1 1) rotate(0) translate(4 401.5)">
<title>FotoBox::PreferenceProvider::instance</title>
<!-- Node1 -->
<g id="node1" class="node">
<title>Node1</title>
<g id="a_node1"><a xlink:title="get instance (Meyers Singleton)">
<polygon fill="#bfbfbf" stroke="black" points="372,-189.5 372,-219.5 527,-219.5 527,-189.5 372,-189.5"/>
<text text-anchor="start" x="380" y="-207.5" font-family="Helvetica,sans-Serif" font-size="10.00">FotoBox::PreferenceProvider</text>
<text text-anchor="middle" x="449.5" y="-196.5" font-family="Helvetica,sans-Serif" font-size="10.00">::instance</text>
</a>
</g>
</g>
<!-- Node2 -->
<g id="node2" class="node">
<title>Node2</title>
<g id="a_node2"><a xlink:href="class_foto_box_1_1_foto_box.html#af19360c78fe180609cb8f59ae52544cf" target="_top" xlink:title="With or without buttons.">
<polygon fill="none" stroke="black" points="173.5,-378 173.5,-397 318.5,-397 318.5,-378 173.5,-378"/>
<text text-anchor="middle" x="246" y="-385" font-family="Helvetica,sans-Serif" font-size="10.00">FotoBox::FotoBox::buttons</text>
</a>
</g>
</g>
<!-- Node1&#45;&gt;Node2 -->
<g id="edge1" class="edge">
<title>Node1&#45;&gt;Node2</title>
<path fill="none" stroke="midnightblue" d="M438.8,-228.99C423.01,-265.47 388.19,-333.56 336,-368.5 330.22,-372.37 323.8,-375.47 317.13,-377.95"/>
<polygon fill="midnightblue" stroke="midnightblue" points="442.1,-230.16 442.74,-219.59 435.65,-227.45 442.1,-230.16"/>
</g>
<!-- Node3 -->
<g id="node3" class="node">
<title>Node3</title>
<g id="a_node3"><a xlink:href="class_foto_box_1_1_camera.html#af20e93110fd1cd21f16f262e61a62e89" target="_top" xlink:title="Camera constructor.">
<polygon fill="none" stroke="black" points="173.5,-340 173.5,-359 318.5,-359 318.5,-340 173.5,-340"/>
<text text-anchor="middle" x="246" y="-347" font-family="Helvetica,sans-Serif" font-size="10.00">FotoBox::Camera::Camera</text>
</a>
</g>
</g>
<!-- Node1&#45;&gt;Node3 -->
<g id="edge2" class="edge">
<title>Node1&#45;&gt;Node3</title>
<path fill="none" stroke="midnightblue" d="M434.02,-228.39C415.18,-257.31 379.48,-305.25 336,-330.5 329.31,-334.39 321.91,-337.48 314.33,-339.95"/>
<polygon fill="midnightblue" stroke="midnightblue" points="437.12,-230.04 439.53,-219.73 431.21,-226.29 437.12,-230.04"/>
</g>
<!-- Node4 -->
<g id="node4" class="node">
<title>Node4</title>
<g id="a_node4"><a xlink:href="class_foto_box_1_1_preferences.html#aa32a746004108cc42784e9f5f31ac555" target="_top" xlink:title="Signal &amp; Slot connect.">
<polygon fill="none" stroke="black" points="186,-290.5 186,-320.5 306,-320.5 306,-290.5 186,-290.5"/>
<text text-anchor="start" x="194" y="-308.5" font-family="Helvetica,sans-Serif" font-size="10.00">FotoBox::Preferences</text>
<text text-anchor="middle" x="246" y="-297.5" font-family="Helvetica,sans-Serif" font-size="10.00">::connectUi</text>
</a>
</g>
</g>
<!-- Node1&#45;&gt;Node4 -->
<g id="edge3" class="edge">
<title>Node1&#45;&gt;Node4</title>
<path fill="none" stroke="midnightblue" d="M421.97,-226.03C400.05,-242.9 367.53,-265.89 336,-280.5 326.68,-284.82 316.46,-288.54 306.37,-291.69"/>
<polygon fill="midnightblue" stroke="midnightblue" points="424.39,-228.58 430.11,-219.67 420.08,-223.07 424.39,-228.58"/>
</g>
<!-- Node6 -->
<g id="node6" class="node">
<title>Node6</title>
<g id="a_node6"><a xlink:href="class_foto_box_1_1_foto_box.html#a0427a523b906219d676b6036c6475d7c" target="_top" xlink:title="With or without countdown.">
<polygon fill="none" stroke="black" points="165.5,-252 165.5,-271 326.5,-271 326.5,-252 165.5,-252"/>
<text text-anchor="middle" x="246" y="-259" font-family="Helvetica,sans-Serif" font-size="10.00">FotoBox::FotoBox::countdown</text>
</a>
</g>
</g>
<!-- Node1&#45;&gt;Node6 -->
<g id="edge5" class="edge">
<title>Node1&#45;&gt;Node6</title>
<path fill="none" stroke="midnightblue" d="M398.21,-222.87C378.91,-229.55 356.58,-236.85 336,-242.5 323.35,-245.97 309.55,-249.19 296.68,-251.95"/>
<polygon fill="midnightblue" stroke="midnightblue" points="399.43,-226.15 407.71,-219.55 397.11,-219.55 399.43,-226.15"/>
</g>
<!-- Node7 -->
<g id="node7" class="node">
<title>Node7</title>
<g id="a_node7"><a xlink:href="class_foto_box_1_1_foto_box.html#a41e3a28215d323b91fb800cefaec42a9" target="_top" xlink:title="Draw text on the QPixmap.">
<polygon fill="none" stroke="black" points="170,-214 170,-233 322,-233 322,-214 170,-214"/>
<text text-anchor="middle" x="246" y="-221" font-family="Helvetica,sans-Serif" font-size="10.00">FotoBox::FotoBox::drawText</text>
</a>
</g>
</g>
<!-- Node1&#45;&gt;Node7 -->
<g id="edge6" class="edge">
<title>Node1&#45;&gt;Node7</title>
<path fill="none" stroke="midnightblue" d="M361.76,-212.68C348.59,-213.92 335.1,-215.19 322.21,-216.41"/>
<polygon fill="midnightblue" stroke="midnightblue" points="362.12,-216.16 371.75,-211.74 361.46,-209.19 362.12,-216.16"/>
</g>
<!-- Node8 -->
<g id="node8" class="node">
<title>Node8</title>
<g id="a_node8"><a xlink:href="class_foto_box_1_1_foto_box.html#ab39748078c10984784ca6eba9166b1dd" target="_top" xlink:title="FotoBox constructor.">
<polygon fill="none" stroke="black" points="172,-176 172,-195 320,-195 320,-176 172,-176"/>
<text text-anchor="middle" x="246" y="-183" font-family="Helvetica,sans-Serif" font-size="10.00">FotoBox::FotoBox::FotoBox</text>
</a>
</g>
</g>
<!-- Node1&#45;&gt;Node8 -->
<g id="edge7" class="edge">
<title>Node1&#45;&gt;Node8</title>
<path fill="none" stroke="midnightblue" d="M361.75,-196.32C347.91,-195.01 333.71,-193.68 320.22,-192.4"/>
<polygon fill="midnightblue" stroke="midnightblue" points="361.46,-199.81 371.75,-197.26 362.12,-192.84 361.46,-199.81"/>
</g>
<!-- Node9 -->
<g id="node9" class="node">
<title>Node9</title>
<g id="a_node9"><a xlink:href="class_foto_box_1_1_foto_box.html#a37ebf65d1ff00c985eb88bf5b608d830" target="_top" xlink:title="try to load the photo to QPixmap">
<polygon fill="none" stroke="black" points="167.5,-138 167.5,-157 324.5,-157 324.5,-138 167.5,-138"/>
<text text-anchor="middle" x="246" y="-145" font-family="Helvetica,sans-Serif" font-size="10.00">FotoBox::FotoBox::loadPhoto</text>
</a>
</g>
</g>
<!-- Node1&#45;&gt;Node9 -->
<g id="edge8" class="edge">
<title>Node1&#45;&gt;Node9</title>
<path fill="none" stroke="midnightblue" d="M398.21,-186.13C378.91,-179.45 356.58,-172.15 336,-166.5 323.35,-163.03 309.55,-159.81 296.68,-157.05"/>
<polygon fill="midnightblue" stroke="midnightblue" points="397.11,-189.45 407.71,-189.45 399.43,-182.85 397.11,-189.45"/>
</g>
<!-- Node10 -->
<g id="node10" class="node">
<title>Node10</title>
<g id="a_node10"><a xlink:href="class_foto_box_1_1_foto_box.html#aed8a3d4cae8515285ba031cb15a7f616" target="_top" xlink:title="This event handler, for event event, can be reimplemented in a subclass to receive mouse release even...">
<polygon fill="none" stroke="black" points="156,-88.5 156,-118.5 336,-118.5 336,-88.5 156,-88.5"/>
<text text-anchor="start" x="164" y="-106.5" font-family="Helvetica,sans-Serif" font-size="10.00">FotoBox::FotoBox::mouseRelease</text>
<text text-anchor="middle" x="246" y="-95.5" font-family="Helvetica,sans-Serif" font-size="10.00">Event</text>
</a>
</g>
</g>
<!-- Node1&#45;&gt;Node10 -->
<g id="edge9" class="edge">
<title>Node1&#45;&gt;Node10</title>
<path fill="none" stroke="midnightblue" d="M421.97,-182.97C400.05,-166.1 367.53,-143.11 336,-128.5 327.85,-124.72 319,-121.4 310.16,-118.51"/>
<polygon fill="midnightblue" stroke="midnightblue" points="420.08,-185.93 430.11,-189.33 424.39,-180.42 420.08,-185.93"/>
</g>
<!-- Node11 -->
<g id="node11" class="node">
<title>Node11</title>
<g id="a_node11"><a xlink:href="class_foto_box_1_1_foto_box.html#a5b9837d242e3835a2879bc449c787454" target="_top" xlink:title="trigger camera to shot a photo and try to show it">
<polygon fill="none" stroke="black" points="178,-50 178,-69 314,-69 314,-50 178,-50"/>
<text text-anchor="middle" x="246" y="-57" font-family="Helvetica,sans-Serif" font-size="10.00">FotoBox::FotoBox::photo</text>
</a>
</g>
</g>
<!-- Node1&#45;&gt;Node11 -->
<g id="edge10" class="edge">
<title>Node1&#45;&gt;Node11</title>
<path fill="none" stroke="midnightblue" d="M433.93,-180.87C414.99,-152.27 379.2,-104.78 336,-79.5 328.62,-75.18 320.39,-71.79 312,-69.14"/>
<polygon fill="midnightblue" stroke="midnightblue" points="431.1,-182.95 439.47,-189.45 436.98,-179.15 431.1,-182.95"/>
</g>
<!-- Node12 -->
<g id="node12" class="node">
<title>Node12</title>
<g id="a_node12"><a xlink:href="class_foto_box_1_1_foto_box.html#a5f327f8f257a6bc0b8538905ee7907b2" target="_top" xlink:title="FotoBox destructor.">
<polygon fill="none" stroke="black" points="192,-0.5 192,-30.5 300,-30.5 300,-0.5 192,-0.5"/>
<text text-anchor="start" x="200" y="-18.5" font-family="Helvetica,sans-Serif" font-size="10.00">FotoBox::FotoBox::</text>
<text text-anchor="middle" x="246" y="-7.5" font-family="Helvetica,sans-Serif" font-size="10.00">~FotoBox</text>
</a>
</g>
</g>
<!-- Node1&#45;&gt;Node12 -->
<g id="edge11" class="edge">
<title>Node1&#45;&gt;Node12</title>
<path fill="none" stroke="midnightblue" d="M438.27,-179.88C422,-143.8 386.8,-76.89 336,-40.5 325.43,-32.93 312.64,-27.65 300.09,-23.96"/>
<polygon fill="midnightblue" stroke="midnightblue" points="435.13,-181.44 442.35,-189.19 441.54,-178.63 435.13,-181.44"/>
</g>
<!-- Node5 -->
<g id="node5" class="node">
<title>Node5</title>
<g id="a_node5"><a xlink:href="class_foto_box_1_1_preferences.html#a0b70f6f0ecaaa0df571fbbccbcc41975" target="_top" xlink:title="Preferences constructor.">
<polygon fill="none" stroke="black" points="0,-290.5 0,-320.5 120,-320.5 120,-290.5 0,-290.5"/>
<text text-anchor="start" x="8" y="-308.5" font-family="Helvetica,sans-Serif" font-size="10.00">FotoBox::Preferences</text>
<text text-anchor="middle" x="60" y="-297.5" font-family="Helvetica,sans-Serif" font-size="10.00">::Preferences</text>
</a>
</g>
</g>
<!-- Node4&#45;&gt;Node5 -->
<g id="edge4" class="edge">
<title>Node4&#45;&gt;Node5</title>
<path fill="none" stroke="midnightblue" d="M175.75,-305.5C157.44,-305.5 137.84,-305.5 120.12,-305.5"/>
<polygon fill="midnightblue" stroke="midnightblue" points="175.77,-309 185.77,-305.5 175.77,-302 175.77,-309"/>
</g>
</g>
</svg>
