<?xml version="1.0" encoding="UTF-8" standalone="no"?>
<!DOCTYPE svg PUBLIC "-//W3C//DTD SVG 1.1//EN"
 "http://www.w3.org/Graphics/SVG/1.1/DTD/svg11.dtd">
<!-- Generated by graphviz version 2.46.1 (20210213.1702)
 -->
<!-- Title: Countdown::stop Pages: 1 -->
<svg width="656pt" height="123pt"
 viewBox="0.00 0.00 656.00 123.00" xmlns="http://www.w3.org/2000/svg" xmlns:xlink="http://www.w3.org/1999/xlink">
<g id="graph0" class="graph" transform="scale(1 1) rotate(0) translate(4 119)">
<title>Countdown::stop</title>
<!-- Node1 -->
<g id="node1" class="node">
<title>Node1</title>
<g id="a_node1"><a xlink:title="Stop countdown and check.">
<polygon fill="#bfbfbf" stroke="black" points="557,-38.5 557,-57.5 648,-57.5 648,-38.5 557,-38.5"/>
<text text-anchor="middle" x="602.5" y="-45.5" font-family="Helvetica,sans-Serif" font-size="10.00">Countdown::stop</text>
</a>
</g>
</g>
<!-- Node2 -->
<g id="node2" class="node">
<title>Node2</title>
<g id="a_node2"><a xlink:href="class_preferences.html#a4f0c2844c169369eacff4a6c004b2d7d" target="_top" xlink:title="Start the FotoBox.">
<polygon fill="none" stroke="black" points="372,-76.5 372,-95.5 503,-95.5 503,-76.5 372,-76.5"/>
<text text-anchor="middle" x="437.5" y="-83.5" font-family="Helvetica,sans-Serif" font-size="10.00">Preferences::startFotoBox</text>
</a>
</g>
</g>
<!-- Node1&#45;&gt;Node2 -->
<g id="edge1" class="edge">
<title>Node1&#45;&gt;Node2</title>
<path fill="none" stroke="midnightblue" d="M551.48,-59.85C541.39,-62.23 530.86,-64.7 521,-67 507.69,-70.1 493.16,-73.46 480.06,-76.48"/>
<polygon fill="midnightblue" stroke="midnightblue" points="552.45,-63.22 561.38,-57.51 550.85,-56.4 552.45,-63.22"/>
</g>
<!-- Node5 -->
<g id="node5" class="node">
<title>Node5</title>
<g id="a_node5"><a xlink:href="class_preferences.html#a1dcf663eabce314027a86d17d1d4867b" target="_top" xlink:title="Stop countdown, stop mouse tracking and set normal window title name.">
<polygon fill="none" stroke="black" points="354,-38.5 354,-57.5 521,-57.5 521,-38.5 354,-38.5"/>
<text text-anchor="middle" x="437.5" y="-45.5" font-family="Helvetica,sans-Serif" font-size="10.00">Preferences::stopCountdownMode</text>
</a>
</g>
</g>
<!-- Node1&#45;&gt;Node5 -->
<g id="edge5" class="edge">
<title>Node1&#45;&gt;Node5</title>
<path fill="none" stroke="midnightblue" d="M546.77,-48C538.54,-48 529.89,-48 521.22,-48"/>
<polygon fill="midnightblue" stroke="midnightblue" points="546.96,-51.5 556.96,-48 546.96,-44.5 546.96,-51.5"/>
</g>
<!-- Node7 -->
<g id="node7" class="node">
<title>Node7</title>
<g id="a_node7"><a xlink:href="class_countdown.html#a9098d9aba8a5e4841f93ca30414c78b0" target="_top" xlink:title="Start the timer until there is no time left, means.">
<polygon fill="none" stroke="black" points="367.5,-0.5 367.5,-19.5 507.5,-19.5 507.5,-0.5 367.5,-0.5"/>
<text text-anchor="middle" x="437.5" y="-7.5" font-family="Helvetica,sans-Serif" font-size="10.00">Countdown::updateTimeLeft</text>
</a>
</g>
</g>
<!-- Node1&#45;&gt;Node7 -->
<g id="edge8" class="edge">
<title>Node1&#45;&gt;Node7</title>
<path fill="none" stroke="midnightblue" d="M551.48,-36.15C541.39,-33.77 530.86,-31.3 521,-29 507.69,-25.9 493.16,-22.54 480.06,-19.52"/>
<polygon fill="midnightblue" stroke="midnightblue" points="550.85,-39.6 561.38,-38.49 552.45,-32.78 550.85,-39.6"/>
</g>
<!-- Node3 -->
<g id="node3" class="node">
<title>Node3</title>
<g id="a_node3"><a xlink:href="class_preferences.html#a36e52663dbf3006c5dcf04d89cfd672d" target="_top" xlink:title="Signal &amp; Slot connect.">
<polygon fill="none" stroke="black" points="181.5,-76.5 181.5,-95.5 300.5,-95.5 300.5,-76.5 181.5,-76.5"/>
<text text-anchor="middle" x="241" y="-83.5" font-family="Helvetica,sans-Serif" font-size="10.00">Preferences::connectUi</text>
</a>
</g>
</g>
<!-- Node2&#45;&gt;Node3 -->
<g id="edge2" class="edge">
<title>Node2&#45;&gt;Node3</title>
<path fill="none" stroke="midnightblue" d="M361.61,-86C341.38,-86 319.78,-86 300.59,-86"/>
<polygon fill="midnightblue" stroke="midnightblue" points="361.73,-89.5 371.73,-86 361.73,-82.5 361.73,-89.5"/>
</g>
<!-- Node4 -->
<g id="node4" class="node">
<title>Node4</title>
<g id="a_node4"><a xlink:href="class_preferences.html#a137b56e8d51ff2712666f94263b2e34e" target="_top" xlink:title="Preferences constructor.">
<polygon fill="none" stroke="black" points="0,-95.5 0,-114.5 128,-114.5 128,-95.5 0,-95.5"/>
<text text-anchor="middle" x="64" y="-102.5" font-family="Helvetica,sans-Serif" font-size="10.00">Preferences::Preferences</text>
</a>
</g>
</g>
<!-- Node2&#45;&gt;Node4 -->
<g id="edge4" class="edge">
<title>Node2&#45;&gt;Node4</title>
<path fill="none" stroke="midnightblue" d="M378.22,-97.23C359.11,-100.41 337.72,-103.43 318,-105 253.42,-110.14 179.27,-109.36 128.01,-107.77"/>
<polygon fill="midnightblue" stroke="midnightblue" points="379.01,-100.65 388.28,-95.51 377.83,-93.75 379.01,-100.65"/>
</g>
<!-- Node3&#45;&gt;Node4 -->
<g id="edge3" class="edge">
<title>Node3&#45;&gt;Node4</title>
<path fill="none" stroke="midnightblue" d="M171.07,-93.48C156.9,-95.02 142.05,-96.63 128.11,-98.15"/>
<polygon fill="midnightblue" stroke="midnightblue" points="171.68,-96.94 181.24,-92.38 170.92,-89.98 171.68,-96.94"/>
</g>
<!-- Node5&#45;&gt;Node3 -->
<g id="edge6" class="edge">
<title>Node5&#45;&gt;Node3</title>
<path fill="none" stroke="midnightblue" d="M377.69,-59.49C349.94,-64.91 317.21,-71.31 290.85,-76.46"/>
<polygon fill="midnightblue" stroke="midnightblue" points="378.53,-62.89 387.67,-57.54 377.18,-56.02 378.53,-62.89"/>
</g>
<!-- Node6 -->
<g id="node6" class="node">
<title>Node6</title>
<g id="a_node6"><a xlink:href="class_preferences.html#aa50a76adea9578e5c101776ef2aaf0fa" target="_top" xlink:title="This event handler, for event event, can be reimplemented in a subclass to receive mouse move events ...">
<polygon fill="none" stroke="black" points="164,-38.5 164,-57.5 318,-57.5 318,-38.5 164,-38.5"/>
<text text-anchor="middle" x="241" y="-45.5" font-family="Helvetica,sans-Serif" font-size="10.00">Preferences::mouseMoveEvent</text>
</a>
</g>
</g>
<!-- Node5&#45;&gt;Node6 -->
<g id="edge7" class="edge">
<title>Node5&#45;&gt;Node6</title>
<path fill="none" stroke="midnightblue" d="M343.46,-48C335,-48 326.5,-48 318.21,-48"/>
<polygon fill="midnightblue" stroke="midnightblue" points="343.73,-51.5 353.73,-48 343.73,-44.5 343.73,-51.5"/>
</g>
<!-- Node8 -->
<g id="node8" class="node">
<title>Node8</title>
<g id="a_node8"><a xlink:href="class_countdown.html#a2fda5be41af21076407c3a85b13b1f89" target="_top" xlink:title="Countdown constructor.">
<polygon fill="none" stroke="black" points="180,-0.5 180,-19.5 302,-19.5 302,-0.5 180,-0.5"/>
<text text-anchor="middle" x="241" y="-7.5" font-family="Helvetica,sans-Serif" font-size="10.00">Countdown::Countdown</text>
</a>
</g>
</g>
<!-- Node7&#45;&gt;Node8 -->
<g id="edge9" class="edge">
<title>Node7&#45;&gt;Node8</title>
<path fill="none" stroke="midnightblue" d="M357.27,-10C338.88,-10 319.6,-10 302.19,-10"/>
<polygon fill="midnightblue" stroke="midnightblue" points="357.38,-13.5 367.38,-10 357.38,-6.5 357.38,-13.5"/>
</g>
</g>
</svg>
