<?xml version="1.0" encoding="UTF-8" standalone="no"?>
<!DOCTYPE svg PUBLIC "-//W3C//DTD SVG 1.1//EN"
 "http://www.w3.org/Graphics/SVG/1.1/DTD/svg11.dtd">
<!-- Generated by graphviz version 2.46.1 (20210213.1702)
 -->
<!-- Title: Countdown::reset Pages: 1 -->
<svg width="541pt" height="66pt"
 viewBox="0.00 0.00 541.00 66.00" xmlns="http://www.w3.org/2000/svg" xmlns:xlink="http://www.w3.org/1999/xlink">
<g id="graph0" class="graph" transform="scale(1 1) rotate(0) translate(4 62)">
<title>Countdown::reset</title>
<!-- Node1 -->
<g id="node1" class="node">
<title>Node1</title>
<g id="a_node1"><a xlink:title="Reset countdown (reset.">
<polygon fill="#bfbfbf" stroke="black" points="439,-19.5 439,-38.5 533,-38.5 533,-19.5 439,-19.5"/>
<text text-anchor="middle" x="486" y="-26.5" font-family="Helvetica,sans-Serif" font-size="10.00">Countdown::reset</text>
</a>
</g>
</g>
<!-- Node2 -->
<g id="node2" class="node">
<title>Node2</title>
<g id="a_node2"><a xlink:href="class_foto_box.html#a78353b51782aab91a0b4eafac67be1c4" target="_top" xlink:title="trigger camera to shot a photo and try to show it">
<polygon fill="none" stroke="black" points="297.5,-38.5 297.5,-57.5 380.5,-57.5 380.5,-38.5 297.5,-38.5"/>
<text text-anchor="middle" x="339" y="-45.5" font-family="Helvetica,sans-Serif" font-size="10.00">FotoBox::photo</text>
</a>
</g>
</g>
<!-- Node1&#45;&gt;Node2 -->
<g id="edge1" class="edge">
<title>Node1&#45;&gt;Node2</title>
<path fill="none" stroke="midnightblue" d="M428.49,-36.4C412.64,-38.48 395.71,-40.7 380.95,-42.63"/>
<polygon fill="midnightblue" stroke="midnightblue" points="429.26,-39.83 438.72,-35.06 428.35,-32.89 429.26,-39.83"/>
</g>
<!-- Node5 -->
<g id="node5" class="node">
<title>Node5</title>
<g id="a_node5"><a xlink:href="class_countdown.html#a2c047ed2997b0d933b18ead33b3a6a5e" target="_top" xlink:title="Set the countdown start time.">
<polygon fill="none" stroke="black" points="275,-0.5 275,-19.5 403,-19.5 403,-0.5 275,-0.5"/>
<text text-anchor="middle" x="339" y="-7.5" font-family="Helvetica,sans-Serif" font-size="10.00">Countdown::setStartTime</text>
</a>
</g>
</g>
<!-- Node1&#45;&gt;Node5 -->
<g id="edge5" class="edge">
<title>Node1&#45;&gt;Node5</title>
<path fill="none" stroke="midnightblue" d="M428.66,-21.62C420.26,-20.52 411.55,-19.38 403.03,-18.26"/>
<polygon fill="midnightblue" stroke="midnightblue" points="428.35,-25.11 438.72,-22.94 429.26,-18.17 428.35,-25.11"/>
</g>
<!-- Node3 -->
<g id="node3" class="node">
<title>Node3</title>
<g id="a_node3"><a xlink:href="class_foto_box.html#ab6131adb44137e55734eb8bb0672fd38" target="_top" xlink:title="With or without countdown.">
<polygon fill="none" stroke="black" points="132,-38.5 132,-57.5 239,-57.5 239,-38.5 132,-38.5"/>
<text text-anchor="middle" x="185.5" y="-45.5" font-family="Helvetica,sans-Serif" font-size="10.00">FotoBox::countdown</text>
</a>
</g>
</g>
<!-- Node2&#45;&gt;Node3 -->
<g id="edge2" class="edge">
<title>Node2&#45;&gt;Node3</title>
<path fill="none" stroke="midnightblue" d="M287.03,-41.58C271.63,-41.16 254.71,-41.14 239.2,-41.54"/>
<polygon fill="midnightblue" stroke="midnightblue" points="287.29,-45.09 297.4,-41.94 287.53,-38.1 287.29,-45.09"/>
</g>
<!-- Node3&#45;&gt;Node2 -->
<g id="edge4" class="edge">
<title>Node3&#45;&gt;Node2</title>
<path fill="none" stroke="midnightblue" d="M249.2,-54.66C265.48,-54.89 282.59,-54.69 297.4,-54.06"/>
<polygon fill="midnightblue" stroke="midnightblue" points="249.27,-51.16 239.2,-54.46 249.13,-58.16 249.27,-51.16"/>
</g>
<!-- Node4 -->
<g id="node4" class="node">
<title>Node4</title>
<g id="a_node4"><a xlink:href="class_foto_box.html#a7e0a5334bb6ff5f26443c422dae22d54" target="_top" xlink:title="FotoBox constructor.">
<polygon fill="none" stroke="black" points="0,-38.5 0,-57.5 96,-57.5 96,-38.5 0,-38.5"/>
<text text-anchor="middle" x="48" y="-45.5" font-family="Helvetica,sans-Serif" font-size="10.00">FotoBox::FotoBox</text>
</a>
</g>
</g>
<!-- Node3&#45;&gt;Node4 -->
<g id="edge3" class="edge">
<title>Node3&#45;&gt;Node4</title>
<path fill="none" stroke="midnightblue" d="M121.7,-48C113.09,-48 104.38,-48 96.11,-48"/>
<polygon fill="midnightblue" stroke="midnightblue" points="121.72,-51.5 131.72,-48 121.72,-44.5 121.72,-51.5"/>
</g>
<!-- Node5&#45;&gt;Node3 -->
<g id="edge6" class="edge">
<title>Node5&#45;&gt;Node3</title>
<path fill="none" stroke="midnightblue" d="M290,-22.04C268.83,-27.35 244.31,-33.5 224.45,-38.48"/>
<polygon fill="midnightblue" stroke="midnightblue" points="290.92,-25.42 299.77,-19.59 289.22,-18.63 290.92,-25.42"/>
</g>
</g>
</svg>
