<?xml version="1.0" encoding="UTF-8" standalone="no"?>
<!DOCTYPE svg PUBLIC "-//W3C//DTD SVG 1.1//EN"
 "http://www.w3.org/Graphics/SVG/1.1/DTD/svg11.dtd">
<!-- Generated by graphviz version 2.46.1 (20210213.1702)
 -->
<!-- Title: FotoBox::startBuzzer Pages: 1 -->
<svg width="512pt" height="66pt"
 viewBox="0.00 0.00 512.00 66.00" xmlns="http://www.w3.org/2000/svg" xmlns:xlink="http://www.w3.org/1999/xlink">
<g id="graph0" class="graph" transform="scale(1 1) rotate(0) translate(4 62)">
<title>FotoBox::startBuzzer</title>
<!-- Node1 -->
<g id="node1" class="node">
<title>Node1</title>
<g id="a_node1"><a xlink:title="signal: start query pin with Buzzer class">
<polygon fill="#bfbfbf" stroke="black" points="394,-19.5 394,-38.5 504,-38.5 504,-19.5 394,-19.5"/>
<text text-anchor="middle" x="449" y="-26.5" font-family="Helvetica,sans-Serif" font-size="10.00">FotoBox::startBuzzer</text>
</a>
</g>
</g>
<!-- Node2 -->
<g id="node2" class="node">
<title>Node2</title>
<g id="a_node2"><a xlink:href="class_foto_box.html#a243e47139b6e47ac86068bbbb9785ff3" target="_top" xlink:title="creates a new Buzzer object">
<polygon fill="none" stroke="black" points="141,-38.5 141,-57.5 230,-57.5 230,-38.5 141,-38.5"/>
<text text-anchor="middle" x="185.5" y="-45.5" font-family="Helvetica,sans-Serif" font-size="10.00">FotoBox::buzzer</text>
</a>
</g>
</g>
<!-- Node1&#45;&gt;Node2 -->
<g id="edge1" class="edge">
<title>Node1&#45;&gt;Node2</title>
<path fill="none" stroke="midnightblue" d="M383.59,-33.68C335.87,-37.15 272.13,-41.78 230.22,-44.82"/>
<polygon fill="midnightblue" stroke="midnightblue" points="384.1,-37.15 393.82,-32.94 383.59,-30.17 384.1,-37.15"/>
</g>
<!-- Node4 -->
<g id="node4" class="node">
<title>Node4</title>
<g id="a_node4"><a xlink:href="class_foto_box.html#a78353b51782aab91a0b4eafac67be1c4" target="_top" xlink:title="trigger camera to shot a photo and try to show it">
<polygon fill="none" stroke="black" points="275,-0.5 275,-19.5 358,-19.5 358,-0.5 275,-0.5"/>
<text text-anchor="middle" x="316.5" y="-7.5" font-family="Helvetica,sans-Serif" font-size="10.00">FotoBox::photo</text>
</a>
</g>
</g>
<!-- Node1&#45;&gt;Node4 -->
<g id="edge3" class="edge">
<title>Node1&#45;&gt;Node4</title>
<path fill="none" stroke="midnightblue" d="M383.66,-19.63C374.99,-18.37 366.31,-17.11 358.21,-15.93"/>
<polygon fill="midnightblue" stroke="midnightblue" points="383.39,-23.13 393.79,-21.11 384.4,-16.2 383.39,-23.13"/>
</g>
<!-- Node3 -->
<g id="node3" class="node">
<title>Node3</title>
<g id="a_node3"><a xlink:href="class_foto_box.html#a7e0a5334bb6ff5f26443c422dae22d54" target="_top" xlink:title="FotoBox constructor.">
<polygon fill="none" stroke="black" points="0,-19.5 0,-38.5 96,-38.5 96,-19.5 0,-19.5"/>
<text text-anchor="middle" x="48" y="-26.5" font-family="Helvetica,sans-Serif" font-size="10.00">FotoBox::FotoBox</text>
</a>
</g>
</g>
<!-- Node2&#45;&gt;Node3 -->
<g id="edge2" class="edge">
<title>Node2&#45;&gt;Node3</title>
<path fill="none" stroke="midnightblue" d="M130.64,-40.45C119.28,-38.86 107.38,-37.19 96.28,-35.63"/>
<polygon fill="midnightblue" stroke="midnightblue" points="130.49,-43.96 140.88,-41.88 131.46,-37.03 130.49,-43.96"/>
</g>
<!-- Node5 -->
<g id="node5" class="node">
<title>Node5</title>
<g id="a_node5"><a xlink:href="class_foto_box.html#ab6131adb44137e55734eb8bb0672fd38" target="_top" xlink:title="With or without countdown.">
<polygon fill="none" stroke="black" points="132,-0.5 132,-19.5 239,-19.5 239,-0.5 132,-0.5"/>
<text text-anchor="middle" x="185.5" y="-7.5" font-family="Helvetica,sans-Serif" font-size="10.00">FotoBox::countdown</text>
</a>
</g>
</g>
<!-- Node4&#45;&gt;Node5 -->
<g id="edge4" class="edge">
<title>Node4&#45;&gt;Node5</title>
<path fill="none" stroke="midnightblue" d="M264.44,-3.38C256.19,-3.22 247.63,-3.21 239.34,-3.35"/>
<polygon fill="midnightblue" stroke="midnightblue" points="264.59,-6.89 274.68,-3.67 264.79,0.11 264.59,-6.89"/>
</g>
<!-- Node5&#45;&gt;Node3 -->
<g id="edge5" class="edge">
<title>Node5&#45;&gt;Node3</title>
<path fill="none" stroke="midnightblue" d="M121.7,-18.81C113.09,-20.01 104.38,-21.23 96.11,-22.39"/>
<polygon fill="midnightblue" stroke="midnightblue" points="122.31,-22.26 131.72,-17.4 121.34,-15.32 122.31,-22.26"/>
</g>
<!-- Node5&#45;&gt;Node4 -->
<g id="edge6" class="edge">
<title>Node5&#45;&gt;Node4</title>
<path fill="none" stroke="midnightblue" d="M249.38,-16.75C257.98,-16.77 266.62,-16.63 274.68,-16.33"/>
<polygon fill="midnightblue" stroke="midnightblue" points="249.37,-13.25 239.34,-16.65 249.31,-20.25 249.37,-13.25"/>
</g>
</g>
</svg>
