<?xml version="1.0" encoding="UTF-8" standalone="no"?>
<!DOCTYPE svg PUBLIC "-//W3C//DTD SVG 1.1//EN"
 "http://www.w3.org/Graphics/SVG/1.1/DTD/svg11.dtd">
<!-- Generated by graphviz version 2.46.1 (20210213.1702)
 -->
<!-- Title: countdown.h Pages: 1 -->
<svg width="389pt" height="140pt"
 viewBox="0.00 0.00 389.00 140.00" xmlns="http://www.w3.org/2000/svg" xmlns:xlink="http://www.w3.org/1999/xlink">
<g id="graph0" class="graph" transform="scale(1 1) rotate(0) translate(4 136)">
<title>countdown.h</title>
<!-- Node1 -->
<g id="node1" class="node">
<title>Node1</title>
<g id="a_node1"><a xlink:title=" ">
<polygon fill="#bfbfbf" stroke="black" points="103.5,-112.5 103.5,-131.5 175.5,-131.5 175.5,-112.5 103.5,-112.5"/>
<text text-anchor="middle" x="139.5" y="-119.5" font-family="Helvetica,sans-Serif" font-size="10.00">countdown.h</text>
</a>
</g>
</g>
<!-- Node2 -->
<g id="node2" class="node">
<title>Node2</title>
<g id="a_node2"><a xlink:href="countdown_8cpp.html" target="_top" xlink:title=" ">
<polygon fill="none" stroke="black" points="0,-56.5 0,-75.5 83,-75.5 83,-56.5 0,-56.5"/>
<text text-anchor="middle" x="41.5" y="-63.5" font-family="Helvetica,sans-Serif" font-size="10.00">countdown.cpp</text>
</a>
</g>
</g>
<!-- Node1&#45;&gt;Node2 -->
<g id="edge1" class="edge">
<title>Node1&#45;&gt;Node2</title>
<path fill="none" stroke="midnightblue" d="M114.91,-107.45C96.82,-97.48 72.77,-84.23 57.21,-75.65"/>
<polygon fill="midnightblue" stroke="midnightblue" points="113.31,-110.56 123.75,-112.32 116.69,-104.43 113.31,-110.56"/>
</g>
<!-- Node3 -->
<g id="node3" class="node">
<title>Node3</title>
<g id="a_node3"><a xlink:href="fotobox_8h.html" target="_top" xlink:title=" ">
<polygon fill="none" stroke="black" points="201,-56.5 201,-75.5 258,-75.5 258,-56.5 201,-56.5"/>
<text text-anchor="middle" x="229.5" y="-63.5" font-family="Helvetica,sans-Serif" font-size="10.00">fotobox.h</text>
</a>
</g>
</g>
<!-- Node1&#45;&gt;Node3 -->
<g id="edge2" class="edge">
<title>Node1&#45;&gt;Node3</title>
<path fill="none" stroke="midnightblue" d="M162.54,-107.18C179.1,-97.24 200.92,-84.15 215.08,-75.65"/>
<polygon fill="midnightblue" stroke="midnightblue" points="160.73,-104.18 153.96,-112.32 164.34,-110.18 160.73,-104.18"/>
</g>
<!-- Node7 -->
<g id="node7" class="node">
<title>Node7</title>
<g id="a_node7"><a xlink:href="preferences_8h.html" target="_top" xlink:title=" ">
<polygon fill="none" stroke="black" points="101.5,-56.5 101.5,-75.5 177.5,-75.5 177.5,-56.5 101.5,-56.5"/>
<text text-anchor="middle" x="139.5" y="-63.5" font-family="Helvetica,sans-Serif" font-size="10.00">preferences.h</text>
</a>
</g>
</g>
<!-- Node1&#45;&gt;Node7 -->
<g id="edge6" class="edge">
<title>Node1&#45;&gt;Node7</title>
<path fill="none" stroke="midnightblue" d="M139.5,-101.8C139.5,-92.91 139.5,-82.78 139.5,-75.75"/>
<polygon fill="midnightblue" stroke="midnightblue" points="136,-102.08 139.5,-112.08 143,-102.08 136,-102.08"/>
</g>
<!-- Node4 -->
<g id="node4" class="node">
<title>Node4</title>
<g id="a_node4"><a xlink:href="fotobox_8cpp.html" target="_top" xlink:title=" ">
<polygon fill="none" stroke="black" points="103.5,-0.5 103.5,-19.5 171.5,-19.5 171.5,-0.5 103.5,-0.5"/>
<text text-anchor="middle" x="137.5" y="-7.5" font-family="Helvetica,sans-Serif" font-size="10.00">fotobox.cpp</text>
</a>
</g>
</g>
<!-- Node3&#45;&gt;Node4 -->
<g id="edge3" class="edge">
<title>Node3&#45;&gt;Node4</title>
<path fill="none" stroke="midnightblue" d="M205.95,-51.18C189.02,-41.24 166.72,-28.15 152.24,-19.65"/>
<polygon fill="midnightblue" stroke="midnightblue" points="204.32,-54.28 214.72,-56.32 207.87,-48.24 204.32,-54.28"/>
</g>
<!-- Node5 -->
<g id="node5" class="node">
<title>Node5</title>
<g id="a_node5"><a xlink:href="fotoboxmac_8mm.html" target="_top" xlink:title=" ">
<polygon fill="none" stroke="black" points="294,-0.5 294,-19.5 381,-19.5 381,-0.5 294,-0.5"/>
<text text-anchor="middle" x="337.5" y="-7.5" font-family="Helvetica,sans-Serif" font-size="10.00">fotoboxmac.mm</text>
</a>
</g>
</g>
<!-- Node3&#45;&gt;Node5 -->
<g id="edge4" class="edge">
<title>Node3&#45;&gt;Node5</title>
<path fill="none" stroke="midnightblue" d="M256.05,-51.73C276.05,-41.73 302.89,-28.31 320.19,-19.65"/>
<polygon fill="midnightblue" stroke="midnightblue" points="254.23,-48.72 246.85,-56.32 257.36,-54.98 254.23,-48.72"/>
</g>
<!-- Node6 -->
<g id="node6" class="node">
<title>Node6</title>
<g id="a_node6"><a xlink:href="preferences_8cpp.html" target="_top" xlink:title=" ">
<polygon fill="none" stroke="black" points="189.5,-0.5 189.5,-19.5 275.5,-19.5 275.5,-0.5 189.5,-0.5"/>
<text text-anchor="middle" x="232.5" y="-7.5" font-family="Helvetica,sans-Serif" font-size="10.00">preferences.cpp</text>
</a>
</g>
</g>
<!-- Node3&#45;&gt;Node6 -->
<g id="edge5" class="edge">
<title>Node3&#45;&gt;Node6</title>
<path fill="none" stroke="midnightblue" d="M230.57,-45.8C231.06,-36.91 231.62,-26.78 232.01,-19.75"/>
<polygon fill="midnightblue" stroke="midnightblue" points="227.06,-45.9 230,-56.08 234.04,-46.29 227.06,-45.9"/>
</g>
<!-- Node7&#45;&gt;Node4 -->
<g id="edge7" class="edge">
<title>Node7&#45;&gt;Node4</title>
<path fill="none" stroke="midnightblue" d="M138.79,-45.8C138.46,-36.91 138.08,-26.78 137.82,-19.75"/>
<polygon fill="midnightblue" stroke="midnightblue" points="135.3,-46.22 139.17,-56.08 142.3,-45.96 135.3,-46.22"/>
</g>
<!-- Node7&#45;&gt;Node6 -->
<g id="edge9" class="edge">
<title>Node7&#45;&gt;Node6</title>
<path fill="none" stroke="midnightblue" d="M163.31,-51.18C180.42,-41.24 202.97,-28.15 217.6,-19.65"/>
<polygon fill="midnightblue" stroke="midnightblue" points="161.33,-48.28 154.44,-56.32 164.85,-54.33 161.33,-48.28"/>
</g>
<!-- Node8 -->
<g id="node8" class="node">
<title>Node8</title>
<g id="a_node8"><a xlink:href="main_8cpp.html" target="_top" xlink:title=" ">
<polygon fill="none" stroke="black" points="29.5,-0.5 29.5,-19.5 85.5,-19.5 85.5,-0.5 29.5,-0.5"/>
<text text-anchor="middle" x="57.5" y="-7.5" font-family="Helvetica,sans-Serif" font-size="10.00">main.cpp</text>
</a>
</g>
</g>
<!-- Node7&#45;&gt;Node8 -->
<g id="edge8" class="edge">
<title>Node7&#45;&gt;Node8</title>
<path fill="none" stroke="midnightblue" d="M117.67,-50.62C102.69,-40.76 83.3,-27.99 70.64,-19.65"/>
<polygon fill="midnightblue" stroke="midnightblue" points="116.05,-53.75 126.33,-56.32 119.9,-47.9 116.05,-53.75"/>
</g>
</g>
</svg>
