<?xml version="1.0" encoding="UTF-8" standalone="no"?>
<!DOCTYPE svg PUBLIC "-//W3C//DTD SVG 1.1//EN"
 "http://www.w3.org/Graphics/SVG/1.1/DTD/svg11.dtd">
<!-- Generated by graphviz version 2.43.0 (0)
 -->
<!-- Title: countdown.h Pages: 1 -->
<svg width="422pt" height="140pt"
 viewBox="0.00 0.00 422.00 140.00" xmlns="http://www.w3.org/2000/svg" xmlns:xlink="http://www.w3.org/1999/xlink">
<g id="graph0" class="graph" transform="scale(1 1) rotate(0) translate(4 136)">
<title>countdown.h</title>
<!-- Node1 -->
<g id="node1" class="node">
<title>Node1</title>
<g id="a_node1"><a xlink:title=" ">
<polygon fill="#bfbfbf" stroke="black" points="110.5,-112.5 110.5,-131.5 189.5,-131.5 189.5,-112.5 110.5,-112.5"/>
<text text-anchor="middle" x="150" y="-119.5" font-family="Helvetica,sans-Serif" font-size="10.00">countdown.h</text>
</a>
</g>
</g>
<!-- Node2 -->
<g id="node2" class="node">
<title>Node2</title>
<g id="a_node2"><a xlink:href="countdown_8cpp.html" target="_top" xlink:title=" ">
<polygon fill="none" stroke="black" points="0,-56.5 0,-75.5 90,-75.5 90,-56.5 0,-56.5"/>
<text text-anchor="middle" x="45" y="-63.5" font-family="Helvetica,sans-Serif" font-size="10.00">countdown.cpp</text>
</a>
</g>
</g>
<!-- Node1&#45;&gt;Node2 -->
<g id="edge1" class="edge">
<title>Node1&#45;&gt;Node2</title>
<path fill="none" stroke="midnightblue" d="M124.19,-107.73C104.75,-97.73 78.65,-84.31 61.83,-75.65"/>
<polygon fill="midnightblue" stroke="midnightblue" points="122.64,-110.86 133.13,-112.32 125.84,-104.64 122.64,-110.86"/>
</g>
<!-- Node3 -->
<g id="node3" class="node">
<title>Node3</title>
<g id="a_node3"><a xlink:href="fotobox_8h.html" target="_top" xlink:title=" ">
<polygon fill="none" stroke="black" points="215.5,-56.5 215.5,-75.5 278.5,-75.5 278.5,-56.5 215.5,-56.5"/>
<text text-anchor="middle" x="247" y="-63.5" font-family="Helvetica,sans-Serif" font-size="10.00">fotobox.h</text>
</a>
</g>
</g>
<!-- Node1&#45;&gt;Node3 -->
<g id="edge2" class="edge">
<title>Node1&#45;&gt;Node3</title>
<path fill="none" stroke="midnightblue" d="M174.34,-107.45C192.24,-97.48 216.05,-84.23 231.45,-75.65"/>
<polygon fill="midnightblue" stroke="midnightblue" points="172.62,-104.4 165.58,-112.32 176.02,-110.52 172.62,-104.4"/>
</g>
<!-- Node7 -->
<g id="node7" class="node">
<title>Node7</title>
<g id="a_node7"><a xlink:href="preferences_8h.html" target="_top" xlink:title=" ">
<polygon fill="none" stroke="black" points="108.5,-56.5 108.5,-75.5 191.5,-75.5 191.5,-56.5 108.5,-56.5"/>
<text text-anchor="middle" x="150" y="-63.5" font-family="Helvetica,sans-Serif" font-size="10.00">preferences.h</text>
</a>
</g>
</g>
<!-- Node1&#45;&gt;Node7 -->
<g id="edge6" class="edge">
<title>Node1&#45;&gt;Node7</title>
<path fill="none" stroke="midnightblue" d="M150,-101.8C150,-92.91 150,-82.78 150,-75.75"/>
<polygon fill="midnightblue" stroke="midnightblue" points="146.5,-102.08 150,-112.08 153.5,-102.08 146.5,-102.08"/>
</g>
<!-- Node4 -->
<g id="node4" class="node">
<title>Node4</title>
<g id="a_node4"><a xlink:href="fotobox_8cpp.html" target="_top" xlink:title=" ">
<polygon fill="none" stroke="black" points="110,-0.5 110,-19.5 184,-19.5 184,-0.5 110,-0.5"/>
<text text-anchor="middle" x="147" y="-7.5" font-family="Helvetica,sans-Serif" font-size="10.00">fotobox.cpp</text>
</a>
</g>
</g>
<!-- Node3&#45;&gt;Node4 -->
<g id="edge3" class="edge">
<title>Node3&#45;&gt;Node4</title>
<path fill="none" stroke="midnightblue" d="M221.91,-51.45C203.45,-41.48 178.9,-28.23 163.03,-19.65"/>
<polygon fill="midnightblue" stroke="midnightblue" points="220.47,-54.65 230.93,-56.32 223.8,-48.49 220.47,-54.65"/>
</g>
<!-- Node5 -->
<g id="node5" class="node">
<title>Node5</title>
<g id="a_node5"><a xlink:href="fotoboxmac_8mm.html" target="_top" xlink:title=" ">
<polygon fill="none" stroke="black" points="316,-0.5 316,-19.5 414,-19.5 414,-0.5 316,-0.5"/>
<text text-anchor="middle" x="365" y="-7.5" font-family="Helvetica,sans-Serif" font-size="10.00">fotoboxmac.mm</text>
</a>
</g>
</g>
<!-- Node3&#45;&gt;Node5 -->
<g id="edge4" class="edge">
<title>Node3&#45;&gt;Node5</title>
<path fill="none" stroke="midnightblue" d="M274.9,-52.23C296.97,-42.13 327.18,-28.31 346.39,-19.52"/>
<polygon fill="midnightblue" stroke="midnightblue" points="273.33,-49.1 265.7,-56.44 276.25,-55.46 273.33,-49.1"/>
</g>
<!-- Node6 -->
<g id="node6" class="node">
<title>Node6</title>
<g id="a_node6"><a xlink:href="preferences_8cpp.html" target="_top" xlink:title=" ">
<polygon fill="none" stroke="black" points="202.5,-0.5 202.5,-19.5 297.5,-19.5 297.5,-0.5 202.5,-0.5"/>
<text text-anchor="middle" x="250" y="-7.5" font-family="Helvetica,sans-Serif" font-size="10.00">preferences.cpp</text>
</a>
</g>
</g>
<!-- Node3&#45;&gt;Node6 -->
<g id="edge5" class="edge">
<title>Node3&#45;&gt;Node6</title>
<path fill="none" stroke="midnightblue" d="M248.07,-45.8C248.56,-36.91 249.12,-26.78 249.51,-19.75"/>
<polygon fill="midnightblue" stroke="midnightblue" points="244.56,-45.9 247.5,-56.08 251.54,-46.29 244.56,-45.9"/>
</g>
<!-- Node7&#45;&gt;Node4 -->
<g id="edge7" class="edge">
<title>Node7&#45;&gt;Node4</title>
<path fill="none" stroke="midnightblue" d="M148.93,-45.8C148.44,-36.91 147.88,-26.78 147.49,-19.75"/>
<polygon fill="midnightblue" stroke="midnightblue" points="145.46,-46.29 149.5,-56.08 152.44,-45.9 145.46,-46.29"/>
</g>
<!-- Node7&#45;&gt;Node6 -->
<g id="edge9" class="edge">
<title>Node7&#45;&gt;Node6</title>
<path fill="none" stroke="midnightblue" d="M175.09,-51.45C193.55,-41.48 218.1,-28.23 233.97,-19.65"/>
<polygon fill="midnightblue" stroke="midnightblue" points="173.2,-48.49 166.07,-56.32 176.53,-54.65 173.2,-48.49"/>
</g>
<!-- Node8 -->
<g id="node8" class="node">
<title>Node8</title>
<g id="a_node8"><a xlink:href="main_8cpp.html" target="_top" xlink:title=" ">
<polygon fill="none" stroke="black" points="30,-0.5 30,-19.5 92,-19.5 92,-0.5 30,-0.5"/>
<text text-anchor="middle" x="61" y="-7.5" font-family="Helvetica,sans-Serif" font-size="10.00">main.cpp</text>
</a>
</g>
</g>
<!-- Node7&#45;&gt;Node8 -->
<g id="edge8" class="edge">
<title>Node7&#45;&gt;Node8</title>
<path fill="none" stroke="midnightblue" d="M126.76,-50.9C110.44,-41 89.13,-28.07 75.26,-19.65"/>
<polygon fill="midnightblue" stroke="midnightblue" points="125.34,-54.13 135.7,-56.32 128.97,-48.14 125.34,-54.13"/>
</g>
</g>
</svg>
