<?xml version="1.0" encoding="UTF-8" standalone="no"?>
<!DOCTYPE svg PUBLIC "-//W3C//DTD SVG 1.1//EN"
 "http://www.w3.org/Graphics/SVG/1.1/DTD/svg11.dtd">
<!-- Generated by graphviz version 2.46.1 (20210213.1702)
 -->
<!-- Title: fotobox.h Pages: 1 -->
<svg width="394pt" height="140pt"
 viewBox="0.00 0.00 394.00 140.00" xmlns="http://www.w3.org/2000/svg" xmlns:xlink="http://www.w3.org/1999/xlink">
<g id="graph0" class="graph" transform="scale(1 1) rotate(0) translate(4 136)">
<title>fotobox.h</title>
<!-- Node1 -->
<g id="node1" class="node">
<title>Node1</title>
<g id="a_node1"><a xlink:title=" ">
<polygon fill="#bfbfbf" stroke="black" points="188.5,-112.5 188.5,-131.5 245.5,-131.5 245.5,-112.5 188.5,-112.5"/>
<text text-anchor="middle" x="217" y="-119.5" font-family="Helvetica,sans-Serif" font-size="10.00">fotobox.h</text>
</a>
</g>
</g>
<!-- Node2 -->
<g id="node2" class="node">
<title>Node2</title>
<g id="a_node2"><a xlink:href="buzzer_8h.html" target="_top" xlink:title=" ">
<polygon fill="none" stroke="black" points="190.5,-56.5 190.5,-75.5 243.5,-75.5 243.5,-56.5 190.5,-56.5"/>
<text text-anchor="middle" x="217" y="-63.5" font-family="Helvetica,sans-Serif" font-size="10.00">buzzer.h</text>
</a>
</g>
</g>
<!-- Node1&#45;&gt;Node2 -->
<g id="edge1" class="edge">
<title>Node1&#45;&gt;Node2</title>
<path fill="none" stroke="midnightblue" d="M217,-112.08C217,-105.01 217,-94.86 217,-85.99"/>
<polygon fill="midnightblue" stroke="midnightblue" points="220.5,-85.75 217,-75.75 213.5,-85.75 220.5,-85.75"/>
</g>
<!-- Node5 -->
<g id="node5" class="node">
<title>Node5</title>
<g id="a_node5"><a xlink:href="camera_8h.html" target="_top" xlink:title=" ">
<polygon fill="none" stroke="black" points="24.5,-56.5 24.5,-75.5 81.5,-75.5 81.5,-56.5 24.5,-56.5"/>
<text text-anchor="middle" x="53" y="-63.5" font-family="Helvetica,sans-Serif" font-size="10.00">camera.h</text>
</a>
</g>
</g>
<!-- Node1&#45;&gt;Node5 -->
<g id="edge4" class="edge">
<title>Node1&#45;&gt;Node5</title>
<path fill="none" stroke="midnightblue" d="M191.01,-112.44C163.3,-103.32 119.25,-88.81 88.38,-78.65"/>
<polygon fill="midnightblue" stroke="midnightblue" points="89.46,-75.32 78.86,-75.52 87.27,-81.97 89.46,-75.32"/>
</g>
<!-- Node7 -->
<g id="node7" class="node">
<title>Node7</title>
<g id="a_node7"><a xlink:href="countdown_8h.html" target="_top" xlink:title=" ">
<polygon fill="none" stroke="black" points="100,-56.5 100,-75.5 172,-75.5 172,-56.5 100,-56.5"/>
<text text-anchor="middle" x="136" y="-63.5" font-family="Helvetica,sans-Serif" font-size="10.00">countdown.h</text>
</a>
</g>
</g>
<!-- Node1&#45;&gt;Node7 -->
<g id="edge7" class="edge">
<title>Node1&#45;&gt;Node7</title>
<path fill="none" stroke="midnightblue" d="M203.99,-112.32C191.47,-103.98 172.32,-91.21 157.53,-81.35"/>
<polygon fill="midnightblue" stroke="midnightblue" points="159.24,-78.29 148.98,-75.65 155.36,-84.11 159.24,-78.29"/>
</g>
<!-- Node9 -->
<g id="node9" class="node">
<title>Node9</title>
<g id="a_node9"><a xlink:title=" ">
<polygon fill="none" stroke="#bfbfbf" points="262,-56.5 262,-75.5 314,-75.5 314,-56.5 262,-56.5"/>
<text text-anchor="middle" x="288" y="-63.5" font-family="Helvetica,sans-Serif" font-size="10.00">QDialog</text>
</a>
</g>
</g>
<!-- Node1&#45;&gt;Node9 -->
<g id="edge10" class="edge">
<title>Node1&#45;&gt;Node9</title>
<path fill="none" stroke="midnightblue" d="M228.41,-112.32C239.11,-104.18 255.34,-91.84 268.16,-82.09"/>
<polygon fill="midnightblue" stroke="midnightblue" points="270.54,-84.67 276.39,-75.83 266.31,-79.1 270.54,-84.67"/>
</g>
<!-- Node10 -->
<g id="node10" class="node">
<title>Node10</title>
<g id="a_node10"><a xlink:title=" ">
<polygon fill="none" stroke="#bfbfbf" points="332,-56.5 332,-75.5 386,-75.5 386,-56.5 332,-56.5"/>
<text text-anchor="middle" x="359" y="-63.5" font-family="Helvetica,sans-Serif" font-size="10.00">QThread</text>
</a>
</g>
</g>
<!-- Node1&#45;&gt;Node10 -->
<g id="edge11" class="edge">
<title>Node1&#45;&gt;Node10</title>
<path fill="none" stroke="midnightblue" d="M239.5,-112.44C263.08,-103.48 300.32,-89.31 326.96,-79.18"/>
<polygon fill="midnightblue" stroke="midnightblue" points="328.5,-82.34 336.6,-75.52 326.01,-75.8 328.5,-82.34"/>
</g>
<!-- Node3 -->
<g id="node3" class="node">
<title>Node3</title>
<g id="a_node3"><a xlink:title=" ">
<polygon fill="none" stroke="#bfbfbf" points="78.5,-0.5 78.5,-19.5 131.5,-19.5 131.5,-0.5 78.5,-0.5"/>
<text text-anchor="middle" x="105" y="-7.5" font-family="Helvetica,sans-Serif" font-size="10.00">QObject</text>
</a>
</g>
</g>
<!-- Node2&#45;&gt;Node3 -->
<g id="edge2" class="edge">
<title>Node2&#45;&gt;Node3</title>
<path fill="none" stroke="midnightblue" d="M199.01,-56.32C180.96,-47.62 152.95,-34.12 132.2,-24.11"/>
<polygon fill="midnightblue" stroke="midnightblue" points="133.48,-20.84 122.95,-19.65 130.44,-27.15 133.48,-20.84"/>
</g>
<!-- Node4 -->
<g id="node4" class="node">
<title>Node4</title>
<g id="a_node4"><a xlink:title=" ">
<polygon fill="none" stroke="#bfbfbf" points="217,-0.5 217,-19.5 263,-19.5 263,-0.5 217,-0.5"/>
<text text-anchor="middle" x="240" y="-7.5" font-family="Helvetica,sans-Serif" font-size="10.00">atomic</text>
</a>
</g>
</g>
<!-- Node2&#45;&gt;Node4 -->
<g id="edge3" class="edge">
<title>Node2&#45;&gt;Node4</title>
<path fill="none" stroke="midnightblue" d="M220.8,-56.08C223.91,-48.77 228.42,-38.18 232.29,-29.1"/>
<polygon fill="midnightblue" stroke="midnightblue" points="235.57,-30.32 236.27,-19.75 229.13,-27.58 235.57,-30.32"/>
</g>
<!-- Node5&#45;&gt;Node3 -->
<g id="edge5" class="edge">
<title>Node5&#45;&gt;Node3</title>
<path fill="none" stroke="midnightblue" d="M61.59,-56.08C69.16,-48.22 80.38,-36.57 89.51,-27.08"/>
<polygon fill="midnightblue" stroke="midnightblue" points="92.16,-29.38 96.57,-19.75 87.12,-24.53 92.16,-29.38"/>
</g>
<!-- Node6 -->
<g id="node6" class="node">
<title>Node6</title>
<g id="a_node6"><a xlink:title=" ">
<polygon fill="none" stroke="#bfbfbf" points="0,-0.5 0,-19.5 60,-19.5 60,-0.5 0,-0.5"/>
<text text-anchor="middle" x="30" y="-7.5" font-family="Helvetica,sans-Serif" font-size="10.00">QProcess</text>
</a>
</g>
</g>
<!-- Node5&#45;&gt;Node6 -->
<g id="edge6" class="edge">
<title>Node5&#45;&gt;Node6</title>
<path fill="none" stroke="midnightblue" d="M49.2,-56.08C46.09,-48.77 41.58,-38.18 37.71,-29.1"/>
<polygon fill="midnightblue" stroke="midnightblue" points="40.87,-27.58 33.73,-19.75 34.43,-30.32 40.87,-27.58"/>
</g>
<!-- Node7&#45;&gt;Node3 -->
<g id="edge8" class="edge">
<title>Node7&#45;&gt;Node3</title>
<path fill="none" stroke="midnightblue" d="M130.88,-56.08C126.59,-48.61 120.34,-37.72 115.06,-28.52"/>
<polygon fill="midnightblue" stroke="midnightblue" points="118.04,-26.68 110.02,-19.75 111.97,-30.17 118.04,-26.68"/>
</g>
<!-- Node8 -->
<g id="node8" class="node">
<title>Node8</title>
<g id="a_node8"><a xlink:title=" ">
<polygon fill="none" stroke="#bfbfbf" points="149.5,-0.5 149.5,-19.5 198.5,-19.5 198.5,-0.5 149.5,-0.5"/>
<text text-anchor="middle" x="174" y="-7.5" font-family="Helvetica,sans-Serif" font-size="10.00">QTimer</text>
</a>
</g>
</g>
<!-- Node7&#45;&gt;Node8 -->
<g id="edge9" class="edge">
<title>Node7&#45;&gt;Node8</title>
<path fill="none" stroke="midnightblue" d="M142.27,-56.08C147.64,-48.46 155.52,-37.26 162.08,-27.94"/>
<polygon fill="midnightblue" stroke="midnightblue" points="164.95,-29.94 167.84,-19.75 159.22,-25.91 164.95,-29.94"/>
</g>
</g>
</svg>
