<?xml version="1.0" encoding="UTF-8" standalone="no"?>
<!DOCTYPE svg PUBLIC "-//W3C//DTD SVG 1.1//EN"
 "http://www.w3.org/Graphics/SVG/1.1/DTD/svg11.dtd">
<!-- Generated by graphviz version 2.43.0 (0)
 -->
<!-- Title: fotoboxmac.mm Pages: 1 -->
<svg width="516pt" height="196pt"
 viewBox="0.00 0.00 515.50 196.00" xmlns="http://www.w3.org/2000/svg" xmlns:xlink="http://www.w3.org/1999/xlink">
<g id="graph0" class="graph" transform="scale(1 1) rotate(0) translate(4 192)">
<title>fotoboxmac.mm</title>
<!-- Node1 -->
<g id="node1" class="node">
<title>Node1</title>
<g id="a_node1"><a xlink:title=" ">
<polygon fill="#bfbfbf" stroke="black" points="278,-168.5 278,-187.5 376,-187.5 376,-168.5 278,-168.5"/>
<text text-anchor="middle" x="327" y="-175.5" font-family="Helvetica,sans-Serif" font-size="10.00">fotoboxmac.mm</text>
</a>
</g>
</g>
<!-- Node2 -->
<g id="node2" class="node">
<title>Node2</title>
<g id="a_node2"><a xlink:href="fotobox_8h.html" target="_top" xlink:title=" ">
<polygon fill="none" stroke="black" points="196.5,-112.5 196.5,-131.5 259.5,-131.5 259.5,-112.5 196.5,-112.5"/>
<text text-anchor="middle" x="228" y="-119.5" font-family="Helvetica,sans-Serif" font-size="10.00">fotobox.h</text>
</a>
</g>
</g>
<!-- Node1&#45;&gt;Node2 -->
<g id="edge1" class="edge">
<title>Node1&#45;&gt;Node2</title>
<path fill="none" stroke="midnightblue" d="M311.09,-168.32C295.36,-159.74 271.06,-146.49 252.79,-136.52"/>
<polygon fill="midnightblue" stroke="midnightblue" points="254.32,-133.37 243.87,-131.65 250.97,-139.52 254.32,-133.37"/>
</g>
<!-- Node12 -->
<g id="node12" class="node">
<title>Node12</title>
<g id="a_node12"><a xlink:title=" ">
<polygon fill="none" stroke="#bfbfbf" points="278,-112.5 278,-131.5 376,-131.5 376,-112.5 278,-112.5"/>
<text text-anchor="middle" x="327" y="-119.5" font-family="Helvetica,sans-Serif" font-size="10.00">AppKit/NSView.h</text>
</a>
</g>
</g>
<!-- Node1&#45;&gt;Node12 -->
<g id="edge13" class="edge">
<title>Node1&#45;&gt;Node12</title>
<path fill="none" stroke="midnightblue" d="M327,-168.08C327,-161.01 327,-150.86 327,-141.99"/>
<polygon fill="midnightblue" stroke="midnightblue" points="330.5,-141.75 327,-131.75 323.5,-141.75 330.5,-141.75"/>
</g>
<!-- Node13 -->
<g id="node13" class="node">
<title>Node13</title>
<g id="a_node13"><a xlink:title=" ">
<polygon fill="none" stroke="#bfbfbf" points="394.5,-112.5 394.5,-131.5 507.5,-131.5 507.5,-112.5 394.5,-112.5"/>
<text text-anchor="middle" x="451" y="-119.5" font-family="Helvetica,sans-Serif" font-size="10.00">AppKit/NSWindow.h</text>
</a>
</g>
</g>
<!-- Node1&#45;&gt;Node13 -->
<g id="edge14" class="edge">
<title>Node1&#45;&gt;Node13</title>
<path fill="none" stroke="midnightblue" d="M346.65,-168.44C366.96,-159.6 398.9,-145.69 422.1,-135.59"/>
<polygon fill="midnightblue" stroke="midnightblue" points="423.67,-138.72 431.44,-131.52 420.88,-132.3 423.67,-138.72"/>
</g>
<!-- Node3 -->
<g id="node3" class="node">
<title>Node3</title>
<g id="a_node3"><a xlink:href="buzzer_8h.html" target="_top" xlink:title=" ">
<polygon fill="none" stroke="black" points="199.5,-56.5 199.5,-75.5 256.5,-75.5 256.5,-56.5 199.5,-56.5"/>
<text text-anchor="middle" x="228" y="-63.5" font-family="Helvetica,sans-Serif" font-size="10.00">buzzer.h</text>
</a>
</g>
</g>
<!-- Node2&#45;&gt;Node3 -->
<g id="edge2" class="edge">
<title>Node2&#45;&gt;Node3</title>
<path fill="none" stroke="midnightblue" d="M228,-112.08C228,-105.01 228,-94.86 228,-85.99"/>
<polygon fill="midnightblue" stroke="midnightblue" points="231.5,-85.75 228,-75.75 224.5,-85.75 231.5,-85.75"/>
</g>
<!-- Node6 -->
<g id="node6" class="node">
<title>Node6</title>
<g id="a_node6"><a xlink:href="camera_8h.html" target="_top" xlink:title=" ">
<polygon fill="none" stroke="black" points="22,-56.5 22,-75.5 84,-75.5 84,-56.5 22,-56.5"/>
<text text-anchor="middle" x="53" y="-63.5" font-family="Helvetica,sans-Serif" font-size="10.00">camera.h</text>
</a>
</g>
</g>
<!-- Node2&#45;&gt;Node6 -->
<g id="edge5" class="edge">
<title>Node2&#45;&gt;Node6</title>
<path fill="none" stroke="midnightblue" d="M200.27,-112.44C170.57,-103.28 123.28,-88.69 90.33,-78.52"/>
<polygon fill="midnightblue" stroke="midnightblue" points="91.19,-75.12 80.6,-75.52 89.12,-81.81 91.19,-75.12"/>
</g>
<!-- Node8 -->
<g id="node8" class="node">
<title>Node8</title>
<g id="a_node8"><a xlink:href="countdown_8h.html" target="_top" xlink:title=" ">
<polygon fill="none" stroke="black" points="102.5,-56.5 102.5,-75.5 181.5,-75.5 181.5,-56.5 102.5,-56.5"/>
<text text-anchor="middle" x="142" y="-63.5" font-family="Helvetica,sans-Serif" font-size="10.00">countdown.h</text>
</a>
</g>
</g>
<!-- Node2&#45;&gt;Node8 -->
<g id="edge8" class="edge">
<title>Node2&#45;&gt;Node8</title>
<path fill="none" stroke="midnightblue" d="M214.18,-112.32C200.77,-103.9 180.18,-90.97 164.41,-81.07"/>
<polygon fill="midnightblue" stroke="midnightblue" points="166.11,-78.01 155.78,-75.65 162.39,-83.94 166.11,-78.01"/>
</g>
<!-- Node10 -->
<g id="node10" class="node">
<title>Node10</title>
<g id="a_node10"><a xlink:title=" ">
<polygon fill="none" stroke="#bfbfbf" points="275,-56.5 275,-75.5 331,-75.5 331,-56.5 275,-56.5"/>
<text text-anchor="middle" x="303" y="-63.5" font-family="Helvetica,sans-Serif" font-size="10.00">QDialog</text>
</a>
</g>
</g>
<!-- Node2&#45;&gt;Node10 -->
<g id="edge11" class="edge">
<title>Node2&#45;&gt;Node10</title>
<path fill="none" stroke="midnightblue" d="M240.05,-112.32C251.46,-104.11 268.83,-91.6 282.43,-81.81"/>
<polygon fill="midnightblue" stroke="midnightblue" points="284.66,-84.52 290.73,-75.83 280.57,-78.84 284.66,-84.52"/>
</g>
<!-- Node11 -->
<g id="node11" class="node">
<title>Node11</title>
<g id="a_node11"><a xlink:title=" ">
<polygon fill="none" stroke="#bfbfbf" points="349,-56.5 349,-75.5 407,-75.5 407,-56.5 349,-56.5"/>
<text text-anchor="middle" x="378" y="-63.5" font-family="Helvetica,sans-Serif" font-size="10.00">QThread</text>
</a>
</g>
</g>
<!-- Node2&#45;&gt;Node11 -->
<g id="edge12" class="edge">
<title>Node2&#45;&gt;Node11</title>
<path fill="none" stroke="midnightblue" d="M251.77,-112.44C276.89,-103.4 316.71,-89.06 344.9,-78.92"/>
<polygon fill="midnightblue" stroke="midnightblue" points="346.12,-82.2 354.34,-75.52 343.75,-75.61 346.12,-82.2"/>
</g>
<!-- Node4 -->
<g id="node4" class="node">
<title>Node4</title>
<g id="a_node4"><a xlink:title=" ">
<polygon fill="none" stroke="#bfbfbf" points="80,-0.5 80,-19.5 136,-19.5 136,-0.5 80,-0.5"/>
<text text-anchor="middle" x="108" y="-7.5" font-family="Helvetica,sans-Serif" font-size="10.00">QObject</text>
</a>
</g>
</g>
<!-- Node3&#45;&gt;Node4 -->
<g id="edge3" class="edge">
<title>Node3&#45;&gt;Node4</title>
<path fill="none" stroke="midnightblue" d="M208.99,-56.44C189.41,-47.64 158.69,-33.81 136.27,-23.72"/>
<polygon fill="midnightblue" stroke="midnightblue" points="137.48,-20.43 126.93,-19.52 134.61,-26.81 137.48,-20.43"/>
</g>
<!-- Node5 -->
<g id="node5" class="node">
<title>Node5</title>
<g id="a_node5"><a xlink:title=" ">
<polygon fill="none" stroke="#bfbfbf" points="226,-0.5 226,-19.5 276,-19.5 276,-0.5 226,-0.5"/>
<text text-anchor="middle" x="251" y="-7.5" font-family="Helvetica,sans-Serif" font-size="10.00">atomic</text>
</a>
</g>
</g>
<!-- Node3&#45;&gt;Node5 -->
<g id="edge4" class="edge">
<title>Node3&#45;&gt;Node5</title>
<path fill="none" stroke="midnightblue" d="M231.8,-56.08C234.91,-48.77 239.42,-38.18 243.29,-29.1"/>
<polygon fill="midnightblue" stroke="midnightblue" points="246.57,-30.32 247.27,-19.75 240.13,-27.58 246.57,-30.32"/>
</g>
<!-- Node6&#45;&gt;Node4 -->
<g id="edge6" class="edge">
<title>Node6&#45;&gt;Node4</title>
<path fill="none" stroke="midnightblue" d="M62.08,-56.08C70.17,-48.14 82.2,-36.34 91.91,-26.8"/>
<polygon fill="midnightblue" stroke="midnightblue" points="94.4,-29.25 99.09,-19.75 89.5,-24.26 94.4,-29.25"/>
</g>
<!-- Node7 -->
<g id="node7" class="node">
<title>Node7</title>
<g id="a_node7"><a xlink:title=" ">
<polygon fill="none" stroke="#bfbfbf" points="0,-0.5 0,-19.5 62,-19.5 62,-0.5 0,-0.5"/>
<text text-anchor="middle" x="31" y="-7.5" font-family="Helvetica,sans-Serif" font-size="10.00">QProcess</text>
</a>
</g>
</g>
<!-- Node6&#45;&gt;Node7 -->
<g id="edge7" class="edge">
<title>Node6&#45;&gt;Node7</title>
<path fill="none" stroke="midnightblue" d="M49.37,-56.08C46.39,-48.77 42.07,-38.18 38.38,-29.1"/>
<polygon fill="midnightblue" stroke="midnightblue" points="41.58,-27.69 34.57,-19.75 35.1,-30.33 41.58,-27.69"/>
</g>
<!-- Node8&#45;&gt;Node4 -->
<g id="edge9" class="edge">
<title>Node8&#45;&gt;Node4</title>
<path fill="none" stroke="midnightblue" d="M136.39,-56.08C131.63,-48.53 124.68,-37.49 118.85,-28.23"/>
<polygon fill="midnightblue" stroke="midnightblue" points="121.8,-26.35 113.51,-19.75 115.88,-30.08 121.8,-26.35"/>
</g>
<!-- Node9 -->
<g id="node9" class="node">
<title>Node9</title>
<g id="a_node9"><a xlink:title=" ">
<polygon fill="none" stroke="#bfbfbf" points="154.5,-0.5 154.5,-19.5 207.5,-19.5 207.5,-0.5 154.5,-0.5"/>
<text text-anchor="middle" x="181" y="-7.5" font-family="Helvetica,sans-Serif" font-size="10.00">QTimer</text>
</a>
</g>
</g>
<!-- Node8&#45;&gt;Node9 -->
<g id="edge10" class="edge">
<title>Node8&#45;&gt;Node9</title>
<path fill="none" stroke="midnightblue" d="M148.44,-56.08C153.95,-48.46 162.03,-37.26 168.76,-27.94"/>
<polygon fill="midnightblue" stroke="midnightblue" points="171.66,-29.91 174.68,-19.75 165.99,-25.81 171.66,-29.91"/>
</g>
</g>
</svg>
