<?xml version="1.0" encoding="UTF-8" standalone="no"?>
<!DOCTYPE svg PUBLIC "-//W3C//DTD SVG 1.1//EN"
 "http://www.w3.org/Graphics/SVG/1.1/DTD/svg11.dtd">
<!-- Generated by graphviz version 2.46.1 (20210213.1702)
 -->
<!-- Title: fotobox.cpp Pages: 1 -->
<!--zoomable 196 -->
<svg id="main" version="1.1" xmlns="http://www.w3.org/2000/svg" xmlns:xlink="http://www.w3.org/1999/xlink" xml:space="preserve" onload="init(evt)">
<style type="text/css"><![CDATA[
.edge:hover path { stroke: red; }
.edge:hover polygon { stroke: red; fill: red; }
]]></style>
<script type="text/javascript"><![CDATA[
var edges = document.getElementsByTagName('g');
if (edges && edges.length) {
  for (var i=0;i<edges.length;i++) {
    if (edges[i].id.substr(0,4)=='edge') {
      edges[i].setAttribute('class','edge');
    }
  }
}
]]></script>
        <defs>
                <circle id="rim" cx="0" cy="0" r="7"/>
                <circle id="rim2" cx="0" cy="0" r="3.5"/>
                <g id="zoomPlus">
                        <use xlink:href="#rim" fill="#404040">
                                <set attributeName="fill" to="#808080" begin="zoomplus.mouseover" end="zoomplus.mouseout"/>
                        </use>
                        <path d="M-4,0h8M0,-4v8" fill="none" stroke="white" stroke-width="1.5" pointer-events="none"/>
                </g>
                <g id="zoomMin">
                        <use xlink:href="#rim" fill="#404040">
                                <set attributeName="fill" to="#808080" begin="zoomminus.mouseover" end="zoomminus.mouseout"/>
                        </use>
                        <path d="M-4,0h8" fill="none" stroke="white" stroke-width="1.5" pointer-events="none"/>
                </g>
                <g id="dirArrow">
                        <path fill="none" stroke="white" stroke-width="1.5" d="M0,-3.0v7 M-2.5,-0.5L0,-3.0L2.5,-0.5"/>
                </g>
               <g id="resetDef">
                       <use xlink:href="#rim2" fill="#404040">
                               <set attributeName="fill" to="#808080" begin="reset.mouseover" end="reset.mouseout"/>
                       </use>
               </g>
        </defs>

<script type="text/javascript">
var viewWidth = 791;
var viewHeight = 196;
var sectionId = 'dynsection-0';
</script>
<script xlink:href="svgpan.js"/>
<svg id="graph" class="graph">
<g id="viewport">
<title>fotobox.cpp</title>
<!-- Node1 -->
<g id="node1" class="node">
<title>Node1</title>
<g id="a_node1"><a xlink:title=" ">
<polygon fill="#bfbfbf" stroke="black" points="475,-168.5 475,-187.5 543,-187.5 543,-168.5 475,-168.5"/>
<text text-anchor="middle" x="509" y="-175.5" font-family="Helvetica,sans-Serif" font-size="10.00">fotobox.cpp</text>
</a>
</g>
</g>
<!-- Node2 -->
<g id="node2" class="node">
<title>Node2</title>
<g id="a_node2"><a xlink:href="fotobox_8h.html" target="_top" xlink:title=" ">
<polygon fill="none" stroke="black" points="266.5,-112.5 266.5,-131.5 323.5,-131.5 323.5,-112.5 266.5,-112.5"/>
<text text-anchor="middle" x="295" y="-119.5" font-family="Helvetica,sans-Serif" font-size="10.00">fotobox.h</text>
</a>
</g>
</g>
<!-- Node1&#45;&gt;Node2 -->
<g id="edge1" class="edge">
<title>Node1&#45;&gt;Node2</title>
<path fill="none" stroke="midnightblue" d="M475.09,-168.44C436.52,-158.71 373.68,-142.85 333.35,-132.68"/>
<polygon fill="midnightblue" stroke="midnightblue" points="334.17,-129.27 323.61,-130.22 332.45,-136.06 334.17,-129.27"/>
</g>
<!-- Node12 -->
<g id="node12" class="node">
<title>Node12</title>
<g id="a_node12"><a xlink:href="preferenceprovider_8h.html" target="_top" xlink:title=" ">
<polygon fill="none" stroke="black" points="0,-56.5 0,-75.5 104,-75.5 104,-56.5 0,-56.5"/>
<text text-anchor="middle" x="52" y="-63.5" font-family="Helvetica,sans-Serif" font-size="10.00">preferenceprovider.h</text>
</a>
</g>
</g>
<!-- Node1&#45;&gt;Node12 -->
<g id="edge13" class="edge">
<title>Node1&#45;&gt;Node12</title>
<path fill="none" stroke="midnightblue" d="M474.6,-172.26C425.97,-165.24 334.52,-150.85 258,-132 196.07,-116.74 125.5,-93.07 85.1,-78.89"/>
<polygon fill="midnightblue" stroke="midnightblue" points="86.1,-75.54 75.51,-75.51 83.77,-82.14 86.1,-75.54"/>
</g>
<!-- Node13 -->
<g id="node13" class="node">
<title>Node13</title>
<g id="a_node13"><a xlink:href="preferences_8h.html" target="_top" xlink:title=" ">
<polygon fill="none" stroke="black" points="342,-112.5 342,-131.5 418,-131.5 418,-112.5 342,-112.5"/>
<text text-anchor="middle" x="380" y="-119.5" font-family="Helvetica,sans-Serif" font-size="10.00">preferences.h</text>
</a>
</g>
</g>
<!-- Node1&#45;&gt;Node13 -->
<g id="edge15" class="edge">
<title>Node1&#45;&gt;Node13</title>
<path fill="none" stroke="midnightblue" d="M488.56,-168.44C467.33,-159.56 433.9,-145.56 409.75,-135.45"/>
<polygon fill="midnightblue" stroke="midnightblue" points="410.92,-132.15 400.34,-131.52 408.22,-138.61 410.92,-132.15"/>
</g>
<!-- Node15 -->
<g id="node15" class="node">
<title>Node15</title>
<g id="a_node15"><a xlink:title=" ">
<polygon fill="none" stroke="#bfbfbf" points="436,-112.5 436,-131.5 506,-131.5 506,-112.5 436,-112.5"/>
<text text-anchor="middle" x="471" y="-119.5" font-family="Helvetica,sans-Serif" font-size="10.00">ui_fotobox.h</text>
</a>
</g>
</g>
<!-- Node1&#45;&gt;Node15 -->
<g id="edge19" class="edge">
<title>Node1&#45;&gt;Node15</title>
<path fill="none" stroke="midnightblue" d="M502.73,-168.08C497.36,-160.46 489.48,-149.26 482.92,-139.94"/>
<polygon fill="midnightblue" stroke="midnightblue" points="485.78,-137.91 477.16,-131.75 480.05,-141.94 485.78,-137.91"/>
</g>
<!-- Node16 -->
<g id="node16" class="node">
<title>Node16</title>
<g id="a_node16"><a xlink:title=" ">
<polygon fill="none" stroke="#bfbfbf" points="524.5,-112.5 524.5,-131.5 569.5,-131.5 569.5,-112.5 524.5,-112.5"/>
<text text-anchor="middle" x="547" y="-119.5" font-family="Helvetica,sans-Serif" font-size="10.00">QDate</text>
</a>
</g>
</g>
<!-- Node1&#45;&gt;Node16 -->
<g id="edge20" class="edge">
<title>Node1&#45;&gt;Node16</title>
<path fill="none" stroke="midnightblue" d="M515.27,-168.08C520.64,-160.46 528.52,-149.26 535.08,-139.94"/>
<polygon fill="midnightblue" stroke="midnightblue" points="537.95,-141.94 540.84,-131.75 532.22,-137.91 537.95,-141.94"/>
</g>
<!-- Node17 -->
<g id="node17" class="node">
<title>Node17</title>
<g id="a_node17"><a xlink:title=" ">
<polygon fill="none" stroke="#bfbfbf" points="587.5,-112.5 587.5,-131.5 624.5,-131.5 624.5,-112.5 587.5,-112.5"/>
<text text-anchor="middle" x="606" y="-119.5" font-family="Helvetica,sans-Serif" font-size="10.00">QDir</text>
</a>
</g>
</g>
<!-- Node1&#45;&gt;Node17 -->
<g id="edge21" class="edge">
<title>Node1&#45;&gt;Node17</title>
<path fill="none" stroke="midnightblue" d="M524.58,-168.32C540,-159.74 563.81,-146.49 581.71,-136.52"/>
<polygon fill="midnightblue" stroke="midnightblue" points="583.42,-139.58 590.45,-131.65 580.01,-133.46 583.42,-139.58"/>
</g>
<!-- Node18 -->
<g id="node18" class="node">
<title>Node18</title>
<g id="a_node18"><a xlink:title=" ">
<polygon fill="none" stroke="#bfbfbf" points="642.5,-112.5 642.5,-131.5 709.5,-131.5 709.5,-112.5 642.5,-112.5"/>
<text text-anchor="middle" x="676" y="-119.5" font-family="Helvetica,sans-Serif" font-size="10.00">QKeyEvent</text>
</a>
</g>
</g>
<!-- Node1&#45;&gt;Node18 -->
<g id="edge22" class="edge">
<title>Node1&#45;&gt;Node18</title>
<path fill="none" stroke="midnightblue" d="M535.46,-168.44C563.68,-159.32 608.54,-144.81 639.97,-134.65"/>
<polygon fill="midnightblue" stroke="midnightblue" points="641.22,-137.92 649.66,-131.52 639.07,-131.26 641.22,-137.92"/>
</g>
<!-- Node19 -->
<g id="node19" class="node">
<title>Node19</title>
<g id="a_node19"><a xlink:title=" ">
<polygon fill="none" stroke="#bfbfbf" points="727.5,-112.5 727.5,-131.5 782.5,-131.5 782.5,-112.5 727.5,-112.5"/>
<text text-anchor="middle" x="755" y="-119.5" font-family="Helvetica,sans-Serif" font-size="10.00">QPainter</text>
</a>
</g>
</g>
<!-- Node1&#45;&gt;Node19 -->
<g id="edge23" class="edge">
<title>Node1&#45;&gt;Node19</title>
<path fill="none" stroke="midnightblue" d="M543.27,-170.03C582.96,-161.87 650.54,-147.73 717.28,-132.35"/>
<polygon fill="midnightblue" stroke="midnightblue" points="718.16,-135.74 727.11,-130.07 716.58,-128.92 718.16,-135.74"/>
</g>
<!-- Node3 -->
<g id="node3" class="node">
<title>Node3</title>
<g id="a_node3"><a xlink:href="buzzer_8h.html" target="_top" xlink:title=" ">
<polygon fill="none" stroke="black" points="122.5,-56.5 122.5,-75.5 175.5,-75.5 175.5,-56.5 122.5,-56.5"/>
<text text-anchor="middle" x="149" y="-63.5" font-family="Helvetica,sans-Serif" font-size="10.00">buzzer.h</text>
</a>
</g>
</g>
<!-- Node2&#45;&gt;Node3 -->
<g id="edge2" class="edge">
<title>Node2&#45;&gt;Node3</title>
<path fill="none" stroke="midnightblue" d="M271.87,-112.44C247.52,-103.44 208.99,-89.19 181.58,-79.05"/>
<polygon fill="midnightblue" stroke="midnightblue" points="182.62,-75.7 172.03,-75.52 180.19,-82.27 182.62,-75.7"/>
</g>
<!-- Node6 -->
<g id="node6" class="node">
<title>Node6</title>
<g id="a_node6"><a xlink:href="camera_8h.html" target="_top" xlink:title=" ">
<polygon fill="none" stroke="black" points="266.5,-56.5 266.5,-75.5 323.5,-75.5 323.5,-56.5 266.5,-56.5"/>
<text text-anchor="middle" x="295" y="-63.5" font-family="Helvetica,sans-Serif" font-size="10.00">camera.h</text>
</a>
</g>
</g>
<!-- Node2&#45;&gt;Node6 -->
<g id="edge5" class="edge">
<title>Node2&#45;&gt;Node6</title>
<path fill="none" stroke="midnightblue" d="M295,-112.08C295,-105.01 295,-94.86 295,-85.99"/>
<polygon fill="midnightblue" stroke="midnightblue" points="298.5,-85.75 295,-75.75 291.5,-85.75 298.5,-85.75"/>
</g>
<!-- Node8 -->
<g id="node8" class="node">
<title>Node8</title>
<g id="a_node8"><a xlink:href="countdown_8h.html" target="_top" xlink:title=" ">
<polygon fill="none" stroke="black" points="412,-56.5 412,-75.5 484,-75.5 484,-56.5 412,-56.5"/>
<text text-anchor="middle" x="448" y="-63.5" font-family="Helvetica,sans-Serif" font-size="10.00">countdown.h</text>
</a>
</g>
</g>
<!-- Node2&#45;&gt;Node8 -->
<g id="edge8" class="edge">
<title>Node2&#45;&gt;Node8</title>
<path fill="none" stroke="midnightblue" d="M319.24,-112.44C344.87,-103.4 385.49,-89.06 414.24,-78.92"/>
<polygon fill="midnightblue" stroke="midnightblue" points="415.61,-82.15 423.87,-75.52 413.28,-75.54 415.61,-82.15"/>
</g>
<!-- Node10 -->
<g id="node10" class="node">
<title>Node10</title>
<g id="a_node10"><a xlink:title=" ">
<polygon fill="none" stroke="#bfbfbf" points="342,-56.5 342,-75.5 394,-75.5 394,-56.5 342,-56.5"/>
<text text-anchor="middle" x="368" y="-63.5" font-family="Helvetica,sans-Serif" font-size="10.00">QDialog</text>
</a>
</g>
</g>
<!-- Node2&#45;&gt;Node10 -->
<g id="edge11" class="edge">
<title>Node2&#45;&gt;Node10</title>
<path fill="none" stroke="midnightblue" d="M306.73,-112.32C317.84,-104.11 334.74,-91.6 347.98,-81.81"/>
<polygon fill="midnightblue" stroke="midnightblue" points="350.1,-84.59 356.06,-75.83 345.94,-78.97 350.1,-84.59"/>
</g>
<!-- Node11 -->
<g id="node11" class="node">
<title>Node11</title>
<g id="a_node11"><a xlink:title=" ">
<polygon fill="none" stroke="#bfbfbf" points="194,-56.5 194,-75.5 248,-75.5 248,-56.5 194,-56.5"/>
<text text-anchor="middle" x="221" y="-63.5" font-family="Helvetica,sans-Serif" font-size="10.00">QThread</text>
</a>
</g>
</g>
<!-- Node2&#45;&gt;Node11 -->
<g id="edge12" class="edge">
<title>Node2&#45;&gt;Node11</title>
<path fill="none" stroke="midnightblue" d="M283.11,-112.32C271.85,-104.11 254.71,-91.6 241.29,-81.81"/>
<polygon fill="midnightblue" stroke="midnightblue" points="243.25,-78.9 233.11,-75.83 239.12,-84.56 243.25,-78.9"/>
</g>
<!-- Node4 -->
<g id="node4" class="node">
<title>Node4</title>
<g id="a_node4"><a xlink:title=" ">
<polygon fill="none" stroke="#bfbfbf" points="192.5,-0.5 192.5,-19.5 245.5,-19.5 245.5,-0.5 192.5,-0.5"/>
<text text-anchor="middle" x="219" y="-7.5" font-family="Helvetica,sans-Serif" font-size="10.00">QObject</text>
</a>
</g>
</g>
<!-- Node3&#45;&gt;Node4 -->
<g id="edge3" class="edge">
<title>Node3&#45;&gt;Node4</title>
<path fill="none" stroke="midnightblue" d="M160.25,-56.32C170.8,-48.18 186.8,-35.84 199.44,-26.09"/>
<polygon fill="midnightblue" stroke="midnightblue" points="201.77,-28.71 207.55,-19.83 197.49,-23.17 201.77,-28.71"/>
</g>
<!-- Node5 -->
<g id="node5" class="node">
<title>Node5</title>
<g id="a_node5"><a xlink:title=" ">
<polygon fill="none" stroke="#bfbfbf" points="126,-0.5 126,-19.5 172,-19.5 172,-0.5 126,-0.5"/>
<text text-anchor="middle" x="149" y="-7.5" font-family="Helvetica,sans-Serif" font-size="10.00">atomic</text>
</a>
</g>
</g>
<!-- Node3&#45;&gt;Node5 -->
<g id="edge4" class="edge">
<title>Node3&#45;&gt;Node5</title>
<path fill="none" stroke="midnightblue" d="M149,-56.08C149,-49.01 149,-38.86 149,-29.99"/>
<polygon fill="midnightblue" stroke="midnightblue" points="152.5,-29.75 149,-19.75 145.5,-29.75 152.5,-29.75"/>
</g>
<!-- Node6&#45;&gt;Node4 -->
<g id="edge6" class="edge">
<title>Node6&#45;&gt;Node4</title>
<path fill="none" stroke="midnightblue" d="M282.79,-56.32C271.22,-48.11 253.62,-35.6 239.84,-25.81"/>
<polygon fill="midnightblue" stroke="midnightblue" points="241.61,-22.77 231.43,-19.83 237.56,-28.48 241.61,-22.77"/>
</g>
<!-- Node7 -->
<g id="node7" class="node">
<title>Node7</title>
<g id="a_node7"><a xlink:title=" ">
<polygon fill="none" stroke="#bfbfbf" points="265,-0.5 265,-19.5 325,-19.5 325,-0.5 265,-0.5"/>
<text text-anchor="middle" x="295" y="-7.5" font-family="Helvetica,sans-Serif" font-size="10.00">QProcess</text>
</a>
</g>
</g>
<!-- Node6&#45;&gt;Node7 -->
<g id="edge7" class="edge">
<title>Node6&#45;&gt;Node7</title>
<path fill="none" stroke="midnightblue" d="M295,-56.08C295,-49.01 295,-38.86 295,-29.99"/>
<polygon fill="midnightblue" stroke="midnightblue" points="298.5,-29.75 295,-19.75 291.5,-29.75 298.5,-29.75"/>
</g>
<!-- Node8&#45;&gt;Node4 -->
<g id="edge9" class="edge">
<title>Node8&#45;&gt;Node4</title>
<path fill="none" stroke="midnightblue" d="M411.88,-56.63C373.28,-47.66 310.28,-32.96 256,-20 255.9,-19.98 255.79,-19.95 255.69,-19.93"/>
<polygon fill="midnightblue" stroke="midnightblue" points="256.21,-16.45 245.67,-17.52 254.57,-23.26 256.21,-16.45"/>
</g>
<!-- Node9 -->
<g id="node9" class="node">
<title>Node9</title>
<g id="a_node9"><a xlink:title=" ">
<polygon fill="none" stroke="#bfbfbf" points="423.5,-0.5 423.5,-19.5 472.5,-19.5 472.5,-0.5 423.5,-0.5"/>
<text text-anchor="middle" x="448" y="-7.5" font-family="Helvetica,sans-Serif" font-size="10.00">QTimer</text>
</a>
</g>
</g>
<!-- Node8&#45;&gt;Node9 -->
<g id="edge10" class="edge">
<title>Node8&#45;&gt;Node9</title>
<path fill="none" stroke="midnightblue" d="M448,-56.08C448,-49.01 448,-38.86 448,-29.99"/>
<polygon fill="midnightblue" stroke="midnightblue" points="451.5,-29.75 448,-19.75 444.5,-29.75 451.5,-29.75"/>
</g>
<!-- Node12&#45;&gt;Node4 -->
<g id="edge14" class="edge">
<title>Node12&#45;&gt;Node4</title>
<path fill="none" stroke="midnightblue" d="M78.46,-56.44C106.68,-47.32 151.54,-32.81 182.97,-22.65"/>
<polygon fill="midnightblue" stroke="midnightblue" points="184.22,-25.92 192.66,-19.52 182.07,-19.26 184.22,-25.92"/>
</g>
<!-- Node13&#45;&gt;Node8 -->
<g id="edge16" class="edge">
<title>Node13&#45;&gt;Node8</title>
<path fill="none" stroke="midnightblue" d="M390.93,-112.32C401.17,-104.18 416.72,-91.84 429,-82.09"/>
<polygon fill="midnightblue" stroke="midnightblue" points="431.22,-84.79 436.88,-75.83 426.87,-79.31 431.22,-84.79"/>
</g>
<!-- Node13&#45;&gt;Node10 -->
<g id="edge17" class="edge">
<title>Node13&#45;&gt;Node10</title>
<path fill="none" stroke="midnightblue" d="M378.02,-112.08C376.43,-104.93 374.14,-94.64 372.15,-85.69"/>
<polygon fill="midnightblue" stroke="midnightblue" points="375.53,-84.75 369.94,-75.75 368.7,-86.27 375.53,-84.75"/>
</g>
<!-- Node14 -->
<g id="node14" class="node">
<title>Node14</title>
<g id="a_node14"><a xlink:title=" ">
<polygon fill="none" stroke="#bfbfbf" points="502,-56.5 502,-75.5 562,-75.5 562,-56.5 502,-56.5"/>
<text text-anchor="middle" x="532" y="-63.5" font-family="Helvetica,sans-Serif" font-size="10.00">QSettings</text>
</a>
</g>
</g>
<!-- Node13&#45;&gt;Node14 -->
<g id="edge18" class="edge">
<title>Node13&#45;&gt;Node14</title>
<path fill="none" stroke="midnightblue" d="M404.08,-112.44C429.54,-103.4 469.89,-89.06 498.46,-78.92"/>
<polygon fill="midnightblue" stroke="midnightblue" points="499.78,-82.16 508.03,-75.52 497.43,-75.57 499.78,-82.16"/>
</g>
</g>
</svg>
        <g id="navigator" transform="translate(0 0)" fill="#404254">
                <rect fill="#f2f5e9" fill-opacity="0.5" stroke="#606060" stroke-width=".5" x="0" y="0" width="60" height="60"/>
                <use id="zoomplus" xlink:href="#zoomPlus" x="17" y="9" onmousedown="handleZoom(evt,'in')"/>
                <use id="zoomminus" xlink:href="#zoomMin" x="42" y="9" onmousedown="handleZoom(evt,'out')"/>
                <use id="reset" xlink:href="#resetDef" x="30" y="36" onmousedown="handleReset()"/>
                <g id="arrowUp" xlink:href="#dirArrow" transform="translate(30 24)" onmousedown="handlePan(0,-1)">
                  <use xlink:href="#rim" fill="#404040">
                        <set attributeName="fill" to="#808080" begin="arrowUp.mouseover" end="arrowUp.mouseout"/>
                  </use>
                  <path fill="none" stroke="white" stroke-width="1.5" d="M0,-3.0v7 M-2.5,-0.5L0,-3.0L2.5,-0.5"/>
                </g>
                <g id="arrowRight" xlink:href="#dirArrow" transform="rotate(90) translate(36 -43)" onmousedown="handlePan(1,0)">
                  <use xlink:href="#rim" fill="#404040">
                        <set attributeName="fill" to="#808080" begin="arrowRight.mouseover" end="arrowRight.mouseout"/>
                  </use>
                  <path fill="none" stroke="white" stroke-width="1.5" d="M0,-3.0v7 M-2.5,-0.5L0,-3.0L2.5,-0.5"/>
                </g>
                <g id="arrowDown" xlink:href="#dirArrow" transform="rotate(180) translate(-30 -48)" onmousedown="handlePan(0,1)">
                  <use xlink:href="#rim" fill="#404040">
                        <set attributeName="fill" to="#808080" begin="arrowDown.mouseover" end="arrowDown.mouseout"/>
                  </use>
                  <path fill="none" stroke="white" stroke-width="1.5" d="M0,-3.0v7 M-2.5,-0.5L0,-3.0L2.5,-0.5"/>
                </g>
                <g id="arrowLeft" xlink:href="#dirArrow" transform="rotate(270) translate(-36 17)" onmousedown="handlePan(-1,0)">
                  <use xlink:href="#rim" fill="#404040">
                        <set attributeName="fill" to="#808080" begin="arrowLeft.mouseover" end="arrowLeft.mouseout"/>
                  </use>
                  <path fill="none" stroke="white" stroke-width="1.5" d="M0,-3.0v7 M-2.5,-0.5L0,-3.0L2.5,-0.5"/>
                </g>
        </g>
        <svg viewBox="0 0 15 15" width="100%" height="30px" preserveAspectRatio="xMaxYMin meet">
         <g id="arrow_out" transform="scale(0.3 0.3)">
          <a xlink:href="fotobox_8cpp__incl_org.svg" target="_base">
           <rect id="button" ry="5" rx="5" y="6" x="6" height="38" width="38"
                fill="#f2f5e9" fill-opacity="0.5" stroke="#606060" stroke-width="1.0"/>
           <path id="arrow"
             d="M 11.500037,31.436501 C 11.940474,20.09759 22.043105,11.32322 32.158766,21.979434 L 37.068811,17.246167 C 37.068811,17.246167 37.088388,32 37.088388,32 L 22.160133,31.978069 C 22.160133,31.978069 26.997745,27.140456 26.997745,27.140456 C 18.528582,18.264221 13.291696,25.230495 11.500037,31.436501 z"
             style="fill:#404040;"/>
          </a>
         </g>
        </svg>
</svg>
