<?xml version="1.0" encoding="UTF-8" standalone="no"?>
<!DOCTYPE svg PUBLIC "-//W3C//DTD SVG 1.1//EN"
 "http://www.w3.org/Graphics/SVG/1.1/DTD/svg11.dtd">
<!-- Generated by graphviz version 2.46.1 (20210213.1702)
 -->
<!-- Title: Graphical Class Hierarchy Pages: 1 -->
<svg width="165pt" height="66pt"
 viewBox="0.00 0.00 165.00 66.00" xmlns="http://www.w3.org/2000/svg" xmlns:xlink="http://www.w3.org/1999/xlink">
<g id="graph0" class="graph" transform="scale(1 1) rotate(0) translate(4 62)">
<title>Graphical Class Hierarchy</title>
<!-- Node1 -->
<g id="node1" class="node">
<title>Node1</title>
<g id="a_node1"><a xlink:title=" ">
<polygon fill="none" stroke="#bfbfbf" points="0,-19.5 0,-38.5 52,-38.5 52,-19.5 0,-19.5"/>
<text text-anchor="middle" x="26" y="-26.5" font-family="Helvetica,sans-Serif" font-size="10.00">QDialog</text>
</a>
</g>
</g>
<!-- Node0 -->
<g id="node2" class="node">
<title>Node0</title>
<g id="a_node2"><a xlink:href="class_foto_box.html" target="_top" xlink:title="The FotoBox class Main class to control UI and controll the process.">
<polygon fill="none" stroke="black" points="96,-38.5 96,-57.5 149,-57.5 149,-38.5 96,-38.5"/>
<text text-anchor="middle" x="122.5" y="-45.5" font-family="Helvetica,sans-Serif" font-size="10.00">FotoBox</text>
</a>
</g>
</g>
<!-- Node1&#45;&gt;Node0 -->
<g id="edge1" class="edge">
<title>Node1&#45;&gt;Node0</title>
<path fill="none" stroke="midnightblue" d="M62.21,-36.08C73.34,-38.32 85.43,-40.75 95.78,-42.83"/>
<polygon fill="midnightblue" stroke="midnightblue" points="62.82,-32.63 52.32,-34.09 61.44,-39.49 62.82,-32.63"/>
</g>
<!-- Node3 -->
<g id="node3" class="node">
<title>Node3</title>
<g id="a_node3"><a xlink:href="class_preferences.html" target="_top" xlink:title="Preference class to change and store the application settings.">
<polygon fill="none" stroke="black" points="88,-0.5 88,-19.5 157,-19.5 157,-0.5 88,-0.5"/>
<text text-anchor="middle" x="122.5" y="-7.5" font-family="Helvetica,sans-Serif" font-size="10.00">Preferences</text>
</a>
</g>
</g>
<!-- Node1&#45;&gt;Node3 -->
<g id="edge2" class="edge">
<title>Node1&#45;&gt;Node3</title>
<path fill="none" stroke="midnightblue" d="M62.23,-21.92C70.64,-20.23 79.59,-18.43 87.93,-16.75"/>
<polygon fill="midnightblue" stroke="midnightblue" points="61.44,-18.51 52.32,-23.91 62.82,-25.37 61.44,-18.51"/>
</g>
</g>
</svg>
