<?xml version="1.0" encoding="UTF-8" standalone="no"?>
<!DOCTYPE svg PUBLIC "-//W3C//DTD SVG 1.1//EN"
 "http://www.w3.org/Graphics/SVG/1.1/DTD/svg11.dtd">
<!-- Generated by graphviz version 2.46.1 (20210213.1702)
 -->
<!-- Title: Graphical Class Hierarchy Pages: 1 -->
<svg width="197pt" height="142pt"
 viewBox="0.00 0.00 197.00 142.00" xmlns="http://www.w3.org/2000/svg" xmlns:xlink="http://www.w3.org/1999/xlink">
<g id="graph0" class="graph" transform="scale(1 1) rotate(0) translate(4 138)">
<title>Graphical Class Hierarchy</title>
<!-- Node4 -->
<g id="node1" class="node">
<title>Node4</title>
<g id="a_node1"><a xlink:title=" ">
<polygon fill="none" stroke="#bfbfbf" points="0,-57.5 0,-76.5 53,-76.5 53,-57.5 0,-57.5"/>
<text text-anchor="middle" x="26.5" y="-64.5" font-family="Helvetica,sans-Serif" font-size="10.00">QObject</text>
</a>
</g>
</g>
<!-- Node0 -->
<g id="node2" class="node">
<title>Node0</title>
<g id="a_node2"><a xlink:href="class_buzzer.html" target="_top" xlink:title="This class handles the buzzer.">
<polygon fill="none" stroke="black" points="115.5,-114.5 115.5,-133.5 162.5,-133.5 162.5,-114.5 115.5,-114.5"/>
<text text-anchor="middle" x="139" y="-121.5" font-family="Helvetica,sans-Serif" font-size="10.00">Buzzer</text>
</a>
</g>
</g>
<!-- Node4&#45;&gt;Node0 -->
<g id="edge1" class="edge">
<title>Node4&#45;&gt;Node0</title>
<path fill="none" stroke="midnightblue" d="M49.73,-82.11C61.17,-89.53 75.52,-98.29 89,-105 97.33,-109.15 106.8,-113 115.18,-116.15"/>
<polygon fill="midnightblue" stroke="midnightblue" points="51.52,-79.1 41.25,-76.51 47.66,-84.94 51.52,-79.1"/>
</g>
<!-- Node6 -->
<g id="node3" class="node">
<title>Node6</title>
<g id="a_node3"><a xlink:href="class_camera.html" target="_top" xlink:title="The Camera class Use gphoto2 to send commands to camera.">
<polygon fill="none" stroke="black" points="113.5,-76.5 113.5,-95.5 164.5,-95.5 164.5,-76.5 113.5,-76.5"/>
<text text-anchor="middle" x="139" y="-83.5" font-family="Helvetica,sans-Serif" font-size="10.00">Camera</text>
</a>
</g>
</g>
<!-- Node4&#45;&gt;Node6 -->
<g id="edge2" class="edge">
<title>Node4&#45;&gt;Node6</title>
<path fill="none" stroke="midnightblue" d="M63.4,-73.17C79.71,-75.98 98.58,-79.22 113.27,-81.75"/>
<polygon fill="midnightblue" stroke="midnightblue" points="63.58,-69.65 53.13,-71.41 62.39,-76.55 63.58,-69.65"/>
</g>
<!-- Node7 -->
<g id="node4" class="node">
<title>Node7</title>
<g id="a_node4"><a xlink:href="class_countdown.html" target="_top" xlink:title="The Countdown class.">
<polygon fill="none" stroke="black" points="106,-38.5 106,-57.5 172,-57.5 172,-38.5 106,-38.5"/>
<text text-anchor="middle" x="139" y="-45.5" font-family="Helvetica,sans-Serif" font-size="10.00">Countdown</text>
</a>
</g>
</g>
<!-- Node4&#45;&gt;Node7 -->
<g id="edge3" class="edge">
<title>Node4&#45;&gt;Node7</title>
<path fill="none" stroke="midnightblue" d="M63.18,-60.87C76.88,-58.51 92.42,-55.84 105.78,-53.54"/>
<polygon fill="midnightblue" stroke="midnightblue" points="62.39,-57.45 53.13,-62.59 63.58,-64.35 62.39,-57.45"/>
</g>
<!-- Node8 -->
<g id="node5" class="node">
<title>Node8</title>
<g id="a_node5"><a xlink:href="class_preference_provider.html" target="_top" xlink:title="Preference who stores the preferences.">
<polygon fill="none" stroke="black" points="89,-0.5 89,-19.5 189,-19.5 189,-0.5 89,-0.5"/>
<text text-anchor="middle" x="139" y="-7.5" font-family="Helvetica,sans-Serif" font-size="10.00">PreferenceProvider</text>
</a>
</g>
</g>
<!-- Node4&#45;&gt;Node8 -->
<g id="edge4" class="edge">
<title>Node4&#45;&gt;Node8</title>
<path fill="none" stroke="midnightblue" d="M49.73,-51.89C61.17,-44.47 75.52,-35.71 89,-29 95.86,-25.59 103.5,-22.37 110.66,-19.58"/>
<polygon fill="midnightblue" stroke="midnightblue" points="47.66,-49.06 41.25,-57.49 51.52,-54.9 47.66,-49.06"/>
</g>
</g>
</svg>
