<?xml version="1.0" encoding="UTF-8" standalone="no"?>
<!DOCTYPE svg PUBLIC "-//W3C//DTD SVG 1.1//EN"
 "http://www.w3.org/Graphics/SVG/1.1/DTD/svg11.dtd">
<!-- Generated by graphviz version 2.43.0 (0)
 -->
<!-- Title: Graphical Class Hierarchy Pages: 1 -->
<svg width="255pt" height="142pt"
 viewBox="0.00 0.00 255.00 142.00" xmlns="http://www.w3.org/2000/svg" xmlns:xlink="http://www.w3.org/1999/xlink">
<g id="graph0" class="graph" transform="scale(1 1) rotate(0) translate(4 138)">
<title>Graphical Class Hierarchy</title>
<!-- Node4 -->
<g id="node1" class="node">
<title>Node4</title>
<g id="a_node1"><a xlink:title=" ">
<polygon fill="none" stroke="#bfbfbf" points="0,-57.5 0,-76.5 56,-76.5 56,-57.5 0,-57.5"/>
<text text-anchor="middle" x="28" y="-64.5" font-family="Helvetica,sans-Serif" font-size="10.00">QObject</text>
</a>
</g>
</g>
<!-- Node0 -->
<g id="node2" class="node">
<title>Node0</title>
<g id="a_node2"><a xlink:href="class_foto_box_1_1_buzzer.html" target="_top" xlink:title="This class handles the buzzer.">
<polygon fill="none" stroke="black" points="122,-114.5 122,-133.5 217,-133.5 217,-114.5 122,-114.5"/>
<text text-anchor="middle" x="169.5" y="-121.5" font-family="Helvetica,sans-Serif" font-size="10.00">FotoBox::Buzzer</text>
</a>
</g>
</g>
<!-- Node4&#45;&gt;Node0 -->
<g id="edge1" class="edge">
<title>Node4&#45;&gt;Node0</title>
<path fill="none" stroke="midnightblue" d="M50.67,-82.29C62.45,-90.02 77.52,-99 92,-105 101.35,-108.88 111.69,-112.1 121.66,-114.73"/>
<polygon fill="midnightblue" stroke="midnightblue" points="52.63,-79.39 42.38,-76.7 48.72,-85.19 52.63,-79.39"/>
</g>
<!-- Node6 -->
<g id="node3" class="node">
<title>Node6</title>
<g id="a_node3"><a xlink:href="class_foto_box_1_1_camera.html" target="_top" xlink:title="The Camera class Use gphoto2 to send commands to camera.">
<polygon fill="none" stroke="black" points="119,-76.5 119,-95.5 220,-95.5 220,-76.5 119,-76.5"/>
<text text-anchor="middle" x="169.5" y="-83.5" font-family="Helvetica,sans-Serif" font-size="10.00">FotoBox::Camera</text>
</a>
</g>
</g>
<!-- Node4&#45;&gt;Node6 -->
<g id="edge2" class="edge">
<title>Node4&#45;&gt;Node6</title>
<path fill="none" stroke="midnightblue" d="M66.33,-72.08C82.42,-74.28 101.48,-76.87 118.75,-79.22"/>
<polygon fill="midnightblue" stroke="midnightblue" points="66.61,-68.59 56.23,-70.71 65.66,-75.53 66.61,-68.59"/>
</g>
<!-- Node7 -->
<g id="node4" class="node">
<title>Node7</title>
<g id="a_node4"><a xlink:href="class_foto_box_1_1_countdown.html" target="_top" xlink:title="The Countdown class.">
<polygon fill="none" stroke="black" points="111,-38.5 111,-57.5 228,-57.5 228,-38.5 111,-38.5"/>
<text text-anchor="middle" x="169.5" y="-45.5" font-family="Helvetica,sans-Serif" font-size="10.00">FotoBox::Countdown</text>
</a>
</g>
</g>
<!-- Node4&#45;&gt;Node7 -->
<g id="edge3" class="edge">
<title>Node4&#45;&gt;Node7</title>
<path fill="none" stroke="midnightblue" d="M66.21,-61.93C79.88,-60.07 95.7,-57.92 110.75,-55.87"/>
<polygon fill="midnightblue" stroke="midnightblue" points="65.66,-58.47 56.23,-63.29 66.61,-65.41 65.66,-58.47"/>
</g>
<!-- Node8 -->
<g id="node5" class="node">
<title>Node8</title>
<g id="a_node5"><a xlink:href="class_foto_box_1_1_preference_provider.html" target="_top" xlink:title="Preference who stores the preferences.">
<polygon fill="none" stroke="black" points="92,-0.5 92,-19.5 247,-19.5 247,-0.5 92,-0.5"/>
<text text-anchor="middle" x="169.5" y="-7.5" font-family="Helvetica,sans-Serif" font-size="10.00">FotoBox::PreferenceProvider</text>
</a>
</g>
</g>
<!-- Node4&#45;&gt;Node8 -->
<g id="edge4" class="edge">
<title>Node4&#45;&gt;Node8</title>
<path fill="none" stroke="midnightblue" d="M50.67,-51.71C62.45,-43.98 77.52,-35 92,-29 100.98,-25.28 110.86,-22.16 120.45,-19.6"/>
<polygon fill="midnightblue" stroke="midnightblue" points="48.72,-48.81 42.38,-57.3 52.63,-54.61 48.72,-48.81"/>
</g>
</g>
</svg>
