<?xml version="1.0" encoding="UTF-8" standalone="no"?>
<!DOCTYPE svg PUBLIC "-//W3C//DTD SVG 1.1//EN"
 "http://www.w3.org/Graphics/SVG/1.1/DTD/svg11.dtd">
<!-- Generated by graphviz version 2.43.0 (0)
 -->
<!-- Title: preferences.cpp Pages: 1 -->
<svg width="1609pt" height="196pt"
 viewBox="0.00 0.00 1608.50 196.00" xmlns="http://www.w3.org/2000/svg" xmlns:xlink="http://www.w3.org/1999/xlink">
<g id="graph0" class="graph" transform="scale(1 1) rotate(0) translate(4 192)">
<title>preferences.cpp</title>
<!-- Node1 -->
<g id="node1" class="node">
<title>Node1</title>
<g id="a_node1"><a xlink:title=" ">
<polygon fill="#bfbfbf" stroke="black" points="857,-168.5 857,-187.5 952,-187.5 952,-168.5 857,-168.5"/>
<text text-anchor="middle" x="904.5" y="-175.5" font-family="Helvetica,sans-Serif" font-size="10.00">preferences.cpp</text>
</a>
</g>
</g>
<!-- Node2 -->
<g id="node2" class="node">
<title>Node2</title>
<g id="a_node2"><a xlink:href="fotobox_8h.html" target="_top" xlink:title=" ">
<polygon fill="none" stroke="black" points="323,-112.5 323,-131.5 386,-131.5 386,-112.5 323,-112.5"/>
<text text-anchor="middle" x="354.5" y="-119.5" font-family="Helvetica,sans-Serif" font-size="10.00">fotobox.h</text>
</a>
</g>
</g>
<!-- Node1&#45;&gt;Node2 -->
<g id="edge1" class="edge">
<title>Node1&#45;&gt;Node2</title>
<path fill="none" stroke="midnightblue" d="M856.65,-172.3C750.39,-161.87 496.2,-136.91 396.06,-127.08"/>
<polygon fill="midnightblue" stroke="midnightblue" points="396.32,-123.59 386.02,-126.09 395.63,-130.56 396.32,-123.59"/>
</g>
<!-- Node3 -->
<g id="node3" class="node">
<title>Node3</title>
<g id="a_node3"><a xlink:href="buzzer_8h.html" target="_top" xlink:title=" ">
<polygon fill="none" stroke="black" points="0,-56.5 0,-75.5 57,-75.5 57,-56.5 0,-56.5"/>
<text text-anchor="middle" x="28.5" y="-63.5" font-family="Helvetica,sans-Serif" font-size="10.00">buzzer.h</text>
</a>
</g>
</g>
<!-- Node1&#45;&gt;Node3 -->
<g id="edge13" class="edge">
<title>Node1&#45;&gt;Node3</title>
<path fill="none" stroke="midnightblue" d="M856.83,-177.39C747.58,-177.5 471.04,-173.27 244.5,-132 177.59,-119.81 102.05,-94.24 60.38,-79.06"/>
<polygon fill="midnightblue" stroke="midnightblue" points="61.39,-75.7 50.79,-75.53 58.97,-82.27 61.39,-75.7"/>
</g>
<!-- Node7 -->
<g id="node7" class="node">
<title>Node7</title>
<g id="a_node7"><a xlink:title=" ">
<polygon fill="none" stroke="#bfbfbf" points="330.5,-0.5 330.5,-19.5 392.5,-19.5 392.5,-0.5 330.5,-0.5"/>
<text text-anchor="middle" x="361.5" y="-7.5" font-family="Helvetica,sans-Serif" font-size="10.00">QProcess</text>
</a>
</g>
</g>
<!-- Node1&#45;&gt;Node7 -->
<g id="edge27" class="edge">
<title>Node1&#45;&gt;Node7</title>
<path fill="none" stroke="midnightblue" d="M856.74,-175.29C787.38,-171.81 663.56,-161.54 631.5,-132 605.9,-108.41 637.94,-79.77 612.5,-56 597.38,-41.87 470.42,-24.37 403.08,-15.97"/>
<polygon fill="midnightblue" stroke="midnightblue" points="403.17,-12.45 392.81,-14.7 402.31,-19.4 403.17,-12.45"/>
</g>
<!-- Node12 -->
<g id="node12" class="node">
<title>Node12</title>
<g id="a_node12"><a xlink:href="preferenceprovider_8h.html" target="_top" xlink:title=" ">
<polygon fill="none" stroke="black" points="75.5,-56.5 75.5,-75.5 193.5,-75.5 193.5,-56.5 75.5,-56.5"/>
<text text-anchor="middle" x="134.5" y="-63.5" font-family="Helvetica,sans-Serif" font-size="10.00">preferenceprovider.h</text>
</a>
</g>
</g>
<!-- Node1&#45;&gt;Node12 -->
<g id="edge14" class="edge">
<title>Node1&#45;&gt;Node12</title>
<path fill="none" stroke="midnightblue" d="M856.85,-177.69C755.71,-178.22 512.62,-174.5 314.5,-132 258.91,-120.07 197.22,-95.05 162.42,-79.77"/>
<polygon fill="midnightblue" stroke="midnightblue" points="163.49,-76.41 152.93,-75.55 160.64,-82.81 163.49,-76.41"/>
</g>
<!-- Node13 -->
<g id="node13" class="node">
<title>Node13</title>
<g id="a_node13"><a xlink:href="preferences_8h.html" target="_top" xlink:title=" ">
<polygon fill="none" stroke="black" points="460,-112.5 460,-131.5 543,-131.5 543,-112.5 460,-112.5"/>
<text text-anchor="middle" x="501.5" y="-119.5" font-family="Helvetica,sans-Serif" font-size="10.00">preferences.h</text>
</a>
</g>
</g>
<!-- Node1&#45;&gt;Node13 -->
<g id="edge16" class="edge">
<title>Node1&#45;&gt;Node13</title>
<path fill="none" stroke="midnightblue" d="M856.69,-170.59C780.46,-160.38 632,-140.49 553.33,-129.94"/>
<polygon fill="midnightblue" stroke="midnightblue" points="553.54,-126.44 543.16,-128.58 552.61,-133.38 553.54,-126.44"/>
</g>
<!-- Node15 -->
<g id="node15" class="node">
<title>Node15</title>
<g id="a_node15"><a xlink:title=" ">
<polygon fill="none" stroke="#bfbfbf" points="640,-112.5 640,-131.5 783,-131.5 783,-112.5 640,-112.5"/>
<text text-anchor="middle" x="711.5" y="-119.5" font-family="Helvetica,sans-Serif" font-size="10.00">ui_commandlineoptions.h</text>
</a>
</g>
</g>
<!-- Node1&#45;&gt;Node15 -->
<g id="edge20" class="edge">
<title>Node1&#45;&gt;Node15</title>
<path fill="none" stroke="midnightblue" d="M873.92,-168.44C840.89,-159.2 788.11,-144.44 751.73,-134.26"/>
<polygon fill="midnightblue" stroke="midnightblue" points="752.51,-130.84 741.94,-131.52 750.63,-137.58 752.51,-130.84"/>
</g>
<!-- Node16 -->
<g id="node16" class="node">
<title>Node16</title>
<g id="a_node16"><a xlink:title=" ">
<polygon fill="none" stroke="#bfbfbf" points="801.5,-112.5 801.5,-131.5 899.5,-131.5 899.5,-112.5 801.5,-112.5"/>
<text text-anchor="middle" x="850.5" y="-119.5" font-family="Helvetica,sans-Serif" font-size="10.00">ui_preferences.h</text>
</a>
</g>
</g>
<!-- Node1&#45;&gt;Node16 -->
<g id="edge21" class="edge">
<title>Node1&#45;&gt;Node16</title>
<path fill="none" stroke="midnightblue" d="M895.58,-168.08C887.72,-160.22 876.07,-148.57 866.58,-139.08"/>
<polygon fill="midnightblue" stroke="midnightblue" points="868.8,-136.35 859.25,-131.75 863.85,-141.3 868.8,-136.35"/>
</g>
<!-- Node17 -->
<g id="node17" class="node">
<title>Node17</title>
<g id="a_node17"><a xlink:title=" ">
<polygon fill="none" stroke="#bfbfbf" points="918,-112.5 918,-131.5 999,-131.5 999,-112.5 918,-112.5"/>
<text text-anchor="middle" x="958.5" y="-119.5" font-family="Helvetica,sans-Serif" font-size="10.00">QColorDialog</text>
</a>
</g>
</g>
<!-- Node1&#45;&gt;Node17 -->
<g id="edge22" class="edge">
<title>Node1&#45;&gt;Node17</title>
<path fill="none" stroke="midnightblue" d="M913.42,-168.08C921.28,-160.22 932.93,-148.57 942.42,-139.08"/>
<polygon fill="midnightblue" stroke="midnightblue" points="945.15,-141.3 949.75,-131.75 940.2,-136.35 945.15,-141.3"/>
</g>
<!-- Node18 -->
<g id="node18" class="node">
<title>Node18</title>
<g id="a_node18"><a xlink:title=" ">
<polygon fill="none" stroke="#bfbfbf" points="1017.5,-112.5 1017.5,-131.5 1123.5,-131.5 1123.5,-112.5 1017.5,-112.5"/>
<text text-anchor="middle" x="1070.5" y="-119.5" font-family="Helvetica,sans-Serif" font-size="10.00">QDesktopServices</text>
</a>
</g>
</g>
<!-- Node1&#45;&gt;Node18 -->
<g id="edge23" class="edge">
<title>Node1&#45;&gt;Node18</title>
<path fill="none" stroke="midnightblue" d="M930.8,-168.44C958.85,-159.32 1003.44,-144.81 1034.68,-134.65"/>
<polygon fill="midnightblue" stroke="midnightblue" points="1035.89,-137.94 1044.32,-131.52 1033.73,-131.28 1035.89,-137.94"/>
</g>
<!-- Node19 -->
<g id="node19" class="node">
<title>Node19</title>
<g id="a_node19"><a xlink:title=" ">
<polygon fill="none" stroke="#bfbfbf" points="1142,-112.5 1142,-131.5 1215,-131.5 1215,-112.5 1142,-112.5"/>
<text text-anchor="middle" x="1178.5" y="-119.5" font-family="Helvetica,sans-Serif" font-size="10.00">QFileDialog</text>
</a>
</g>
</g>
<!-- Node1&#45;&gt;Node19 -->
<g id="edge24" class="edge">
<title>Node1&#45;&gt;Node19</title>
<path fill="none" stroke="midnightblue" d="M947.92,-168.44C998.14,-158.55 1080.5,-142.31 1131.99,-132.17"/>
<polygon fill="midnightblue" stroke="midnightblue" points="1132.73,-135.59 1141.86,-130.22 1131.38,-128.72 1132.73,-135.59"/>
</g>
<!-- Node20 -->
<g id="node20" class="node">
<title>Node20</title>
<g id="a_node20"><a xlink:title=" ">
<polygon fill="none" stroke="#bfbfbf" points="1233.5,-112.5 1233.5,-131.5 1319.5,-131.5 1319.5,-112.5 1233.5,-112.5"/>
<text text-anchor="middle" x="1276.5" y="-119.5" font-family="Helvetica,sans-Serif" font-size="10.00">QMessageBox</text>
</a>
</g>
</g>
<!-- Node1&#45;&gt;Node20 -->
<g id="edge25" class="edge">
<title>Node1&#45;&gt;Node20</title>
<path fill="none" stroke="midnightblue" d="M952.01,-170.8C1012.61,-162.78 1120.89,-148.1 1223.48,-132.12"/>
<polygon fill="midnightblue" stroke="midnightblue" points="1224.05,-135.57 1233.39,-130.57 1222.97,-128.66 1224.05,-135.57"/>
</g>
<!-- Node21 -->
<g id="node21" class="node">
<title>Node21</title>
<g id="a_node21"><a xlink:title=" ">
<polygon fill="none" stroke="#bfbfbf" points="1338,-112.5 1338,-131.5 1413,-131.5 1413,-112.5 1338,-112.5"/>
<text text-anchor="middle" x="1375.5" y="-119.5" font-family="Helvetica,sans-Serif" font-size="10.00">QPrinterInfo</text>
</a>
</g>
</g>
<!-- Node1&#45;&gt;Node21 -->
<g id="edge26" class="edge">
<title>Node1&#45;&gt;Node21</title>
<path fill="none" stroke="midnightblue" d="M952.04,-173.26C1028.79,-166.93 1184.95,-152.88 1327.59,-132.01"/>
<polygon fill="midnightblue" stroke="midnightblue" points="1328.46,-135.42 1337.84,-130.5 1327.43,-128.5 1328.46,-135.42"/>
</g>
<!-- Node22 -->
<g id="node22" class="node">
<title>Node22</title>
<g id="a_node22"><a xlink:title=" ">
<polygon fill="none" stroke="#bfbfbf" points="1431,-112.5 1431,-131.5 1488,-131.5 1488,-112.5 1431,-112.5"/>
<text text-anchor="middle" x="1459.5" y="-119.5" font-family="Helvetica,sans-Serif" font-size="10.00">QScreen</text>
</a>
</g>
</g>
<!-- Node1&#45;&gt;Node22 -->
<g id="edge28" class="edge">
<title>Node1&#45;&gt;Node22</title>
<path fill="none" stroke="midnightblue" d="M952.29,-175.28C1042.3,-171.5 1243.17,-160.59 1420.85,-132.05"/>
<polygon fill="midnightblue" stroke="midnightblue" points="1421.6,-135.47 1430.9,-130.41 1420.47,-128.56 1421.6,-135.47"/>
</g>
<!-- Node23 -->
<g id="node23" class="node">
<title>Node23</title>
<g id="a_node23"><a xlink:title=" ">
<polygon fill="none" stroke="#bfbfbf" points="1506.5,-112.5 1506.5,-131.5 1600.5,-131.5 1600.5,-112.5 1506.5,-112.5"/>
<text text-anchor="middle" x="1553.5" y="-119.5" font-family="Helvetica,sans-Serif" font-size="10.00">QStandardPaths</text>
</a>
</g>
</g>
<!-- Node1&#45;&gt;Node23 -->
<g id="edge29" class="edge">
<title>Node1&#45;&gt;Node23</title>
<path fill="none" stroke="midnightblue" d="M952.29,-174.73C1051.61,-169.73 1287.74,-156.3 1496.26,-132.05"/>
<polygon fill="midnightblue" stroke="midnightblue" points="1496.96,-135.49 1506.49,-130.85 1496.15,-128.54 1496.96,-135.49"/>
</g>
<!-- Node2&#45;&gt;Node3 -->
<g id="edge2" class="edge">
<title>Node2&#45;&gt;Node3</title>
<path fill="none" stroke="midnightblue" d="M322.82,-116.87C271.35,-109.98 166.18,-95.17 66.97,-75.95"/>
<polygon fill="midnightblue" stroke="midnightblue" points="67.57,-72.5 57.08,-74.02 66.22,-79.37 67.57,-72.5"/>
</g>
<!-- Node6 -->
<g id="node6" class="node">
<title>Node6</title>
<g id="a_node6"><a xlink:href="camera_8h.html" target="_top" xlink:title=" ">
<polygon fill="none" stroke="black" points="287.5,-56.5 287.5,-75.5 349.5,-75.5 349.5,-56.5 287.5,-56.5"/>
<text text-anchor="middle" x="318.5" y="-63.5" font-family="Helvetica,sans-Serif" font-size="10.00">camera.h</text>
</a>
</g>
</g>
<!-- Node2&#45;&gt;Node6 -->
<g id="edge5" class="edge">
<title>Node2&#45;&gt;Node6</title>
<path fill="none" stroke="midnightblue" d="M348.56,-112.08C343.52,-104.53 336.16,-93.49 329.99,-84.23"/>
<polygon fill="midnightblue" stroke="midnightblue" points="332.79,-82.13 324.33,-75.75 326.97,-86.01 332.79,-82.13"/>
</g>
<!-- Node8 -->
<g id="node8" class="node">
<title>Node8</title>
<g id="a_node8"><a xlink:href="countdown_8h.html" target="_top" xlink:title=" ">
<polygon fill="none" stroke="black" points="442,-56.5 442,-75.5 521,-75.5 521,-56.5 442,-56.5"/>
<text text-anchor="middle" x="481.5" y="-63.5" font-family="Helvetica,sans-Serif" font-size="10.00">countdown.h</text>
</a>
</g>
</g>
<!-- Node2&#45;&gt;Node8 -->
<g id="edge8" class="edge">
<title>Node2&#45;&gt;Node8</title>
<path fill="none" stroke="midnightblue" d="M374.62,-112.44C395.52,-103.56 428.43,-89.56 452.22,-79.45"/>
<polygon fill="midnightblue" stroke="midnightblue" points="453.64,-82.65 461.47,-75.52 450.9,-76.21 453.64,-82.65"/>
</g>
<!-- Node10 -->
<g id="node10" class="node">
<title>Node10</title>
<g id="a_node10"><a xlink:title=" ">
<polygon fill="none" stroke="#bfbfbf" points="367.5,-56.5 367.5,-75.5 423.5,-75.5 423.5,-56.5 367.5,-56.5"/>
<text text-anchor="middle" x="395.5" y="-63.5" font-family="Helvetica,sans-Serif" font-size="10.00">QDialog</text>
</a>
</g>
</g>
<!-- Node2&#45;&gt;Node10 -->
<g id="edge11" class="edge">
<title>Node2&#45;&gt;Node10</title>
<path fill="none" stroke="midnightblue" d="M361.27,-112.08C367.06,-104.46 375.56,-93.26 382.64,-83.94"/>
<polygon fill="midnightblue" stroke="midnightblue" points="385.6,-85.83 388.86,-75.75 380.02,-81.6 385.6,-85.83"/>
</g>
<!-- Node11 -->
<g id="node11" class="node">
<title>Node11</title>
<g id="a_node11"><a xlink:title=" ">
<polygon fill="none" stroke="#bfbfbf" points="211.5,-56.5 211.5,-75.5 269.5,-75.5 269.5,-56.5 211.5,-56.5"/>
<text text-anchor="middle" x="240.5" y="-63.5" font-family="Helvetica,sans-Serif" font-size="10.00">QThread</text>
</a>
</g>
</g>
<!-- Node2&#45;&gt;Node11 -->
<g id="edge12" class="edge">
<title>Node2&#45;&gt;Node11</title>
<path fill="none" stroke="midnightblue" d="M336.44,-112.44C317.93,-103.68 288.92,-89.94 267.64,-79.86"/>
<polygon fill="midnightblue" stroke="midnightblue" points="269.01,-76.63 258.48,-75.52 266.02,-82.96 269.01,-76.63"/>
</g>
<!-- Node4 -->
<g id="node4" class="node">
<title>Node4</title>
<g id="a_node4"><a xlink:title=" ">
<polygon fill="none" stroke="#bfbfbf" points="181.5,-0.5 181.5,-19.5 237.5,-19.5 237.5,-0.5 181.5,-0.5"/>
<text text-anchor="middle" x="209.5" y="-7.5" font-family="Helvetica,sans-Serif" font-size="10.00">QObject</text>
</a>
</g>
</g>
<!-- Node3&#45;&gt;Node4 -->
<g id="edge3" class="edge">
<title>Node3&#45;&gt;Node4</title>
<path fill="none" stroke="midnightblue" d="M57.18,-56.44C88.12,-47.21 137.52,-32.48 171.63,-22.3"/>
<polygon fill="midnightblue" stroke="midnightblue" points="172.67,-25.64 181.25,-19.43 170.67,-18.93 172.67,-25.64"/>
</g>
<!-- Node5 -->
<g id="node5" class="node">
<title>Node5</title>
<g id="a_node5"><a xlink:title=" ">
<polygon fill="none" stroke="#bfbfbf" points="3.5,-0.5 3.5,-19.5 53.5,-19.5 53.5,-0.5 3.5,-0.5"/>
<text text-anchor="middle" x="28.5" y="-7.5" font-family="Helvetica,sans-Serif" font-size="10.00">atomic</text>
</a>
</g>
</g>
<!-- Node3&#45;&gt;Node5 -->
<g id="edge4" class="edge">
<title>Node3&#45;&gt;Node5</title>
<path fill="none" stroke="midnightblue" d="M28.5,-56.08C28.5,-49.01 28.5,-38.86 28.5,-29.99"/>
<polygon fill="midnightblue" stroke="midnightblue" points="32,-29.75 28.5,-19.75 25,-29.75 32,-29.75"/>
</g>
<!-- Node6&#45;&gt;Node4 -->
<g id="edge6" class="edge">
<title>Node6&#45;&gt;Node4</title>
<path fill="none" stroke="midnightblue" d="M300.99,-56.32C283.43,-47.62 256.17,-34.12 235.97,-24.11"/>
<polygon fill="midnightblue" stroke="midnightblue" points="237.48,-20.96 226.97,-19.65 234.38,-27.23 237.48,-20.96"/>
</g>
<!-- Node6&#45;&gt;Node7 -->
<g id="edge7" class="edge">
<title>Node6&#45;&gt;Node7</title>
<path fill="none" stroke="midnightblue" d="M325.6,-56.08C331.74,-48.38 340.77,-37.03 348.24,-27.65"/>
<polygon fill="midnightblue" stroke="midnightblue" points="351.04,-29.75 354.53,-19.75 345.56,-25.39 351.04,-29.75"/>
</g>
<!-- Node8&#45;&gt;Node4 -->
<g id="edge9" class="edge">
<title>Node8&#45;&gt;Node4</title>
<path fill="none" stroke="midnightblue" d="M441.95,-57.15C389.98,-46.83 299.31,-28.83 247.91,-18.63"/>
<polygon fill="midnightblue" stroke="midnightblue" points="248.36,-15.15 237.87,-16.63 247,-22.01 248.36,-15.15"/>
</g>
<!-- Node9 -->
<g id="node9" class="node">
<title>Node9</title>
<g id="a_node9"><a xlink:title=" ">
<polygon fill="none" stroke="#bfbfbf" points="455,-0.5 455,-19.5 508,-19.5 508,-0.5 455,-0.5"/>
<text text-anchor="middle" x="481.5" y="-7.5" font-family="Helvetica,sans-Serif" font-size="10.00">QTimer</text>
</a>
</g>
</g>
<!-- Node8&#45;&gt;Node9 -->
<g id="edge10" class="edge">
<title>Node8&#45;&gt;Node9</title>
<path fill="none" stroke="midnightblue" d="M481.5,-56.08C481.5,-49.01 481.5,-38.86 481.5,-29.99"/>
<polygon fill="midnightblue" stroke="midnightblue" points="485,-29.75 481.5,-19.75 478,-29.75 485,-29.75"/>
</g>
<!-- Node12&#45;&gt;Node4 -->
<g id="edge15" class="edge">
<title>Node12&#45;&gt;Node4</title>
<path fill="none" stroke="midnightblue" d="M146.55,-56.32C157.96,-48.11 175.33,-35.6 188.93,-25.81"/>
<polygon fill="midnightblue" stroke="midnightblue" points="191.16,-28.52 197.23,-19.83 187.07,-22.84 191.16,-28.52"/>
</g>
<!-- Node13&#45;&gt;Node8 -->
<g id="edge17" class="edge">
<title>Node13&#45;&gt;Node8</title>
<path fill="none" stroke="midnightblue" d="M498.2,-112.08C495.52,-104.85 491.65,-94.41 488.31,-85.4"/>
<polygon fill="midnightblue" stroke="midnightblue" points="491.5,-83.91 484.74,-75.75 484.93,-86.34 491.5,-83.91"/>
</g>
<!-- Node13&#45;&gt;Node10 -->
<g id="edge18" class="edge">
<title>Node13&#45;&gt;Node10</title>
<path fill="none" stroke="midnightblue" d="M484.47,-112.32C467.47,-103.66 441.12,-90.24 421.51,-80.25"/>
<polygon fill="midnightblue" stroke="midnightblue" points="422.99,-77.08 412.49,-75.65 419.81,-83.31 422.99,-77.08"/>
</g>
<!-- Node14 -->
<g id="node14" class="node">
<title>Node14</title>
<g id="a_node14"><a xlink:title=" ">
<polygon fill="none" stroke="#bfbfbf" points="539.5,-56.5 539.5,-75.5 603.5,-75.5 603.5,-56.5 539.5,-56.5"/>
<text text-anchor="middle" x="571.5" y="-63.5" font-family="Helvetica,sans-Serif" font-size="10.00">QSettings</text>
</a>
</g>
</g>
<!-- Node13&#45;&gt;Node14 -->
<g id="edge19" class="edge">
<title>Node13&#45;&gt;Node14</title>
<path fill="none" stroke="midnightblue" d="M512.75,-112.32C523.3,-104.18 539.3,-91.84 551.94,-82.09"/>
<polygon fill="midnightblue" stroke="midnightblue" points="554.27,-84.71 560.05,-75.83 549.99,-79.17 554.27,-84.71"/>
</g>
</g>
</svg>
