<?xml version="1.0" encoding="UTF-8" standalone="no"?>
<!DOCTYPE svg PUBLIC "-//W3C//DTD SVG 1.1//EN"
 "http://www.w3.org/Graphics/SVG/1.1/DTD/svg11.dtd">
<!-- Generated by graphviz version 2.46.1 (20210213.1702)
 -->
<!-- Title: preferences.cpp Pages: 1 -->
<svg width="1524pt" height="196pt"
 viewBox="0.00 0.00 1523.50 196.00" xmlns="http://www.w3.org/2000/svg" xmlns:xlink="http://www.w3.org/1999/xlink">
<g id="graph0" class="graph" transform="scale(1 1) rotate(0) translate(4 192)">
<title>preferences.cpp</title>
<!-- Node1 -->
<g id="node1" class="node">
<title>Node1</title>
<g id="a_node1"><a xlink:title=" ">
<polygon fill="#bfbfbf" stroke="black" points="865,-168.5 865,-187.5 951,-187.5 951,-168.5 865,-168.5"/>
<text text-anchor="middle" x="908" y="-175.5" font-family="Helvetica,sans-Serif" font-size="10.00">preferences.cpp</text>
</a>
</g>
</g>
<!-- Node2 -->
<g id="node2" class="node">
<title>Node2</title>
<g id="a_node2"><a xlink:href="fotobox_8h.html" target="_top" xlink:title=" ">
<polygon fill="none" stroke="black" points="300.5,-112.5 300.5,-131.5 357.5,-131.5 357.5,-112.5 300.5,-112.5"/>
<text text-anchor="middle" x="329" y="-119.5" font-family="Helvetica,sans-Serif" font-size="10.00">fotobox.h</text>
</a>
</g>
</g>
<!-- Node1&#45;&gt;Node2 -->
<g id="edge1" class="edge">
<title>Node1&#45;&gt;Node2</title>
<path fill="none" stroke="midnightblue" d="M864.95,-172.99C756.25,-162.85 471.96,-136.33 367.89,-126.63"/>
<polygon fill="midnightblue" stroke="midnightblue" points="368.11,-123.13 357.82,-125.69 367.46,-130.1 368.11,-123.13"/>
</g>
<!-- Node7 -->
<g id="node7" class="node">
<title>Node7</title>
<g id="a_node7"><a xlink:title=" ">
<polygon fill="none" stroke="#bfbfbf" points="303,-0.5 303,-19.5 363,-19.5 363,-0.5 303,-0.5"/>
<text text-anchor="middle" x="333" y="-7.5" font-family="Helvetica,sans-Serif" font-size="10.00">QProcess</text>
</a>
</g>
</g>
<!-- Node1&#45;&gt;Node7 -->
<g id="edge26" class="edge">
<title>Node1&#45;&gt;Node7</title>
<path fill="none" stroke="midnightblue" d="M864.83,-175.25C792.31,-171.55 649.99,-160.75 610,-132 579.17,-109.84 601.41,-78.73 571,-56 555.36,-44.32 437.22,-25.91 373.48,-16.68"/>
<polygon fill="midnightblue" stroke="midnightblue" points="373.77,-13.18 363.37,-15.22 372.77,-20.11 373.77,-13.18"/>
</g>
<!-- Node12 -->
<g id="node12" class="node">
<title>Node12</title>
<g id="a_node12"><a xlink:href="preferenceprovider_8h.html" target="_top" xlink:title=" ">
<polygon fill="none" stroke="black" points="0,-56.5 0,-75.5 104,-75.5 104,-56.5 0,-56.5"/>
<text text-anchor="middle" x="52" y="-63.5" font-family="Helvetica,sans-Serif" font-size="10.00">preferenceprovider.h</text>
</a>
</g>
</g>
<!-- Node1&#45;&gt;Node12 -->
<g id="edge13" class="edge">
<title>Node1&#45;&gt;Node12</title>
<path fill="none" stroke="midnightblue" d="M864.72,-176.68C763.69,-175.31 504.74,-168.23 292,-132 217.66,-119.34 133.03,-93.69 86.76,-78.68"/>
<polygon fill="midnightblue" stroke="midnightblue" points="87.81,-75.34 77.22,-75.55 85.63,-81.99 87.81,-75.34"/>
</g>
<!-- Node13 -->
<g id="node13" class="node">
<title>Node13</title>
<g id="a_node13"><a xlink:href="preferences_8h.html" target="_top" xlink:title=" ">
<polygon fill="none" stroke="black" points="448,-112.5 448,-131.5 524,-131.5 524,-112.5 448,-112.5"/>
<text text-anchor="middle" x="486" y="-119.5" font-family="Helvetica,sans-Serif" font-size="10.00">preferences.h</text>
</a>
</g>
</g>
<!-- Node1&#45;&gt;Node13 -->
<g id="edge15" class="edge">
<title>Node1&#45;&gt;Node13</title>
<path fill="none" stroke="midnightblue" d="M864.82,-171.47C785.55,-161.33 617.35,-139.81 534.37,-129.19"/>
<polygon fill="midnightblue" stroke="midnightblue" points="534.56,-125.69 524.2,-127.89 533.68,-132.63 534.56,-125.69"/>
</g>
<!-- Node15 -->
<g id="node15" class="node">
<title>Node15</title>
<g id="a_node15"><a xlink:title=" ">
<polygon fill="none" stroke="#bfbfbf" points="618.5,-112.5 618.5,-131.5 745.5,-131.5 745.5,-112.5 618.5,-112.5"/>
<text text-anchor="middle" x="682" y="-119.5" font-family="Helvetica,sans-Serif" font-size="10.00">ui_commandlineoptions.h</text>
</a>
</g>
</g>
<!-- Node1&#45;&gt;Node15 -->
<g id="edge19" class="edge">
<title>Node1&#45;&gt;Node15</title>
<path fill="none" stroke="midnightblue" d="M872.19,-168.44C833.01,-159.08 770.12,-144.06 727.48,-133.87"/>
<polygon fill="midnightblue" stroke="midnightblue" points="728.18,-130.44 717.64,-131.52 726.56,-137.24 728.18,-130.44"/>
</g>
<!-- Node16 -->
<g id="node16" class="node">
<title>Node16</title>
<g id="a_node16"><a xlink:title=" ">
<polygon fill="none" stroke="#bfbfbf" points="763.5,-112.5 763.5,-131.5 852.5,-131.5 852.5,-112.5 763.5,-112.5"/>
<text text-anchor="middle" x="808" y="-119.5" font-family="Helvetica,sans-Serif" font-size="10.00">ui_preferences.h</text>
</a>
</g>
</g>
<!-- Node1&#45;&gt;Node16 -->
<g id="edge20" class="edge">
<title>Node1&#45;&gt;Node16</title>
<path fill="none" stroke="midnightblue" d="M891.93,-168.32C876.04,-159.74 851.49,-146.49 833.04,-136.52"/>
<polygon fill="midnightblue" stroke="midnightblue" points="834.49,-133.33 824.03,-131.65 831.16,-139.49 834.49,-133.33"/>
</g>
<!-- Node17 -->
<g id="node17" class="node">
<title>Node17</title>
<g id="a_node17"><a xlink:title=" ">
<polygon fill="none" stroke="#bfbfbf" points="870.5,-112.5 870.5,-131.5 945.5,-131.5 945.5,-112.5 870.5,-112.5"/>
<text text-anchor="middle" x="908" y="-119.5" font-family="Helvetica,sans-Serif" font-size="10.00">QColorDialog</text>
</a>
</g>
</g>
<!-- Node1&#45;&gt;Node17 -->
<g id="edge21" class="edge">
<title>Node1&#45;&gt;Node17</title>
<path fill="none" stroke="midnightblue" d="M908,-168.08C908,-161.01 908,-150.86 908,-141.99"/>
<polygon fill="midnightblue" stroke="midnightblue" points="911.5,-141.75 908,-131.75 904.5,-141.75 911.5,-141.75"/>
</g>
<!-- Node18 -->
<g id="node18" class="node">
<title>Node18</title>
<g id="a_node18"><a xlink:title=" ">
<polygon fill="none" stroke="#bfbfbf" points="963.5,-112.5 963.5,-131.5 1062.5,-131.5 1062.5,-112.5 963.5,-112.5"/>
<text text-anchor="middle" x="1013" y="-119.5" font-family="Helvetica,sans-Serif" font-size="10.00">QDesktopServices</text>
</a>
</g>
</g>
<!-- Node1&#45;&gt;Node18 -->
<g id="edge22" class="edge">
<title>Node1&#45;&gt;Node18</title>
<path fill="none" stroke="midnightblue" d="M924.87,-168.32C941.71,-159.66 967.81,-146.24 987.24,-136.25"/>
<polygon fill="midnightblue" stroke="midnightblue" points="988.88,-139.34 996.17,-131.65 985.68,-133.12 988.88,-139.34"/>
</g>
<!-- Node19 -->
<g id="node19" class="node">
<title>Node19</title>
<g id="a_node19"><a xlink:title=" ">
<polygon fill="none" stroke="#bfbfbf" points="1081,-112.5 1081,-131.5 1149,-131.5 1149,-112.5 1081,-112.5"/>
<text text-anchor="middle" x="1115" y="-119.5" font-family="Helvetica,sans-Serif" font-size="10.00">QFileDialog</text>
</a>
</g>
</g>
<!-- Node1&#45;&gt;Node19 -->
<g id="edge23" class="edge">
<title>Node1&#45;&gt;Node19</title>
<path fill="none" stroke="midnightblue" d="M940.8,-168.44C976.38,-159.16 1033.31,-144.31 1072.35,-134.13"/>
<polygon fill="midnightblue" stroke="midnightblue" points="1073.56,-137.43 1082.35,-131.52 1071.79,-130.65 1073.56,-137.43"/>
</g>
<!-- Node20 -->
<g id="node20" class="node">
<title>Node20</title>
<g id="a_node20"><a xlink:title=" ">
<polygon fill="none" stroke="#bfbfbf" points="1167.5,-112.5 1167.5,-131.5 1248.5,-131.5 1248.5,-112.5 1167.5,-112.5"/>
<text text-anchor="middle" x="1208" y="-119.5" font-family="Helvetica,sans-Serif" font-size="10.00">QMessageBox</text>
</a>
</g>
</g>
<!-- Node1&#45;&gt;Node20 -->
<g id="edge24" class="edge">
<title>Node1&#45;&gt;Node20</title>
<path fill="none" stroke="midnightblue" d="M951.3,-169.21C1005.8,-159.4 1099.24,-142.58 1157.1,-132.16"/>
<polygon fill="midnightblue" stroke="midnightblue" points="1157.9,-135.57 1167.12,-130.36 1156.66,-128.69 1157.9,-135.57"/>
</g>
<!-- Node21 -->
<g id="node21" class="node">
<title>Node21</title>
<g id="a_node21"><a xlink:title=" ">
<polygon fill="none" stroke="#bfbfbf" points="1266.5,-112.5 1266.5,-131.5 1335.5,-131.5 1335.5,-112.5 1266.5,-112.5"/>
<text text-anchor="middle" x="1301" y="-119.5" font-family="Helvetica,sans-Serif" font-size="10.00">QPrinterInfo</text>
</a>
</g>
</g>
<!-- Node1&#45;&gt;Node21 -->
<g id="edge25" class="edge">
<title>Node1&#45;&gt;Node21</title>
<path fill="none" stroke="midnightblue" d="M951.27,-172.54C1015.66,-165.67 1140.71,-151.38 1256.24,-132.19"/>
<polygon fill="midnightblue" stroke="midnightblue" points="1257.03,-135.61 1266.31,-130.5 1255.87,-128.71 1257.03,-135.61"/>
</g>
<!-- Node22 -->
<g id="node22" class="node">
<title>Node22</title>
<g id="a_node22"><a xlink:title=" ">
<polygon fill="none" stroke="#bfbfbf" points="1353.5,-112.5 1353.5,-131.5 1408.5,-131.5 1408.5,-112.5 1353.5,-112.5"/>
<text text-anchor="middle" x="1381" y="-119.5" font-family="Helvetica,sans-Serif" font-size="10.00">QScreen</text>
</a>
</g>
</g>
<!-- Node1&#45;&gt;Node22 -->
<g id="edge27" class="edge">
<title>Node1&#45;&gt;Node22</title>
<path fill="none" stroke="midnightblue" d="M951.08,-174.6C1028.02,-169.88 1194.21,-157.69 1342.95,-132.15"/>
<polygon fill="midnightblue" stroke="midnightblue" points="1343.93,-135.54 1353.18,-130.37 1342.72,-128.64 1343.93,-135.54"/>
</g>
<!-- Node23 -->
<g id="node23" class="node">
<title>Node23</title>
<g id="a_node23"><a xlink:title=" ">
<polygon fill="none" stroke="#bfbfbf" points="1426.5,-112.5 1426.5,-131.5 1515.5,-131.5 1515.5,-112.5 1426.5,-112.5"/>
<text text-anchor="middle" x="1471" y="-119.5" font-family="Helvetica,sans-Serif" font-size="10.00">QStandardPaths</text>
</a>
</g>
</g>
<!-- Node1&#45;&gt;Node23 -->
<g id="edge28" class="edge">
<title>Node1&#45;&gt;Node23</title>
<path fill="none" stroke="midnightblue" d="M951.11,-174.37C1037.48,-168.84 1238.03,-154.74 1416.14,-132.15"/>
<polygon fill="midnightblue" stroke="midnightblue" points="1416.74,-135.61 1426.22,-130.86 1415.85,-128.66 1416.74,-135.61"/>
</g>
<!-- Node3 -->
<g id="node3" class="node">
<title>Node3</title>
<g id="a_node3"><a xlink:href="buzzer_8h.html" target="_top" xlink:title=" ">
<polygon fill="none" stroke="black" points="122.5,-56.5 122.5,-75.5 175.5,-75.5 175.5,-56.5 122.5,-56.5"/>
<text text-anchor="middle" x="149" y="-63.5" font-family="Helvetica,sans-Serif" font-size="10.00">buzzer.h</text>
</a>
</g>
</g>
<!-- Node2&#45;&gt;Node3 -->
<g id="edge2" class="edge">
<title>Node2&#45;&gt;Node3</title>
<path fill="none" stroke="midnightblue" d="M300.48,-112.44C269.39,-103.12 219.57,-88.17 185.62,-77.99"/>
<polygon fill="midnightblue" stroke="midnightblue" points="186.21,-74.51 175.63,-74.99 184.2,-81.21 186.21,-74.51"/>
</g>
<!-- Node6 -->
<g id="node6" class="node">
<title>Node6</title>
<g id="a_node6"><a xlink:href="camera_8h.html" target="_top" xlink:title=" ">
<polygon fill="none" stroke="black" points="266.5,-56.5 266.5,-75.5 323.5,-75.5 323.5,-56.5 266.5,-56.5"/>
<text text-anchor="middle" x="295" y="-63.5" font-family="Helvetica,sans-Serif" font-size="10.00">camera.h</text>
</a>
</g>
</g>
<!-- Node2&#45;&gt;Node6 -->
<g id="edge5" class="edge">
<title>Node2&#45;&gt;Node6</title>
<path fill="none" stroke="midnightblue" d="M323.39,-112.08C318.63,-104.53 311.68,-93.49 305.85,-84.23"/>
<polygon fill="midnightblue" stroke="midnightblue" points="308.8,-82.35 300.51,-75.75 302.88,-86.08 308.8,-82.35"/>
</g>
<!-- Node8 -->
<g id="node8" class="node">
<title>Node8</title>
<g id="a_node8"><a xlink:href="countdown_8h.html" target="_top" xlink:title=" ">
<polygon fill="none" stroke="black" points="412,-56.5 412,-75.5 484,-75.5 484,-56.5 412,-56.5"/>
<text text-anchor="middle" x="448" y="-63.5" font-family="Helvetica,sans-Serif" font-size="10.00">countdown.h</text>
</a>
</g>
</g>
<!-- Node2&#45;&gt;Node8 -->
<g id="edge8" class="edge">
<title>Node2&#45;&gt;Node8</title>
<path fill="none" stroke="midnightblue" d="M347.86,-112.44C367.27,-103.64 397.73,-89.81 419.96,-79.72"/>
<polygon fill="midnightblue" stroke="midnightblue" points="421.57,-82.84 429.23,-75.52 418.68,-76.46 421.57,-82.84"/>
</g>
<!-- Node10 -->
<g id="node10" class="node">
<title>Node10</title>
<g id="a_node10"><a xlink:title=" ">
<polygon fill="none" stroke="#bfbfbf" points="342,-56.5 342,-75.5 394,-75.5 394,-56.5 342,-56.5"/>
<text text-anchor="middle" x="368" y="-63.5" font-family="Helvetica,sans-Serif" font-size="10.00">QDialog</text>
</a>
</g>
</g>
<!-- Node2&#45;&gt;Node10 -->
<g id="edge11" class="edge">
<title>Node2&#45;&gt;Node10</title>
<path fill="none" stroke="midnightblue" d="M335.44,-112.08C340.95,-104.46 349.03,-93.26 355.76,-83.94"/>
<polygon fill="midnightblue" stroke="midnightblue" points="358.66,-85.91 361.68,-75.75 352.99,-81.81 358.66,-85.91"/>
</g>
<!-- Node11 -->
<g id="node11" class="node">
<title>Node11</title>
<g id="a_node11"><a xlink:title=" ">
<polygon fill="none" stroke="#bfbfbf" points="194,-56.5 194,-75.5 248,-75.5 248,-56.5 194,-56.5"/>
<text text-anchor="middle" x="221" y="-63.5" font-family="Helvetica,sans-Serif" font-size="10.00">QThread</text>
</a>
</g>
</g>
<!-- Node2&#45;&gt;Node11 -->
<g id="edge12" class="edge">
<title>Node2&#45;&gt;Node11</title>
<path fill="none" stroke="midnightblue" d="M311.65,-112.32C294.33,-103.66 267.48,-90.24 247.5,-80.25"/>
<polygon fill="midnightblue" stroke="midnightblue" points="248.82,-77 238.31,-75.65 245.69,-83.26 248.82,-77"/>
</g>
<!-- Node4 -->
<g id="node4" class="node">
<title>Node4</title>
<g id="a_node4"><a xlink:title=" ">
<polygon fill="none" stroke="#bfbfbf" points="230.5,-0.5 230.5,-19.5 283.5,-19.5 283.5,-0.5 230.5,-0.5"/>
<text text-anchor="middle" x="257" y="-7.5" font-family="Helvetica,sans-Serif" font-size="10.00">QObject</text>
</a>
</g>
</g>
<!-- Node3&#45;&gt;Node4 -->
<g id="edge3" class="edge">
<title>Node3&#45;&gt;Node4</title>
<path fill="none" stroke="midnightblue" d="M166.35,-56.32C183.67,-47.66 210.52,-34.24 230.5,-24.25"/>
<polygon fill="midnightblue" stroke="midnightblue" points="232.31,-27.26 239.69,-19.65 229.18,-21 232.31,-27.26"/>
</g>
<!-- Node5 -->
<g id="node5" class="node">
<title>Node5</title>
<g id="a_node5"><a xlink:title=" ">
<polygon fill="none" stroke="#bfbfbf" points="126,-0.5 126,-19.5 172,-19.5 172,-0.5 126,-0.5"/>
<text text-anchor="middle" x="149" y="-7.5" font-family="Helvetica,sans-Serif" font-size="10.00">atomic</text>
</a>
</g>
</g>
<!-- Node3&#45;&gt;Node5 -->
<g id="edge4" class="edge">
<title>Node3&#45;&gt;Node5</title>
<path fill="none" stroke="midnightblue" d="M149,-56.08C149,-49.01 149,-38.86 149,-29.99"/>
<polygon fill="midnightblue" stroke="midnightblue" points="152.5,-29.75 149,-19.75 145.5,-29.75 152.5,-29.75"/>
</g>
<!-- Node6&#45;&gt;Node4 -->
<g id="edge6" class="edge">
<title>Node6&#45;&gt;Node4</title>
<path fill="none" stroke="midnightblue" d="M288.73,-56.08C283.36,-48.46 275.48,-37.26 268.92,-27.94"/>
<polygon fill="midnightblue" stroke="midnightblue" points="271.78,-25.91 263.16,-19.75 266.05,-29.94 271.78,-25.91"/>
</g>
<!-- Node6&#45;&gt;Node7 -->
<g id="edge7" class="edge">
<title>Node6&#45;&gt;Node7</title>
<path fill="none" stroke="midnightblue" d="M301.27,-56.08C306.64,-48.46 314.52,-37.26 321.08,-27.94"/>
<polygon fill="midnightblue" stroke="midnightblue" points="323.95,-29.94 326.84,-19.75 318.22,-25.91 323.95,-29.94"/>
</g>
<!-- Node8&#45;&gt;Node4 -->
<g id="edge9" class="edge">
<title>Node8&#45;&gt;Node4</title>
<path fill="none" stroke="midnightblue" d="M417.74,-56.44C383.99,-46.9 329.42,-31.47 293.38,-21.28"/>
<polygon fill="midnightblue" stroke="midnightblue" points="294.31,-17.91 283.73,-18.56 292.4,-24.65 294.31,-17.91"/>
</g>
<!-- Node9 -->
<g id="node9" class="node">
<title>Node9</title>
<g id="a_node9"><a xlink:title=" ">
<polygon fill="none" stroke="#bfbfbf" points="423.5,-0.5 423.5,-19.5 472.5,-19.5 472.5,-0.5 423.5,-0.5"/>
<text text-anchor="middle" x="448" y="-7.5" font-family="Helvetica,sans-Serif" font-size="10.00">QTimer</text>
</a>
</g>
</g>
<!-- Node8&#45;&gt;Node9 -->
<g id="edge10" class="edge">
<title>Node8&#45;&gt;Node9</title>
<path fill="none" stroke="midnightblue" d="M448,-56.08C448,-49.01 448,-38.86 448,-29.99"/>
<polygon fill="midnightblue" stroke="midnightblue" points="451.5,-29.75 448,-19.75 444.5,-29.75 451.5,-29.75"/>
</g>
<!-- Node12&#45;&gt;Node4 -->
<g id="edge14" class="edge">
<title>Node12&#45;&gt;Node4</title>
<path fill="none" stroke="midnightblue" d="M84.48,-56.44C121.48,-46.7 181.79,-30.81 220.42,-20.64"/>
<polygon fill="midnightblue" stroke="midnightblue" points="221.44,-23.99 230.22,-18.05 219.66,-17.22 221.44,-23.99"/>
</g>
<!-- Node13&#45;&gt;Node8 -->
<g id="edge16" class="edge">
<title>Node13&#45;&gt;Node8</title>
<path fill="none" stroke="midnightblue" d="M479.73,-112.08C474.36,-104.46 466.48,-93.26 459.92,-83.94"/>
<polygon fill="midnightblue" stroke="midnightblue" points="462.78,-81.91 454.16,-75.75 457.05,-85.94 462.78,-81.91"/>
</g>
<!-- Node13&#45;&gt;Node10 -->
<g id="edge17" class="edge">
<title>Node13&#45;&gt;Node10</title>
<path fill="none" stroke="midnightblue" d="M467.3,-112.44C448.06,-103.64 417.85,-89.81 395.8,-79.72"/>
<polygon fill="midnightblue" stroke="midnightblue" points="397.16,-76.5 386.61,-75.52 394.25,-82.86 397.16,-76.5"/>
</g>
<!-- Node14 -->
<g id="node14" class="node">
<title>Node14</title>
<g id="a_node14"><a xlink:title=" ">
<polygon fill="none" stroke="#bfbfbf" points="502,-56.5 502,-75.5 562,-75.5 562,-56.5 502,-56.5"/>
<text text-anchor="middle" x="532" y="-63.5" font-family="Helvetica,sans-Serif" font-size="10.00">QSettings</text>
</a>
</g>
</g>
<!-- Node13&#45;&gt;Node14 -->
<g id="edge18" class="edge">
<title>Node13&#45;&gt;Node14</title>
<path fill="none" stroke="midnightblue" d="M493.6,-112.08C500.23,-104.3 510.02,-92.8 518.06,-83.37"/>
<polygon fill="midnightblue" stroke="midnightblue" points="520.73,-85.63 524.55,-75.75 515.4,-81.09 520.73,-85.63"/>
</g>
</g>
</svg>
