<?xml version="1.0" encoding="UTF-8" standalone="no"?>
<!DOCTYPE svg PUBLIC "-//W3C//DTD SVG 1.1//EN"
 "http://www.w3.org/Graphics/SVG/1.1/DTD/svg11.dtd">
<!-- Generated by graphviz version 2.46.1 (20210213.1702)
 -->
<!-- Title: preferenceprovider.h Pages: 1 -->
<svg width="400pt" height="84pt"
 viewBox="0.00 0.00 400.00 84.00" xmlns="http://www.w3.org/2000/svg" xmlns:xlink="http://www.w3.org/1999/xlink">
<g id="graph0" class="graph" transform="scale(1 1) rotate(0) translate(4 80)">
<title>preferenceprovider.h</title>
<!-- Node1 -->
<g id="node1" class="node">
<title>Node1</title>
<g id="a_node1"><a xlink:title=" ">
<polygon fill="#bfbfbf" stroke="black" points="123,-56.5 123,-75.5 227,-75.5 227,-56.5 123,-56.5"/>
<text text-anchor="middle" x="175" y="-63.5" font-family="Helvetica,sans-Serif" font-size="10.00">preferenceprovider.h</text>
</a>
</g>
</g>
<!-- Node2 -->
<g id="node2" class="node">
<title>Node2</title>
<g id="a_node2"><a xlink:href="camera_8cpp.html" target="_top" xlink:title=" ">
<polygon fill="none" stroke="black" points="0,-0.5 0,-19.5 68,-19.5 68,-0.5 0,-0.5"/>
<text text-anchor="middle" x="34" y="-7.5" font-family="Helvetica,sans-Serif" font-size="10.00">camera.cpp</text>
</a>
</g>
</g>
<!-- Node1&#45;&gt;Node2 -->
<g id="edge1" class="edge">
<title>Node1&#45;&gt;Node2</title>
<path fill="none" stroke="midnightblue" d="M143.07,-52.77C116.59,-42.63 79.61,-28.47 56.24,-19.52"/>
<polygon fill="midnightblue" stroke="midnightblue" points="142.07,-56.14 152.66,-56.44 144.57,-49.6 142.07,-56.14"/>
</g>
<!-- Node3 -->
<g id="node3" class="node">
<title>Node3</title>
<g id="a_node3"><a xlink:href="fotobox_8cpp.html" target="_top" xlink:title=" ">
<polygon fill="none" stroke="black" points="86,-0.5 86,-19.5 154,-19.5 154,-0.5 86,-0.5"/>
<text text-anchor="middle" x="120" y="-7.5" font-family="Helvetica,sans-Serif" font-size="10.00">fotobox.cpp</text>
</a>
</g>
</g>
<!-- Node1&#45;&gt;Node3 -->
<g id="edge2" class="edge">
<title>Node1&#45;&gt;Node3</title>
<path fill="none" stroke="midnightblue" d="M158.71,-49C148.96,-39.43 136.95,-27.64 128.91,-19.75"/>
<polygon fill="midnightblue" stroke="midnightblue" points="156.33,-51.57 165.92,-56.08 161.23,-46.58 156.33,-51.57"/>
</g>
<!-- Node4 -->
<g id="node4" class="node">
<title>Node4</title>
<g id="a_node4"><a xlink:href="preferenceprovider_8cpp.html" target="_top" xlink:title=" ">
<polygon fill="none" stroke="black" points="172.5,-0.5 172.5,-19.5 287.5,-19.5 287.5,-0.5 172.5,-0.5"/>
<text text-anchor="middle" x="230" y="-7.5" font-family="Helvetica,sans-Serif" font-size="10.00">preferenceprovider.cpp</text>
</a>
</g>
</g>
<!-- Node1&#45;&gt;Node4 -->
<g id="edge3" class="edge">
<title>Node1&#45;&gt;Node4</title>
<path fill="none" stroke="midnightblue" d="M191.29,-49C201.04,-39.43 213.05,-27.64 221.09,-19.75"/>
<polygon fill="midnightblue" stroke="midnightblue" points="188.77,-46.58 184.08,-56.08 193.67,-51.57 188.77,-46.58"/>
</g>
<!-- Node5 -->
<g id="node5" class="node">
<title>Node5</title>
<g id="a_node5"><a xlink:href="preferences_8cpp.html" target="_top" xlink:title=" ">
<polygon fill="none" stroke="black" points="306,-0.5 306,-19.5 392,-19.5 392,-0.5 306,-0.5"/>
<text text-anchor="middle" x="349" y="-7.5" font-family="Helvetica,sans-Serif" font-size="10.00">preferences.cpp</text>
</a>
</g>
</g>
<!-- Node1&#45;&gt;Node5 -->
<g id="edge4" class="edge">
<title>Node1&#45;&gt;Node5</title>
<path fill="none" stroke="midnightblue" d="M212.26,-53.44C245.07,-43.26 292.08,-28.66 321.56,-19.52"/>
<polygon fill="midnightblue" stroke="midnightblue" points="211.08,-50.14 202.57,-56.44 213.16,-56.82 211.08,-50.14"/>
</g>
</g>
</svg>
